<svg xmlns="http://www.w3.org/2000/svg" xmlns:xlink="http://www.w3.org/1999/xlink" xmlns:inkscape="http://www.inkscape.org/namespaces/inkscape" version="1.1" width="285.54" height="204.31" viewBox="0 0 285.54 204.31">
<defs>
<path id="font_1_47" d="M.5732422 .18359375 .58935549 .18016052 .53271487 0H.020019532V.018066407H.044921876C.072916667 .018066407 .092936199 .02718099 .10498047 .045410158 .111816409 .055826826 .115234378 .07991537 .115234378 .11767578V.5449219C.115234378 .586263 .110677089 .6121419 .1015625 .6225586 .08886719 .63688156 .06998698 .64404299 .044921876 .64404299H.020019532V.6621094H.31982423V.64404299C.28466798 .64436849 .26000978 .6411082 .24584961 .6342621 .23168946 .62742617 .2220052 .61879476 .21679688 .6083679 .21158855 .5979411 .20898438 .5730184 .20898438 .53359988V.117248538C.20898438 .09020996 .21158855 .071640018 .21679688 .061538698 .22070313 .05470276 .22672527 .0496521 .23486328 .04638672 .2430013 .04313151 .26839195 .041503908 .31103517 .041503908H.359375C.41015626 .041503908 .44580079 .045272829 .4663086 .05281067 .4868164 .06034851 .5055339 .07370504 .52246096 .09288025 .539388 .11205546 .5563151 .14229329 .5732422 .18359375Z"/>
<path id="font_1_88" d="M.42333985 .44726563V.17626953C.42333985 .12451172 .42456056 .09285482 .42700196 .08129883 .42944337 .069742839 .4333496 .0616862 .4387207 .057128908 .4440918 .052571615 .45035807 .05029297 .45751954 .05029297 .4676107 .05029297 .4790039 .053059896 .49169923 .05859375L.49853517 .041503908 .3647461-.013671875H.34277345V.08105469C.30436198 .03938802 .2750651 .013183594 .2548828 .0024414063 .23470052-.008300781 .2133789-.013671875 .19091797-.013671875 .16585286-.013671875 .14412435-.0064290368 .12573242 .008056641 .10734049 .022542319 .094563808 .041178388 .087402347 .063964847 .08024088 .086751308 .076660159 .11897787 .076660159 .16064453V.36035157C.076660159 .3815104 .07438151 .39615885 .06982422 .40429688 .06526693 .4124349 .05851237 .41870118 .049560548 .4230957 .040608724 .42749024 .024414063 .42952476 .0009765625 .42919923V.44726563H.15771485V.14868164C.15771485 .1071167 .16495769 .07983907 .17944336 .066848758 .19392903 .05385844 .21142578 .04736328 .2319336 .04736328 .24593099 .04736328 .26180015 .05174764 .27954103 .060516359 .2972819 .06928507 .31835938 .086003627 .34277345 .110672V.3634491C.34277345 .3887787 .33813478 .40590415 .32885743 .41482545 .31958009 .42375694 .30029298 .4285482 .2709961 .42919923V.44726563H.42333985Z"/>
<path id="font_1_1239" d="M.25 .45996095C.31770835 .45996095 .3720703 .43427024 .41308595 .3828888 .44791667 .33899436 .46533204 .28858949 .46533204 .2316742 .46533204 .19167583 .45572917 .15118917 .43652345 .11021423 .41731773 .06924947 .39086915 .038360597 .35717774 .017547608 .32348634-.0032653809 .28597007-.013671875 .2446289-.013671875 .1772461-.013671875 .123697917 .013158162 .083984378 .06681824 .05045573 .11201477 .033691408 .16274007 .033691408 .21899414 .033691408 .2599691 .043863935 .30069987 .064208988 .34118653 .08455404 .3816732 .111328128 .41159059 .14453125 .43093873 .17773438 .45028688 .21289063 .45996095 .25 .45996095M.23486328 .42773438C.21761067 .42773438 .20027669 .42261253 .18286133 .41236878 .16544597 .40212504 .15136719 .38416038 .140625 .35847474 .12988281 .3327891 .12451172 .29978944 .12451172 .2594757 .12451172 .19445293 .13745117 .1383667 .16333008 .09121704 .18920899 .044077558 .2233073 .020507813 .265625 .020507813 .29720054 .020507813 .3232422 .033513387 .34375 .059524537 .3642578 .08553568 .37451173 .13023885 .37451173 .19363404 .37451173 .27296958 .35742188 .33539836 .3232422 .3809204 .30013023 .41212974 .27067057 .42773438 .23486328 .42773438M.21044922 .67285159H.30029298L.3930664 .5107422H.3779297L.2446289 .6150665 .1328125 .5107422H.11816406L.21044922 .67285159M.13964844 .890625H.24853516L.30029298 .72753909H.28320313L.13964844 .890625Z"/>
<path id="font_1_81" d="M.1616211 .36523438C.21402996 .4283854 .2639974 .45996095 .31152345 .45996095 .3359375 .45996095 .3569336 .45386759 .37451173 .4416809 .39208985 .4295044 .40608726 .40944926 .4165039 .3815155 .42366538 .36203514 .4272461 .33215333 .4272461 .29187013V.101379398C.4272461 .07312012 .42952476 .053955079 .43408204 .043884279 .43766276 .0357666 .44344078 .029434205 .45141603 .024887085 .45939128 .020339966 .4741211 .018066407 .49560548 .018066407V0H.27441407V.018066407H.2836914C.30452476 .018066407 .3190918 .021224976 .32739259 .027542115 .33569337 .033859254 .34147135 .043167116 .34472657 .0554657 .34602867 .060328168 .3466797 .07555135 .3466797 .101135257V.28330995C.3466797 .3237864 .34138999 .35317485 .33081056 .37147523 .3202311 .3897756 .30240885 .39892579 .27734376 .39892579 .23860677 .39892579 .20003255 .37787376 .1616211 .33576966V.101135257C.1616211 .071014408 .16341146 .052393598 .16699219 .045272829 .17154949 .035883588 .17781575 .029001872 .18579102 .024627686 .19376628 .0202535 .20996094 .018066407 .234375 .018066407V0H.013183594V.018066407H.022949219C.045735677 .018066407 .061116537 .023829142 .0690918 .035354616 .077067058 .04689026 .08105469 .06889852 .08105469 .101379398V.2670288C.08105469 .32061769 .079833988 .35325624 .07739258 .36494447 .07495117 .37664286 .07120768 .38460288 .06616211 .38882447 .061116537 .39304606 .05436198 .39515687 .045898439 .39515687 .036783857 .39515687 .025878907 .39272056 .013183594 .3878479L.005859375 .4053955 .140625 .45996095H.1616211V.36523438Z"/>
<path id="font_1_74" d="M.1508789 .16297913C.123535159 .17630513 .10253906 .19491577 .087890628 .21881104 .07324219 .2427063 .06591797 .26912437 .06591797 .2980652 .06591797 .342275 .082600917 .38031007 .1159668 .4121704 .14933269 .44403077 .1920573 .45996095 .24414063 .45996095 .28678385 .45996095 .32373048 .44954429 .35498048 .42871095H.44970704C.46370445 .42871095 .47184245 .4283091 .4741211 .4275055 .47639976 .42670188 .47802735 .42533366 .4790039 .42340089 .48095704 .4205017 .4819336 .41534934 .4819336 .40794374 .4819336 .3995819 .48111979 .39378868 .4794922 .39056397 .47851563 .3889567 .47680665 .3876699 .47436524 .3867035 .47192384 .3857371 .46370445 .3852539 .44970704 .3852539H.39160157C.40983073 .36176554 .4189453 .3317566 .4189453 .29522706 .4189453 .253479 .40299479 .21776326 .37109376 .18807984 .33919273 .15839641 .29638673 .14355469 .24267578 .14355469 .22054036 .14355469 .19791667 .14687602 .17480469 .15351868 .16048177 .14115906 .15079753 .13034058 .14575196 .12106323 .14070638 .11179606 .1381836 .10391235 .1381836 .09741211 .1381836 .09187826 .14086914 .086507167 .14624024 .08129883 .15161133 .07610067 .16210938 .07236227 .17773438 .07008362 .18684896 .06878153 .20963542 .06764221 .24609375 .06666565 .31315104 .06504822 .35660807 .06277466 .37646485 .05984497 .40673829 .0556132 .4309082 .044387819 .4489746 .026168824 .46704103 .007960002 .47607423-.014480591 .47607423-.041152955 .47607423-.07790629 .45882163-.11238607 .4243164-.14459229 .37353517-.19207764 .30729167-.21582031 .22558594-.21582031 .16276042-.21582031 .10970052-.2016805 .06640625-.17340088 .041992189-.15714519 .029785157-.14023845 .029785157-.122680667 .029785157-.11488851 .03157552-.10709127 .03515625-.09928894 .040690107-.087254848 .052083333-.070510867 .06933594-.049057008 .071614589-.046137494 .08821615-.028584799 .119140628 .0036010743 .10221354 .013702393 .09025065 .022745768 .08325195 .030731202 .07625326 .038716634 .072753909 .04776001 .072753909 .057861329 .072753909 .0692749 .07739258 .0826416 .08666992 .097961429 .095947269 .11328125 .11735026 .13495381 .1508789 .16297913M.23583985 .43554688C.2117513 .43554688 .19156902 .42599488 .17529297 .40689088 .15901692 .38779704 .1508789 .35850016 .1508789 .31900025 .1508789 .26784263 .16194661 .22818502 .18408203 .20002747 .20100911 .17865499 .22249349 .16796875 .24853516 .16796875 .27327476 .16796875 .29361979 .17719524 .3095703 .1956482 .32552085 .21410115 .3334961 .24307759 .3334961 .2825775 .3334961 .3340505 .32226563 .37435914 .2998047 .40350343 .28320313 .42486573 .2618815 .43554688 .23583985 .43554688M.1459961-.000289917C.13069661-.016860962 .119140628-.032292684 .111328128-.046585084 .103515628-.060887655 .099609378-.0740509 .099609378-.08607483 .099609378-.10166931 .10904948-.11531576 .12792969-.12701416 .16048177-.14715576 .20751953-.15722656 .26904298-.15722656 .32763673-.15722656 .3708496-.14690654 .39868165-.12626648 .42651368-.1056366 .4404297-.083628337 .4404297-.0602417 .4404297-.043345136 .4321289-.03132121 .41552735-.024169922 .39860026-.017018637 .36507163-.012797038 .3149414-.011505127 .24169922-.009552002 .18538411-.0058135988 .1459961-.000289917Z"/>
<path id="font_1_70" d="M.4111328 .16992188C.39908854 .1110026 .37548829 .06567383 .34033204 .033935548 .30517579 .0021972657 .26627604-.013671875 .22363281-.013671875 .17285156-.013671875 .12858074 .007624308 .09082031 .050216676 .053059896 .092819217 .034179689 .15038045 .034179689 .22290039 .034179689 .2931417 .055094404 .35020957 .09692383 .394104 .13875325 .43800865 .18896485 .45996095 .2475586 .45996095 .2915039 .45996095 .32763673 .44835917 .35595704 .42515565 .38427735 .40196229 .3984375 .37787376 .3984375 .35289 .3984375 .3405609 .39444987 .33058167 .3864746 .32295228 .37849937 .31533305 .36735026 .31152345 .35302735 .31152345 .33382163 .31152345 .31933595 .31770835 .3095703 .33007813 .30403648 .33691407 .30037437 .3499349 .29858399 .36914063 .2967936 .38834635 .2902018 .40299479 .2788086 .41308595 .26741538 .42285157 .2516276 .42773438 .23144531 .42773438 .19889324 .42773438 .1726888 .4156901 .15283203 .39160157 .12646485 .35970054 .11328125 .31754557 .11328125 .26513673 .11328125 .2117513 .12638347 .16463216 .15258789 .1237793 .17879232 .08292643 .2141927 .0625 .25878907 .0625 .2906901 .0625 .31933595 .073404949 .34472657 .095214847 .36263023 .110188808 .38004557 .1373698 .39697267 .17675781L.4111328 .16992188Z"/>
<path id="font_1_75" d="M.16259766 .69433596V.36669923C.19873047 .40641276 .2273763 .43188478 .24853516 .44311524 .269694 .4543457 .29085288 .45996095 .31201173 .45996095 .33740235 .45996095 .35921226 .4529775 .3774414 .43901063 .39567057 .42504374 .4091797 .40312196 .41796876 .37324525 .42415367 .3524526 .4272461 .31444804 .4272461 .25923158V.101379398C.4272461 .07312012 .42952476 .053792318 .43408204 .043395997 .43733726 .03560384 .4428711 .029434205 .4506836 .024887085 .4584961 .020339966 .472819 .018066407 .49365235 .018066407V0H.27392579V.018066407H.2841797C.30501304 .018066407 .3194987 .021240235 .32763673 .02758789 .33577476 .033935548 .34147135 .04329427 .34472657 .055664064 .34570313 .060872396 .3461914 .076171878 .3461914 .1015625V.25976563C.3461914 .30859376 .3436686 .34065757 .33862306 .35595704 .33357749 .3712565 .32552085 .3827311 .31445313 .39038087 .3033854 .3980306 .29003907 .40185548 .27441407 .40185548 .25846354 .40185548 .24186199 .3976237 .22460938 .38916017 .20735677 .38069663 .1866862 .36360679 .16259766 .33789063V.1015625C.16259766 .07096354 .16430664 .051920576 .16772461 .044433595 .17114258 .036946615 .17749024 .030680338 .18676758 .025634766 .19604492 .020589194 .21207683 .018066407 .23486328 .018066407V0H.013183594V.018066407C.033040365 .018066407 .048665365 .021158854 .060058595 .02734375 .06656901 .030588786 .071777347 .036763509 .075683597 .04586792 .079589847 .054982503 .08154297 .073527019 .08154297 .101501468V.5059967C.08154297 .5570628 .080322269 .58845016 .07788086 .6001587 .07543945 .61187747 .07169596 .6198476 .06665039 .6240692 .061604818 .62830099 .05485026 .63041689 .04638672 .63041689 .03955078 .63041689 .028483073 .6278127 .013183594 .62260439L.0063476564 .6396942 .14013672 .69433596H.16259766Z"/>
<path id="font_1_116" d="M.1850586 .45996095V.101379398C.1850586 .07344564 .18717449 .05485026 .19140625 .04559326 .19563802 .03633626 .20174153 .029434205 .2097168 .024887085 .21769206 .020339966 .23225911 .018066407 .25341798 .018066407V0H.036132814V.018066407C.057942708 .018066407 .07259115 .020177206 .080078128 .024398804 .0875651 .028620402 .09350586 .03560384 .09790039 .04534912 .10229492 .055094404 .10449219 .07377116 .10449219 .101379398V.2733612C.10449219 .32176209 .103027347 .35310365 .100097659 .36738587 .09781901 .3777822 .09423828 .38500978 .08935547 .3890686 .084472659 .39312745 .07779948 .39515687 .06933594 .39515687 .060221357 .39515687 .049153646 .39272056 .036132814 .3878479L.029296875 .4053955 .1640625 .45996095H.1850586M.24316406 .6796875 .099121097 .5107422H.08251953L.13378906 .6796875H.24316406Z"/>
<path id="font_1_11" d="M.31054688-.19580078V-.21386719C.26139323-.18912761 .22037761-.16015625 .1875-.12695313 .140625-.0797526 .10449219-.024088541 .07910156 .040039064 .053710939 .104166667 .041015626 .17073567 .041015626 .2397461 .041015626 .34065757 .06591797 .43269859 .115722659 .51586917 .16552735 .59903976 .23046875 .6585286 .31054688 .69433596V.6738281C.2705078 .6516927 .2376302 .62141928 .21191406 .5830078 .18619792 .5445964 .16699219 .495931 .15429688 .43701173 .14160156 .37809245 .1352539 .316569 .1352539 .2524414 .1352539 .18277996 .140625 .11946615 .15136719 .0625 .15983074 .017578125 .17008464-.018473307 .1821289-.045654298 .19417317-.07283529 .21036785-.098958339 .23071289-.12402344 .25105796-.14908855 .27766929-.17301433 .31054688-.19580078Z"/>
<path id="font_1_56" d="M.47705079 .64404299V.6621094H.7114258V.64404299H.68652346C.66048178 .64404299 .6404622 .63315328 .62646487 .6113739 .6196289 .6013031 .61621096 .5779012 .61621096 .5411682V.27301026C.61621096 .20670574 .60961917 .15526836 .59643557 .11869812 .58325198 .08212789 .55737307 .050760908 .5187988 .024597168 .4802246-.001566569 .42773438-.0146484379 .36132813-.0146484379 .2890625-.0146484379 .23421224-.0021362305 .19677735 .022888184 .15934246 .04792277 .1328125 .0815684 .1171875 .12382507 .106770839 .15274556 .1015625 .20702617 .1015625 .28666688V.54507449C.1015625 .58570358 .095947269 .61235556 .0847168 .6250305 .07348633 .6377055 .055338544 .64404299 .030273438 .64404299H.0053710939V.6621094H.2915039V.64404299H.26611329C.23876953 .64404299 .21923828 .63542178 .20751953 .6181793 .19938152 .60647079 .1953125 .582077 .1953125 .54499819V.25665284C.1953125 .23095703 .19767253 .20151775 .20239258 .16833496 .20711263 .13516236 .21565755 .109303798 .22802735 .09075928 .24039714 .07222494 .2582194 .056940717 .28149415 .044906618 .3047689 .032872518 .33333335 .026855469 .3671875 .026855469 .41048179 .026855469 .44921876 .0362854 .48339845 .055145265 .5175781 .0740153 .54093429 .09816488 .5534668 .127594 .5659993 .15703328 .5722656 .20688375 .5722656 .2771454V.54499819C.5722656 .5863088 .5677083 .61216738 .55859377 .62257388 .54589846 .6368866 .52701827 .64404299 .5019531 .64404299H.47705079Z"/>
<path id="font_1_44" d="M.30859376 .018066407V0H.024902344V.018066407H.048339845C.075683597 .018066407 .09554037 .026041666 .107910159 .041992189 .115722659 .052408857 .119628909 .07747396 .119628909 .1171875V.5449219C.119628909 .5784505 .11751302 .60058596 .11328125 .6113281 .11002604 .6194661 .10335287 .62646487 .09326172 .6323242 .078938808 .6401367 .063964847 .64404299 .048339845 .64404299H.024902344V.6621094H.30859376V.64404299H.28466798C.25764976 .64404299 .23795574 .6360677 .22558594 .6201172 .21744792 .6097005 .2133789 .58463546 .2133789 .5449219V.1171875C.2133789 .08365885 .2154948 .061523439 .21972656 .05078125 .22298177 .04264323 .2298177 .03564453 .24023438 .029785157 .25423179 .021972657 .26904298 .018066407 .28466798 .018066407H.30859376Z"/>
<path id="font_1_12" d="M.022460938 .6738281V.69433596C.0719401 .6699219 .11311849 .6411133 .1459961 .60791018 .19254558 .5603841 .22851563 .5046387 .25390626 .44067384 .27929688 .37670899 .2919922 .3100586 .2919922 .24072266 .2919922 .1398112 .26717124 .047770185 .2175293-.03540039 .16788738-.11857096 .102864589-.17805989 .022460938-.21386719V-.19580078C.0625-.17333985 .095458988-.14298503 .12133789-.10473633 .1472168-.06648763 .16642253-.017822266 .17895508 .041259767 .19148763 .1003418 .1977539 .16194661 .1977539 .22607422 .1977539 .29541017 .19238281 .35872398 .18164063 .41601563 .17350261 .4609375 .16333008 .49690757 .15112305 .5239258 .13891602 .55094406 .12272135 .57698568 .10253906 .6020508 .08235677 .6271159 .055664064 .6510417 .022460938 .6738281Z"/>
<path id="font_1_55" d="M.5786133 .6621094 .5859375 .50683596H.5673828C.56380209 .5341797 .55891928 .55371096 .5527344 .5654297 .54264327 .5843099 .5292155 .5982259 .5124512 .60717776 .49568687 .6161296 .4736328 .62060549 .44628907 .62060549H.35302735V.114746097C.35302735 .07405599 .35742188 .048665365 .36621095 .03857422 .37858073 .024902344 .3976237 .018066407 .42333985 .018066407H.44628907V0H.16552735V.018066407H.18896485C.21695964 .018066407 .2368164 .026529948 .24853516 .04345703 .25569663 .0538737 .25927735 .07763672 .25927735 .114746097V.62060549H.1796875C.14876302 .62060549 .12679036 .61832687 .11376953 .61376956 .096842449 .60758468 .08235677 .5957031 .0703125 .578125 .05826823 .5605469 .05110677 .5367839 .048828126 .50683596H.030273438L.038085939 .6621094H.5786133Z"/>
<path id="font_1_78" d="M.16357422 .69433596V.24951172L.27734376 .35302735C.30143229 .37516276 .3154297 .38916017 .31933595 .39501954 .3219401 .39892579 .3232422 .40283204 .3232422 .40673829 .3232422 .4132487 .32055665 .41886393 .31518556 .42358399 .30981446 .42830406 .300944 .4309896 .28857423 .43164063V.44726563H.48291017V.43164063C.45621745 .4309896 .43400065 .42692057 .41625978 .4194336 .3985189 .41194663 .379069 .39860026 .35791017 .37939454L.24316406 .2734375 .35791017 .12869263C.3898112 .08873495 .41129557 .06339518 .42236329 .05267334 .43798829 .037404378 .45166017 .027491251 .4633789 .02293396 .47151695 .019688925 .4856771 .018066407 .5058594 .018066407V0H.28857423V.018066407C.300944 .018391928 .30932618 .020258585 .3137207 .023666382 .31811524 .02708435 .3203125 .03187561 .3203125 .03804016 .3203125 .045516969 .3138021 .05753581 .30078126 .07409668L.16357422 .24902344V.10090637C.16357422 .071996059 .16560872 .05298869 .16967774 .043884279 .17374675 .03479004 .17952474 .028294882 .18701172 .024398804 .1944987 .020502726 .21077474 .018391928 .23583985 .018066407V0H.008300781V.018066407C.03108724 .018066407 .048177083 .020833334 .059570314 .026367188 .06640625 .029937745 .071614589 .03546651 .07519531 .04295349 .080078128 .053685506 .08251953 .07222494 .08251953 .09857178V.5055084C.08251953 .5572255 .08138021 .588857 .07910156 .60040286 .076822917 .6119588 .07307943 .619929 .067871097 .62431338 .06266276 .6287079 .055826826 .63090518 .04736328 .63090518 .040527345 .63090518 .030273438 .62813827 .016601563 .62260439L.008300781 .6396942 .14111328 .69433596H.16357422Z"/>
<path id="font_1_76" d="M.14501953 .69433596C.1586914 .69433596 .17032878 .6895091 .17993164 .67985537 .1895345 .6702118 .19433594 .6585185 .19433594 .6447754 .19433594 .6310323 .1895345 .6192525 .17993164 .60943606 .17032878 .5996297 .1586914 .59472659 .14501953 .59472659 .13134766 .59472659 .119628909 .5996297 .10986328 .60943606 .100097659 .6192525 .095214847 .6310323 .095214847 .6447754 .095214847 .6585185 .10001627 .6702118 .10961914 .67985537 .11922201 .6895091 .13102214 .69433596 .14501953 .69433596M.18554688 .45996095V.101379398C.18554688 .07344564 .18758138 .05485026 .19165039 .04559326 .1957194 .03633626 .20174153 .029434205 .2097168 .024887085 .21769206 .020339966 .23225911 .018066407 .25341798 .018066407V0H.036132814V.018066407C.057942708 .018066407 .07259115 .020177206 .080078128 .024398804 .0875651 .028620402 .09350586 .03560384 .09790039 .04534912 .10229492 .055094404 .10449219 .07377116 .10449219 .101379398V.2733612C.10449219 .32176209 .103027347 .35310365 .100097659 .36738587 .09781901 .3777822 .09423828 .38500978 .08935547 .3890686 .084472659 .39312745 .07779948 .39515687 .06933594 .39515687 .060221357 .39515687 .049153646 .39272056 .036132814 .3878479L.029296875 .4053955 .1640625 .45996095H.18554688Z"/>
<path id="font_1_87" d="M.16113281 .59472659V.44726563H.265625V.41308595H.16113281V.1234436C.16113281 .09450277 .1652832 .07499186 .17358399 .06491089 .18188477 .054840089 .19254558 .049804689 .2055664 .049804689 .2163086 .049804689 .22672527 .053141279 .2368164 .059814454 .24690755 .06648763 .25472007 .07633463 .2602539 .08935547H.27929688C.26790367 .057362874 .25179038 .033167524 .23095703 .01676941 .2101237 .00038146974 .18863933-.0078125 .1665039-.0078125 .15152996-.0078125 .13688152-.0036570233 .122558597 .0046539308 .10823568 .012964885 .09765625 .024856568 .09082031 .04032898 .083984378 .055811567 .080566409 .079686488 .080566409 .111953739V.41308595H.009765625V.42919923C.027669272 .436381 .045979818 .44854228 .064697269 .46568299 .08341471 .4828237 .100097659 .5031484 .114746097 .5266571 .12223307 .53905746 .13264974 .56174728 .1459961 .59472659H.16113281Z"/>
<path id="font_1_72" d="M.10644531 .2783203C.10611979 .21206665 .12223307 .1601003 .15478516 .122421268 .18733724 .0847524 .22558594 .06591797 .26953126 .06591797 .29882813 .06591797 .32430015 .07397461 .34594728 .09008789 .3675944 .10620117 .3857422 .13378906 .40039063 .17285156L.41552735 .16308594C.4086914 .118489589 .38883464 .07788086 .35595704 .041259767 .32307945 .004638672 .28190104-.013671875 .23242188-.013671875 .17871094-.013671875 .13273113 .007197062 .09448242 .048934938 .056233724 .09068298 .037109376 .14680481 .037109376 .21730042 .037109376 .29363505 .056722005 .35315959 .095947269 .39587403 .13517253 .43859864 .18440755 .45996095 .24365235 .45996095 .29378257 .45996095 .33496095 .44348146 .3671875 .41052247 .39941407 .37757365 .41552735 .33350627 .41552735 .2783203H.10644531M.10644531 .30664063H.31347657C.31184898 .33528648 .308431 .35546876 .30322267 .3671875 .29508464 .38541667 .28295899 .3997396 .2668457 .41015626 .25073243 .4205729 .23388672 .42578126 .2163086 .42578126 .18929036 .42578126 .16512044 .4152832 .14379883 .3942871 .12247721 .37329103 .11002604 .34407554 .10644531 .30664063Z"/>
<path id="font_1_85" d="M.16210938 .45996095V.359375C.19954427 .42643229 .23795574 .45996095 .27734376 .45996095 .2952474 .45996095 .3100586 .45450846 .32177735 .44360353 .3334961 .43269859 .33935548 .42008464 .33935548 .40576173 .33935548 .3930664 .3351237 .38232423 .32666017 .37353517 .31819663 .3647461 .30810548 .36035157 .29638673 .36035157 .2849935 .36035157 .2722168 .3659668 .25805665 .37719728 .24389649 .38842774 .23339844 .39404298 .2265625 .39404298 .22070313 .39404298 .21435547 .39079795 .20751953 .38430787 .1928711 .37099204 .17773438 .34907533 .16210938 .31855775V.10475159C.16210938 .080083217 .16520183 .061416627 .17138672 .04875183 .17561849 .039983114 .18310547 .032674154 .19384766 .026824952 .20458985 .020985922 .22005208 .018066407 .24023438 .018066407V0H.011230469V.018066407C.034016927 .018066407 .05094401 .021636963 .06201172 .028778077 .07014974 .03397624 .07584635 .04226176 .07910156 .053634645 .080729167 .059158327 .08154297 .074910487 .08154297 .10089111V.2738495C.08154297 .32582093 .08048502 .35675559 .07836914 .36665345 .07625326 .3765615 .07234701 .38378907 .06665039 .38833619 .060953779 .3928833 .0538737 .39515687 .045410158 .39515687 .03531901 .39515687 .023925782 .39272056 .011230469 .3878479L.0063476564 .4053955 .14160156 .45996095H.16210938Z"/>
<path id="font_1_80" d="M.1640625 .3647461C.19661458 .3972982 .21582031 .41601563 .22167969 .42089845 .23632813 .43326823 .25211589 .4428711 .26904298 .44970704 .28597007 .45654298 .30273438 .45996095 .31933595 .45996095 .34733073 .45996095 .37141929 .4518229 .39160157 .43554688 .41178385 .41927085 .42529298 .39567057 .4321289 .3647461 .46565757 .4038086 .49397788 .42944337 .51708987 .4416504 .54020187 .45385743 .56396487 .45996095 .5883789 .45996095 .6121419 .45996095 .6332194 .45386759 .6516113 .4416809 .67000326 .4295044 .6845703 .40961204 .6953125 .38200379 .70247396 .36316429 .7060547 .333608 .7060547 .29333497V.101379398C.7060547 .07344564 .7081706 .054280599 .71240237 .043884279 .71565756 .036743165 .7216797 .030654908 .73046877 .025619507 .7392578 .020584107 .75358077 .018066407 .7734375 .018066407V0H.5527344V.018066407H.5620117C.58121749 .018066407 .5961914 .02178955 .6069336 .02923584 .6144206 .034423829 .6197917 .042683919 .6230469 .054016115 .62434896 .05951945 .625 .07522583 .625 .101135257V.2925415C.625 .32881675 .62060549 .35440064 .6118164 .3692932 .5991211 .3900248 .57877609 .40039063 .55078127 .40039063 .5335286 .40039063 .51619467 .3960978 .4987793 .3875122 .48136393 .37893678 .46028648 .36298625 .43554688 .33966065L.4345703 .33432008 .43554688 .3134308V.101135257C.43554688 .07068888 .43725587 .051742555 .44067384 .044296266 .4440918 .036849977 .45052085 .030614218 .45996095 .02558899 .46940104 .020573935 .4855143 .018066407 .5083008 .018066407V0H.28222657V.018066407C.30696617 .018066407 .3239746 .020980835 .33325196 .026809693 .3425293 .03263855 .34895835 .041381837 .35253907 .05303955 .35416667 .05855306 .35498048 .07458496 .35498048 .101135257V.2925415C.35498048 .32881675 .34960938 .35488893 .3388672 .37075807 .32454429 .39148966 .30452476 .40185548 .2788086 .40185548 .26123048 .40185548 .24381511 .39716087 .2265625 .3877716 .19954427 .3735199 .17871094 .357488 .1640625 .3396759V.101135257C.1640625 .07199097 .166097 .053044637 .17016602 .044296266 .17423503 .035558065 .18025716 .029001872 .18823242 .024627686 .19620769 .0202535 .21240235 .018066407 .2368164 .018066407V0H.015625V.018066407C.036132814 .018066407 .05045573 .020258585 .05859375 .024642945 .06673177 .029027304 .072916667 .036010744 .07714844 .04559326 .08138021 .05517578 .083496097 .07377116 .083496097 .101379398V.27189637C.083496097 .32094828 .08203125 .35261537 .07910156 .36689759 .076822917 .37761943 .07324219 .38500978 .068359378 .3890686 .06347656 .39312745 .056803388 .39515687 .048339845 .39515687 .03922526 .39515687 .028320313 .39272056 .015625 .3878479L.008300781 .4053955 .1430664 .45996095H.1640625V.3647461Z"/>
<path id="font_1_68" d="M.28466798 .064453128C.23876953 .028971354 .20996094 .008463542 .19824219 .0029296876 .18066406-.005533854 .16194661-.009765625 .14208985-.009765625 .11116537-.009765625 .08569336 .00081380209 .06567383 .021972657 .045654298 .04313151 .03564453 .07096354 .03564453 .10546875 .03564453 .12727864 .040527345 .14615886 .05029297 .16210938 .06363932 .1842448 .08683268 .20507813 .11987305 .22460938 .1529134 .24414063 .20784505 .26790367 .28466798 .29589845V.31347657C.28466798 .3580729 .2775879 .38867188 .26342774 .40527345 .24926758 .421875 .22867839 .43017579 .20166016 .43017579 .18115235 .43017579 .1648763 .42466227 .15283203 .41363526 .14046224 .40260826 .13427735 .3899587 .13427735 .37568666L.1352539 .34747315C.1352539 .3325602 .13142903 .32105003 .1237793 .3129425 .116129558 .304835 .10611979 .30078126 .09375 .30078126 .08170573 .30078126 .07185873 .30499778 .064208988 .3134308 .056559247 .321874 .052734376 .33339945 .052734376 .3480072 .052734376 .37591044 .06705729 .4015452 .095703128 .4249115 .12434896 .4482778 .16455078 .45996095 .2163086 .45996095 .25602214 .45996095 .28857423 .45329795 .31396485 .43997193 .33317057 .42989097 .34733073 .41411845 .3564453 .39265443 .3623047 .37867738 .36523438 .35006715 .36523438 .30682374V.15515137C.36523438 .112559 .3660482 .08646647 .36767579 .07687378 .36930339 .06728109 .37198893 .060857137 .37573243 .05760193 .37947593 .05435689 .38378907 .052734376 .38867188 .052734376 .39388023 .052734376 .3984375 .0538737 .40234376 .056152345 .4091797 .060384115 .42236329 .072265628 .44189454 .091796878V.064453128C.4054362 .015625 .37060548-.0087890629 .33740235-.0087890629 .3214518-.0087890629 .3087565-.0032552083 .2993164 .0078125 .2898763 .018880209 .2849935 .037760419 .28466798 .064453128M.28466798 .096466068V.26611329C.23551433 .24667359 .20377605 .23289998 .18945313 .22479248 .16373699 .2105306 .14534505 .19562276 .13427735 .18006897 .12320963 .16451518 .11767578 .14750164 .11767578 .12902832 .11767578 .10569254 .12467448 .08632914 .13867188 .07093811 .15266927 .055547079 .16878255 .047851564 .18701172 .047851564 .2117513 .047851564 .24430339 .0640564 .28466798 .096466068Z"/>
<path id="font_1_79" d="M.1850586 .69433596V.101501468C.1850586 .073527019 .1870931 .054982503 .19116211 .04586792 .19523113 .036763509 .20149739 .029851279 .20996094 .025131226 .21842449 .020421347 .23421224 .018066407 .25732423 .018066407V0H.038085939V.018066407C.05859375 .018066407 .07259115 .020177206 .080078128 .024398804 .0875651 .028630576 .09342448 .035624189 .09765625 .04537964 .10188802 .055145265 .104003909 .07385254 .104003909 .101501468V.50746157C.104003909 .5578766 .102864589 .588857 .10058594 .60040286 .09830729 .6119588 .09464518 .6198476 .08959961 .6240692 .08455404 .62830099 .078125 .63041689 .0703125 .63041689 .061848958 .63041689 .05110677 .6278127 .038085939 .62260439L.029785157 .6396942 .16308594 .69433596H.1850586Z"/>
<path id="font_1_82" d="M.25 .45996095C.31770835 .45996095 .3720703 .43427024 .41308595 .3828888 .44791667 .33899436 .46533204 .28858949 .46533204 .2316742 .46533204 .19167583 .45572917 .15118917 .43652345 .11021423 .41731773 .06924947 .39086915 .038360597 .35717774 .017547608 .32348634-.0032653809 .28597007-.013671875 .2446289-.013671875 .1772461-.013671875 .123697917 .013158162 .083984378 .06681824 .05045573 .11201477 .033691408 .16274007 .033691408 .21899414 .033691408 .2599691 .043863935 .30069987 .064208988 .34118653 .08455404 .3816732 .111328128 .41159059 .14453125 .43093873 .17773438 .45028688 .21289063 .45996095 .25 .45996095M.23486328 .42773438C.21761067 .42773438 .20027669 .42261253 .18286133 .41236878 .16544597 .40212504 .15136719 .38416038 .140625 .35847474 .12988281 .3327891 .12451172 .29978944 .12451172 .2594757 .12451172 .19445293 .13745117 .1383667 .16333008 .09121704 .18920899 .044077558 .2233073 .020507813 .265625 .020507813 .29720054 .020507813 .3232422 .033513387 .34375 .059524537 .3642578 .08553568 .37451173 .13023885 .37451173 .19363404 .37451173 .27296958 .35742188 .33539836 .3232422 .3809204 .30013023 .41212974 .27067057 .42773438 .23486328 .42773438Z"/>
<path id="font_1_83" d="M-.0009765625 .40327455 .13671875 .45898438H.15527344V.3544922C.17838542 .39388023 .20157878 .42130534 .22485352 .43676759 .24812825 .45222984 .2726237 .45996095 .29833985 .45996095 .34326173 .45996095 .38069663 .44240318 .41064454 .4072876 .44742839 .36435954 .4658203 .3084259 .4658203 .2394867 .4658203 .16241963 .4436849 .09868368 .39941407 .04827881 .36295573 .006978353 .31705729-.013671875 .26171876-.013671875 .2376302-.013671875 .21679688-.010253906 .19921875-.0034179688 .18619792 .0014648438 .17154949 .011230469 .15527344 .025878907V-.11035156C.15527344-.14095052 .15714519-.16040039 .16088867-.16870117 .16463216-.17700196 .17114258-.18359375 .18041992-.18847656 .18969727-.19335938 .20654297-.19580078 .23095703-.19580078V-.21386719H-.0034179688V-.19580078H.0087890629C.026692709-.1961263 .041992189-.19270325 .0546875-.18553162 .060872396-.18195088 .06567383-.1761678 .0690918-.16818238 .072509769-.16020711 .07421875-.13993328 .07421875-.10736084V.31581117C.07421875 .34480287 .072916667 .36320497 .0703125 .37101747 .067708339 .37884013 .063557948 .3847046 .057861329 .38861085 .052164716 .39252726 .044433595 .39448548 .03466797 .39448548 .026855469 .39448548 .016927084 .39220683 .0048828127 .38764955L-.0009765625 .40327455M.15527344 .32479859V.15802002C.15527344 .121927898 .15673828 .0981954 .15966797 .08682251 .16422527 .06796265 .17537435 .051381429 .19311524 .037078859 .21085613 .022776286 .23323567 .015625 .2602539 .015625 .292806 .015625 .3191732 .028305054 .33935548 .05366516 .36572267 .08681742 .37890626 .13346863 .37890626 .19361878 .37890626 .2618866 .36393229 .314387 .33398438 .35112 .31315104 .3764801 .28841148 .38916017 .25976563 .38916017 .24414063 .38916017 .22867839 .385259 .2133789 .37745667 .20166016 .37160746 .18229167 .35405479 .15527344 .32479859Z"/>
<path id="font_1_1243" d="M.25 .45996095C.31770835 .45996095 .3720703 .43427024 .41308595 .3828888 .44791667 .33899436 .46533204 .28858949 .46533204 .2316742 .46533204 .19167583 .45572917 .15118917 .43652345 .11021423 .41731773 .06924947 .39086915 .038360597 .35717774 .017547608 .32348634-.0032653809 .28597007-.013671875 .2446289-.013671875 .1772461-.013671875 .123697917 .013158162 .083984378 .06681824 .05045573 .11201477 .033691408 .16274007 .033691408 .21899414 .033691408 .2599691 .043863935 .30069987 .064208988 .34118653 .08455404 .3816732 .111328128 .41159059 .14453125 .43093873 .17773438 .45028688 .21289063 .45996095 .25 .45996095M.23486328 .42773438C.21761067 .42773438 .20027669 .42261253 .18286133 .41236878 .16544597 .40212504 .15136719 .38416038 .140625 .35847474 .12988281 .3327891 .12451172 .29978944 .12451172 .2594757 .12451172 .19445293 .13745117 .1383667 .16333008 .09121704 .18920899 .044077558 .2233073 .020507813 .265625 .020507813 .29720054 .020507813 .3232422 .033513387 .34375 .059524537 .3642578 .08553568 .37451173 .13023885 .37451173 .19363404 .37451173 .27296958 .35742188 .33539836 .3232422 .3809204 .30013023 .41212974 .27067057 .42773438 .23486328 .42773438M.21044922 .67285159H.30029298L.3930664 .5107422H.3779297L.2446289 .6150665 .1328125 .5107422H.11816406L.21044922 .67285159M.11816406 .7285156H.10253906C.10481771 .8125 .13541667 .8544922 .19433594 .8544922 .2076823 .8544922 .21988933 .85239157 .23095703 .8481903 .23714192 .845932 .2578125 .83429977 .29296876 .81329348 .32291667 .7958374 .3429362 .7871094 .35302735 .7871094 .37646485 .7871094 .3919271 .8095703 .39941407 .8544922H.41455079C.4152018 .8000081 .39941407 .76239016 .3671875 .7416382 .35221354 .7315877 .3370768 .7265625 .32177735 .7265625 .2960612 .7265625 .26416017 .73949179 .22607422 .76535037 .19710286 .7850647 .17626953 .7949219 .16357422 .7949219 .15022786 .7949219 .13964844 .7891032 .13183594 .7774658 .1282552 .77197268 .123697917 .75565597 .11816406 .7285156Z"/>
<path id="font_1_24" d="M.43408204 .6621094 .3959961 .578125H.19677735L.15332031 .49023438C.23958333 .47753907 .30794273 .44547526 .35839845 .39404298 .40169273 .34977214 .42333985 .2976888 .42333985 .23779297 .42333985 .20296224 .41625978 .17073567 .4020996 .14111328 .38793946 .11149088 .3701172 .08626302 .3486328 .06542969 .32714845 .044596357 .30322267 .027832032 .27685548 .015136719 .23942058-.002766927 .20100911-.01171875 .1616211-.01171875 .121907558-.01171875 .09301758-.004964193 .07495117 .008544922 .056884767 .022054038 .047851564 .036946615 .047851564 .053222658 .047851564 .06233724 .05159505 .07039388 .05908203 .07739258 .06656901 .08439127 .07600912 .087890628 .087402347 .087890628 .09586588 .087890628 .103271488 .08658854 .10961914 .083984378 .1159668 .08138021 .12679036 .07470703 .14208985 .063964847 .1665039 .04703776 .19124349 .03857422 .2163086 .03857422 .25439454 .03857422 .2878418 .052978517 .3166504 .08178711 .34545899 .1105957 .35986329 .14567058 .35986329 .18701172 .35986329 .22705078 .34700523 .2644043 .32128907 .29907228 .2955729 .33374024 .26009117 .3605143 .21484375 .37939454 .17936199 .39404298 .13102214 .4025065 .06982422 .40478517L.19677735 .6621094H.43408204Z"/>
<path id="font_1_19" d="M.036132814 .32714845C.036132814 .40266929 .047526044 .46769206 .0703125 .5222168 .09309896 .5767415 .1233724 .6173503 .16113281 .64404299 .19042969 .66520187 .22070313 .67578127 .25195313 .67578127 .30273438 .67578127 .34830729 .64990237 .38867188 .59814456 .4391276 .5340169 .46435548 .44710288 .46435548 .33740235 .46435548 .26057945 .45328776 .1953125 .43115235 .14160156 .40901695 .087890628 .38077799 .048909505 .34643556 .024658204 .3120931 .00040690104 .27897135-.01171875 .24707031-.01171875 .18391927-.01171875 .13134766 .025553385 .08935547 .100097659 .0538737 .16292317 .036132814 .23860677 .036132814 .32714845M.13183594 .314682C.13183594 .22346497 .1430664 .14902751 .16552735 .09136963 .18408203 .042826337 .2117513 .018554688 .24853516 .018554688 .26611329 .018554688 .28434245 .026453654 .30322267 .042251588 .32210288 .05804952 .33642579 .08451843 .3461914 .121658328 .36116538 .17769878 .36865235 .2566986 .36865235 .35865785 .36865235 .43423973 .36083985 .49727885 .34521485 .54777529 .3334961 .58524069 .31835938 .61179098 .2998047 .62742617 .28645835 .6381785 .27034507 .6435547 .25146485 .6435547 .22932942 .6435547 .20963542 .63361617 .19238281 .613739 .16894531 .58670046 .1529948 .5441844 .14453125 .4861908 .1360677 .4282074 .13183594 .3710378 .13183594 .314682Z"/>
<path id="font_1_86" d="M.3203125 .45996095V.30859376H.30419923C.29182945 .35606895 .2759603 .3883616 .2565918 .4054718 .23722331 .42259217 .21256511 .43115235 .18261719 .43115235 .15983074 .43115235 .1414388 .42513529 .1274414 .4131012 .11344401 .40107728 .10644531 .38774619 .10644531 .3731079 .10644531 .35489909 .11165365 .33929444 .12207031 .32629396 .13216146 .31295777 .15266927 .29881288 .18359375 .28385926L.2548828 .2492218C.32096354 .21703594 .3540039 .17460124 .3540039 .121917728 .3540039 .08127848 .33862306 .048517866 .30786134 .023635865 .2770996-.0012359619 .24267578-.013671875 .20458985-.013671875 .1772461-.013671875 .1459961-.0087890629 .110839847 .0009765625 .100097659 .004231771 .091308597 .005859375 .084472659 .005859375 .07698568 .005859375 .071126308 .0016276041 .06689453-.0068359377H.05078125V.15332031H.06689453C.07600912 .10758463 .09342448 .07312012 .119140628 .049926759 .14485677 .026733399 .17366536 .015136719 .2055664 .015136719 .22802735 .015136719 .24633789 .021718344 .26049806 .03488159 .2746582 .04805501 .28173829 .0639089 .28173829 .08244324 .28173829 .10488383 .2738444 .12374369 .25805665 .13902283 .24226888 .15430196 .21077474 .17364502 .16357422 .197052 .116373699 .22046916 .08544922 .24160767 .07080078 .26046754 .056152345 .27900187 .048828126 .30241395 .048828126 .33070375 .048828126 .3674469 .06144206 .398173 .08666992 .42288209 .11189779 .44760133 .14453125 .45996095 .18457031 .45996095 .20214844 .45996095 .22347005 .45621745 .24853516 .44873048 .26513673 .44384767 .27620445 .44140626 .28173829 .44140626 .28694663 .44140626 .29101563 .44254557 .2939453 .44482423 .296875 .44710288 .30029298 .45214845 .30419923 .45996095H.3203125Z"/>
<path id="font_1_38" d="M.6020508 .6767578 .6171875 .45214845H.6020508C.58186849 .51970419 .5530599 .56832888 .515625 .59802249 .4781901 .62772628 .43326823 .6425781 .38085938 .6425781 .33691407 .6425781 .29720054 .6314189 .26171876 .60910037 .22623699 .586792 .19832357 .5512034 .17797852 .5023346 .15763347 .4534658 .14746094 .3927053 .14746094 .3200531 .14746094 .26011659 .1570638 .20815532 .17626953 .16416931 .19547527 .12019348 .22436524 .08647665 .26293946 .0630188 .30151368 .039560956 .34554038 .027832032 .39501954 .027832032 .43798829 .027832032 .47591148 .037027997 .50878909 .055419923 .5416667 .07381185 .5777995 .11035156 .6171875 .16503906L.6323242 .15530396C.5991211 .09653727 .5603841 .05351766 .5161133 .026245118 .47184245-.0010172526 .41927085-.0146484379 .35839845-.0146484379 .24869792-.0146484379 .16373699 .025985718 .103515628 .10725403 .05859375 .16770935 .036132814 .23889669 .036132814 .32081605 .036132814 .3868052 .05094401 .44742839 .080566409 .50268557 .110188808 .5579427 .15096028 .60076907 .20288086 .63116458 .25480143 .66156008 .31152345 .6767578 .37304688 .6767578 .42089845 .6767578 .46809898 .66503909 .51464846 .64160159 .5283203 .6344401 .53808596 .6308594 .5439453 .6308594 .5527344 .6308594 .5603841 .63395187 .56689456 .6401367 .5753581 .6489258 .5813802 .6611328 .58496096 .6767578H.6020508Z"/>
<path id="font_1_89" d="M.008300781 .44726563H.21875V.42919923H.20507813C.19238281 .42919923 .18269857 .42610679 .17602539 .41992188 .16935222 .41373698 .16601563 .4054362 .16601563 .39501954 .16601563 .3836263 .1694336 .3701172 .17626953 .3544922L.28027345 .107421878 .38476563 .36376954C.3922526 .3819987 .3959961 .39583335 .3959961 .40527345 .3959961 .40983073 .394694 .41357423 .39208985 .4165039 .38850913 .42138673 .3839518 .4247233 .37841798 .42651368 .37288413 .42830406 .36165367 .42919923 .34472657 .42919923V.44726563H.49072267V.42919923C.47379557 .42789714 .4620768 .42447917 .4555664 .4189453 .4441732 .4091797 .43391929 .39290367 .4248047 .3701172L.26611329-.013671875H.24609375L.08642578 .36376954C.07926432 .38134767 .07242838 .39396159 .06591797 .40161134 .05940755 .40926109 .05110677 .4156901 .041015626 .42089845 .03548177 .42382813 .024576823 .42659507 .008300781 .42919923V.44726563Z"/>
<path id="font_1_106" d="M.28466798 .064453128C.23876953 .028971354 .20996094 .008463542 .19824219 .0029296876 .18066406-.005533854 .16194661-.009765625 .14208985-.009765625 .11116537-.009765625 .08569336 .00081380209 .06567383 .021972657 .045654298 .04313151 .03564453 .07096354 .03564453 .10546875 .03564453 .12727864 .040527345 .14615886 .05029297 .16210938 .06363932 .1842448 .08683268 .20507813 .11987305 .22460938 .1529134 .24414063 .20784505 .26790367 .28466798 .29589845V.31347657C.28466798 .3580729 .2775879 .38867188 .26342774 .40527345 .24926758 .421875 .22867839 .43017579 .20166016 .43017579 .18115235 .43017579 .1648763 .42466227 .15283203 .41363526 .14046224 .40260826 .13427735 .3899587 .13427735 .37568666L.1352539 .34747315C.1352539 .3325602 .13142903 .32105003 .1237793 .3129425 .116129558 .304835 .10611979 .30078126 .09375 .30078126 .08170573 .30078126 .07185873 .30499778 .064208988 .3134308 .056559247 .321874 .052734376 .33339945 .052734376 .3480072 .052734376 .37591044 .06705729 .4015452 .095703128 .4249115 .12434896 .4482778 .16455078 .45996095 .2163086 .45996095 .25602214 .45996095 .28857423 .45329795 .31396485 .43997193 .33317057 .42989097 .34733073 .41411845 .3564453 .39265443 .3623047 .37867738 .36523438 .35006715 .36523438 .30682374V.15515137C.36523438 .112559 .3660482 .08646647 .36767579 .07687378 .36930339 .06728109 .37198893 .060857137 .37573243 .05760193 .37947593 .05435689 .38378907 .052734376 .38867188 .052734376 .39388023 .052734376 .3984375 .0538737 .40234376 .056152345 .4091797 .060384115 .42236329 .072265628 .44189454 .091796878V.064453128C.4054362 .015625 .37060548-.0087890629 .33740235-.0087890629 .3214518-.0087890629 .3087565-.0032552083 .2993164 .0078125 .2898763 .018880209 .2849935 .037760419 .28466798 .064453128M.28466798 .096466068V.26611329C.23551433 .24667359 .20377605 .23289998 .18945313 .22479248 .16373699 .2105306 .14534505 .19562276 .13427735 .18006897 .12320963 .16451518 .11767578 .14750164 .11767578 .12902832 .11767578 .10569254 .12467448 .08632914 .13867188 .07093811 .15266927 .055547079 .16878255 .047851564 .18701172 .047851564 .2117513 .047851564 .24430339 .0640564 .28466798 .096466068M.12695313 .6796875H.23583985L.28759767 .5107422H.2705078L.12695313 .6796875Z"/>
<path id="font_1_264" d="M.017089844 0V.018066407H.041992189C.06998698 .018066407 .09000651 .02718099 .10205078 .045410158 .10888672 .055826826 .11230469 .0797526 .11230469 .1171875V.3310547H.017089844V.3671875H.11230469V.5449219C.11230469 .586263 .1077474 .6121419 .09863281 .6225586 .0859375 .63688156 .06705729 .64404299 .041992189 .64404299H.017089844V.6621094H.2866211C.38916017 .6621094 .4650065 .650472 .51416018 .62719729 .5633138 .60392257 .6038411 .5666504 .6357422 .51538088 .66764327 .46411134 .68359377 .40413413 .68359377 .33544923 .68359377 .24202474 .65372726 .16276042 .59399417 .09765625 .53426107 .032552083 .4404297 0 .3125 0H.017089844M.20654297 .048828126C.24788411 .0390625 .2825521 .034179689 .31054688 .034179689 .3857422 .034179689 .4482422 .060750326 .49804688 .1138916 .54785159 .16704305 .5727539 .23910523 .5727539 .33007813 .5727539 .42170207 .54785159 .4939219 .49804688 .5467377 .4482422 .5995636 .3844401 .62597659 .30664063 .62597659 .27734376 .62597659 .24397786 .62125656 .20654297 .6118164V.3671875H.3984375V.3310547H.20654297V.048828126Z"/>
<path id="font_1_1233" d="M.25 .45996095C.31770835 .45996095 .3720703 .43427024 .41308595 .3828888 .44791667 .33899436 .46533204 .28858949 .46533204 .2316742 .46533204 .19167583 .45572917 .15118917 .43652345 .11021423 .41731773 .06924947 .39086915 .038360597 .35717774 .017547608 .32348634-.0032653809 .28597007-.013671875 .2446289-.013671875 .1772461-.013671875 .123697917 .013158162 .083984378 .06681824 .05045573 .11201477 .033691408 .16274007 .033691408 .21899414 .033691408 .2599691 .043863935 .30069987 .064208988 .34118653 .08455404 .3816732 .111328128 .41159059 .14453125 .43093873 .17773438 .45028688 .21289063 .45996095 .25 .45996095M.23486328 .42773438C.21761067 .42773438 .20027669 .42261253 .18286133 .41236878 .16544597 .40212504 .15136719 .38416038 .140625 .35847474 .12988281 .3327891 .12451172 .29978944 .12451172 .2594757 .12451172 .19445293 .13745117 .1383667 .16333008 .09121704 .18920899 .044077558 .2233073 .020507813 .265625 .020507813 .29720054 .020507813 .3232422 .033513387 .34375 .059524537 .3642578 .08553568 .37451173 .13023885 .37451173 .19363404 .37451173 .27296958 .35742188 .33539836 .3232422 .3809204 .30013023 .41212974 .27067057 .42773438 .23486328 .42773438M.2475586-.05859375C.26285807-.05859375 .27571617-.06388346 .2861328-.07446289 .29654948-.08504232 .3017578-.09781901 .3017578-.11279297 .3017578-.12776692 .2964681-.14054363 .28588868-.15112305 .27530924-.16170247 .26253257-.16699219 .2475586-.16699219 .23258464-.16699219 .21980794-.16170247 .20922852-.15112305 .1986491-.14054363 .19335938-.12776692 .19335938-.11279297 .19335938-.09749349 .1986491-.084635417 .20922852-.07421875 .21980794-.063802089 .23258464-.05859375 .2475586-.05859375Z"/>
<path id="font_1_73" d="M.20605469 .41308595V.118774417C.20605469 .077056888 .21061199 .05065918 .21972656 .0395813 .23177083 .025238038 .24788411 .018066407 .2680664 .018066407H.30859376V0H.041503908V.018066407H.061523439C.07454427 .018066407 .08642578 .0213267 .09716797 .02784729 .107910159 .034367879 .11531576 .043167116 .119384769 .054244996 .12345377 .065322879 .12548828 .08683268 .12548828 .118774417V.41308595H.03857422V.44726563H.12548828V.47668458C.12548828 .52145388 .13264974 .55936178 .14697266 .5904083 .16129558 .6214549 .18318685 .6465352 .21264649 .6656494 .24210613 .68477377 .27522788 .69433596 .31201173 .69433596 .3461914 .69433596 .37760417 .68326827 .40625 .6611328 .42513023 .6464844 .4345703 .6300456 .4345703 .6118164 .4345703 .6020508 .43033854 .5928548 .421875 .5842285 .41341148 .57560226 .40429688 .57128909 .39453126 .57128909 .38704429 .57128909 .3791504 .5740051 .3708496 .57943728 .36254884 .5848694 .3523763 .59655258 .34033204 .6144867 .32828776 .63242086 .31722007 .644516 .3071289 .6507721 .29703776 .6570282 .28580729 .66015627 .2734375 .66015627 .25846354 .66015627 .24576824 .6561279 .23535156 .6480713 .22493489 .64002487 .21744792 .62754318 .21289063 .6106262 .20833333 .5937093 .20605469 .5500997 .20605469 .47979737V.44726563H.32128907V.41308595H.20605469Z"/>
<path id="font_1_114" d="M.10644531 .2783203C.10611979 .21206665 .12223307 .1601003 .15478516 .122421268 .18733724 .0847524 .22558594 .06591797 .26953126 .06591797 .29882813 .06591797 .32430015 .07397461 .34594728 .09008789 .3675944 .10620117 .3857422 .13378906 .40039063 .17285156L.41552735 .16308594C.4086914 .118489589 .38883464 .07788086 .35595704 .041259767 .32307945 .004638672 .28190104-.013671875 .23242188-.013671875 .17871094-.013671875 .13273113 .007197062 .09448242 .048934938 .056233724 .09068298 .037109376 .14680481 .037109376 .21730042 .037109376 .29363505 .056722005 .35315959 .095947269 .39587403 .13517253 .43859864 .18440755 .45996095 .24365235 .45996095 .29378257 .45996095 .33496095 .44348146 .3671875 .41052247 .39941407 .37757365 .41552735 .33350627 .41552735 .2783203H.10644531M.10644531 .30664063H.31347657C.31184898 .33528648 .308431 .35546876 .30322267 .3671875 .29508464 .38541667 .28295899 .3997396 .2668457 .41015626 .25073243 .4205729 .23388672 .42578126 .2163086 .42578126 .18929036 .42578126 .16512044 .4152832 .14379883 .3942871 .12247721 .37329103 .11002604 .34407554 .10644531 .30664063M.19677735 .67285159H.2866211L.37939454 .5107422H.3642578L.23095703 .6150665 .119140628 .5107422H.10449219L.19677735 .67285159Z"/>
<path id="font_1_1257" d="M.42333985 .44726563V.17626953C.42333985 .12451172 .42456056 .09285482 .42700196 .08129883 .42944337 .069742839 .4333496 .0616862 .4387207 .057128908 .4440918 .052571615 .45035807 .05029297 .45751954 .05029297 .4676107 .05029297 .4790039 .053059896 .49169923 .05859375L.49853517 .041503908 .3647461-.013671875H.34277345V.08105469C.30436198 .03938802 .2750651 .013183594 .2548828 .0024414063 .23470052-.008300781 .2133789-.013671875 .19091797-.013671875 .16585286-.013671875 .14412435-.0064290368 .12573242 .008056641 .10734049 .022542319 .094563808 .041178388 .087402347 .063964847 .08024088 .086751308 .076660159 .11897787 .076660159 .16064453V.36035157C.076660159 .3815104 .07438151 .39615885 .06982422 .40429688 .06526693 .4124349 .05851237 .41870118 .049560548 .4230957 .040608724 .42749024 .024414063 .42952476 .0009765625 .42919923V.44726563H.15771485V.14868164C.15771485 .1071167 .16495769 .07983907 .17944336 .066848758 .19392903 .05385844 .21142578 .04736328 .2319336 .04736328 .24593099 .04736328 .26180015 .05174764 .27954103 .060516359 .2972819 .06928507 .31835938 .086003627 .34277345 .110672V.3634491C.34277345 .3887787 .33813478 .40590415 .32885743 .41482545 .31958009 .42375694 .30029298 .4285482 .2709961 .42919923V.44726563H.42333985M.22314453-.05859375C.23844402-.05859375 .2513021-.06388346 .26171876-.07446289 .2721354-.08504232 .27734376-.09781901 .27734376-.11279297 .27734376-.12776692 .27205406-.14054363 .2614746-.15112305 .25089518-.16170247 .23811849-.16699219 .22314453-.16699219 .20817058-.16699219 .19539388-.16170247 .18481446-.15112305 .17423503-.14054363 .16894531-.12776692 .16894531-.11279297 .16894531-.09749349 .17423503-.084635417 .18481446-.07421875 .19539388-.063802089 .20817058-.05859375 .22314453-.05859375Z"/>
<path id="font_1_36" d="M.45751954 .22167969H.20117188L.15625 .1171875C.1451823 .09147135 .13964844 .072265628 .13964844 .059570314 .13964844 .049479169 .14444988 .040608724 .15405274 .032958986 .1636556 .025309245 .18440755 .020345053 .2163086 .018066407V0H.0078125V.018066407C.03548177 .022949219 .053385419 .029291789 .061523439 .037094118 .078125 .052708944 .09651693 .08442179 .11669922 .13223267L.34960938 .6767578H.36669923L.59716799 .12638855C.61572268 .08214823 .63256838 .053441366 .6477051 .040267946 .6628418 .027094523 .68391928 .01969401 .7109375 .018066407V0H.44970704V.018066407C.47607423 .01936849 .49389649 .023763022 .5031738 .03125 .5124512 .03873698 .51708987 .047851564 .51708987 .05859375 .51708987 .072916667 .5105794 .09554037 .4975586 .12646485L.45751954 .22167969M.44384767 .2578125 .33154298 .52500918 .2163086 .2578125H.44384767Z"/>
<path id="font_1_60" d="M.4765625 .6621094H.70751956V.64404299H.6948242C.68636068 .64404299 .6739909 .6402995 .65771487 .6328125 .6414388 .6253255 .6266276 .6145833 .61328127 .60058596 .5999349 .58658859 .5834961 .56380209 .56396487 .53222659L.40429688 .28076173V.114746097C.40429688 .07405599 .40885417 .048665365 .41796876 .03857422 .43033854 .024902344 .44986979 .018066407 .4765625 .018066407H.49804688V0H.21679688V.018066407H.24023438C.26822917 .018066407 .28808595 .026529948 .2998047 .04345703 .30696617 .0538737 .31054688 .07763672 .31054688 .114746097V.27148438L.12890625 .5488281C.107421878 .5813802 .09285482 .6017253 .08520508 .6098633 .077555339 .6180013 .0616862 .6277669 .037597658 .63916018 .03108724 .64241537 .021647135 .64404299 .009277344 .64404299V.6621094H.29248048V.64404299H.27783204C.26253257 .64404299 .24845378 .6404622 .2355957 .6333008 .22273763 .62613937 .2163086 .61539718 .2163086 .6010742 .2163086 .58935549 .22623699 .5681966 .24609375 .53759768L.38427735 .32421876 .51416018 .5283203C.5336914 .55891928 .54345706 .58170577 .54345706 .5966797 .54345706 .60579428 .541097 .6139323 .53637698 .62109377 .5316569 .6282552 .52490237 .6338704 .5161133 .63793948 .5073242 .6420085 .49414063 .64404299 .4765625 .64404299V.6621094Z"/>
<path id="font_1_50" d="M.36572267 .6767578C.45166017 .6767578 .52612307 .6441701 .5891113 .57899478 .6520996 .5138194 .68359377 .43247477 .68359377 .33496095 .68359377 .23451741 .65185549 .1511383 .5883789 .08482361 .52490237 .018508912 .44807945-.0146484379 .35791017-.0146484379 .2667643-.0146484379 .19018555 .017695109 .12817383 .0823822 .06616211 .14706929 .03515625 .23077393 .03515625 .3334961 .03515625 .43848673 .07096354 .5241394 .14257813 .5904541 .20475261 .6479899 .27913413 .6767578 .36572267 .6767578M.3564453 .640625C.29720054 .640625 .24967449 .6186879 .21386719 .57481387 .16927083 .5202077 .14697266 .44025169 .14697266 .33494569 .14697266 .2270457 .17008464 .14400737 .2163086 .08583069 .25179038 .04163106 .29866538 .01953125 .3569336 .01953125 .41910807 .01953125 .47045899 .043741865 .5109863 .092163089 .5515137 .14059448 .57177737 .2169749 .57177737 .32130433 .57177737 .43440248 .5494792 .51874288 .5048828 .57432559 .46907554 .6185252 .41959635 .640625 .3564453 .640625Z"/>
<path id="font_1_14" d="M.26123048 .068359378V.31201173H.018066407V.35253907H.26123048V.59521487H.30029298V.35253907H.5444336V.31201173H.30029298V.068359378H.26123048Z"/>
<path id="font_1_53" d="M.67578127 0H.49902345L.27490235 .31054688C.25830079 .30989585 .24479167 .3095703 .234375 .3095703 .23014324 .3095703 .22558594 .3096517 .22070313 .30981446 .21582031 .3099772 .21077474 .31022135 .2055664 .31054688V.11752319C.2055664 .07571411 .2101237 .049748739 .21923828 .039627077 .23160808 .025253296 .25016276 .018066407 .27490235 .018066407H.30078126V0H.017089844V.018066407H.041992189C.06998698 .018066407 .09000651 .02718099 .10205078 .045410158 .10888672 .0555013 .11230469 .079427089 .11230469 .1171875V.5449219C.11230469 .58658859 .1077474 .61246749 .09863281 .6225586 .0859375 .63688156 .06705729 .64404299 .041992189 .64404299H.017089844V.6621094H.25830079C.32861329 .6621094 .38045249 .6569977 .41381837 .6467743 .44718424 .6365509 .47550456 .61772158 .4987793 .59028628 .522054 .56286117 .5336914 .53016158 .5336914 .4921875 .5336914 .45161949 .52042648 .4164022 .49389649 .38653565 .46736656 .3566793 .42626954 .33558146 .37060548 .3232422L.5073242 .13269043C.5385742 .08892822 .5654297 .05986023 .5878906 .04548645 .61035159 .031122843 .63964846 .021982829 .67578127 .018066407V0M.2055664 .34033204C.2117513 .34033204 .21712239 .34025065 .22167969 .3400879 .22623699 .33992515 .22998047 .33984376 .23291016 .33984376 .2960612 .33984376 .3436686 .35351563 .37573243 .38085938 .40779624 .40820313 .42382813 .44303385 .42382813 .48535157 .42382813 .5266927 .41088868 .56030276 .38500978 .58618167 .35913087 .61206057 .32486979 .625 .28222657 .625 .26334635 .625 .23779297 .62190756 .2055664 .61572268V.34033204Z"/>
<path id="font_1_1191" d="M.28466798 .064453128C.23876953 .028971354 .20996094 .008463542 .19824219 .0029296876 .18066406-.005533854 .16194661-.009765625 .14208985-.009765625 .11116537-.009765625 .08569336 .00081380209 .06567383 .021972657 .045654298 .04313151 .03564453 .07096354 .03564453 .10546875 .03564453 .12727864 .040527345 .14615886 .05029297 .16210938 .06363932 .1842448 .08683268 .20507813 .11987305 .22460938 .1529134 .24414063 .20784505 .26790367 .28466798 .29589845V.31347657C.28466798 .3580729 .2775879 .38867188 .26342774 .40527345 .24926758 .421875 .22867839 .43017579 .20166016 .43017579 .18115235 .43017579 .1648763 .42466227 .15283203 .41363526 .14046224 .40260826 .13427735 .3899587 .13427735 .37568666L.1352539 .34747315C.1352539 .3325602 .13142903 .32105003 .1237793 .3129425 .116129558 .304835 .10611979 .30078126 .09375 .30078126 .08170573 .30078126 .07185873 .30499778 .064208988 .3134308 .056559247 .321874 .052734376 .33339945 .052734376 .3480072 .052734376 .37591044 .06705729 .4015452 .095703128 .4249115 .12434896 .4482778 .16455078 .45996095 .2163086 .45996095 .25602214 .45996095 .28857423 .45329795 .31396485 .43997193 .33317057 .42989097 .34733073 .41411845 .3564453 .39265443 .3623047 .37867738 .36523438 .35006715 .36523438 .30682374V.15515137C.36523438 .112559 .3660482 .08646647 .36767579 .07687378 .36930339 .06728109 .37198893 .060857137 .37573243 .05760193 .37947593 .05435689 .38378907 .052734376 .38867188 .052734376 .39388023 .052734376 .3984375 .0538737 .40234376 .056152345 .4091797 .060384115 .42236329 .072265628 .44189454 .091796878V.064453128C.4054362 .015625 .37060548-.0087890629 .33740235-.0087890629 .3214518-.0087890629 .3087565-.0032552083 .2993164 .0078125 .2898763 .018880209 .2849935 .037760419 .28466798 .064453128M.28466798 .096466068V.26611329C.23551433 .24667359 .20377605 .23289998 .18945313 .22479248 .16373699 .2105306 .14534505 .19562276 .13427735 .18006897 .12320963 .16451518 .11767578 .14750164 .11767578 .12902832 .11767578 .10569254 .12467448 .08632914 .13867188 .07093811 .15266927 .055547079 .16878255 .047851564 .18701172 .047851564 .2117513 .047851564 .24430339 .0640564 .28466798 .096466068M.2685547 .5706177C.25195313 .554718 .24186199 .5436859 .23828125 .53752139 .23470052 .5313568 .23258464 .5224304 .2319336 .5107422H.21533203C.21663411 .5328064 .22477214 .5556793 .2397461 .57936099 .25016276 .596227 .2553711 .6098531 .2553711 .62023928 .2553711 .6442464 .24348958 .65625 .21972656 .65625 .20865886 .65625 .20035808 .6536662 .19482422 .64849856 .19254558 .64624026 .19140625 .64398196 .19140625 .64172366 .19140625 .63946536 .19319661 .6355133 .19677735 .62986758 .20035808 .6242218 .20214844 .6197815 .20214844 .61654666 .20214844 .6052551 .19596355 .5996094 .18359375 .5996094 .1673177 .5996094 .15917969 .6088257 .15917969 .6272583 .15917969 .64052328 .16560872 .65160116 .1784668 .66049197 .19132488 .66938278 .20751953 .6738281 .22705078 .6738281 .2524414 .6738281 .27115885 .6675008 .28320313 .6548462 .29264323 .6451111 .29736329 .6343994 .29736329 .6227112 .29736329 .606486 .2877604 .5891215 .2685547 .5706177Z"/>
<path id="font_1_69" d="M.1538086 .3696289C.19710286 .42985026 .24381511 .45996095 .2939453 .45996095 .33984376 .45996095 .3798828 .44036866 .4140625 .40118409 .4482422 .3619995 .46533204 .3084259 .46533204 .24046326 .46533204 .16111756 .43896485 .097218837 .38623048 .04876709 .34098307 .0071411135 .29052735-.013671875 .23486328-.013671875 .20882161-.013671875 .18237305-.008951823 .15551758 .00048828127 .12866211 .009928386 .10123698 .024088541 .07324219 .04296875V.50634768C.07324219 .5571289 .072021488 .5883789 .06958008 .60009768 .06713867 .6118164 .063313808 .6197917 .05810547 .62402346 .052897138 .6282552 .04638672 .6303711 .03857422 .6303711 .029459635 .6303711 .018066407 .6277669 .0043945314 .6225586L-.0024414063 .63964846 .13183594 .69433596H.1538086V.3696289M.1538086 .33851625V.071640018C.17041016 .055414838 .18758138 .04316203 .20532227 .03488159 .22306316 .026601157 .24121094 .022460938 .25976563 .022460938 .28938804 .022460938 .31697593 .038691205 .3425293 .07115173 .36808268 .10362244 .38085938 .15086365 .38085938 .21287537 .38085938 .27001444 .36808268 .31392417 .3425293 .3446045 .31697593 .37528483 .2879232 .390625 .2553711 .390625 .23811849 .390625 .22086589 .38624064 .20361328 .37747193 .19059246 .37098185 .17399089 .3579966 .1538086 .33851625Z"/>
<path id="font_1_1219" d="M.10644531 .2783203C.10611979 .21206665 .12223307 .1601003 .15478516 .122421268 .18733724 .0847524 .22558594 .06591797 .26953126 .06591797 .29882813 .06591797 .32430015 .07397461 .34594728 .09008789 .3675944 .10620117 .3857422 .13378906 .40039063 .17285156L.41552735 .16308594C.4086914 .118489589 .38883464 .07788086 .35595704 .041259767 .32307945 .004638672 .28190104-.013671875 .23242188-.013671875 .17871094-.013671875 .13273113 .007197062 .09448242 .048934938 .056233724 .09068298 .037109376 .14680481 .037109376 .21730042 .037109376 .29363505 .056722005 .35315959 .095947269 .39587403 .13517253 .43859864 .18440755 .45996095 .24365235 .45996095 .29378257 .45996095 .33496095 .44348146 .3671875 .41052247 .39941407 .37757365 .41552735 .33350627 .41552735 .2783203H.10644531M.10644531 .30664063H.31347657C.31184898 .33528648 .308431 .35546876 .30322267 .3671875 .29508464 .38541667 .28295899 .3997396 .2668457 .41015626 .25073243 .4205729 .23388672 .42578126 .2163086 .42578126 .18929036 .42578126 .16512044 .4152832 .14379883 .3942871 .12247721 .37329103 .11002604 .34407554 .10644531 .30664063M.19677735 .67285159H.2866211L.37939454 .5107422H.3642578L.23095703 .6150665 .119140628 .5107422H.10449219L.19677735 .67285159M.21386719 .72753909H.19677735L.24853516 .890625H.35742188L.21386719 .72753909Z"/>
<path id="font_1_54" d="M.4584961 .6767578V.4482422H.4404297C.4345703 .4921875 .42407228 .52718099 .40893556 .55322268 .39379884 .57926437 .37223307 .5999349 .34423829 .6152344 .3162435 .6305339 .28727214 .6381836 .25732423 .6381836 .22347005 .6381836 .19547527 .6278534 .17333985 .607193 .15120442 .5865428 .14013672 .56304427 .14013672 .5366974 .14013672 .51652529 .14713542 .4981486 .16113281 .48156739 .18131511 .45716349 .22932942 .42463175 .30517579 .38397218 .36702476 .35079957 .40926109 .3253479 .43188478 .3076172 .45450846 .28989665 .47192384 .2689972 .48413087 .24491883 .4963379 .22085063 .5024414 .19564311 .5024414 .16929627 .5024414 .11920675 .48299156 .076024379 .4440918 .039749147 .40519206 .00348409 .35514323-.0146484379 .2939453-.0146484379 .2747396-.0146484379 .2566732-.0132039389 .2397461-.010314941 .22965496-.008707683 .20874024-.002843221 .17700196 .0072784426 .14526367 .017400107 .12516277 .022460938 .11669922 .022460938 .108561199 .022460938 .102132167 .020050049 .09741211 .0152282719 .092692058 .010406494 .08919271 .00044759117 .08691406-.0146484379H.068847659V.21191406H.08691406C.0953776 .16438802 .106770839 .12882488 .12109375 .10522461 .13541667 .08162435 .15730794 .06201172 .18676758 .04638672 .21622722 .030761719 .24853516 .022949219 .2836914 .022949219 .3243815 .022949219 .3565267 .033681234 .38012696 .055145265 .4037272 .07661947 .41552735 .101994838 .41552735 .13127136 .41552735 .14753723 .41105143 .16396077 .4020996 .18054199 .3931478 .19713338 .37923179 .21258545 .36035157 .2268982 .34765626 .23665364 .31298829 .25739036 .25634767 .28910829 .19970703 .3208262 .15942383 .3461151 .13549805 .36497499 .111572269 .383845 .09342448 .4046631 .08105469 .4274292 .0686849 .45020548 .0625 .47525535 .0625 .50257876 .0625 .5500641 .080729167 .5909627 .1171875 .62527468 .15364583 .65959677 .20003255 .6767578 .25634767 .6767578 .2915039 .6767578 .32877604 .66813156 .36816407 .6508789 .38639323 .6427409 .3992513 .6386719 .40673829 .6386719 .4152018 .6386719 .42211915 .64119467 .42749024 .64624026 .43286134 .6512858 .43717448 .6614583 .4404297 .6767578H.4584961Z"/>
<path id="font_1_20" d="M.1171875 .59716799 .2783203 .67578127H.2944336V.11669922C.2944336 .079589847 .29597984 .056477865 .29907228 .04736328 .3021647 .0382487 .30859376 .03125 .31835938 .026367188 .328125 .021484375 .34798179 .018717448 .3779297 .018066407V0H.12890625V.018066407C.16015625 .018717448 .18033855 .021402995 .18945313 .026123047 .1985677 .0308431 .20491536 .037190755 .2084961 .045166017 .21207683 .053141279 .21386719 .07698568 .21386719 .11669922V.4741211C.21386719 .52229818 .21223958 .55322268 .20898438 .56689456 .20670574 .5773112 .20255535 .58496096 .1965332 .58984377 .19051107 .59472659 .18326824 .59716799 .17480469 .59716799 .16276042 .59716799 .1459961 .5921224 .12451172 .58203127L.1171875 .59716799Z"/>
<path id="font_1_66" d="M.50878909-.21582031H-.008300781V-.17529297H.50878909V-.21582031Z"/>
<path id="font_1_84" d="M.4272461 .45996095V-.11480713C.4272461-.14343262 .42919923-.16180928 .43310548-.16993714 .43701173-.17807515 .44311524-.18441773 .45141603-.18896485 .4597168-.19352214 .47591148-.19580078 .5-.19580078V-.21386719H.27441407V-.19580078H.2836914C.30192057-.19580078 .31575523-.19319661 .3251953-.18798828 .33170573-.18440755 .33691407-.17797852 .3408203-.16870117 .34472657-.15942383 .3466797-.1414388 .3466797-.114746097V.07763672C.31705729 .04248047 .29117839 .018473307 .26904298 .0056152346 .24690755-.0072428386 .22395833-.013671875 .20019531-.013671875 .15690105-.013671875 .118245448 .0060017907 .084228519 .04534912 .05021159 .08469645 .033203126 .13737488 .033203126 .2033844 .033203126 .27915956 .055664064 .3408661 .10058594 .38850404 .14550781 .43614198 .19970703 .45996095 .2631836 .45996095 .28173829 .45996095 .29882813 .45735679 .31445313 .45214845 .33007813 .4469401 .34407554 .4391276 .3564453 .42871095 .37532554 .43782554 .39339195 .4482422 .41064454 .45996095H.4272461M.3466797 .10832214V.31800843C.3466797 .34239198 .34350587 .36157228 .3371582 .37554933 .33081056 .38953654 .3194987 .4014028 .30322267 .41114808 .28694663 .42090354 .2685547 .42578126 .24804688 .42578126 .21158855 .42578126 .18033855 .41033937 .15429688 .37945558 .1282552 .34857179 .115234378 .3017578 .115234378 .23901367 .115234378 .1788737 .12849935 .13319905 .1550293 .101989749 .18155925 .07078043 .21354167 .05517578 .25097657 .05517578 .27018229 .05517578 .28727214 .059321088 .3022461 .067611698 .31722007 .075902309 .33203126 .08947245 .3466797 .10832214Z"/>
</defs>
<path transform="matrix(1,0,0,-1,142.772,102.15599)" d="M33.30775 21.58228H-33.30775C-35.5087 21.58228-37.29286 19.79811-37.29286 17.59717V-17.59717C-37.29286-19.79811-35.5087-21.58228-33.30775-21.58228H33.30775C35.5087-21.58228 37.29286-19.79811 37.29286-17.59717V17.59717C37.29286 19.79811 35.5087 21.58228 33.30775 21.58228ZM-37.29286-21.58228" fill="#c7eafb"/>
<path transform="matrix(1,0,0,-1,142.772,102.15599)" stroke-width=".3985" stroke-linecap="butt" stroke-miterlimit="10" stroke-linejoin="miter" fill="none" stroke="#000000" d="M33.30775 21.58228H-33.30775C-35.5087 21.58228-37.29286 19.79811-37.29286 17.59717V-17.59717C-37.29286-19.79811-35.5087-21.58228-33.30775-21.58228H33.30775C35.5087-21.58228 37.29286-19.79811 37.29286-17.59717V17.59717C37.29286 19.79811 35.5087 21.58228 33.30775 21.58228ZM-37.29286-21.58228"/>
<use data-text="L" xlink:href="#font_1_47" transform="matrix(8.9664,0,0,-8.9664,111.148,94.23399)"/>
<use data-text="u" xlink:href="#font_1_88" transform="matrix(8.9664,0,0,-8.9664,116.62647,94.23399)"/>
<use data-text="&#x1ed3;" xlink:href="#font_1_1239" transform="matrix(8.9664,0,0,-8.9664,121.10967,94.23399)"/>
<use data-text="n" xlink:href="#font_1_81" transform="matrix(8.9664,0,0,-8.9664,125.59287,94.23399)"/>
<use data-text="g" xlink:href="#font_1_74" transform="matrix(8.9664,0,0,-8.9664,130.07608,94.23399)"/>
<use data-text="c" xlink:href="#font_1_70" transform="matrix(8.9664,0,0,-8.9664,136.7919,94.23399)"/>
<use data-text="h" xlink:href="#font_1_75" transform="matrix(8.9664,0,0,-8.9664,140.77298,94.23399)"/>
<use data-text="&#x00ed;" xlink:href="#font_1_116" transform="matrix(8.9664,0,0,-8.9664,145.2562,94.23399)"/>
<use data-text="n" xlink:href="#font_1_81" transform="matrix(8.9664,0,0,-8.9664,147.74884,94.23399)"/>
<use data-text="h" xlink:href="#font_1_75" transform="matrix(8.9664,0,0,-8.9664,152.23206,94.23399)"/>
<use data-text="(" xlink:href="#font_1_11" transform="matrix(8.9664,0,0,-8.9664,158.95685,94.23399)"/>
<use data-text="U" xlink:href="#font_1_56" transform="matrix(8.9664,0,0,-8.9664,161.94266,94.23399)"/>
<use data-text="I" xlink:href="#font_1_44" transform="matrix(8.9664,0,0,-8.9664,168.41641,94.23399)"/>
<use data-text=")" xlink:href="#font_1_12" transform="matrix(8.9664,0,0,-8.9664,171.40222,94.23399)"/>
<use data-text="T" xlink:href="#font_1_55" transform="matrix(8.9664,0,0,-8.9664,111.520008,105.19299)"/>
<use data-text="k" xlink:href="#font_1_78" transform="matrix(8.9664,0,0,-8.9664,116.998477,105.19299)"/>
<use data-text="i" xlink:href="#font_1_76" transform="matrix(8.9664,0,0,-8.9664,121.481678,105.19299)"/>
<use data-text="n" xlink:href="#font_1_81" transform="matrix(8.9664,0,0,-8.9664,123.974338,105.19299)"/>
<use data-text="t" xlink:href="#font_1_87" transform="matrix(8.9664,0,0,-8.9664,128.45754,105.19299)"/>
<use data-text="e" xlink:href="#font_1_72" transform="matrix(8.9664,0,0,-8.9664,130.9502,105.19299)"/>
<use data-text="r" xlink:href="#font_1_85" transform="matrix(8.9664,0,0,-8.9664,134.93128,105.19299)"/>
<use data-text="m" xlink:href="#font_1_80" transform="matrix(8.9664,0,0,-8.9664,140.15869,105.19299)"/>
<use data-text="a" xlink:href="#font_1_68" transform="matrix(8.9664,0,0,-8.9664,147.13455,105.19299)"/>
<use data-text="i" xlink:href="#font_1_76" transform="matrix(8.9664,0,0,-8.9664,151.11563,105.19299)"/>
<use data-text="n" xlink:href="#font_1_81" transform="matrix(8.9664,0,0,-8.9664,153.60828,105.19299)"/>
<use data-text="l" xlink:href="#font_1_79" transform="matrix(8.9664,0,0,-8.9664,158.09149,105.19299)"/>
<use data-text="o" xlink:href="#font_1_82" transform="matrix(8.9664,0,0,-8.9664,160.58414,105.19299)"/>
<use data-text="o" xlink:href="#font_1_82" transform="matrix(8.9664,0,0,-8.9664,165.06735,105.19299)"/>
<use data-text="p" xlink:href="#font_1_83" transform="matrix(8.9664,0,0,-8.9664,169.55054,105.19299)"/>
<use data-text="p" xlink:href="#font_1_83" transform="matrix(8.9664,0,0,-8.9664,113.880008,116.15099)"/>
<use data-text="o" xlink:href="#font_1_82" transform="matrix(8.9664,0,0,-8.9664,118.363208,116.15099)"/>
<use data-text="l" xlink:href="#font_1_79" transform="matrix(8.9664,0,0,-8.9664,122.846408,116.15099)"/>
<use data-text="l" xlink:href="#font_1_79" transform="matrix(8.9664,0,0,-8.9664,125.339069,116.15099)"/>
<use data-text="(" xlink:href="#font_1_11" transform="matrix(8.9664,0,0,-8.9664,127.831729,116.15099)"/>
<use data-text=")" xlink:href="#font_1_12" transform="matrix(8.9664,0,0,-8.9664,130.81754,116.15099)"/>
<use data-text="m" xlink:href="#font_1_80" transform="matrix(8.9664,0,0,-8.9664,136.03598,116.15099)"/>
<use data-text="&#x1ed7;" xlink:href="#font_1_1243" transform="matrix(8.9664,0,0,-8.9664,143.01184,116.15099)"/>
<use data-text="i" xlink:href="#font_1_76" transform="matrix(8.9664,0,0,-8.9664,147.49504,116.15099)"/>
<use data-text="5" xlink:href="#font_1_24" transform="matrix(8.9664,0,0,-8.9664,152.22931,116.15099)"/>
<use data-text="0" xlink:href="#font_1_19" transform="matrix(8.9664,0,0,-8.9664,156.7125,116.15099)"/>
<use data-text="m" xlink:href="#font_1_80" transform="matrix(8.9664,0,0,-8.9664,161.19571,116.15099)"/>
<use data-text="s" xlink:href="#font_1_86" transform="matrix(8.9664,0,0,-8.9664,168.17157,116.15099)"/>
<path transform="matrix(1,0,0,-1,142.772,102.15599)" d="M-55.84987 96.28621H-132.9201C-135.12105 96.28621-136.90522 94.50204-136.90522 92.3011V68.4861C-136.90522 66.28516-135.12105 64.50099-132.9201 64.50099H-55.84987C-53.64893 64.50099-51.86476 66.28516-51.86476 68.4861V92.3011C-51.86476 94.50204-53.64893 96.28621-55.84987 96.28621ZM-136.90522 64.50099" fill="#d9ffd9"/>
<path transform="matrix(1,0,0,-1,142.772,102.15599)" stroke-width=".3985" stroke-linecap="butt" stroke-miterlimit="10" stroke-linejoin="miter" fill="none" stroke="#000000" d="M-55.84987 96.28621H-132.9201C-135.12105 96.28621-136.90522 94.50204-136.90522 92.3011V68.4861C-136.90522 66.28516-135.12105 64.50099-132.9201 64.50099H-55.84987C-53.64893 64.50099-51.86476 66.28516-51.86476 68.4861V92.3011C-51.86476 94.50204-53.64893 96.28621-55.84987 96.28621ZM-136.90522 64.50099"/>
<use data-text="L" xlink:href="#font_1_47" transform="matrix(8.9664,0,0,-8.9664,14.027008,19.529992)"/>
<use data-text="u" xlink:href="#font_1_88" transform="matrix(8.9664,0,0,-8.9664,19.505478,19.529992)"/>
<use data-text="&#x1ed3;" xlink:href="#font_1_1239" transform="matrix(8.9664,0,0,-8.9664,23.988678,19.529992)"/>
<use data-text="n" xlink:href="#font_1_81" transform="matrix(8.9664,0,0,-8.9664,28.471879,19.529992)"/>
<use data-text="g" xlink:href="#font_1_74" transform="matrix(8.9664,0,0,-8.9664,32.95508,19.529992)"/>
<use data-text="C" xlink:href="#font_1_38" transform="matrix(8.9664,0,0,-8.9664,39.670915,19.529992)"/>
<use data-text="a" xlink:href="#font_1_68" transform="matrix(8.9664,0,0,-8.9664,45.651506,19.529992)"/>
<use data-text="m" xlink:href="#font_1_80" transform="matrix(8.9664,0,0,-8.9664,49.632585,19.529992)"/>
<use data-text="e" xlink:href="#font_1_72" transform="matrix(8.9664,0,0,-8.9664,56.608446,19.529992)"/>
<use data-text="r" xlink:href="#font_1_85" transform="matrix(8.9664,0,0,-8.9664,60.589525,19.529992)"/>
<use data-text="a" xlink:href="#font_1_68" transform="matrix(8.9664,0,0,-8.9664,63.575334,19.529992)"/>
<use data-text="v" xlink:href="#font_1_89" transform="matrix(8.9664,0,0,-8.9664,69.79801,19.529992)"/>
<use data-text="&#x00e0;" xlink:href="#font_1_106" transform="matrix(8.9664,0,0,-8.9664,74.28122,19.529992)"/>
<use data-text="o" xlink:href="#font_1_82" transform="matrix(8.9664,0,0,-8.9664,78.2623,19.529992)"/>
<use data-text="&#x0110;" xlink:href="#font_1_264" transform="matrix(8.9664,0,0,-8.9664,14.9030079,30.487992)"/>
<use data-text="&#x1ecd;" xlink:href="#font_1_1233" transform="matrix(8.9664,0,0,-8.9664,21.376748,30.487992)"/>
<use data-text="c" xlink:href="#font_1_70" transform="matrix(8.9664,0,0,-8.9664,25.859948,30.487992)"/>
<use data-text="f" xlink:href="#font_1_73" transform="matrix(8.9664,0,0,-8.9664,32.07366,30.487992)"/>
<use data-text="r" xlink:href="#font_1_85" transform="matrix(8.9664,0,0,-8.9664,35.05947,30.487992)"/>
<use data-text="a" xlink:href="#font_1_68" transform="matrix(8.9664,0,0,-8.9664,38.04528,30.487992)"/>
<use data-text="m" xlink:href="#font_1_80" transform="matrix(8.9664,0,0,-8.9664,42.02636,30.487992)"/>
<use data-text="e" xlink:href="#font_1_72" transform="matrix(8.9664,0,0,-8.9664,49.00222,30.487992)"/>
<use data-text="l" xlink:href="#font_1_79" transform="matrix(8.9664,0,0,-8.9664,55.2249,30.487992)"/>
<use data-text="i" xlink:href="#font_1_76" transform="matrix(8.9664,0,0,-8.9664,57.71756,30.487992)"/>
<use data-text="&#x00ea;" xlink:href="#font_1_114" transform="matrix(8.9664,0,0,-8.9664,60.21022,30.487992)"/>
<use data-text="n" xlink:href="#font_1_81" transform="matrix(8.9664,0,0,-8.9664,64.1913,30.487992)"/>
<use data-text="t" xlink:href="#font_1_87" transform="matrix(8.9664,0,0,-8.9664,70.9161,30.487992)"/>
<use data-text="&#x1ee5;" xlink:href="#font_1_1257" transform="matrix(8.9664,0,0,-8.9664,73.40875,30.487992)"/>
<use data-text="c" xlink:href="#font_1_70" transform="matrix(8.9664,0,0,-8.9664,77.89195,30.487992)"/>
<path transform="matrix(1,0,0,-1,142.772,102.15599)" d="M132.9201 96.28621H55.84987C53.64893 96.28621 51.86476 94.50204 51.86476 92.3011V68.4861C51.86476 66.28516 53.64893 64.50099 55.84987 64.50099H132.9201C135.12105 64.50099 136.90522 66.28516 136.90522 68.4861V92.3011C136.90522 94.50204 135.12105 96.28621 132.9201 96.28621ZM51.86476 64.50099" fill="#d9ffd9"/>
<path transform="matrix(1,0,0,-1,142.772,102.15599)" stroke-width=".3985" stroke-linecap="butt" stroke-miterlimit="10" stroke-linejoin="miter" fill="none" stroke="#000000" d="M132.9201 96.28621H55.84987C53.64893 96.28621 51.86476 94.50204 51.86476 92.3011V68.4861C51.86476 66.28516 53.64893 64.50099 55.84987 64.50099H132.9201C135.12105 64.50099 136.90522 66.28516 136.90522 68.4861V92.3011C136.90522 94.50204 135.12105 96.28621 132.9201 96.28621ZM51.86476 64.50099"/>
<use data-text="L" xlink:href="#font_1_47" transform="matrix(8.9664,0,0,-8.9664,205.788,19.529992)"/>
<use data-text="u" xlink:href="#font_1_88" transform="matrix(8.9664,0,0,-8.9664,211.26648,19.529992)"/>
<use data-text="&#x1ed3;" xlink:href="#font_1_1239" transform="matrix(8.9664,0,0,-8.9664,215.74967,19.529992)"/>
<use data-text="n" xlink:href="#font_1_81" transform="matrix(8.9664,0,0,-8.9664,220.23288,19.529992)"/>
<use data-text="g" xlink:href="#font_1_74" transform="matrix(8.9664,0,0,-8.9664,224.71607,19.529992)"/>
<use data-text="C" xlink:href="#font_1_38" transform="matrix(8.9664,0,0,-8.9664,231.43192,19.529992)"/>
<use data-text="a" xlink:href="#font_1_68" transform="matrix(8.9664,0,0,-8.9664,237.4125,19.529992)"/>
<use data-text="m" xlink:href="#font_1_80" transform="matrix(8.9664,0,0,-8.9664,241.39359,19.529992)"/>
<use data-text="e" xlink:href="#font_1_72" transform="matrix(8.9664,0,0,-8.9664,248.36945,19.529992)"/>
<use data-text="r" xlink:href="#font_1_85" transform="matrix(8.9664,0,0,-8.9664,252.35053,19.529992)"/>
<use data-text="a" xlink:href="#font_1_68" transform="matrix(8.9664,0,0,-8.9664,255.33634,19.529992)"/>
<use data-text="r" xlink:href="#font_1_85" transform="matrix(8.9664,0,0,-8.9664,261.55903,19.529992)"/>
<use data-text="a" xlink:href="#font_1_68" transform="matrix(8.9664,0,0,-8.9664,264.5448,19.529992)"/>
<use data-text="&#x0110;" xlink:href="#font_1_264" transform="matrix(8.9664,0,0,-8.9664,203.673,30.487992)"/>
<use data-text="&#x1ecd;" xlink:href="#font_1_1233" transform="matrix(8.9664,0,0,-8.9664,210.14675,30.487992)"/>
<use data-text="c" xlink:href="#font_1_70" transform="matrix(8.9664,0,0,-8.9664,214.62995,30.487992)"/>
<use data-text="f" xlink:href="#font_1_73" transform="matrix(8.9664,0,0,-8.9664,220.84366,30.487992)"/>
<use data-text="r" xlink:href="#font_1_85" transform="matrix(8.9664,0,0,-8.9664,223.82947,30.487992)"/>
<use data-text="a" xlink:href="#font_1_68" transform="matrix(8.9664,0,0,-8.9664,226.81528,30.487992)"/>
<use data-text="m" xlink:href="#font_1_80" transform="matrix(8.9664,0,0,-8.9664,230.79636,30.487992)"/>
<use data-text="e" xlink:href="#font_1_72" transform="matrix(8.9664,0,0,-8.9664,237.77222,30.487992)"/>
<use data-text="l" xlink:href="#font_1_79" transform="matrix(8.9664,0,0,-8.9664,243.9949,30.487992)"/>
<use data-text="i" xlink:href="#font_1_76" transform="matrix(8.9664,0,0,-8.9664,246.48755,30.487992)"/>
<use data-text="&#x00ea;" xlink:href="#font_1_114" transform="matrix(8.9664,0,0,-8.9664,248.98023,30.487992)"/>
<use data-text="n" xlink:href="#font_1_81" transform="matrix(8.9664,0,0,-8.9664,252.9613,30.487992)"/>
<use data-text="t" xlink:href="#font_1_87" transform="matrix(8.9664,0,0,-8.9664,259.6861,30.487992)"/>
<use data-text="&#x1ee5;" xlink:href="#font_1_1257" transform="matrix(8.9664,0,0,-8.9664,262.17878,30.487992)"/>
<use data-text="c" xlink:href="#font_1_70" transform="matrix(8.9664,0,0,-8.9664,266.66197,30.487992)"/>
<path transform="matrix(1,0,0,-1,142.772,102.15599)" d="M-55.84987-64.50099H-132.9201C-135.12105-64.50099-136.90522-66.28516-136.90522-68.4861V-90.93948C-136.90522-93.14043-135.12105-94.92459-132.9201-94.92459H-55.84987C-53.64893-94.92459-51.86476-93.14043-51.86476-90.93948V-68.4861C-51.86476-66.28516-53.64893-64.50099-55.84987-64.50099ZM-136.90522-94.92459" fill="#f5d9e2"/>
<path transform="matrix(1,0,0,-1,142.772,102.15599)" stroke-width=".3985" stroke-linecap="butt" stroke-miterlimit="10" stroke-linejoin="miter" fill="none" stroke="#000000" d="M-55.84987-64.50099H-132.9201C-135.12105-64.50099-136.90522-66.28516-136.90522-68.4861V-90.93948C-136.90522-93.14043-135.12105-94.92459-132.9201-94.92459H-55.84987C-53.64893-94.92459-51.86476-93.14043-51.86476-90.93948V-68.4861C-51.86476-66.28516-53.64893-64.50099-55.84987-64.50099ZM-136.90522-94.92459"/>
<use data-text="L" xlink:href="#font_1_47" transform="matrix(8.9664,0,0,-8.9664,30.830002,180.318)"/>
<use data-text="u" xlink:href="#font_1_88" transform="matrix(8.9664,0,0,-8.9664,36.30847,180.318)"/>
<use data-text="&#x1ed3;" xlink:href="#font_1_1239" transform="matrix(8.9664,0,0,-8.9664,40.79167,180.318)"/>
<use data-text="n" xlink:href="#font_1_81" transform="matrix(8.9664,0,0,-8.9664,45.27487,180.318)"/>
<use data-text="g" xlink:href="#font_1_74" transform="matrix(8.9664,0,0,-8.9664,49.75807,180.318)"/>
<use data-text="A" xlink:href="#font_1_36" transform="matrix(8.9664,0,0,-8.9664,56.482873,180.318)"/>
<use data-text="I" xlink:href="#font_1_44" transform="matrix(8.9664,0,0,-8.9664,62.95661,180.318)"/>
<use data-text="Y" xlink:href="#font_1_60" transform="matrix(8.9664,0,0,-8.9664,21.946999,191.27599)"/>
<use data-text="O" xlink:href="#font_1_50" transform="matrix(8.9664,0,0,-8.9664,28.420739,191.27599)"/>
<use data-text="L" xlink:href="#font_1_47" transform="matrix(8.9664,0,0,-8.9664,34.894479,191.27599)"/>
<use data-text="O" xlink:href="#font_1_50" transform="matrix(8.9664,0,0,-8.9664,40.372949,191.27599)"/>
<use data-text="+" xlink:href="#font_1_14" transform="matrix(8.9664,0,0,-8.9664,49.079324,191.27599)"/>
<use data-text="O" xlink:href="#font_1_50" transform="matrix(8.9664,0,0,-8.9664,56.377977,191.27599)"/>
<use data-text="C" xlink:href="#font_1_38" transform="matrix(8.9664,0,0,-8.9664,62.851716,191.27599)"/>
<use data-text="R" xlink:href="#font_1_53" transform="matrix(8.9664,0,0,-8.9664,68.832309,191.27599)"/>
<path transform="matrix(1,0,0,-1,142.772,102.15599)" d="M132.9201-64.50099H55.84987C53.64893-64.50099 51.86476-66.28516 51.86476-68.4861V-92.3011C51.86476-94.50204 53.64893-96.28621 55.84987-96.28621H132.9201C135.12105-96.28621 136.90522-94.50204 136.90522-92.3011V-68.4861C136.90522-66.28516 135.12105-64.50099 132.9201-64.50099ZM51.86476-96.28621" fill="#fffcdf"/>
<path transform="matrix(1,0,0,-1,142.772,102.15599)" stroke-width=".3985" stroke-linecap="butt" stroke-miterlimit="10" stroke-linejoin="miter" fill="none" stroke="#000000" d="M132.9201-64.50099H55.84987C53.64893-64.50099 51.86476-66.28516 51.86476-68.4861V-92.3011C51.86476-94.50204 53.64893-96.28621 55.84987-96.28621H132.9201C135.12105-96.28621 136.90522-94.50204 136.90522-92.3011V-68.4861C136.90522-66.28516 135.12105-64.50099 132.9201-64.50099ZM51.86476-96.28621"/>
<use data-text="L" xlink:href="#font_1_47" transform="matrix(8.9664,0,0,-8.9664,207.02399,180.318)"/>
<use data-text="u" xlink:href="#font_1_88" transform="matrix(8.9664,0,0,-8.9664,212.50247,180.318)"/>
<use data-text="&#x1ed3;" xlink:href="#font_1_1239" transform="matrix(8.9664,0,0,-8.9664,216.98566,180.318)"/>
<use data-text="n" xlink:href="#font_1_81" transform="matrix(8.9664,0,0,-8.9664,221.46887,180.318)"/>
<use data-text="g" xlink:href="#font_1_74" transform="matrix(8.9664,0,0,-8.9664,225.95206,180.318)"/>
<use data-text="C" xlink:href="#font_1_38" transform="matrix(8.9664,0,0,-8.9664,232.67687,180.318)"/>
<use data-text="&#x1ea3;" xlink:href="#font_1_1191" transform="matrix(8.9664,0,0,-8.9664,238.65746,180.318)"/>
<use data-text="m" xlink:href="#font_1_80" transform="matrix(8.9664,0,0,-8.9664,242.63854,180.318)"/>
<use data-text="b" xlink:href="#font_1_69" transform="matrix(8.9664,0,0,-8.9664,251.85599,180.318)"/>
<use data-text="i" xlink:href="#font_1_76" transform="matrix(8.9664,0,0,-8.9664,256.3392,180.318)"/>
<use data-text="&#x1ebf;" xlink:href="#font_1_1219" transform="matrix(8.9664,0,0,-8.9664,258.83186,180.318)"/>
<use data-text="n" xlink:href="#font_1_81" transform="matrix(8.9664,0,0,-8.9664,262.81294,180.318)"/>
<use data-text="&#x0110;" xlink:href="#font_1_264" transform="matrix(8.9664,0,0,-8.9664,205.032,191.27599)"/>
<use data-text="&#x1ecd;" xlink:href="#font_1_1233" transform="matrix(8.9664,0,0,-8.9664,211.50574,191.27599)"/>
<use data-text="c" xlink:href="#font_1_70" transform="matrix(8.9664,0,0,-8.9664,215.98894,191.27599)"/>
<use data-text="S" xlink:href="#font_1_54" transform="matrix(8.9664,0,0,-8.9664,222.20265,191.27599)"/>
<use data-text="e" xlink:href="#font_1_72" transform="matrix(8.9664,0,0,-8.9664,227.18798,191.27599)"/>
<use data-text="r" xlink:href="#font_1_85" transform="matrix(8.9664,0,0,-8.9664,231.16905,191.27599)"/>
<use data-text="i" xlink:href="#font_1_76" transform="matrix(8.9664,0,0,-8.9664,234.15486,191.27599)"/>
<use data-text="a" xlink:href="#font_1_68" transform="matrix(8.9664,0,0,-8.9664,236.64752,191.27599)"/>
<use data-text="l" xlink:href="#font_1_79" transform="matrix(8.9664,0,0,-8.9664,240.6286,191.27599)"/>
<use data-text="1" xlink:href="#font_1_20" transform="matrix(8.9664,0,0,-8.9664,245.36286,191.27599)"/>
<use data-text="0" xlink:href="#font_1_19" transform="matrix(8.9664,0,0,-8.9664,249.84607,191.27599)"/>
<use data-text="0" xlink:href="#font_1_19" transform="matrix(8.9664,0,0,-8.9664,254.32926,191.27599)"/>
<use data-text="m" xlink:href="#font_1_80" transform="matrix(8.9664,0,0,-8.9664,258.81248,191.27599)"/>
<use data-text="s" xlink:href="#font_1_86" transform="matrix(8.9664,0,0,-8.9664,265.78834,191.27599)"/>
<path transform="matrix(1,0,0,-1,142.772,102.15599)" stroke-width=".79701" stroke-linecap="butt" stroke-miterlimit="10" stroke-linejoin="miter" fill="none" stroke="#000000" d="M-75.5077 64.30174-28.69684 24.44606"/>
<path transform="matrix(.76135,.64825,.64825,-.76135,112.198368,76.11192)" d="M5.44046 0 1.28699 1.5706 2.66432 0 1.28699-1.5706Z"/>
<path transform="matrix(.76135,.64825,.64825,-.76135,112.198368,76.11192)" stroke-width=".79701" stroke-linecap="butt" stroke-miterlimit="10" stroke-linejoin="miter" fill="none" stroke="#000000" d="M5.44046 0 1.28699 1.5706 2.66432 0 1.28699-1.5706Z"/>
<use data-text="l" xlink:href="#font_1_79" transform="matrix(6.9738,0,0,-6.9738,54.051004,60.78299)"/>
<use data-text="a" xlink:href="#font_1_68" transform="matrix(6.9738,0,0,-6.9738,55.989717,60.78299)"/>
<use data-text="t" xlink:href="#font_1_87" transform="matrix(6.9738,0,0,-6.9738,59.086084,60.78299)"/>
<use data-text="e" xlink:href="#font_1_72" transform="matrix(6.9738,0,0,-6.9738,61.024797,60.78299)"/>
<use data-text="s" xlink:href="#font_1_86" transform="matrix(6.9738,0,0,-6.9738,64.12116,60.78299)"/>
<use data-text="t" xlink:href="#font_1_87" transform="matrix(6.9738,0,0,-6.9738,66.83397,60.78299)"/>
<use data-text="_" xlink:href="#font_1_66" transform="matrix(6.9738,0,0,-6.9738,68.77268,60.78299)"/>
<use data-text="f" xlink:href="#font_1_73" transform="matrix(6.9738,0,0,-6.9738,72.25958,60.78299)"/>
<use data-text="r" xlink:href="#font_1_85" transform="matrix(6.9738,0,0,-6.9738,74.581859,60.78299)"/>
<use data-text="a" xlink:href="#font_1_68" transform="matrix(6.9738,0,0,-6.9738,76.90413,60.78299)"/>
<use data-text="m" xlink:href="#font_1_80" transform="matrix(6.9738,0,0,-6.9738,80.000499,60.78299)"/>
<use data-text="e" xlink:href="#font_1_72" transform="matrix(6.9738,0,0,-6.9738,85.42611,60.78299)"/>
<path transform="matrix(1,0,0,-1,142.772,102.15599)" stroke-width=".79701" stroke-linecap="butt" stroke-miterlimit="10" stroke-linejoin="miter" fill="none" stroke="#000000" d="M75.5077 64.30174 28.69684 24.44606"/>
<path transform="matrix(-.76135,.64825,.64825,.76135,173.34564,76.11192)" d="M5.44046 0 1.28699 1.5706 2.66432 0 1.28699-1.5706Z"/>
<path transform="matrix(-.76135,.64825,.64825,.76135,173.34564,76.11192)" stroke-width=".79701" stroke-linecap="butt" stroke-miterlimit="10" stroke-linejoin="miter" fill="none" stroke="#000000" d="M5.44046 0 1.28699 1.5706 2.66432 0 1.28699-1.5706Z"/>
<use data-text="l" xlink:href="#font_1_79" transform="matrix(6.9738,0,0,-6.9738,197.029,60.78299)"/>
<use data-text="a" xlink:href="#font_1_68" transform="matrix(6.9738,0,0,-6.9738,198.96772,60.78299)"/>
<use data-text="t" xlink:href="#font_1_87" transform="matrix(6.9738,0,0,-6.9738,202.06409,60.78299)"/>
<use data-text="e" xlink:href="#font_1_72" transform="matrix(6.9738,0,0,-6.9738,204.0028,60.78299)"/>
<use data-text="s" xlink:href="#font_1_86" transform="matrix(6.9738,0,0,-6.9738,207.09917,60.78299)"/>
<use data-text="t" xlink:href="#font_1_87" transform="matrix(6.9738,0,0,-6.9738,209.81198,60.78299)"/>
<use data-text="_" xlink:href="#font_1_66" transform="matrix(6.9738,0,0,-6.9738,211.75069,60.78299)"/>
<use data-text="f" xlink:href="#font_1_73" transform="matrix(6.9738,0,0,-6.9738,215.23758,60.78299)"/>
<use data-text="r" xlink:href="#font_1_85" transform="matrix(6.9738,0,0,-6.9738,217.55986,60.78299)"/>
<use data-text="a" xlink:href="#font_1_68" transform="matrix(6.9738,0,0,-6.9738,219.88214,60.78299)"/>
<use data-text="m" xlink:href="#font_1_80" transform="matrix(6.9738,0,0,-6.9738,222.9785,60.78299)"/>
<use data-text="e" xlink:href="#font_1_72" transform="matrix(6.9738,0,0,-6.9738,228.40412,60.78299)"/>
<path transform="matrix(1,0,0,-1,142.772,102.15599)" stroke-width=".79701" stroke-linecap="butt" stroke-miterlimit="10" stroke-linejoin="miter" fill="none" stroke="#000000" d="M-76.13774-64.30174-28.928-24.4334"/>
<path transform="matrix(.76398,-.64517,-.64517,-.76398,111.960758,128.1798)" d="M5.44046 0 1.28699 1.5706 2.66432 0 1.28699-1.5706Z"/>
<path transform="matrix(.76398,-.64517,-.64517,-.76398,111.960758,128.1798)" stroke-width=".79701" stroke-linecap="butt" stroke-miterlimit="10" stroke-linejoin="miter" fill="none" stroke="#000000" d="M5.44046 0 1.28699 1.5706 2.66432 0 1.28699-1.5706Z"/>
<use data-text="q" xlink:href="#font_1_84" transform="matrix(6.9738,0,0,-6.9738,69.491008,146.051)"/>
<use data-text="_" xlink:href="#font_1_66" transform="matrix(6.9738,0,0,-6.9738,72.977909,146.051)"/>
<use data-text="m" xlink:href="#font_1_80" transform="matrix(6.9738,0,0,-6.9738,76.464809,146.051)"/>
<use data-text="s" xlink:href="#font_1_86" transform="matrix(6.9738,0,0,-6.9738,81.89042,146.051)"/>
<use data-text="g" xlink:href="#font_1_74" transform="matrix(6.9738,0,0,-6.9738,84.603229,146.051)"/>
<path transform="matrix(1,0,0,-1,142.772,102.15599)" stroke-width=".79701" stroke-linecap="butt" stroke-miterlimit="10" stroke-linejoin="miter" fill="none" stroke="#000000" d="M75.5077-64.30174 28.69684-24.44606"/>
<path transform="matrix(-.76135,-.64825,-.64825,.76135,173.34564,128.20006)" d="M5.44046 0 1.28699 1.5706 2.66432 0 1.28699-1.5706Z"/>
<path transform="matrix(-.76135,-.64825,-.64825,.76135,173.34564,128.20006)" stroke-width=".79701" stroke-linecap="butt" stroke-miterlimit="10" stroke-linejoin="miter" fill="none" stroke="#000000" d="M5.44046 0 1.28699 1.5706 2.66432 0 1.28699-1.5706Z"/>
<use data-text="q" xlink:href="#font_1_84" transform="matrix(6.9738,0,0,-6.9738,197.029,146.05199)"/>
<use data-text="_" xlink:href="#font_1_66" transform="matrix(6.9738,0,0,-6.9738,200.5159,146.05199)"/>
<use data-text="s" xlink:href="#font_1_86" transform="matrix(6.9738,0,0,-6.9738,204.0028,146.05199)"/>
<use data-text="e" xlink:href="#font_1_72" transform="matrix(6.9738,0,0,-6.9738,206.7156,146.05199)"/>
<use data-text="n" xlink:href="#font_1_81" transform="matrix(6.9738,0,0,-6.9738,209.81198,146.05199)"/>
<use data-text="s" xlink:href="#font_1_86" transform="matrix(6.9738,0,0,-6.9738,213.29889,146.05199)"/>
<use data-text="o" xlink:href="#font_1_82" transform="matrix(6.9738,0,0,-6.9738,216.01169,146.05199)"/>
<use data-text="r" xlink:href="#font_1_85" transform="matrix(6.9738,0,0,-6.9738,219.4986,146.05199)"/>
<path transform="matrix(1,0,0,-1,142.772,102.15599)" stroke-width=".79701" stroke-linecap="butt" stroke-miterlimit="10" stroke-linejoin="miter" fill="none" stroke="#000000" d="M-25.78113-21.78152-72.999-61.65005"/>
<path transform="matrix(-.76402,.64513,.64513,.76402,71.65638,162.21576)" d="M5.44046 0 1.28699 1.5706 2.66432 0 1.28699-1.5706Z"/>
<path transform="matrix(-.76402,.64513,.64513,.76402,71.65638,162.21576)" stroke-width=".79701" stroke-linecap="butt" stroke-miterlimit="10" stroke-linejoin="miter" fill="none" stroke="#000000" d="M5.44046 0 1.28699 1.5706 2.66432 0 1.28699-1.5706Z"/>
<use data-text="q" xlink:href="#font_1_84" transform="matrix(6.9738,0,0,-6.9738,95.531009,146.866)"/>
<use data-text="_" xlink:href="#font_1_66" transform="matrix(6.9738,0,0,-6.9738,99.0179,146.866)"/>
<use data-text="a" xlink:href="#font_1_68" transform="matrix(6.9738,0,0,-6.9738,102.50481,146.866)"/>
<use data-text="i" xlink:href="#font_1_76" transform="matrix(6.9738,0,0,-6.9738,105.601169,146.866)"/>
</svg>
