<svg xmlns="http://www.w3.org/2000/svg" xmlns:xlink="http://www.w3.org/1999/xlink" xmlns:inkscape="http://www.inkscape.org/namespaces/inkscape" version="1.1" width="281.83" height="207.25" viewBox="0 0 281.83 207.25">
<defs>
<path id="font_1_38" d="M.6020508 .6767578 .6171875 .45214845H.6020508C.58186849 .51970419 .5530599 .56832888 .515625 .59802249 .4781901 .62772628 .43326823 .6425781 .38085938 .6425781 .33691407 .6425781 .29720054 .6314189 .26171876 .60910037 .22623699 .586792 .19832357 .5512034 .17797852 .5023346 .15763347 .4534658 .14746094 .3927053 .14746094 .3200531 .14746094 .26011659 .1570638 .20815532 .17626953 .16416931 .19547527 .12019348 .22436524 .08647665 .26293946 .0630188 .30151368 .039560956 .34554038 .027832032 .39501954 .027832032 .43798829 .027832032 .47591148 .037027997 .50878909 .055419923 .5416667 .07381185 .5777995 .11035156 .6171875 .16503906L.6323242 .15530396C.5991211 .09653727 .5603841 .05351766 .5161133 .026245118 .47184245-.0010172526 .41927085-.0146484379 .35839845-.0146484379 .24869792-.0146484379 .16373699 .025985718 .103515628 .10725403 .05859375 .16770935 .036132814 .23889669 .036132814 .32081605 .036132814 .3868052 .05094401 .44742839 .080566409 .50268557 .110188808 .5579427 .15096028 .60076907 .20288086 .63116458 .25480143 .66156008 .31152345 .6767578 .37304688 .6767578 .42089845 .6767578 .46809898 .66503909 .51464846 .64160159 .5283203 .6344401 .53808596 .6308594 .5439453 .6308594 .5527344 .6308594 .5603841 .63395187 .56689456 .6401367 .5753581 .6489258 .5813802 .6611328 .58496096 .6767578H.6020508Z"/>
<path id="font_1_68" d="M.28466798 .064453128C.23876953 .028971354 .20996094 .008463542 .19824219 .0029296876 .18066406-.005533854 .16194661-.009765625 .14208985-.009765625 .11116537-.009765625 .08569336 .00081380209 .06567383 .021972657 .045654298 .04313151 .03564453 .07096354 .03564453 .10546875 .03564453 .12727864 .040527345 .14615886 .05029297 .16210938 .06363932 .1842448 .08683268 .20507813 .11987305 .22460938 .1529134 .24414063 .20784505 .26790367 .28466798 .29589845V.31347657C.28466798 .3580729 .2775879 .38867188 .26342774 .40527345 .24926758 .421875 .22867839 .43017579 .20166016 .43017579 .18115235 .43017579 .1648763 .42466227 .15283203 .41363526 .14046224 .40260826 .13427735 .3899587 .13427735 .37568666L.1352539 .34747315C.1352539 .3325602 .13142903 .32105003 .1237793 .3129425 .116129558 .304835 .10611979 .30078126 .09375 .30078126 .08170573 .30078126 .07185873 .30499778 .064208988 .3134308 .056559247 .321874 .052734376 .33339945 .052734376 .3480072 .052734376 .37591044 .06705729 .4015452 .095703128 .4249115 .12434896 .4482778 .16455078 .45996095 .2163086 .45996095 .25602214 .45996095 .28857423 .45329795 .31396485 .43997193 .33317057 .42989097 .34733073 .41411845 .3564453 .39265443 .3623047 .37867738 .36523438 .35006715 .36523438 .30682374V.15515137C.36523438 .112559 .3660482 .08646647 .36767579 .07687378 .36930339 .06728109 .37198893 .060857137 .37573243 .05760193 .37947593 .05435689 .38378907 .052734376 .38867188 .052734376 .39388023 .052734376 .3984375 .0538737 .40234376 .056152345 .4091797 .060384115 .42236329 .072265628 .44189454 .091796878V.064453128C.4054362 .015625 .37060548-.0087890629 .33740235-.0087890629 .3214518-.0087890629 .3087565-.0032552083 .2993164 .0078125 .2898763 .018880209 .2849935 .037760419 .28466798 .064453128M.28466798 .096466068V.26611329C.23551433 .24667359 .20377605 .23289998 .18945313 .22479248 .16373699 .2105306 .14534505 .19562276 .13427735 .18006897 .12320963 .16451518 .11767578 .14750164 .11767578 .12902832 .11767578 .10569254 .12467448 .08632914 .13867188 .07093811 .15266927 .055547079 .16878255 .047851564 .18701172 .047851564 .2117513 .047851564 .24430339 .0640564 .28466798 .096466068Z"/>
<path id="font_1_80" d="M.1640625 .3647461C.19661458 .3972982 .21582031 .41601563 .22167969 .42089845 .23632813 .43326823 .25211589 .4428711 .26904298 .44970704 .28597007 .45654298 .30273438 .45996095 .31933595 .45996095 .34733073 .45996095 .37141929 .4518229 .39160157 .43554688 .41178385 .41927085 .42529298 .39567057 .4321289 .3647461 .46565757 .4038086 .49397788 .42944337 .51708987 .4416504 .54020187 .45385743 .56396487 .45996095 .5883789 .45996095 .6121419 .45996095 .6332194 .45386759 .6516113 .4416809 .67000326 .4295044 .6845703 .40961204 .6953125 .38200379 .70247396 .36316429 .7060547 .333608 .7060547 .29333497V.101379398C.7060547 .07344564 .7081706 .054280599 .71240237 .043884279 .71565756 .036743165 .7216797 .030654908 .73046877 .025619507 .7392578 .020584107 .75358077 .018066407 .7734375 .018066407V0H.5527344V.018066407H.5620117C.58121749 .018066407 .5961914 .02178955 .6069336 .02923584 .6144206 .034423829 .6197917 .042683919 .6230469 .054016115 .62434896 .05951945 .625 .07522583 .625 .101135257V.2925415C.625 .32881675 .62060549 .35440064 .6118164 .3692932 .5991211 .3900248 .57877609 .40039063 .55078127 .40039063 .5335286 .40039063 .51619467 .3960978 .4987793 .3875122 .48136393 .37893678 .46028648 .36298625 .43554688 .33966065L.4345703 .33432008 .43554688 .3134308V.101135257C.43554688 .07068888 .43725587 .051742555 .44067384 .044296266 .4440918 .036849977 .45052085 .030614218 .45996095 .02558899 .46940104 .020573935 .4855143 .018066407 .5083008 .018066407V0H.28222657V.018066407C.30696617 .018066407 .3239746 .020980835 .33325196 .026809693 .3425293 .03263855 .34895835 .041381837 .35253907 .05303955 .35416667 .05855306 .35498048 .07458496 .35498048 .101135257V.2925415C.35498048 .32881675 .34960938 .35488893 .3388672 .37075807 .32454429 .39148966 .30452476 .40185548 .2788086 .40185548 .26123048 .40185548 .24381511 .39716087 .2265625 .3877716 .19954427 .3735199 .17871094 .357488 .1640625 .3396759V.101135257C.1640625 .07199097 .166097 .053044637 .17016602 .044296266 .17423503 .035558065 .18025716 .029001872 .18823242 .024627686 .19620769 .0202535 .21240235 .018066407 .2368164 .018066407V0H.015625V.018066407C.036132814 .018066407 .05045573 .020258585 .05859375 .024642945 .06673177 .029027304 .072916667 .036010744 .07714844 .04559326 .08138021 .05517578 .083496097 .07377116 .083496097 .101379398V.27189637C.083496097 .32094828 .08203125 .35261537 .07910156 .36689759 .076822917 .37761943 .07324219 .38500978 .068359378 .3890686 .06347656 .39312745 .056803388 .39515687 .048339845 .39515687 .03922526 .39515687 .028320313 .39272056 .015625 .3878479L.008300781 .4053955 .1430664 .45996095H.1640625V.3647461Z"/>
<path id="font_1_72" d="M.10644531 .2783203C.10611979 .21206665 .12223307 .1601003 .15478516 .122421268 .18733724 .0847524 .22558594 .06591797 .26953126 .06591797 .29882813 .06591797 .32430015 .07397461 .34594728 .09008789 .3675944 .10620117 .3857422 .13378906 .40039063 .17285156L.41552735 .16308594C.4086914 .118489589 .38883464 .07788086 .35595704 .041259767 .32307945 .004638672 .28190104-.013671875 .23242188-.013671875 .17871094-.013671875 .13273113 .007197062 .09448242 .048934938 .056233724 .09068298 .037109376 .14680481 .037109376 .21730042 .037109376 .29363505 .056722005 .35315959 .095947269 .39587403 .13517253 .43859864 .18440755 .45996095 .24365235 .45996095 .29378257 .45996095 .33496095 .44348146 .3671875 .41052247 .39941407 .37757365 .41552735 .33350627 .41552735 .2783203H.10644531M.10644531 .30664063H.31347657C.31184898 .33528648 .308431 .35546876 .30322267 .3671875 .29508464 .38541667 .28295899 .3997396 .2668457 .41015626 .25073243 .4205729 .23388672 .42578126 .2163086 .42578126 .18929036 .42578126 .16512044 .4152832 .14379883 .3942871 .12247721 .37329103 .11002604 .34407554 .10644531 .30664063Z"/>
<path id="font_1_85" d="M.16210938 .45996095V.359375C.19954427 .42643229 .23795574 .45996095 .27734376 .45996095 .2952474 .45996095 .3100586 .45450846 .32177735 .44360353 .3334961 .43269859 .33935548 .42008464 .33935548 .40576173 .33935548 .3930664 .3351237 .38232423 .32666017 .37353517 .31819663 .3647461 .30810548 .36035157 .29638673 .36035157 .2849935 .36035157 .2722168 .3659668 .25805665 .37719728 .24389649 .38842774 .23339844 .39404298 .2265625 .39404298 .22070313 .39404298 .21435547 .39079795 .20751953 .38430787 .1928711 .37099204 .17773438 .34907533 .16210938 .31855775V.10475159C.16210938 .080083217 .16520183 .061416627 .17138672 .04875183 .17561849 .039983114 .18310547 .032674154 .19384766 .026824952 .20458985 .020985922 .22005208 .018066407 .24023438 .018066407V0H.011230469V.018066407C.034016927 .018066407 .05094401 .021636963 .06201172 .028778077 .07014974 .03397624 .07584635 .04226176 .07910156 .053634645 .080729167 .059158327 .08154297 .074910487 .08154297 .10089111V.2738495C.08154297 .32582093 .08048502 .35675559 .07836914 .36665345 .07625326 .3765615 .07234701 .38378907 .06665039 .38833619 .060953779 .3928833 .0538737 .39515687 .045410158 .39515687 .03531901 .39515687 .023925782 .39272056 .011230469 .3878479L.0063476564 .4053955 .14160156 .45996095H.16210938Z"/>
<path id="font_1_11" d="M.31054688-.19580078V-.21386719C.26139323-.18912761 .22037761-.16015625 .1875-.12695313 .140625-.0797526 .10449219-.024088541 .07910156 .040039064 .053710939 .104166667 .041015626 .17073567 .041015626 .2397461 .041015626 .34065757 .06591797 .43269859 .115722659 .51586917 .16552735 .59903976 .23046875 .6585286 .31054688 .69433596V.6738281C.2705078 .6516927 .2376302 .62141928 .21191406 .5830078 .18619792 .5445964 .16699219 .495931 .15429688 .43701173 .14160156 .37809245 .1352539 .316569 .1352539 .2524414 .1352539 .18277996 .140625 .11946615 .15136719 .0625 .15983074 .017578125 .17008464-.018473307 .1821289-.045654298 .19417317-.07283529 .21036785-.098958339 .23071289-.12402344 .25105796-.14908855 .27766929-.17301433 .31054688-.19580078Z"/>
<path id="font_1_79" d="M.1850586 .69433596V.101501468C.1850586 .073527019 .1870931 .054982503 .19116211 .04586792 .19523113 .036763509 .20149739 .029851279 .20996094 .025131226 .21842449 .020421347 .23421224 .018066407 .25732423 .018066407V0H.038085939V.018066407C.05859375 .018066407 .07259115 .020177206 .080078128 .024398804 .0875651 .028630576 .09342448 .035624189 .09765625 .04537964 .10188802 .055145265 .104003909 .07385254 .104003909 .101501468V.50746157C.104003909 .5578766 .102864589 .588857 .10058594 .60040286 .09830729 .6119588 .09464518 .6198476 .08959961 .6240692 .08455404 .62830099 .078125 .63041689 .0703125 .63041689 .061848958 .63041689 .05110677 .6278127 .038085939 .62260439L.029785157 .6396942 .16308594 .69433596H.1850586Z"/>
<path id="font_1_88" d="M.42333985 .44726563V.17626953C.42333985 .12451172 .42456056 .09285482 .42700196 .08129883 .42944337 .069742839 .4333496 .0616862 .4387207 .057128908 .4440918 .052571615 .45035807 .05029297 .45751954 .05029297 .4676107 .05029297 .4790039 .053059896 .49169923 .05859375L.49853517 .041503908 .3647461-.013671875H.34277345V.08105469C.30436198 .03938802 .2750651 .013183594 .2548828 .0024414063 .23470052-.008300781 .2133789-.013671875 .19091797-.013671875 .16585286-.013671875 .14412435-.0064290368 .12573242 .008056641 .10734049 .022542319 .094563808 .041178388 .087402347 .063964847 .08024088 .086751308 .076660159 .11897787 .076660159 .16064453V.36035157C.076660159 .3815104 .07438151 .39615885 .06982422 .40429688 .06526693 .4124349 .05851237 .41870118 .049560548 .4230957 .040608724 .42749024 .024414063 .42952476 .0009765625 .42919923V.44726563H.15771485V.14868164C.15771485 .1071167 .16495769 .07983907 .17944336 .066848758 .19392903 .05385844 .21142578 .04736328 .2319336 .04736328 .24593099 .04736328 .26180015 .05174764 .27954103 .060516359 .2972819 .06928507 .31835938 .086003627 .34277345 .110672V.3634491C.34277345 .3887787 .33813478 .40590415 .32885743 .41482545 .31958009 .42375694 .30029298 .4285482 .2709961 .42919923V.44726563H.42333985Z"/>
<path id="font_1_1239" d="M.25 .45996095C.31770835 .45996095 .3720703 .43427024 .41308595 .3828888 .44791667 .33899436 .46533204 .28858949 .46533204 .2316742 .46533204 .19167583 .45572917 .15118917 .43652345 .11021423 .41731773 .06924947 .39086915 .038360597 .35717774 .017547608 .32348634-.0032653809 .28597007-.013671875 .2446289-.013671875 .1772461-.013671875 .123697917 .013158162 .083984378 .06681824 .05045573 .11201477 .033691408 .16274007 .033691408 .21899414 .033691408 .2599691 .043863935 .30069987 .064208988 .34118653 .08455404 .3816732 .111328128 .41159059 .14453125 .43093873 .17773438 .45028688 .21289063 .45996095 .25 .45996095M.23486328 .42773438C.21761067 .42773438 .20027669 .42261253 .18286133 .41236878 .16544597 .40212504 .15136719 .38416038 .140625 .35847474 .12988281 .3327891 .12451172 .29978944 .12451172 .2594757 .12451172 .19445293 .13745117 .1383667 .16333008 .09121704 .18920899 .044077558 .2233073 .020507813 .265625 .020507813 .29720054 .020507813 .3232422 .033513387 .34375 .059524537 .3642578 .08553568 .37451173 .13023885 .37451173 .19363404 .37451173 .27296958 .35742188 .33539836 .3232422 .3809204 .30013023 .41212974 .27067057 .42773438 .23486328 .42773438M.21044922 .67285159H.30029298L.3930664 .5107422H.3779297L.2446289 .6150665 .1328125 .5107422H.11816406L.21044922 .67285159M.13964844 .890625H.24853516L.30029298 .72753909H.28320313L.13964844 .890625Z"/>
<path id="font_1_81" d="M.1616211 .36523438C.21402996 .4283854 .2639974 .45996095 .31152345 .45996095 .3359375 .45996095 .3569336 .45386759 .37451173 .4416809 .39208985 .4295044 .40608726 .40944926 .4165039 .3815155 .42366538 .36203514 .4272461 .33215333 .4272461 .29187013V.101379398C.4272461 .07312012 .42952476 .053955079 .43408204 .043884279 .43766276 .0357666 .44344078 .029434205 .45141603 .024887085 .45939128 .020339966 .4741211 .018066407 .49560548 .018066407V0H.27441407V.018066407H.2836914C.30452476 .018066407 .3190918 .021224976 .32739259 .027542115 .33569337 .033859254 .34147135 .043167116 .34472657 .0554657 .34602867 .060328168 .3466797 .07555135 .3466797 .101135257V.28330995C.3466797 .3237864 .34138999 .35317485 .33081056 .37147523 .3202311 .3897756 .30240885 .39892579 .27734376 .39892579 .23860677 .39892579 .20003255 .37787376 .1616211 .33576966V.101135257C.1616211 .071014408 .16341146 .052393598 .16699219 .045272829 .17154949 .035883588 .17781575 .029001872 .18579102 .024627686 .19376628 .0202535 .20996094 .018066407 .234375 .018066407V0H.013183594V.018066407H.022949219C.045735677 .018066407 .061116537 .023829142 .0690918 .035354616 .077067058 .04689026 .08105469 .06889852 .08105469 .101379398V.2670288C.08105469 .32061769 .079833988 .35325624 .07739258 .36494447 .07495117 .37664286 .07120768 .38460288 .06616211 .38882447 .061116537 .39304606 .05436198 .39515687 .045898439 .39515687 .036783857 .39515687 .025878907 .39272056 .013183594 .3878479L.005859375 .4053955 .140625 .45996095H.1616211V.36523438Z"/>
<path id="font_1_74" d="M.1508789 .16297913C.123535159 .17630513 .10253906 .19491577 .087890628 .21881104 .07324219 .2427063 .06591797 .26912437 .06591797 .2980652 .06591797 .342275 .082600917 .38031007 .1159668 .4121704 .14933269 .44403077 .1920573 .45996095 .24414063 .45996095 .28678385 .45996095 .32373048 .44954429 .35498048 .42871095H.44970704C.46370445 .42871095 .47184245 .4283091 .4741211 .4275055 .47639976 .42670188 .47802735 .42533366 .4790039 .42340089 .48095704 .4205017 .4819336 .41534934 .4819336 .40794374 .4819336 .3995819 .48111979 .39378868 .4794922 .39056397 .47851563 .3889567 .47680665 .3876699 .47436524 .3867035 .47192384 .3857371 .46370445 .3852539 .44970704 .3852539H.39160157C.40983073 .36176554 .4189453 .3317566 .4189453 .29522706 .4189453 .253479 .40299479 .21776326 .37109376 .18807984 .33919273 .15839641 .29638673 .14355469 .24267578 .14355469 .22054036 .14355469 .19791667 .14687602 .17480469 .15351868 .16048177 .14115906 .15079753 .13034058 .14575196 .12106323 .14070638 .11179606 .1381836 .10391235 .1381836 .09741211 .1381836 .09187826 .14086914 .086507167 .14624024 .08129883 .15161133 .07610067 .16210938 .07236227 .17773438 .07008362 .18684896 .06878153 .20963542 .06764221 .24609375 .06666565 .31315104 .06504822 .35660807 .06277466 .37646485 .05984497 .40673829 .0556132 .4309082 .044387819 .4489746 .026168824 .46704103 .007960002 .47607423-.014480591 .47607423-.041152955 .47607423-.07790629 .45882163-.11238607 .4243164-.14459229 .37353517-.19207764 .30729167-.21582031 .22558594-.21582031 .16276042-.21582031 .10970052-.2016805 .06640625-.17340088 .041992189-.15714519 .029785157-.14023845 .029785157-.122680667 .029785157-.11488851 .03157552-.10709127 .03515625-.09928894 .040690107-.087254848 .052083333-.070510867 .06933594-.049057008 .071614589-.046137494 .08821615-.028584799 .119140628 .0036010743 .10221354 .013702393 .09025065 .022745768 .08325195 .030731202 .07625326 .038716634 .072753909 .04776001 .072753909 .057861329 .072753909 .0692749 .07739258 .0826416 .08666992 .097961429 .095947269 .11328125 .11735026 .13495381 .1508789 .16297913M.23583985 .43554688C.2117513 .43554688 .19156902 .42599488 .17529297 .40689088 .15901692 .38779704 .1508789 .35850016 .1508789 .31900025 .1508789 .26784263 .16194661 .22818502 .18408203 .20002747 .20100911 .17865499 .22249349 .16796875 .24853516 .16796875 .27327476 .16796875 .29361979 .17719524 .3095703 .1956482 .32552085 .21410115 .3334961 .24307759 .3334961 .2825775 .3334961 .3340505 .32226563 .37435914 .2998047 .40350343 .28320313 .42486573 .2618815 .43554688 .23583985 .43554688M.1459961-.000289917C.13069661-.016860962 .119140628-.032292684 .111328128-.046585084 .103515628-.060887655 .099609378-.0740509 .099609378-.08607483 .099609378-.10166931 .10904948-.11531576 .12792969-.12701416 .16048177-.14715576 .20751953-.15722656 .26904298-.15722656 .32763673-.15722656 .3708496-.14690654 .39868165-.12626648 .42651368-.1056366 .4404297-.083628337 .4404297-.0602417 .4404297-.043345136 .4321289-.03132121 .41552735-.024169922 .39860026-.017018637 .36507163-.012797038 .3149414-.011505127 .24169922-.009552002 .18538411-.0058135988 .1459961-.000289917Z"/>
<path id="font_1_76" d="M.14501953 .69433596C.1586914 .69433596 .17032878 .6895091 .17993164 .67985537 .1895345 .6702118 .19433594 .6585185 .19433594 .6447754 .19433594 .6310323 .1895345 .6192525 .17993164 .60943606 .17032878 .5996297 .1586914 .59472659 .14501953 .59472659 .13134766 .59472659 .119628909 .5996297 .10986328 .60943606 .100097659 .6192525 .095214847 .6310323 .095214847 .6447754 .095214847 .6585185 .10001627 .6702118 .10961914 .67985537 .11922201 .6895091 .13102214 .69433596 .14501953 .69433596M.18554688 .45996095V.101379398C.18554688 .07344564 .18758138 .05485026 .19165039 .04559326 .1957194 .03633626 .20174153 .029434205 .2097168 .024887085 .21769206 .020339966 .23225911 .018066407 .25341798 .018066407V0H.036132814V.018066407C.057942708 .018066407 .07259115 .020177206 .080078128 .024398804 .0875651 .028620402 .09350586 .03560384 .09790039 .04534912 .10229492 .055094404 .10449219 .07377116 .10449219 .101379398V.2733612C.10449219 .32176209 .103027347 .35310365 .100097659 .36738587 .09781901 .3777822 .09423828 .38500978 .08935547 .3890686 .084472659 .39312745 .07779948 .39515687 .06933594 .39515687 .060221357 .39515687 .049153646 .39272056 .036132814 .3878479L.029296875 .4053955 .1640625 .45996095H.18554688Z"/>
<path id="font_1_114" d="M.10644531 .2783203C.10611979 .21206665 .12223307 .1601003 .15478516 .122421268 .18733724 .0847524 .22558594 .06591797 .26953126 .06591797 .29882813 .06591797 .32430015 .07397461 .34594728 .09008789 .3675944 .10620117 .3857422 .13378906 .40039063 .17285156L.41552735 .16308594C.4086914 .118489589 .38883464 .07788086 .35595704 .041259767 .32307945 .004638672 .28190104-.013671875 .23242188-.013671875 .17871094-.013671875 .13273113 .007197062 .09448242 .048934938 .056233724 .09068298 .037109376 .14680481 .037109376 .21730042 .037109376 .29363505 .056722005 .35315959 .095947269 .39587403 .13517253 .43859864 .18440755 .45996095 .24365235 .45996095 .29378257 .45996095 .33496095 .44348146 .3671875 .41052247 .39941407 .37757365 .41552735 .33350627 .41552735 .2783203H.10644531M.10644531 .30664063H.31347657C.31184898 .33528648 .308431 .35546876 .30322267 .3671875 .29508464 .38541667 .28295899 .3997396 .2668457 .41015626 .25073243 .4205729 .23388672 .42578126 .2163086 .42578126 .18929036 .42578126 .16512044 .4152832 .14379883 .3942871 .12247721 .37329103 .11002604 .34407554 .10644531 .30664063M.19677735 .67285159H.2866211L.37939454 .5107422H.3642578L.23095703 .6150665 .119140628 .5107422H.10449219L.19677735 .67285159Z"/>
<path id="font_1_12" d="M.022460938 .6738281V.69433596C.0719401 .6699219 .11311849 .6411133 .1459961 .60791018 .19254558 .5603841 .22851563 .5046387 .25390626 .44067384 .27929688 .37670899 .2919922 .3100586 .2919922 .24072266 .2919922 .1398112 .26717124 .047770185 .2175293-.03540039 .16788738-.11857096 .102864589-.17805989 .022460938-.21386719V-.19580078C.0625-.17333985 .095458988-.14298503 .12133789-.10473633 .1472168-.06648763 .16642253-.017822266 .17895508 .041259767 .19148763 .1003418 .1977539 .16194661 .1977539 .22607422 .1977539 .29541017 .19238281 .35872398 .18164063 .41601563 .17350261 .4609375 .16333008 .49690757 .15112305 .5239258 .13891602 .55094406 .12272135 .57698568 .10253906 .6020508 .08235677 .6271159 .055664064 .6510417 .022460938 .6738281Z"/>
<path id="font_1_37" d="M.46191407 .3376007C.5078125 .32784526 .54215499 .3122355 .5649414 .29077149 .5965169 .2608439 .6123047 .22425334 .6123047 .18099976 .6123047 .14815267 .601888 .11668396 .5810547 .08659363 .5602214 .05651347 .5316569 .034561159 .49536134 .020736695 .45906578 .0069122316 .40364585 0 .32910157 0H.016601563V.018066407H.041503908C.06917318 .018066407 .089029949 .026855469 .10107422 .044433595 .108561199 .055826826 .11230469 .080078128 .11230469 .1171875V.5449219C.11230469 .5859375 .10758463 .6118164 .09814453 .6225586 .08544922 .63688156 .06656901 .64404299 .041503908 .64404299H.016601563V.6621094H.30273438C.35611979 .6621094 .39892579 .65819808 .43115235 .65037539 .47998048 .6386464 .5172526 .61787417 .54296877 .5880585 .5686849 .558253 .58154299 .5239665 .58154299 .48519898 .58154299 .45196534 .57145187 .42223106 .55126956 .3959961 .5310872 .36977134 .50130209 .35030619 .46191407 .3376007M.20605469 .3642578C.21809896 .36197917 .23185222 .36027018 .24731446 .35913087 .2627767 .35799156 .27978517 .35742188 .29833985 .35742188 .34586589 .35742188 .3815918 .362559 .40551759 .37283326 .42944337 .3831075 .4477539 .39883933 .46044923 .4200287 .47314454 .44122825 .4794922 .464386 .4794922 .48950196 .4794922 .5283 .46370445 .5613963 .4321289 .5887909 .40055339 .6161855 .3544922 .6298828 .2939453 .6298828 .26139323 .6298828 .23209636 .62613937 .20605469 .61865237V.3642578M.20605469 .04736328C.24381511 .03857422 .28108726 .034179689 .3178711 .034179689 .37679038 .034179689 .42171226 .04744466 .45263673 .07397461 .4835612 .100504558 .49902345 .13330078 .49902345 .17236328 .49902345 .19807942 .49202476 .22281902 .47802735 .24658203 .46402995 .27034507 .4412435 .2890625 .40966798 .30273438 .37809245 .31640626 .33902995 .3232422 .29248048 .3232422 .2722982 .3232422 .25504557 .32291667 .24072266 .32226563 .22639974 .3216146 .21484375 .32047526 .20605469 .31884767V.04736328Z"/>
<path id="font_1_1245" d="M.25 .45996095C.31770835 .45996095 .3720703 .43427024 .41308595 .3828888 .44791667 .33899436 .46533204 .28858949 .46533204 .2316742 .46533204 .19167583 .45572917 .15118917 .43652345 .11021423 .41731773 .06924947 .39086915 .038360597 .35717774 .017547608 .32348634-.0032653809 .28597007-.013671875 .2446289-.013671875 .1772461-.013671875 .123697917 .013158162 .083984378 .06681824 .05045573 .11201477 .033691408 .16274007 .033691408 .21899414 .033691408 .2599691 .043863935 .30069987 .064208988 .34118653 .08455404 .3816732 .111328128 .41159059 .14453125 .43093873 .17773438 .45028688 .21289063 .45996095 .25 .45996095M.23486328 .42773438C.21761067 .42773438 .20027669 .42261253 .18286133 .41236878 .16544597 .40212504 .15136719 .38416038 .140625 .35847474 .12988281 .3327891 .12451172 .29978944 .12451172 .2594757 .12451172 .19445293 .13745117 .1383667 .16333008 .09121704 .18920899 .044077558 .2233073 .020507813 .265625 .020507813 .29720054 .020507813 .3232422 .033513387 .34375 .059524537 .3642578 .08553568 .37451173 .13023885 .37451173 .19363404 .37451173 .27296958 .35742188 .33539836 .3232422 .3809204 .30013023 .41212974 .27067057 .42773438 .23486328 .42773438M.21044922 .67285159H.30029298L.3930664 .5107422H.3779297L.2446289 .6150665 .1328125 .5107422H.11816406L.21044922 .67285159M.2475586-.05859375C.26285807-.05859375 .27571617-.06388346 .2861328-.07446289 .29654948-.08504232 .3017578-.09781901 .3017578-.11279297 .3017578-.12776692 .2964681-.14054363 .28588868-.15112305 .27530924-.16170247 .26253257-.16699219 .2475586-.16699219 .23258464-.16699219 .21980794-.16170247 .20922852-.15112305 .1986491-.14054363 .19335938-.12776692 .19335938-.11279297 .19335938-.09749349 .1986491-.084635417 .20922852-.07421875 .21980794-.063802089 .23258464-.05859375 .2475586-.05859375Z"/>
<path id="font_1_255" d="M.33251954 .52001956H.19042969V.5605469H.33203126C.33072917 .5920308 .32739259 .6114604 .32202149 .61883547 .3166504 .6262105 .30859376 .6298981 .29785157 .6298981 .28938804 .6298981 .27815757 .62727358 .26416017 .62202456L.2578125 .6392517 .39111329 .69433596H.41308595V.5605469H.48779298V.52001956H.41308595V.1767273C.41308595 .12446085 .41430665 .0925649 .41674806 .08103943 .41918946 .069513957 .4230957 .06147766 .4284668 .056930543 .4338379 .052393598 .44010417 .050125123 .44726563 .050125123 .4560547 .050125123 .46777345 .052881879 .48242188 .058395387L.48779298 .04135132 .35498048-.013671875H.33251954V.05029297C.31070964 .02750651 .28938804 .011149089 .2685547 .0012207031 .24772136-.008707683 .22526042-.013671875 .20117188-.013671875 .15234375-.013671875 .10970052 .006708781 .07324219 .047470094 .036783857 .08824158 .018554688 .14063008 .018554688 .20463562 .018554688 .26863099 .03873698 .32718406 .07910156 .3802948 .11946615 .43340556 .17138672 .45996095 .23486328 .45996095 .2742513 .45996095 .30680339 .44742839 .33251954 .42236329V.52001956M.33251954 .084365848V.31425477C.3305664 .33633933 .32470704 .35647074 .3149414 .37464906 .30517579 .39283753 .29223634 .40655519 .27612306 .415802 .26000978 .425059 .24430339 .4296875 .2290039 .4296875 .20035808 .4296875 .17480469 .41685996 .15234375 .39120484 .12272135 .35744224 .107910159 .3080902 .107910159 .2431488 .107910159 .17755635 .12223307 .12730408 .1508789 .09239197 .17952474 .057490034 .21142578 .040039064 .24658203 .040039064 .27620445 .040039064 .30485026 .054814657 .33251954 .084365848Z"/>
<path id="font_1_1221" d="M.10644531 .2783203C.10611979 .21206665 .12223307 .1601003 .15478516 .122421268 .18733724 .0847524 .22558594 .06591797 .26953126 .06591797 .29882813 .06591797 .32430015 .07397461 .34594728 .09008789 .3675944 .10620117 .3857422 .13378906 .40039063 .17285156L.41552735 .16308594C.4086914 .118489589 .38883464 .07788086 .35595704 .041259767 .32307945 .004638672 .28190104-.013671875 .23242188-.013671875 .17871094-.013671875 .13273113 .007197062 .09448242 .048934938 .056233724 .09068298 .037109376 .14680481 .037109376 .21730042 .037109376 .29363505 .056722005 .35315959 .095947269 .39587403 .13517253 .43859864 .18440755 .45996095 .24365235 .45996095 .29378257 .45996095 .33496095 .44348146 .3671875 .41052247 .39941407 .37757365 .41552735 .33350627 .41552735 .2783203H.10644531M.10644531 .30664063H.31347657C.31184898 .33528648 .308431 .35546876 .30322267 .3671875 .29508464 .38541667 .28295899 .3997396 .2668457 .41015626 .25073243 .4205729 .23388672 .42578126 .2163086 .42578126 .18929036 .42578126 .16512044 .4152832 .14379883 .3942871 .12247721 .37329103 .11002604 .34407554 .10644531 .30664063M.19677735 .67285159H.2866211L.37939454 .5107422H.3642578L.23095703 .6150665 .119140628 .5107422H.10449219L.19677735 .67285159M.12597656 .890625H.23486328L.2866211 .72753909H.26953126L.12597656 .890625Z"/>
<path id="font_1_78" d="M.16357422 .69433596V.24951172L.27734376 .35302735C.30143229 .37516276 .3154297 .38916017 .31933595 .39501954 .3219401 .39892579 .3232422 .40283204 .3232422 .40673829 .3232422 .4132487 .32055665 .41886393 .31518556 .42358399 .30981446 .42830406 .300944 .4309896 .28857423 .43164063V.44726563H.48291017V.43164063C.45621745 .4309896 .43400065 .42692057 .41625978 .4194336 .3985189 .41194663 .379069 .39860026 .35791017 .37939454L.24316406 .2734375 .35791017 .12869263C.3898112 .08873495 .41129557 .06339518 .42236329 .05267334 .43798829 .037404378 .45166017 .027491251 .4633789 .02293396 .47151695 .019688925 .4856771 .018066407 .5058594 .018066407V0H.28857423V.018066407C.300944 .018391928 .30932618 .020258585 .3137207 .023666382 .31811524 .02708435 .3203125 .03187561 .3203125 .03804016 .3203125 .045516969 .3138021 .05753581 .30078126 .07409668L.16357422 .24902344V.10090637C.16357422 .071996059 .16560872 .05298869 .16967774 .043884279 .17374675 .03479004 .17952474 .028294882 .18701172 .024398804 .1944987 .020502726 .21077474 .018391928 .23583985 .018066407V0H.008300781V.018066407C.03108724 .018066407 .048177083 .020833334 .059570314 .026367188 .06640625 .029937745 .071614589 .03546651 .07519531 .04295349 .080078128 .053685506 .08251953 .07222494 .08251953 .09857178V.5055084C.08251953 .5572255 .08138021 .588857 .07910156 .60040286 .076822917 .6119588 .07307943 .619929 .067871097 .62431338 .06266276 .6287079 .055826826 .63090518 .04736328 .63090518 .040527345 .63090518 .030273438 .62813827 .016601563 .62260439L.008300781 .6396942 .14111328 .69433596H.16357422Z"/>
<path id="font_1_75" d="M.16259766 .69433596V.36669923C.19873047 .40641276 .2273763 .43188478 .24853516 .44311524 .269694 .4543457 .29085288 .45996095 .31201173 .45996095 .33740235 .45996095 .35921226 .4529775 .3774414 .43901063 .39567057 .42504374 .4091797 .40312196 .41796876 .37324525 .42415367 .3524526 .4272461 .31444804 .4272461 .25923158V.101379398C.4272461 .07312012 .42952476 .053792318 .43408204 .043395997 .43733726 .03560384 .4428711 .029434205 .4506836 .024887085 .4584961 .020339966 .472819 .018066407 .49365235 .018066407V0H.27392579V.018066407H.2841797C.30501304 .018066407 .3194987 .021240235 .32763673 .02758789 .33577476 .033935548 .34147135 .04329427 .34472657 .055664064 .34570313 .060872396 .3461914 .076171878 .3461914 .1015625V.25976563C.3461914 .30859376 .3436686 .34065757 .33862306 .35595704 .33357749 .3712565 .32552085 .3827311 .31445313 .39038087 .3033854 .3980306 .29003907 .40185548 .27441407 .40185548 .25846354 .40185548 .24186199 .3976237 .22460938 .38916017 .20735677 .38069663 .1866862 .36360679 .16259766 .33789063V.1015625C.16259766 .07096354 .16430664 .051920576 .16772461 .044433595 .17114258 .036946615 .17749024 .030680338 .18676758 .025634766 .19604492 .020589194 .21207683 .018066407 .23486328 .018066407V0H.013183594V.018066407C.033040365 .018066407 .048665365 .021158854 .060058595 .02734375 .06656901 .030588786 .071777347 .036763509 .075683597 .04586792 .079589847 .054982503 .08154297 .073527019 .08154297 .101501468V.5059967C.08154297 .5570628 .080322269 .58845016 .07788086 .6001587 .07543945 .61187747 .07169596 .6198476 .06665039 .6240692 .061604818 .62830099 .05485026 .63041689 .04638672 .63041689 .03955078 .63041689 .028483073 .6278127 .013183594 .62260439L.0063476564 .6396942 .14013672 .69433596H.16259766Z"/>
<path id="font_1_1223" d="M.10644531 .2783203C.10611979 .21206665 .12223307 .1601003 .15478516 .122421268 .18733724 .0847524 .22558594 .06591797 .26953126 .06591797 .29882813 .06591797 .32430015 .07397461 .34594728 .09008789 .3675944 .10620117 .3857422 .13378906 .40039063 .17285156L.41552735 .16308594C.4086914 .118489589 .38883464 .07788086 .35595704 .041259767 .32307945 .004638672 .28190104-.013671875 .23242188-.013671875 .17871094-.013671875 .13273113 .007197062 .09448242 .048934938 .056233724 .09068298 .037109376 .14680481 .037109376 .21730042 .037109376 .29363505 .056722005 .35315959 .095947269 .39587403 .13517253 .43859864 .18440755 .45996095 .24365235 .45996095 .29378257 .45996095 .33496095 .44348146 .3671875 .41052247 .39941407 .37757365 .41552735 .33350627 .41552735 .2783203H.10644531M.10644531 .30664063H.31347657C.31184898 .33528648 .308431 .35546876 .30322267 .3671875 .29508464 .38541667 .28295899 .3997396 .2668457 .41015626 .25073243 .4205729 .23388672 .42578126 .2163086 .42578126 .18929036 .42578126 .16512044 .4152832 .14379883 .3942871 .12247721 .37329103 .11002604 .34407554 .10644531 .30664063M.19677735 .67285159H.2866211L.37939454 .5107422H.3642578L.23095703 .6150665 .119140628 .5107422H.10449219L.19677735 .67285159M.29296876 .78741458C.2763672 .7715149 .26627604 .7604828 .2626953 .75431826 .2591146 .7481537 .2569987 .7392273 .25634767 .72753909H.2397461C.24104817 .7496033 .2491862 .7724762 .26416017 .79615786 .2745768 .81302389 .27978517 .82664999 .27978517 .83703616 .27978517 .8610433 .26790367 .8730469 .24414063 .8730469 .23307292 .8730469 .22477214 .8704631 .21923828 .8652954 .21695964 .8630371 .21582031 .8607788 .21582031 .8585205 .21582031 .8562622 .21761067 .8523102 .2211914 .8466644 .22477214 .8410187 .2265625 .83657839 .2265625 .8333435 .2265625 .822052 .22037761 .81640627 .20800781 .81640627 .19173177 .81640627 .18359375 .82562258 .18359375 .8440552 .18359375 .85732015 .19002278 .868398 .20288086 .8772888 .21573894 .8861796 .2319336 .890625 .25146485 .890625 .27685548 .890625 .2955729 .88429769 .3076172 .87164309 .31705729 .86190798 .32177735 .8511963 .32177735 .83950808 .32177735 .8232829 .31217448 .8059184 .29296876 .78741458Z"/>
<path id="font_1_36" d="M.45751954 .22167969H.20117188L.15625 .1171875C.1451823 .09147135 .13964844 .072265628 .13964844 .059570314 .13964844 .049479169 .14444988 .040608724 .15405274 .032958986 .1636556 .025309245 .18440755 .020345053 .2163086 .018066407V0H.0078125V.018066407C.03548177 .022949219 .053385419 .029291789 .061523439 .037094118 .078125 .052708944 .09651693 .08442179 .11669922 .13223267L.34960938 .6767578H.36669923L.59716799 .12638855C.61572268 .08214823 .63256838 .053441366 .6477051 .040267946 .6628418 .027094523 .68391928 .01969401 .7109375 .018066407V0H.44970704V.018066407C.47607423 .01936849 .49389649 .023763022 .5031738 .03125 .5124512 .03873698 .51708987 .047851564 .51708987 .05859375 .51708987 .072916667 .5105794 .09554037 .4975586 .12646485L.45751954 .22167969M.44384767 .2578125 .33154298 .52500918 .2163086 .2578125H.44384767Z"/>
<path id="font_1_44" d="M.30859376 .018066407V0H.024902344V.018066407H.048339845C.075683597 .018066407 .09554037 .026041666 .107910159 .041992189 .115722659 .052408857 .119628909 .07747396 .119628909 .1171875V.5449219C.119628909 .5784505 .11751302 .60058596 .11328125 .6113281 .11002604 .6194661 .10335287 .62646487 .09326172 .6323242 .078938808 .6401367 .063964847 .64404299 .048339845 .64404299H.024902344V.6621094H.30859376V.64404299H.28466798C.25764976 .64404299 .23795574 .6360677 .22558594 .6201172 .21744792 .6097005 .2133789 .58463546 .2133789 .5449219V.1171875C.2133789 .08365885 .2154948 .061523439 .21972656 .05078125 .22298177 .04264323 .2298177 .03564453 .24023438 .029785157 .25423179 .021972657 .26904298 .018066407 .28466798 .018066407H.30859376Z"/>
<path id="font_1_54" d="M.4584961 .6767578V.4482422H.4404297C.4345703 .4921875 .42407228 .52718099 .40893556 .55322268 .39379884 .57926437 .37223307 .5999349 .34423829 .6152344 .3162435 .6305339 .28727214 .6381836 .25732423 .6381836 .22347005 .6381836 .19547527 .6278534 .17333985 .607193 .15120442 .5865428 .14013672 .56304427 .14013672 .5366974 .14013672 .51652529 .14713542 .4981486 .16113281 .48156739 .18131511 .45716349 .22932942 .42463175 .30517579 .38397218 .36702476 .35079957 .40926109 .3253479 .43188478 .3076172 .45450846 .28989665 .47192384 .2689972 .48413087 .24491883 .4963379 .22085063 .5024414 .19564311 .5024414 .16929627 .5024414 .11920675 .48299156 .076024379 .4440918 .039749147 .40519206 .00348409 .35514323-.0146484379 .2939453-.0146484379 .2747396-.0146484379 .2566732-.0132039389 .2397461-.010314941 .22965496-.008707683 .20874024-.002843221 .17700196 .0072784426 .14526367 .017400107 .12516277 .022460938 .11669922 .022460938 .108561199 .022460938 .102132167 .020050049 .09741211 .0152282719 .092692058 .010406494 .08919271 .00044759117 .08691406-.0146484379H.068847659V.21191406H.08691406C.0953776 .16438802 .106770839 .12882488 .12109375 .10522461 .13541667 .08162435 .15730794 .06201172 .18676758 .04638672 .21622722 .030761719 .24853516 .022949219 .2836914 .022949219 .3243815 .022949219 .3565267 .033681234 .38012696 .055145265 .4037272 .07661947 .41552735 .101994838 .41552735 .13127136 .41552735 .14753723 .41105143 .16396077 .4020996 .18054199 .3931478 .19713338 .37923179 .21258545 .36035157 .2268982 .34765626 .23665364 .31298829 .25739036 .25634767 .28910829 .19970703 .3208262 .15942383 .3461151 .13549805 .36497499 .111572269 .383845 .09342448 .4046631 .08105469 .4274292 .0686849 .45020548 .0625 .47525535 .0625 .50257876 .0625 .5500641 .080729167 .5909627 .1171875 .62527468 .15364583 .65959677 .20003255 .6767578 .25634767 .6767578 .2915039 .6767578 .32877604 .66813156 .36816407 .6508789 .38639323 .6427409 .3992513 .6386719 .40673829 .6386719 .4152018 .6386719 .42211915 .64119467 .42749024 .64624026 .43286134 .6512858 .43717448 .6614583 .4404297 .6767578H.4584961Z"/>
<path id="font_1_39" d="M.017089844 0V.018066407H.041992189C.06998698 .018066407 .08984375 .027018229 .1015625 .044921876 .10872396 .055664064 .11230469 .0797526 .11230469 .1171875V.5449219C.11230469 .586263 .1077474 .6121419 .09863281 .6225586 .0859375 .63688156 .06705729 .64404299 .041992189 .64404299H.017089844V.6621094H.2866211C.38557945 .6621094 .4608561 .6508789 .5124512 .62841799 .5640462 .60595706 .6055501 .56852218 .6369629 .5161133 .6683757 .46370445 .68408206 .40315757 .68408206 .33447267 .68408206 .24235027 .6560872 .16536458 .60009768 .103515628 .53727218 .034505208 .441569 0 .31298829 0H.017089844M.20605469 .04736328C.24739583 .03857422 .2820638 .034179689 .3100586 .034179689 .38557945 .034179689 .4482422 .060709638 .49804688 .11376953 .54785159 .16682942 .5727539 .23876953 .5727539 .32958985 .5727539 .4210612 .54785159 .49316407 .49804688 .54589846 .4482422 .5986328 .38427735 .625 .30615235 .625 .27685548 .625 .24348958 .62027999 .20605469 .61083987V.04736328Z"/>
<path id="font_1_47" d="M.5732422 .18359375 .58935549 .18016052 .53271487 0H.020019532V.018066407H.044921876C.072916667 .018066407 .092936199 .02718099 .10498047 .045410158 .111816409 .055826826 .115234378 .07991537 .115234378 .11767578V.5449219C.115234378 .586263 .110677089 .6121419 .1015625 .6225586 .08886719 .63688156 .06998698 .64404299 .044921876 .64404299H.020019532V.6621094H.31982423V.64404299C.28466798 .64436849 .26000978 .6411082 .24584961 .6342621 .23168946 .62742617 .2220052 .61879476 .21679688 .6083679 .21158855 .5979411 .20898438 .5730184 .20898438 .53359988V.117248538C.20898438 .09020996 .21158855 .071640018 .21679688 .061538698 .22070313 .05470276 .22672527 .0496521 .23486328 .04638672 .2430013 .04313151 .26839195 .041503908 .31103517 .041503908H.359375C.41015626 .041503908 .44580079 .045272829 .4663086 .05281067 .4868164 .06034851 .5055339 .07370504 .52246096 .09288025 .539388 .11205546 .5563151 .14229329 .5732422 .18359375Z"/>
<path id="font_1_71" d="M.34716798 .05029297C.32535807 .02750651 .30403648 .011149089 .28320313 .0012207031 .26236979-.008707683 .23990886-.013671875 .21582031-.013671875 .16699219-.013671875 .12434896 .006708781 .087890628 .047470094 .051432294 .08824158 .033203126 .14063008 .033203126 .20463562 .033203126 .26863099 .053385419 .32718406 .09375 .3802948 .13411458 .43340556 .18603516 .45996095 .24951172 .45996095 .28889976 .45996095 .3214518 .44742839 .34716798 .42236329V.5050659C.34716798 .5563863 .34594728 .58793136 .34350587 .5997009 .34106446 .6114705 .3372396 .6194763 .33203126 .62371829 .3268229 .6279704 .3203125 .63009646 .3125 .63009646 .30403648 .63009646 .292806 .6274821 .2788086 .6222534L.27246095 .63941958 .40576173 .69433596H.42773438V.1772461C.42773438 .12483724 .42895509 .09285482 .43139649 .08129883 .4338379 .069742839 .43774415 .0616862 .44311524 .057128908 .44848634 .052571615 .4547526 .05029297 .46191407 .05029297 .47070313 .05029297 .48242188 .053059896 .4970703 .05859375L.5024414 .041503908 .3696289-.013671875H.34716798V.05029297M.34716798 .084365848V.31425477C.34521485 .33633933 .33935548 .35647074 .32958985 .37464906 .31982423 .39283753 .30688478 .40655519 .29077149 .415802 .2746582 .425059 .2589518 .4296875 .24365235 .4296875 .21500652 .4296875 .18945313 .41685996 .16699219 .39120484 .1373698 .35744224 .122558597 .3080902 .122558597 .2431488 .122558597 .17755635 .13688152 .12730408 .16552735 .09239197 .19417317 .057490034 .22607422 .040039064 .26123048 .040039064 .29085288 .040039064 .3194987 .054814657 .34716798 .084365848Z"/>
<path id="font_1_82" d="M.25 .45996095C.31770835 .45996095 .3720703 .43427024 .41308595 .3828888 .44791667 .33899436 .46533204 .28858949 .46533204 .2316742 .46533204 .19167583 .45572917 .15118917 .43652345 .11021423 .41731773 .06924947 .39086915 .038360597 .35717774 .017547608 .32348634-.0032653809 .28597007-.013671875 .2446289-.013671875 .1772461-.013671875 .123697917 .013158162 .083984378 .06681824 .05045573 .11201477 .033691408 .16274007 .033691408 .21899414 .033691408 .2599691 .043863935 .30069987 .064208988 .34118653 .08455404 .3816732 .111328128 .41159059 .14453125 .43093873 .17773438 .45028688 .21289063 .45996095 .25 .45996095M.23486328 .42773438C.21761067 .42773438 .20027669 .42261253 .18286133 .41236878 .16544597 .40212504 .15136719 .38416038 .140625 .35847474 .12988281 .3327891 .12451172 .29978944 .12451172 .2594757 .12451172 .19445293 .13745117 .1383667 .16333008 .09121704 .18920899 .044077558 .2233073 .020507813 .265625 .020507813 .29720054 .020507813 .3232422 .033513387 .34375 .059524537 .3642578 .08553568 .37451173 .13023885 .37451173 .19363404 .37451173 .27296958 .35742188 .33539836 .3232422 .3809204 .30013023 .41212974 .27067057 .42773438 .23486328 .42773438Z"/>
<path id="font_1_42" d="M.61376956 .6767578 .6308594 .46777345H.61376956C.5965169 .51985678 .57421877 .55908206 .546875 .5854492 .507487 .62353518 .4568685 .6425781 .39501954 .6425781 .31070964 .6425781 .24658203 .6092122 .20263672 .54248049 .16585286 .48616538 .14746094 .41910807 .14746094 .3413086 .14746094 .27815757 .15966797 .22054036 .18408203 .16845703 .2084961 .116373699 .24047852 .07820638 .2800293 .053955079 .31958009 .029703776 .3601888 .017578125 .40185548 .017578125 .42626954 .017578125 .44986979 .020680746 .47265626 .026885987 .49544273 .03309123 .51741537 .042231244 .5385742 .05430603V.24629212C.5385742 .27959696 .53605148 .3013916 .53100588 .31167604 .52596029 .32196046 .51814779 .3297933 .50756838 .33517457 .49698893 .340566 .47835288 .34326173 .45166017 .34326173V.36132813H.7080078V.34326173H.6958008C.67041018 .34326173 .6529948 .3347982 .6435547 .3178711 .63704428 .3058268 .63378909 .2820638 .63378909 .24658203V.043945314C.5963542 .023763022 .55940756 .008951823 .5229492-.00048828127 .48649089-.009928386 .44596354-.0146484379 .4013672-.0146484379 .2734375-.0146484379 .17626953 .02631124 .10986328 .10823059 .060058595 .16966248 .03515625 .24052429 .03515625 .32081605 .03515625 .3790029 .049153646 .43474833 .07714844 .48805238 .11035156 .5514476 .15592449 .60020956 .21386719 .6343384 .26236979 .662618 .31966148 .6767578 .3857422 .6767578 .40983073 .6767578 .43172203 .6748047 .45141603 .67089846 .47111003 .6669922 .49902345 .6583659 .53515627 .64501956 .55338546 .6381836 .56559249 .6347656 .57177737 .6347656 .5779622 .6347656 .58325198 .63761398 .5876465 .64331057 .592041 .64900717 .59472659 .66015627 .5957031 .6767578H.61376956Z"/>
<path id="font_1_1227" d="M.10644531 .2783203C.10611979 .21206665 .12223307 .1601003 .15478516 .122421268 .18733724 .0847524 .22558594 .06591797 .26953126 .06591797 .29882813 .06591797 .32430015 .07397461 .34594728 .09008789 .3675944 .10620117 .3857422 .13378906 .40039063 .17285156L.41552735 .16308594C.4086914 .118489589 .38883464 .07788086 .35595704 .041259767 .32307945 .004638672 .28190104-.013671875 .23242188-.013671875 .17871094-.013671875 .13273113 .007197062 .09448242 .048934938 .056233724 .09068298 .037109376 .14680481 .037109376 .21730042 .037109376 .29363505 .056722005 .35315959 .095947269 .39587403 .13517253 .43859864 .18440755 .45996095 .24365235 .45996095 .29378257 .45996095 .33496095 .44348146 .3671875 .41052247 .39941407 .37757365 .41552735 .33350627 .41552735 .2783203H.10644531M.10644531 .30664063H.31347657C.31184898 .33528648 .308431 .35546876 .30322267 .3671875 .29508464 .38541667 .28295899 .3997396 .2668457 .41015626 .25073243 .4205729 .23388672 .42578126 .2163086 .42578126 .18929036 .42578126 .16512044 .4152832 .14379883 .3942871 .12247721 .37329103 .11002604 .34407554 .10644531 .30664063M.19677735 .67285159H.2866211L.37939454 .5107422H.3642578L.23095703 .6150665 .119140628 .5107422H.10449219L.19677735 .67285159M.22802735-.05859375C.24332683-.05859375 .2561849-.06388346 .26660157-.07446289 .27701823-.08504232 .28222657-.09781901 .28222657-.11279297 .28222657-.12776692 .27693687-.14054363 .26635743-.15112305 .25577799-.16170247 .2430013-.16699219 .22802735-.16699219 .21305339-.16699219 .20027669-.16170247 .18969727-.15112305 .17911785-.14054363 .17382813-.12776692 .17382813-.11279297 .17382813-.09749349 .17911785-.084635417 .18969727-.07421875 .20027669-.063802089 .21305339-.05859375 .22802735-.05859375Z"/>
<path id="font_1_20" d="M.1171875 .59716799 .2783203 .67578127H.2944336V.11669922C.2944336 .079589847 .29597984 .056477865 .29907228 .04736328 .3021647 .0382487 .30859376 .03125 .31835938 .026367188 .328125 .021484375 .34798179 .018717448 .3779297 .018066407V0H.12890625V.018066407C.16015625 .018717448 .18033855 .021402995 .18945313 .026123047 .1985677 .0308431 .20491536 .037190755 .2084961 .045166017 .21207683 .053141279 .21386719 .07698568 .21386719 .11669922V.4741211C.21386719 .52229818 .21223958 .55322268 .20898438 .56689456 .20670574 .5773112 .20255535 .58496096 .1965332 .58984377 .19051107 .59472659 .18326824 .59716799 .17480469 .59716799 .16276042 .59716799 .1459961 .5921224 .12451172 .58203127L.1171875 .59716799Z"/>
<path id="font_1_17" d="M.125 .09472656C.14029949 .09472656 .15315755 .08943685 .16357422 .07885742 .17399089 .06827799 .17919922 .0555013 .17919922 .040527345 .17919922 .025553385 .1739095 .012776692 .16333008 .0021972657 .15275066-.008382161 .13997396-.013671875 .125-.013671875 .11002604-.013671875 .09724935-.008382161 .08666992 .0021972657 .07609049 .012776692 .07080078 .025553385 .07080078 .040527345 .07080078 .055826826 .07609049 .0686849 .08666992 .07910156 .09724935 .08951823 .11002604 .09472656 .125 .09472656Z"/>
<path id="font_1_46" d="M.29882813 .3671875 .54296877 .12451172C.5830078 .084472659 .6171875 .057210287 .6455078 .04272461 .6738281 .028238932 .70214846 .020019532 .73046877 .018066407V0H.41552735V.018066407C.43440757 .018066407 .44799806 .021240235 .45629884 .02758789 .4645996 .033935548 .46875 .041015626 .46875 .048828126 .46875 .056640626 .46720378 .06363932 .46411134 .06982422 .4610189 .07600912 .45084635 .0875651 .43359376 .10449219L.20507813 .3305664V.1171875C.20507813 .08365885 .20719402 .061523439 .21142578 .05078125 .21468099 .04264323 .22151692 .03564453 .2319336 .029785157 .24593099 .021972657 .2607422 .018066407 .2763672 .018066407H.29882813V0H.016601563V.018066407H.040039064C.06738281 .018066407 .087239589 .026041666 .099609378 .041992189 .107421878 .052408857 .111328128 .07747396 .111328128 .1171875V.5449219C.111328128 .5784505 .10921224 .6007487 .10498047 .6118164 .10172526 .6196289 .095052089 .62646487 .08496094 .6323242 .07063802 .6401367 .055664064 .64404299 .040039064 .64404299H.016601563V.6621094H.29882813V.64404299H.2763672C.26106773 .64404299 .24625652 .6402995 .2319336 .6328125 .22184246 .6276042 .21484375 .6197917 .2109375 .609375 .20703125 .5989583 .20507813 .57747396 .20507813 .5449219V.34228517C.21158855 .34847007 .23388672 .36914063 .27197267 .40429688 .36865235 .49283854 .42708335 .5519206 .44726563 .58154299 .4560547 .5945638 .46044923 .60595706 .46044923 .61572268 .46044923 .62320968 .45703126 .62980148 .4501953 .63549807 .44335938 .64119467 .43180339 .64404299 .41552735 .64404299H.40039063V.6621094H.6435547V.64404299C.62923178 .64371749 .61621096 .64176437 .6044922 .6381836 .59277346 .63460287 .5784505 .62768557 .56152346 .61743167 .5445964 .60717776 .523763 .59065756 .49902345 .5678711 .49186198 .56136068 .45882163 .5279948 .39990235 .46777345L.29882813 .3671875Z"/>
<path id="font_1_117" d="M.1850586 .45996095V.101379398C.1850586 .07344564 .18717449 .05485026 .19140625 .04559326 .19563802 .03633626 .20174153 .029434205 .2097168 .024887085 .21769206 .020339966 .23225911 .018066407 .25341798 .018066407V0H.036132814V.018066407C.057942708 .018066407 .07259115 .020177206 .080078128 .024398804 .0875651 .028620402 .09350586 .03560384 .09790039 .04534912 .10229492 .055094404 .10449219 .07377116 .10449219 .101379398V.2733612C.10449219 .32176209 .103027347 .35310365 .100097659 .36738587 .09781901 .3777822 .09423828 .38500978 .08935547 .3890686 .084472659 .39312745 .07779948 .39515687 .06933594 .39515687 .060221357 .39515687 .049153646 .39272056 .036132814 .3878479L.029296875 .4053955 .1640625 .45996095H.1850586M.037597658 .6796875H.14648438L.19824219 .5107422H.18115235L.037597658 .6796875Z"/>
<path id="font_1_22" d="M.05078125 .5366211C.06966146 .58121749 .09350586 .6155599 .12231445 .63964846 .15112305 .663737 .18701172 .67578127 .22998047 .67578127 .28304038 .67578127 .32373048 .6585541 .35205079 .62409976 .37353517 .5984141 .38427735 .5709432 .38427735 .541687 .38427735 .49358116 .3540039 .44384767 .29345704 .39248658 .33414714 .37651573 .36490885 .35370384 .3857422 .3240509 .40657554 .29440818 .4169922 .2595469 .4169922 .21946717 .4169922 .16211446 .39876304 .11242167 .3623047 .070388797 .31477867 .01565043 .24593099-.01171875 .15576172-.01171875 .11116537-.01171875 .08081055-.006184896 .064697269 .0048828127 .048583986 .015950522 .040527345 .027832032 .040527345 .040527345 .040527345 .04996745 .044352216 .05826823 .052001954 .06542969 .05965169 .07259115 .068847659 .076171878 .079589847 .076171878 .08772787 .076171878 .09602865 .07486979 .10449219 .072265628 .11002604 .07063802 .122558597 .064697269 .14208985 .05444336 .1616211 .044189454 .1751302 .038085939 .18261719 .036132814 .19466146 .032552083 .20751953 .030761719 .2211914 .030761719 .25439454 .030761719 .28328453 .043640138 .30786134 .06939697 .33243815 .09515381 .34472657 .12564087 .34472657 .16085816 .34472657 .18661499 .33902995 .21172078 .32763673 .23617554 .3191732 .2544352 .30989585 .2682902 .2998047 .27774049 .28580729 .29079185 .26660157 .3026123 .2421875 .3132019 .21777344 .32380168 .1928711 .32910157 .16748047 .32910157H.15185547V.34375C.17757161 .34700523 .20336914 .35628257 .22924805 .37158204 .25512696 .3868815 .27392579 .40527345 .28564454 .4267578 .29736329 .4482422 .30322267 .47184245 .30322267 .4975586 .30322267 .5310872 .2927246 .5581868 .27172853 .5788574 .25073243 .599528 .22460938 .6098633 .19335938 .6098633 .14290364 .6098633 .100748699 .58284506 .06689453 .5288086L.05078125 .5366211Z"/>
<path id="font_1_41" d="M.20458985 .62597659V.36621095H.3251953C.3528646 .36621095 .37312828 .37231446 .38598634 .38452149 .3988444 .39672853 .4073893 .42089845 .4116211 .45703126H.4296875V.23242188H.4116211C.41129557 .25827027 .40795899 .2772471 .40161134 .28935243 .39526368 .3014679 .3864746 .31055198 .37524415 .3166046 .36401368 .32265727 .34733073 .3256836 .3251953 .3256836H.20458985V.11734009C.20458985 .08376058 .20670574 .061589559 .2109375 .050827028 .2141927 .042678834 .22102864 .035669965 .23144531 .029800415 .24576824 .021977744 .2607422 .018066407 .2763672 .018066407H.30029298V0H.016113282V.018066407H.03955078C.06689453 .018066407 .086751308 .026041666 .099121097 .041992189 .106933597 .052408857 .110839847 .07747396 .110839847 .1171875V.5449219C.110839847 .5784505 .10872396 .60058596 .10449219 .6113281 .10123698 .6194661 .094563808 .62646487 .084472659 .6323242 .07047526 .6401367 .0555013 .64404299 .03955078 .64404299H.016113282V.6621094H.50878909L.5151367 .51660159H.49804688C.48958335 .54752609 .47973634 .57023116 .46850587 .5847168 .4572754 .59920248 .44344078 .6097005 .42700196 .61621096 .41056315 .6227214 .38509117 .62597659 .35058595 .62597659H.20458985Z"/>
<path id="font_1_23" d="M.46533204 .24414063V.17480469H.37646485V0H.29589845V.17480469H.015625V.23730469L.3227539 .67578127H.37646485V.24414063H.46533204M.29589845 .24414063V.5727539L.06347656 .24414063H.29589845Z"/>
<path id="font_1_86" d="M.3203125 .45996095V.30859376H.30419923C.29182945 .35606895 .2759603 .3883616 .2565918 .4054718 .23722331 .42259217 .21256511 .43115235 .18261719 .43115235 .15983074 .43115235 .1414388 .42513529 .1274414 .4131012 .11344401 .40107728 .10644531 .38774619 .10644531 .3731079 .10644531 .35489909 .11165365 .33929444 .12207031 .32629396 .13216146 .31295777 .15266927 .29881288 .18359375 .28385926L.2548828 .2492218C.32096354 .21703594 .3540039 .17460124 .3540039 .121917728 .3540039 .08127848 .33862306 .048517866 .30786134 .023635865 .2770996-.0012359619 .24267578-.013671875 .20458985-.013671875 .1772461-.013671875 .1459961-.0087890629 .110839847 .0009765625 .100097659 .004231771 .091308597 .005859375 .084472659 .005859375 .07698568 .005859375 .071126308 .0016276041 .06689453-.0068359377H.05078125V.15332031H.06689453C.07600912 .10758463 .09342448 .07312012 .119140628 .049926759 .14485677 .026733399 .17366536 .015136719 .2055664 .015136719 .22802735 .015136719 .24633789 .021718344 .26049806 .03488159 .2746582 .04805501 .28173829 .0639089 .28173829 .08244324 .28173829 .10488383 .2738444 .12374369 .25805665 .13902283 .24226888 .15430196 .21077474 .17364502 .16357422 .197052 .116373699 .22046916 .08544922 .24160767 .07080078 .26046754 .056152345 .27900187 .048828126 .30241395 .048828126 .33070375 .048828126 .3674469 .06144206 .398173 .08666992 .42288209 .11189779 .44760133 .14453125 .45996095 .18457031 .45996095 .20214844 .45996095 .22347005 .45621745 .24853516 .44873048 .26513673 .44384767 .27620445 .44140626 .28173829 .44140626 .28694663 .44140626 .29101563 .44254557 .2939453 .44482423 .296875 .44710288 .30029298 .45214845 .30419923 .45996095H.3203125Z"/>
<path id="font_1_1237" d="M.25 .45996095C.31770835 .45996095 .3720703 .43427024 .41308595 .3828888 .44791667 .33899436 .46533204 .28858949 .46533204 .2316742 .46533204 .19167583 .45572917 .15118917 .43652345 .11021423 .41731773 .06924947 .39086915 .038360597 .35717774 .017547608 .32348634-.0032653809 .28597007-.013671875 .2446289-.013671875 .1772461-.013671875 .123697917 .013158162 .083984378 .06681824 .05045573 .11201477 .033691408 .16274007 .033691408 .21899414 .033691408 .2599691 .043863935 .30069987 .064208988 .34118653 .08455404 .3816732 .111328128 .41159059 .14453125 .43093873 .17773438 .45028688 .21289063 .45996095 .25 .45996095M.23486328 .42773438C.21761067 .42773438 .20027669 .42261253 .18286133 .41236878 .16544597 .40212504 .15136719 .38416038 .140625 .35847474 .12988281 .3327891 .12451172 .29978944 .12451172 .2594757 .12451172 .19445293 .13745117 .1383667 .16333008 .09121704 .18920899 .044077558 .2233073 .020507813 .265625 .020507813 .29720054 .020507813 .3232422 .033513387 .34375 .059524537 .3642578 .08553568 .37451173 .13023885 .37451173 .19363404 .37451173 .27296958 .35742188 .33539836 .3232422 .3809204 .30013023 .41212974 .27067057 .42773438 .23486328 .42773438M.21044922 .67285159H.30029298L.3930664 .5107422H.3779297L.2446289 .6150665 .1328125 .5107422H.11816406L.21044922 .67285159M.22753906 .72753909H.21044922L.26220704 .890625H.37109376L.22753906 .72753909Z"/>
<path id="font_1_24" d="M.43408204 .6621094 .3959961 .578125H.19677735L.15332031 .49023438C.23958333 .47753907 .30794273 .44547526 .35839845 .39404298 .40169273 .34977214 .42333985 .2976888 .42333985 .23779297 .42333985 .20296224 .41625978 .17073567 .4020996 .14111328 .38793946 .11149088 .3701172 .08626302 .3486328 .06542969 .32714845 .044596357 .30322267 .027832032 .27685548 .015136719 .23942058-.002766927 .20100911-.01171875 .1616211-.01171875 .121907558-.01171875 .09301758-.004964193 .07495117 .008544922 .056884767 .022054038 .047851564 .036946615 .047851564 .053222658 .047851564 .06233724 .05159505 .07039388 .05908203 .07739258 .06656901 .08439127 .07600912 .087890628 .087402347 .087890628 .09586588 .087890628 .103271488 .08658854 .10961914 .083984378 .1159668 .08138021 .12679036 .07470703 .14208985 .063964847 .1665039 .04703776 .19124349 .03857422 .2163086 .03857422 .25439454 .03857422 .2878418 .052978517 .3166504 .08178711 .34545899 .1105957 .35986329 .14567058 .35986329 .18701172 .35986329 .22705078 .34700523 .2644043 .32128907 .29907228 .2955729 .33374024 .26009117 .3605143 .21484375 .37939454 .17936199 .39404298 .13102214 .4025065 .06982422 .40478517L.19677735 .6621094H.43408204Z"/>
<path id="font_1_87" d="M.16113281 .59472659V.44726563H.265625V.41308595H.16113281V.1234436C.16113281 .09450277 .1652832 .07499186 .17358399 .06491089 .18188477 .054840089 .19254558 .049804689 .2055664 .049804689 .2163086 .049804689 .22672527 .053141279 .2368164 .059814454 .24690755 .06648763 .25472007 .07633463 .2602539 .08935547H.27929688C.26790367 .057362874 .25179038 .033167524 .23095703 .01676941 .2101237 .00038146974 .18863933-.0078125 .1665039-.0078125 .15152996-.0078125 .13688152-.0036570233 .122558597 .0046539308 .10823568 .012964885 .09765625 .024856568 .09082031 .04032898 .083984378 .055811567 .080566409 .079686488 .080566409 .111953739V.41308595H.009765625V.42919923C.027669272 .436381 .045979818 .44854228 .064697269 .46568299 .08341471 .4828237 .100097659 .5031484 .114746097 .5266571 .12223307 .53905746 .13264974 .56174728 .1459961 .59472659H.16113281Z"/>
<path id="font_1_26" d="M.10058594 .6621094H.4555664V.6435547L.23486328-.013671875H.18017578L.3779297 .58251956H.19580078C.15901692 .58251956 .1328125 .578125 .1171875 .56933596 .08984375 .554362 .067871097 .53125 .05126953 .5L.037109376 .5053711 .10058594 .6621094Z"/>
<path id="font_1_28" d="M.052734376-.013671875V.0043945314C.095052089 .0050455729 .13444011 .014892578 .17089844 .033935548 .20735677 .052978517 .2425944 .08626302 .27661134 .13378906 .31062828 .18131511 .3343099 .2335612 .34765626 .29052735 .29654948 .25764976 .25032554 .24121094 .20898438 .24121094 .16243489 .24121094 .122558597 .25919596 .08935547 .29516603 .056152345 .33113609 .03955078 .37890626 .03955078 .43847657 .03955078 .49641929 .056152345 .54801437 .08935547 .5932617 .12939453 .6482747 .18164063 .67578127 .24609375 .67578127 .30045573 .67578127 .34700523 .6533203 .3857422 .60839846 .43326823 .5527344 .45703126 .48404948 .45703126 .40234376 .45703126 .32877604 .43896485 .26017253 .40283204 .1965332 .36669923 .13289388 .31640626 .080078128 .25195313 .038085939 .19954427 .0035807293 .14241536-.013671875 .080566409-.013671875H.052734376M.35546876 .32704164C.36132813 .36923728 .3642578 .40299989 .3642578 .42832948 .3642578 .45981346 .35888673 .4938151 .34814454 .5303345 .33740235 .5668538 .32218424 .5948537 .30249024 .6143341 .28279624 .6338145 .26041667 .6435547 .23535156 .6435547 .2063802 .6435547 .18098958 .63056948 .15917969 .604599 .1373698 .57862856 .12646485 .53999838 .12646485 .4887085 .12646485 .4202067 .14095052 .36664329 .16992188 .3280182 .19108074 .3000946 .21712239 .2861328 .24804688 .2861328 .26302085 .2861328 .28076173 .28970338 .30126954 .29684449 .32177735 .3039856 .33984376 .3140513 .35546876 .32704164Z"/>
<path id="font_1_1201" d="M.28466798 .064453128C.23876953 .028971354 .20996094 .008463542 .19824219 .0029296876 .18066406-.005533854 .16194661-.009765625 .14208985-.009765625 .11116537-.009765625 .08569336 .00081380209 .06567383 .021972657 .045654298 .04313151 .03564453 .07096354 .03564453 .10546875 .03564453 .12727864 .040527345 .14615886 .05029297 .16210938 .06363932 .1842448 .08683268 .20507813 .11987305 .22460938 .1529134 .24414063 .20784505 .26790367 .28466798 .29589845V.31347657C.28466798 .3580729 .2775879 .38867188 .26342774 .40527345 .24926758 .421875 .22867839 .43017579 .20166016 .43017579 .18115235 .43017579 .1648763 .42466227 .15283203 .41363526 .14046224 .40260826 .13427735 .3899587 .13427735 .37568666L.1352539 .34747315C.1352539 .3325602 .13142903 .32105003 .1237793 .3129425 .116129558 .304835 .10611979 .30078126 .09375 .30078126 .08170573 .30078126 .07185873 .30499778 .064208988 .3134308 .056559247 .321874 .052734376 .33339945 .052734376 .3480072 .052734376 .37591044 .06705729 .4015452 .095703128 .4249115 .12434896 .4482778 .16455078 .45996095 .2163086 .45996095 .25602214 .45996095 .28857423 .45329795 .31396485 .43997193 .33317057 .42989097 .34733073 .41411845 .3564453 .39265443 .3623047 .37867738 .36523438 .35006715 .36523438 .30682374V.15515137C.36523438 .112559 .3660482 .08646647 .36767579 .07687378 .36930339 .06728109 .37198893 .060857137 .37573243 .05760193 .37947593 .05435689 .38378907 .052734376 .38867188 .052734376 .39388023 .052734376 .3984375 .0538737 .40234376 .056152345 .4091797 .060384115 .42236329 .072265628 .44189454 .091796878V.064453128C.4054362 .015625 .37060548-.0087890629 .33740235-.0087890629 .3214518-.0087890629 .3087565-.0032552083 .2993164 .0078125 .2898763 .018880209 .2849935 .037760419 .28466798 .064453128M.28466798 .096466068V.26611329C.23551433 .24667359 .20377605 .23289998 .18945313 .22479248 .16373699 .2105306 .14534505 .19562276 .13427735 .18006897 .12320963 .16451518 .11767578 .14750164 .11767578 .12902832 .11767578 .10569254 .12467448 .08632914 .13867188 .07093811 .15266927 .055547079 .16878255 .047851564 .18701172 .047851564 .2117513 .047851564 .24430339 .0640564 .28466798 .096466068M.17871094 .67285159H.2685547L.36132813 .5107422H.3461914L.21289063 .6150665 .10107422 .5107422H.08642578L.17871094 .67285159M.19384766-.05859375C.20914714-.05859375 .2220052-.06388346 .23242188-.07446289 .24283855-.08504232 .24804688-.09781901 .24804688-.11279297 .24804688-.12776692 .24275716-.14054363 .23217774-.15112305 .22159831-.16170247 .20882161-.16699219 .19384766-.16699219 .1788737-.16699219 .166097-.16170247 .15551758-.15112305 .14493816-.14054363 .13964844-.12776692 .13964844-.11279297 .13964844-.09749349 .14493816-.084635417 .15551758-.07421875 .166097-.063802089 .1788737-.05859375 .19384766-.05859375Z"/>
<path id="font_1_83" d="M-.0009765625 .40327455 .13671875 .45898438H.15527344V.3544922C.17838542 .39388023 .20157878 .42130534 .22485352 .43676759 .24812825 .45222984 .2726237 .45996095 .29833985 .45996095 .34326173 .45996095 .38069663 .44240318 .41064454 .4072876 .44742839 .36435954 .4658203 .3084259 .4658203 .2394867 .4658203 .16241963 .4436849 .09868368 .39941407 .04827881 .36295573 .006978353 .31705729-.013671875 .26171876-.013671875 .2376302-.013671875 .21679688-.010253906 .19921875-.0034179688 .18619792 .0014648438 .17154949 .011230469 .15527344 .025878907V-.11035156C.15527344-.14095052 .15714519-.16040039 .16088867-.16870117 .16463216-.17700196 .17114258-.18359375 .18041992-.18847656 .18969727-.19335938 .20654297-.19580078 .23095703-.19580078V-.21386719H-.0034179688V-.19580078H.0087890629C.026692709-.1961263 .041992189-.19270325 .0546875-.18553162 .060872396-.18195088 .06567383-.1761678 .0690918-.16818238 .072509769-.16020711 .07421875-.13993328 .07421875-.10736084V.31581117C.07421875 .34480287 .072916667 .36320497 .0703125 .37101747 .067708339 .37884013 .063557948 .3847046 .057861329 .38861085 .052164716 .39252726 .044433595 .39448548 .03466797 .39448548 .026855469 .39448548 .016927084 .39220683 .0048828127 .38764955L-.0009765625 .40327455M.15527344 .32479859V.15802002C.15527344 .121927898 .15673828 .0981954 .15966797 .08682251 .16422527 .06796265 .17537435 .051381429 .19311524 .037078859 .21085613 .022776286 .23323567 .015625 .2602539 .015625 .292806 .015625 .3191732 .028305054 .33935548 .05366516 .36572267 .08681742 .37890626 .13346863 .37890626 .19361878 .37890626 .2618866 .36393229 .314387 .33398438 .35112 .31315104 .3764801 .28841148 .38916017 .25976563 .38916017 .24414063 .38916017 .22867839 .385259 .2133789 .37745667 .20166016 .37160746 .18229167 .35405479 .15527344 .32479859Z"/>
</defs>
<path transform="matrix(1,0,0,-1,112.566,21.022007)" d="M31.4484 15.15268H-31.4484C-33.64934 15.15268-35.4335 13.36852-35.4335 11.16757V-11.16757C-35.4335-13.36852-33.64934-15.15268-31.4484-15.15268H31.4484C33.64934-15.15268 35.4335-13.36852 35.4335-11.16757V11.16757C35.4335 13.36852 33.64934 15.15268 31.4484 15.15268ZM-35.4335-15.15268" fill="#d4effc"/>
<path transform="matrix(1,0,0,-1,112.566,21.022007)" stroke-width=".3985" stroke-linecap="butt" stroke-miterlimit="10" stroke-linejoin="miter" fill="none" stroke="#000000" d="M31.4484 15.15268H-31.4484C-33.64934 15.15268-35.4335 13.36852-35.4335 11.16757V-11.16757C-35.4335-13.36852-33.64934-15.15268-31.4484-15.15268H31.4484C33.64934-15.15268 35.4335-13.36852 35.4335-11.16757V11.16757C35.4335 13.36852 33.64934 15.15268 31.4484 15.15268ZM-35.4335-15.15268"/>
<use data-text="C" xlink:href="#font_1_38" transform="matrix(8.9664,0,0,-8.9664,98.626,17.611004)"/>
<use data-text="a" xlink:href="#font_1_68" transform="matrix(8.9664,0,0,-8.9664,104.60659,17.611004)"/>
<use data-text="m" xlink:href="#font_1_80" transform="matrix(8.9664,0,0,-8.9664,108.58768,17.611004)"/>
<use data-text="e" xlink:href="#font_1_72" transform="matrix(8.9664,0,0,-8.9664,115.56353,17.611004)"/>
<use data-text="r" xlink:href="#font_1_85" transform="matrix(8.9664,0,0,-8.9664,119.54461,17.611004)"/>
<use data-text="a" xlink:href="#font_1_68" transform="matrix(8.9664,0,0,-8.9664,122.53042,17.611004)"/>
<use data-text="(" xlink:href="#font_1_11" transform="matrix(8.9664,0,0,-8.9664,89.035999,28.570004)"/>
<use data-text="l" xlink:href="#font_1_79" transform="matrix(8.9664,0,0,-8.9664,92.02181,28.570004)"/>
<use data-text="u" xlink:href="#font_1_88" transform="matrix(8.9664,0,0,-8.9664,94.51447,28.570004)"/>
<use data-text="&#x1ed3;" xlink:href="#font_1_1239" transform="matrix(8.9664,0,0,-8.9664,98.99767,28.570004)"/>
<use data-text="n" xlink:href="#font_1_81" transform="matrix(8.9664,0,0,-8.9664,103.48087,28.570004)"/>
<use data-text="g" xlink:href="#font_1_74" transform="matrix(8.9664,0,0,-8.9664,107.96407,28.570004)"/>
<use data-text="r" xlink:href="#font_1_85" transform="matrix(8.9664,0,0,-8.9664,114.68887,28.570004)"/>
<use data-text="i" xlink:href="#font_1_76" transform="matrix(8.9664,0,0,-8.9664,117.67468,28.570004)"/>
<use data-text="&#x00ea;" xlink:href="#font_1_114" transform="matrix(8.9664,0,0,-8.9664,120.16734,28.570004)"/>
<use data-text="n" xlink:href="#font_1_81" transform="matrix(8.9664,0,0,-8.9664,124.14842,28.570004)"/>
<use data-text="g" xlink:href="#font_1_74" transform="matrix(8.9664,0,0,-8.9664,128.63162,28.570004)"/>
<use data-text=")" xlink:href="#font_1_12" transform="matrix(8.9664,0,0,-8.9664,133.11483,28.570004)"/>
<path transform="matrix(1,0,0,-1,112.566,21.022007)" d="M31.4484-43.898H-31.4484C-33.64934-43.898-35.4335-45.68216-35.4335-47.8831V-68.25969C-35.4335-70.46063-33.64934-72.2448-31.4484-72.2448H31.4484C33.64934-72.2448 35.4335-70.46063 35.4335-68.25969V-47.8831C35.4335-45.68216 33.64934-43.898 31.4484-43.898ZM-35.4335-72.2448" fill="#ffecd9"/>
<path transform="matrix(1,0,0,-1,112.566,21.022007)" stroke-width=".3985" stroke-linecap="butt" stroke-miterlimit="10" stroke-linejoin="miter" fill="none" stroke="#000000" d="M31.4484-43.898H-31.4484C-33.64934-43.898-35.4335-45.68216-35.4335-47.8831V-68.25969C-35.4335-70.46063-33.64934-72.2448-31.4484-72.2448H31.4484C33.64934-72.2448 35.4335-70.46063 35.4335-68.25969V-47.8831C35.4335-45.68216 33.64934-43.898 31.4484-43.898ZM-35.4335-72.2448"/>
<use data-text="B" xlink:href="#font_1_37" transform="matrix(8.9664,0,0,-8.9664,87.413,82.34)"/>
<use data-text="&#x1ed9;" xlink:href="#font_1_1245" transform="matrix(8.9664,0,0,-8.9664,93.39359,82.34)"/>
<use data-text="&#x0111;" xlink:href="#font_1_255" transform="matrix(8.9664,0,0,-8.9664,100.11839,82.34)"/>
<use data-text="i" xlink:href="#font_1_76" transform="matrix(8.9664,0,0,-8.9664,104.60159,82.34)"/>
<use data-text="&#x1ec1;" xlink:href="#font_1_1221" transform="matrix(8.9664,0,0,-8.9664,107.09425,82.34)"/>
<use data-text="u" xlink:href="#font_1_88" transform="matrix(8.9664,0,0,-8.9664,111.07533,82.34)"/>
<use data-text="k" xlink:href="#font_1_78" transform="matrix(8.9664,0,0,-8.9664,117.80013,82.34)"/>
<use data-text="h" xlink:href="#font_1_75" transform="matrix(8.9664,0,0,-8.9664,122.28333,82.34)"/>
<use data-text="i" xlink:href="#font_1_76" transform="matrix(8.9664,0,0,-8.9664,126.76653,82.34)"/>
<use data-text="&#x1ec3;" xlink:href="#font_1_1223" transform="matrix(8.9664,0,0,-8.9664,129.25919,82.34)"/>
<use data-text="n" xlink:href="#font_1_81" transform="matrix(8.9664,0,0,-8.9664,133.24027,82.34)"/>
<path transform="matrix(1,0,0,-1,112.566,21.022007)" d="M159.40758-42.9187H96.51076C94.30981-42.9187 92.52565-44.70287 92.52565-46.90381V-69.23898C92.52565-71.43993 94.30981-73.22409 96.51076-73.22409H159.40758C161.60852-73.22409 163.39269-71.43993 163.39269-69.23898V-46.90381C163.39269-44.70287 161.60852-42.9187 159.40758-42.9187ZM92.52565-73.22409" fill="#f5d9e2"/>
<path transform="matrix(1,0,0,-1,112.566,21.022007)" stroke-width=".3985" stroke-linecap="butt" stroke-miterlimit="10" stroke-linejoin="miter" fill="none" stroke="#000000" d="M159.40758-42.9187H96.51076C94.30981-42.9187 92.52565-44.70287 92.52565-46.90381V-69.23898C92.52565-71.43993 94.30981-73.22409 96.51076-73.22409H159.40758C161.60852-73.22409 163.39269-71.43993 163.39269-69.23898V-46.90381C163.39269-44.70287 161.60852-42.9187 159.40758-42.9187ZM92.52565-73.22409"/>
<use data-text="A" xlink:href="#font_1_36" transform="matrix(8.9664,0,0,-8.9664,235.795,75.683)"/>
<use data-text="I" xlink:href="#font_1_44" transform="matrix(8.9664,0,0,-8.9664,242.26874,75.683)"/>
<use data-text="(" xlink:href="#font_1_11" transform="matrix(8.9664,0,0,-8.9664,216.995,86.642)"/>
<use data-text="l" xlink:href="#font_1_79" transform="matrix(8.9664,0,0,-8.9664,219.9808,86.642)"/>
<use data-text="u" xlink:href="#font_1_88" transform="matrix(8.9664,0,0,-8.9664,222.47348,86.642)"/>
<use data-text="&#x1ed3;" xlink:href="#font_1_1239" transform="matrix(8.9664,0,0,-8.9664,226.95667,86.642)"/>
<use data-text="n" xlink:href="#font_1_81" transform="matrix(8.9664,0,0,-8.9664,231.43988,86.642)"/>
<use data-text="g" xlink:href="#font_1_74" transform="matrix(8.9664,0,0,-8.9664,235.92307,86.642)"/>
<use data-text="r" xlink:href="#font_1_85" transform="matrix(8.9664,0,0,-8.9664,242.64788,86.642)"/>
<use data-text="i" xlink:href="#font_1_76" transform="matrix(8.9664,0,0,-8.9664,245.63368,86.642)"/>
<use data-text="&#x00ea;" xlink:href="#font_1_114" transform="matrix(8.9664,0,0,-8.9664,248.12635,86.642)"/>
<use data-text="n" xlink:href="#font_1_81" transform="matrix(8.9664,0,0,-8.9664,252.10742,86.642)"/>
<use data-text="g" xlink:href="#font_1_74" transform="matrix(8.9664,0,0,-8.9664,256.59065,86.642)"/>
<use data-text=")" xlink:href="#font_1_12" transform="matrix(8.9664,0,0,-8.9664,261.07383,86.642)"/>
<path transform="matrix(1,0,0,-1,112.566,21.022007)" d="M-39.81712-106.6594H-102.71394C-104.91489-106.6594-106.69905-108.44356-106.69905-110.6445V-131.02109C-106.69905-133.22203-104.91489-135.0062-102.71394-135.0062H-39.81712C-37.61618-135.0062-35.83202-133.22203-35.83202-131.02109V-110.6445C-35.83202-108.44356-37.61618-106.6594-39.81712-106.6594ZM-106.69905-135.0062" fill="#d9ffd9"/>
<path transform="matrix(1,0,0,-1,112.566,21.022007)" stroke-width=".3985" stroke-linecap="butt" stroke-miterlimit="10" stroke-linejoin="miter" fill="none" stroke="#000000" d="M-39.81712-106.6594H-102.71394C-104.91489-106.6594-106.69905-108.44356-106.69905-110.6445V-131.02109C-106.69905-133.22203-104.91489-135.0062-102.71394-135.0062H-39.81712C-37.61618-135.0062-35.83202-133.22203-35.83202-131.02109V-110.6445C-35.83202-108.44356-37.61618-106.6594-39.81712-106.6594ZM-106.69905-135.0062"/>
<use data-text="C" xlink:href="#font_1_38" transform="matrix(8.9664,0,0,-8.9664,29.841004,144.823)"/>
<use data-text="S" xlink:href="#font_1_54" transform="matrix(8.9664,0,0,-8.9664,35.821596,144.823)"/>
<use data-text="D" xlink:href="#font_1_39" transform="matrix(8.9664,0,0,-8.9664,40.806917,144.823)"/>
<use data-text="L" xlink:href="#font_1_47" transform="matrix(8.9664,0,0,-8.9664,47.280656,144.823)"/>
<path transform="matrix(1,0,0,-1,112.566,21.022007)" d="M102.71394-106.6594H39.81712C37.61618-106.6594 35.83202-108.44356 35.83202-110.6445V-131.02109C35.83202-133.22203 37.61618-135.0062 39.81712-135.0062H102.71394C104.91489-135.0062 106.69905-133.22203 106.69905-131.02109V-110.6445C106.69905-108.44356 104.91489-106.6594 102.71394-106.6594ZM35.83202-135.0062" fill="#fffcdf"/>
<path transform="matrix(1,0,0,-1,112.566,21.022007)" stroke-width=".3985" stroke-linecap="butt" stroke-miterlimit="10" stroke-linejoin="miter" fill="none" stroke="#000000" d="M102.71394-106.6594H39.81712C37.61618-106.6594 35.83202-108.44356 35.83202-110.6445V-131.02109C35.83202-133.22203 37.61618-135.0062 39.81712-135.0062H102.71394C104.91489-135.0062 106.69905-133.22203 106.69905-131.02109V-110.6445C106.69905-108.44356 104.91489-106.6594 102.71394-106.6594ZM35.83202-135.0062"/>
<use data-text="A" xlink:href="#font_1_36" transform="matrix(8.9664,0,0,-8.9664,168.889,144.906)"/>
<use data-text="r" xlink:href="#font_1_85" transform="matrix(8.9664,0,0,-8.9664,175.36273,144.906)"/>
<use data-text="d" xlink:href="#font_1_71" transform="matrix(8.9664,0,0,-8.9664,178.34854,144.906)"/>
<use data-text="u" xlink:href="#font_1_88" transform="matrix(8.9664,0,0,-8.9664,182.83176,144.906)"/>
<use data-text="i" xlink:href="#font_1_76" transform="matrix(8.9664,0,0,-8.9664,187.31494,144.906)"/>
<use data-text="n" xlink:href="#font_1_81" transform="matrix(8.9664,0,0,-8.9664,189.80762,144.906)"/>
<use data-text="o" xlink:href="#font_1_82" transform="matrix(8.9664,0,0,-8.9664,194.2908,144.906)"/>
<path transform="matrix(1,0,0,-1,112.566,21.022007)" d="M31.4484-152.01448H-31.4484C-33.64934-152.01448-35.4335-153.79865-35.4335-155.99959V-176.37618C-35.4335-178.57712-33.64934-180.36128-31.4484-180.36128H31.4484C33.64934-180.36128 35.4335-178.57712 35.4335-176.37618V-155.99959C35.4335-153.79865 33.64934-152.01448 31.4484-152.01448ZM-35.4335-180.36128" fill="#ececec"/>
<path transform="matrix(1,0,0,-1,112.566,21.022007)" stroke-width=".3985" stroke-linecap="butt" stroke-miterlimit="10" stroke-linejoin="miter" fill="none" stroke="#000000" d="M31.4484-152.01448H-31.4484C-33.64934-152.01448-35.4335-153.79865-35.4335-155.99959V-176.37618C-35.4335-178.57712-33.64934-180.36128-31.4484-180.36128H31.4484C33.64934-180.36128 35.4335-178.57712 35.4335-176.37618V-155.99959C35.4335-153.79865 33.64934-152.01448 31.4484-152.01448ZM-35.4335-180.36128"/>
<use data-text="G" xlink:href="#font_1_42" transform="matrix(8.9664,0,0,-8.9664,95.012,189.574)"/>
<use data-text="i" xlink:href="#font_1_76" transform="matrix(8.9664,0,0,-8.9664,101.48574,189.574)"/>
<use data-text="a" xlink:href="#font_1_68" transform="matrix(8.9664,0,0,-8.9664,103.9784,189.574)"/>
<use data-text="o" xlink:href="#font_1_82" transform="matrix(8.9664,0,0,-8.9664,107.95949,189.574)"/>
<use data-text="d" xlink:href="#font_1_71" transform="matrix(8.9664,0,0,-8.9664,114.68428,189.574)"/>
<use data-text="i" xlink:href="#font_1_76" transform="matrix(8.9664,0,0,-8.9664,119.16748,189.574)"/>
<use data-text="&#x1ec7;" xlink:href="#font_1_1227" transform="matrix(8.9664,0,0,-8.9664,121.66014,189.574)"/>
<use data-text="n" xlink:href="#font_1_81" transform="matrix(8.9664,0,0,-8.9664,125.64122,189.574)"/>
<path transform="matrix(1,0,0,-1,112.566,21.022007)" stroke-width=".79701" stroke-linecap="butt" stroke-miterlimit="10" stroke-linejoin="miter" fill="none" stroke="#000000" d="M0-15.35194V-39.5884"/>
<path transform="matrix(0,1,1,0,112.566,58.14533)" d="M5.44046 0 1.28699 1.5706 2.66432 0 1.28699-1.5706Z"/>
<path transform="matrix(0,1,1,0,112.566,58.14533)" stroke-width=".79701" stroke-linecap="butt" stroke-miterlimit="10" stroke-linejoin="miter" fill="none" stroke="#000000" d="M5.44046 0 1.28699 1.5706 2.66432 0 1.28699-1.5706Z"/>
<use data-text="1" xlink:href="#font_1_20" transform="matrix(6.9738,0,0,-6.9738,68.747,52.216009)"/>
<use data-text="." xlink:href="#font_1_17" transform="matrix(6.9738,0,0,-6.9738,72.2339,52.216009)"/>
<use data-text="K" xlink:href="#font_1_46" transform="matrix(6.9738,0,0,-6.9738,75.7208,52.216009)"/>
<use data-text="h" xlink:href="#font_1_75" transform="matrix(6.9738,0,0,-6.9738,80.75589,52.216009)"/>
<use data-text="u" xlink:href="#font_1_88" transform="matrix(6.9738,0,0,-6.9738,84.24278,52.216009)"/>
<use data-text="n" xlink:href="#font_1_81" transform="matrix(6.9738,0,0,-6.9738,87.72969,52.216009)"/>
<use data-text="g" xlink:href="#font_1_74" transform="matrix(6.9738,0,0,-6.9738,91.21658,52.216009)"/>
<use data-text="h" xlink:href="#font_1_75" transform="matrix(6.9738,0,0,-6.9738,96.44693,52.216009)"/>
<use data-text="&#x00ec;" xlink:href="#font_1_117" transform="matrix(6.9738,0,0,-6.9738,99.93383,52.216009)"/>
<use data-text="n" xlink:href="#font_1_81" transform="matrix(6.9738,0,0,-6.9738,101.87254,52.216009)"/>
<use data-text="h" xlink:href="#font_1_75" transform="matrix(6.9738,0,0,-6.9738,105.35944,52.216009)"/>
<path transform="matrix(1,0,0,-1,112.566,21.022007)" stroke-width=".79701" stroke-linecap="butt" stroke-miterlimit="10" stroke-linejoin="miter" fill="none" stroke="#000000" d="M35.63277-58.0714H88.21603"/>
<path transform="matrix(1,0,0,-1,198.31696,79.09341)" d="M5.44046 0 1.28699 1.5706 2.66432 0 1.28699-1.5706Z"/>
<path transform="matrix(1,0,0,-1,198.31696,79.09341)" stroke-width=".79701" stroke-linecap="butt" stroke-miterlimit="10" stroke-linejoin="miter" fill="none" stroke="#000000" d="M5.44046 0 1.28699 1.5706 2.66432 0 1.28699-1.5706Z"/>
<use data-text="3" xlink:href="#font_1_22" transform="matrix(6.9738,0,0,-6.9738,164.15,75.27901)"/>
<use data-text="." xlink:href="#font_1_17" transform="matrix(6.9738,0,0,-6.9738,167.6369,75.27901)"/>
<use data-text="F" xlink:href="#font_1_41" transform="matrix(6.9738,0,0,-6.9738,171.12381,75.27901)"/>
<use data-text="r" xlink:href="#font_1_85" transform="matrix(6.9738,0,0,-6.9738,175.00124,75.27901)"/>
<use data-text="a" xlink:href="#font_1_68" transform="matrix(6.9738,0,0,-6.9738,177.32352,75.27901)"/>
<use data-text="m" xlink:href="#font_1_80" transform="matrix(6.9738,0,0,-6.9738,180.41988,75.27901)"/>
<use data-text="e" xlink:href="#font_1_72" transform="matrix(6.9738,0,0,-6.9738,185.84549,75.27901)"/>
<path transform="matrix(1,0,0,-1,112.566,21.022007)" stroke-width=".79701" stroke-linecap="butt" stroke-miterlimit="10" stroke-linejoin="miter" fill="none" stroke="#000000" d="M92.3264-58.0714H39.74312"/>
<path transform="matrix(-1,-0,0,1,154.7742,79.09341)" d="M5.44046 0 1.28699 1.5706 2.66432 0 1.28699-1.5706Z"/>
<path transform="matrix(-1,-0,0,1,154.7742,79.09341)" stroke-width=".79701" stroke-linecap="butt" stroke-miterlimit="10" stroke-linejoin="miter" fill="none" stroke="#000000" d="M5.44046 0 1.28699 1.5706 2.66432 0 1.28699-1.5706Z"/>
<use data-text="4" xlink:href="#font_1_23" transform="matrix(6.9738,0,0,-6.9738,162.501,89.02701)"/>
<use data-text="." xlink:href="#font_1_17" transform="matrix(6.9738,0,0,-6.9738,165.9879,89.02701)"/>
<use data-text="B" xlink:href="#font_1_37" transform="matrix(6.9738,0,0,-6.9738,169.4748,89.02701)"/>
<use data-text="i" xlink:href="#font_1_76" transform="matrix(6.9738,0,0,-6.9738,174.12633,89.02701)"/>
<use data-text="&#x1ec3;" xlink:href="#font_1_1223" transform="matrix(6.9738,0,0,-6.9738,176.06504,89.02701)"/>
<use data-text="n" xlink:href="#font_1_81" transform="matrix(6.9738,0,0,-6.9738,179.1614,89.02701)"/>
<use data-text="s" xlink:href="#font_1_86" transform="matrix(6.9738,0,0,-6.9738,184.39176,89.02701)"/>
<use data-text="&#x1ed1;" xlink:href="#font_1_1237" transform="matrix(6.9738,0,0,-6.9738,187.10457,89.02701)"/>
<path transform="matrix(1,0,0,-1,112.566,21.022007)" stroke-width=".79701" stroke-linecap="butt" stroke-miterlimit="10" stroke-linejoin="miter" fill="none" stroke="#000000" d="M-16.31769-72.44405-51.86575-103.74397"/>
<path transform="matrix(-.75047,.66081,.66081,.75047,62.55022,123.137027)" d="M5.44046 0 1.28699 1.5706 2.66432 0 1.28699-1.5706Z"/>
<path transform="matrix(-.75047,.66081,.66081,.75047,62.55022,123.137027)" stroke-width=".79701" stroke-linecap="butt" stroke-miterlimit="10" stroke-linejoin="miter" fill="none" stroke="#000000" d="M5.44046 0 1.28699 1.5706 2.66432 0 1.28699-1.5706Z"/>
<use data-text="5" xlink:href="#font_1_24" transform="matrix(6.9738,0,0,-6.9738,41.646005,113.534)"/>
<use data-text="." xlink:href="#font_1_17" transform="matrix(6.9738,0,0,-6.9738,45.132905,113.534)"/>
<use data-text="K" xlink:href="#font_1_46" transform="matrix(6.9738,0,0,-6.9738,48.619806,113.534)"/>
<use data-text="i" xlink:href="#font_1_76" transform="matrix(6.9738,0,0,-6.9738,53.65489,113.534)"/>
<use data-text="&#x1ec3;" xlink:href="#font_1_1223" transform="matrix(6.9738,0,0,-6.9738,55.593606,113.534)"/>
<use data-text="m" xlink:href="#font_1_80" transform="matrix(6.9738,0,0,-6.9738,58.689973,113.534)"/>
<use data-text="t" xlink:href="#font_1_87" transform="matrix(6.9738,0,0,-6.9738,65.85904,113.534)"/>
<use data-text="r" xlink:href="#font_1_85" transform="matrix(6.9738,0,0,-6.9738,67.79775,113.534)"/>
<use data-text="a" xlink:href="#font_1_68" transform="matrix(6.9738,0,0,-6.9738,70.120029,113.534)"/>
<path transform="matrix(1,0,0,-1,112.566,21.022007)" stroke-width=".79701" stroke-linecap="butt" stroke-miterlimit="10" stroke-linejoin="miter" fill="none" stroke="#000000" d="M16.31769-72.44405 51.86575-103.74397"/>
<path transform="matrix(.75047,.66081,.66081,-.75047,162.58179,123.137027)" d="M5.44046 0 1.28699 1.5706 2.66432 0 1.28699-1.5706Z"/>
<path transform="matrix(.75047,.66081,.66081,-.75047,162.58179,123.137027)" stroke-width=".79701" stroke-linecap="butt" stroke-miterlimit="10" stroke-linejoin="miter" fill="none" stroke="#000000" d="M5.44046 0 1.28699 1.5706 2.66432 0 1.28699-1.5706Z"/>
<use data-text="7" xlink:href="#font_1_26" transform="matrix(6.9738,0,0,-6.9738,151.919,112.313)"/>
<use data-text="." xlink:href="#font_1_17" transform="matrix(6.9738,0,0,-6.9738,155.4059,112.313)"/>
<use data-text="L" xlink:href="#font_1_47" transform="matrix(6.9738,0,0,-6.9738,158.89279,112.313)"/>
<use data-text="&#x1ec7;" xlink:href="#font_1_1227" transform="matrix(6.9738,0,0,-6.9738,163.1538,112.313)"/>
<use data-text="n" xlink:href="#font_1_81" transform="matrix(6.9738,0,0,-6.9738,166.25016,112.313)"/>
<use data-text="h" xlink:href="#font_1_75" transform="matrix(6.9738,0,0,-6.9738,169.73706,112.313)"/>
<path transform="matrix(1,0,0,-1,112.566,21.022007)" stroke-width=".79701" stroke-linecap="butt" stroke-miterlimit="10" stroke-linejoin="miter" fill="none" stroke="#000000" d="M0-72.44405V-147.70488"/>
<path transform="matrix(0,1,1,0,112.566,166.26181)" d="M5.44046 0 1.28699 1.5706 2.66432 0 1.28699-1.5706Z"/>
<path transform="matrix(0,1,1,0,112.566,166.26181)" stroke-width=".79701" stroke-linecap="butt" stroke-miterlimit="10" stroke-linejoin="miter" fill="none" stroke="#000000" d="M5.44046 0 1.28699 1.5706 2.66432 0 1.28699-1.5706Z"/>
<use data-text="9" xlink:href="#font_1_28" transform="matrix(6.9738,0,0,-6.9738,76.88901,134.827)"/>
<use data-text="." xlink:href="#font_1_17" transform="matrix(6.9738,0,0,-6.9738,80.3759,134.827)"/>
<use data-text="C" xlink:href="#font_1_38" transform="matrix(6.9738,0,0,-6.9738,83.86281,134.827)"/>
<use data-text="&#x1ead;" xlink:href="#font_1_1201" transform="matrix(6.9738,0,0,-6.9738,88.51433,134.827)"/>
<use data-text="p" xlink:href="#font_1_83" transform="matrix(6.9738,0,0,-6.9738,91.610698,134.827)"/>
<use data-text="n" xlink:href="#font_1_81" transform="matrix(6.9738,0,0,-6.9738,96.84105,134.827)"/>
<use data-text="h" xlink:href="#font_1_75" transform="matrix(6.9738,0,0,-6.9738,100.32794,134.827)"/>
<use data-text="&#x1ead;" xlink:href="#font_1_1201" transform="matrix(6.9738,0,0,-6.9738,103.81485,134.827)"/>
<use data-text="t" xlink:href="#font_1_87" transform="matrix(6.9738,0,0,-6.9738,106.91121,134.827)"/>
</svg>
