<svg xmlns="http://www.w3.org/2000/svg" xmlns:xlink="http://www.w3.org/1999/xlink" xmlns:inkscape="http://www.inkscape.org/namespaces/inkscape" version="1.1" width="391.49" height="202.76" viewBox="0 0 391.49 202.76">
<defs>
<path id="font_1_48" d="M.4091797 0 .15332031 .5571289V.114746097C.15332031 .07405599 .15771485 .048665365 .1665039 .03857422 .17854817 .024902344 .19759114 .018066407 .22363281 .018066407H.24707031V0H.016601563V.018066407H.040039064C.06803385 .018066407 .087890628 .026529948 .099609378 .04345703 .106770839 .0538737 .11035156 .07763672 .11035156 .114746097V.5473633C.11035156 .57666018 .10709635 .59781906 .10058594 .61083987 .09602865 .62027999 .087646488 .6281738 .07543945 .6345215 .06323242 .64086917 .043619794 .64404299 .016601563 .64404299V.6621094H.20410156L.44433595 .14404297 .68066409 .6621094H.86816409V.64404299H.84521487C.81689456 .64404299 .796875 .6355794 .78515627 .61865237 .7779948 .60823568 .77441409 .58447268 .77441409 .5473633V.114746097C.77441409 .07405599 .7789714 .048665365 .78808596 .03857422 .8001302 .024902344 .81917318 .018066407 .84521487 .018066407H.86816409V0H.58691409V.018066407H.61035159C.6386719 .018066407 .6585286 .026529948 .6699219 .04345703 .6770833 .0538737 .68066409 .07763672 .68066409 .114746097V.5571289L.42529298 0H.4091797Z"/>
<path id="font_1_105" d="M.28466798 .064453128C.23876953 .028971354 .20996094 .008463542 .19824219 .0029296876 .18066406-.005533854 .16194661-.009765625 .14208985-.009765625 .11116537-.009765625 .08569336 .00081380209 .06567383 .021972657 .045654298 .04313151 .03564453 .07096354 .03564453 .10546875 .03564453 .12727864 .040527345 .14615886 .05029297 .16210938 .06363932 .1842448 .08683268 .20507813 .11987305 .22460938 .1529134 .24414063 .20784505 .26790367 .28466798 .29589845V.31347657C.28466798 .3580729 .2775879 .38867188 .26342774 .40527345 .24926758 .421875 .22867839 .43017579 .20166016 .43017579 .18115235 .43017579 .1648763 .42466227 .15283203 .41363526 .14046224 .40260826 .13427735 .3899587 .13427735 .37568666L.1352539 .34747315C.1352539 .3325602 .13142903 .32105003 .1237793 .3129425 .116129558 .304835 .10611979 .30078126 .09375 .30078126 .08170573 .30078126 .07185873 .30499778 .064208988 .3134308 .056559247 .321874 .052734376 .33339945 .052734376 .3480072 .052734376 .37591044 .06705729 .4015452 .095703128 .4249115 .12434896 .4482778 .16455078 .45996095 .2163086 .45996095 .25602214 .45996095 .28857423 .45329795 .31396485 .43997193 .33317057 .42989097 .34733073 .41411845 .3564453 .39265443 .3623047 .37867738 .36523438 .35006715 .36523438 .30682374V.15515137C.36523438 .112559 .3660482 .08646647 .36767579 .07687378 .36930339 .06728109 .37198893 .060857137 .37573243 .05760193 .37947593 .05435689 .38378907 .052734376 .38867188 .052734376 .39388023 .052734376 .3984375 .0538737 .40234376 .056152345 .4091797 .060384115 .42236329 .072265628 .44189454 .091796878V.064453128C.4054362 .015625 .37060548-.0087890629 .33740235-.0087890629 .3214518-.0087890629 .3087565-.0032552083 .2993164 .0078125 .2898763 .018880209 .2849935 .037760419 .28466798 .064453128M.28466798 .096466068V.26611329C.23551433 .24667359 .20377605 .23289998 .18945313 .22479248 .16373699 .2105306 .14534505 .19562276 .13427735 .18006897 .12320963 .16451518 .11767578 .14750164 .11767578 .12902832 .11767578 .10569254 .12467448 .08632914 .13867188 .07093811 .15266927 .055547079 .16878255 .047851564 .18701172 .047851564 .2117513 .047851564 .24430339 .0640564 .28466798 .096466068M.3330078 .6796875 .18896485 .5107422H.17236328L.22363281 .6796875H.3330078Z"/>
<path id="font_1_92" d="M.005859375 .44726563H.21435547V.42919923H.20410156C.18945313 .42919923 .1784668 .4260254 .17114258 .41967774 .16381836 .41333009 .16015625 .4054362 .16015625 .3959961 .16015625 .38330079 .16552735 .36572267 .17626953 .34326173L.28515626 .11767578 .3852539 .3647461C.39078776 .37809245 .3935547 .39127604 .3935547 .40429688 .3935547 .41015626 .39241538 .41455079 .39013673 .41748048 .38753257 .4210612 .38346354 .42390953 .3779297 .4260254 .37239585 .42814128 .36263023 .42919923 .3486328 .42919923V.44726563H.49414063V.42919923C.48209635 .42789714 .472819 .42529298 .4663086 .42138673 .4597982 .41748048 .45263673 .41015626 .44482423 .39941407 .44189454 .39485679 .4363607 .38232423 .42822267 .3618164L.24609375-.084472659C.22851563-.12776692 .20548503-.16048177 .17700196-.18261719 .14851888-.20475261 .12109375-.21582031 .09472656-.21582031 .075520839-.21582031 .059733076-.21035259 .04736328-.19941712 .03499349-.18848165 .028808594-.17593892 .028808594-.16178894 .028808594-.14827983 .033284505-.13738506 .042236329-.12910462 .051188154-.12083435 .06347656-.11669922 .07910156-.11669922 .08984375-.11669922 .10449219-.120279949 .123046878-.1274414 .1360677-.13232422 .14420574-.13476563 .14746094-.13476563 .15722656-.13476563 .16788738-.12968445 .17944336-.119522098 .19099935-.10936991 .20263672-.08971659 .21435547-.060562135L.24609375 .017578125 .08544922 .35498048C.080566409 .36507163 .072753909 .37760417 .06201172 .39257813 .0538737 .40397135 .04720052 .4116211 .041992189 .41552735 .034505208 .4207357 .022460938 .42529298 .005859375 .42919923V.44726563Z"/>
<path id="font_1_87" d="M.16113281 .59472659V.44726563H.265625V.41308595H.16113281V.1234436C.16113281 .09450277 .1652832 .07499186 .17358399 .06491089 .18188477 .054840089 .19254558 .049804689 .2055664 .049804689 .2163086 .049804689 .22672527 .053141279 .2368164 .059814454 .24690755 .06648763 .25472007 .07633463 .2602539 .08935547H.27929688C.26790367 .057362874 .25179038 .033167524 .23095703 .01676941 .2101237 .00038146974 .18863933-.0078125 .1665039-.0078125 .15152996-.0078125 .13688152-.0036570233 .122558597 .0046539308 .10823568 .012964885 .09765625 .024856568 .09082031 .04032898 .083984378 .055811567 .080566409 .079686488 .080566409 .111953739V.41308595H.009765625V.42919923C.027669272 .436381 .045979818 .44854228 .064697269 .46568299 .08341471 .4828237 .100097659 .5031484 .114746097 .5266571 .12223307 .53905746 .13264974 .56174728 .1459961 .59472659H.16113281Z"/>
<path id="font_1_116" d="M.1850586 .45996095V.101379398C.1850586 .07344564 .18717449 .05485026 .19140625 .04559326 .19563802 .03633626 .20174153 .029434205 .2097168 .024887085 .21769206 .020339966 .23225911 .018066407 .25341798 .018066407V0H.036132814V.018066407C.057942708 .018066407 .07259115 .020177206 .080078128 .024398804 .0875651 .028620402 .09350586 .03560384 .09790039 .04534912 .10229492 .055094404 .10449219 .07377116 .10449219 .101379398V.2733612C.10449219 .32176209 .103027347 .35310365 .100097659 .36738587 .09781901 .3777822 .09423828 .38500978 .08935547 .3890686 .084472659 .39312745 .07779948 .39515687 .06933594 .39515687 .060221357 .39515687 .049153646 .39272056 .036132814 .3878479L.029296875 .4053955 .1640625 .45996095H.1850586M.24316406 .6796875 .099121097 .5107422H.08251953L.13378906 .6796875H.24316406Z"/>
<path id="font_1_81" d="M.1616211 .36523438C.21402996 .4283854 .2639974 .45996095 .31152345 .45996095 .3359375 .45996095 .3569336 .45386759 .37451173 .4416809 .39208985 .4295044 .40608726 .40944926 .4165039 .3815155 .42366538 .36203514 .4272461 .33215333 .4272461 .29187013V.101379398C.4272461 .07312012 .42952476 .053955079 .43408204 .043884279 .43766276 .0357666 .44344078 .029434205 .45141603 .024887085 .45939128 .020339966 .4741211 .018066407 .49560548 .018066407V0H.27441407V.018066407H.2836914C.30452476 .018066407 .3190918 .021224976 .32739259 .027542115 .33569337 .033859254 .34147135 .043167116 .34472657 .0554657 .34602867 .060328168 .3466797 .07555135 .3466797 .101135257V.28330995C.3466797 .3237864 .34138999 .35317485 .33081056 .37147523 .3202311 .3897756 .30240885 .39892579 .27734376 .39892579 .23860677 .39892579 .20003255 .37787376 .1616211 .33576966V.101135257C.1616211 .071014408 .16341146 .052393598 .16699219 .045272829 .17154949 .035883588 .17781575 .029001872 .18579102 .024627686 .19376628 .0202535 .20996094 .018066407 .234375 .018066407V0H.013183594V.018066407H.022949219C.045735677 .018066407 .061116537 .023829142 .0690918 .035354616 .077067058 .04689026 .08105469 .06889852 .08105469 .101379398V.2670288C.08105469 .32061769 .079833988 .35325624 .07739258 .36494447 .07495117 .37664286 .07120768 .38460288 .06616211 .38882447 .061116537 .39304606 .05436198 .39515687 .045898439 .39515687 .036783857 .39515687 .025878907 .39272056 .013183594 .3878479L.005859375 .4053955 .140625 .45996095H.1616211V.36523438Z"/>
<path id="font_1_75" d="M.16259766 .69433596V.36669923C.19873047 .40641276 .2273763 .43188478 .24853516 .44311524 .269694 .4543457 .29085288 .45996095 .31201173 .45996095 .33740235 .45996095 .35921226 .4529775 .3774414 .43901063 .39567057 .42504374 .4091797 .40312196 .41796876 .37324525 .42415367 .3524526 .4272461 .31444804 .4272461 .25923158V.101379398C.4272461 .07312012 .42952476 .053792318 .43408204 .043395997 .43733726 .03560384 .4428711 .029434205 .4506836 .024887085 .4584961 .020339966 .472819 .018066407 .49365235 .018066407V0H.27392579V.018066407H.2841797C.30501304 .018066407 .3194987 .021240235 .32763673 .02758789 .33577476 .033935548 .34147135 .04329427 .34472657 .055664064 .34570313 .060872396 .3461914 .076171878 .3461914 .1015625V.25976563C.3461914 .30859376 .3436686 .34065757 .33862306 .35595704 .33357749 .3712565 .32552085 .3827311 .31445313 .39038087 .3033854 .3980306 .29003907 .40185548 .27441407 .40185548 .25846354 .40185548 .24186199 .3976237 .22460938 .38916017 .20735677 .38069663 .1866862 .36360679 .16259766 .33789063V.1015625C.16259766 .07096354 .16430664 .051920576 .16772461 .044433595 .17114258 .036946615 .17749024 .030680338 .18676758 .025634766 .19604492 .020589194 .21207683 .018066407 .23486328 .018066407V0H.013183594V.018066407C.033040365 .018066407 .048665365 .021158854 .060058595 .02734375 .06656901 .030588786 .071777347 .036763509 .075683597 .04586792 .079589847 .054982503 .08154297 .073527019 .08154297 .101501468V.5059967C.08154297 .5570628 .080322269 .58845016 .07788086 .6001587 .07543945 .61187747 .07169596 .6198476 .06665039 .6240692 .061604818 .62830099 .05485026 .63041689 .04638672 .63041689 .03955078 .63041689 .028483073 .6278127 .013183594 .62260439L.0063476564 .6396942 .14013672 .69433596H.16259766Z"/>
<path id="font_1_51" d="M.20507813 .31054688V.11735535C.20507813 .07561747 .20963542 .04969279 .21875 .0395813 .2311198 .025238038 .24983724 .018066407 .27490235 .018066407H.30029298V0H.016601563V.018066407H.041503908C.069498699 .018066407 .08951823 .02718099 .1015625 .045410158 .108072917 .0555013 .111328128 .079427089 .111328128 .1171875V.5449219C.111328128 .58658859 .106933597 .61246749 .09814453 .6225586 .08544922 .63688156 .06656901 .64404299 .041503908 .64404299H.016601563V.6621094H.25927735C.31852214 .6621094 .36523438 .6560109 .39941407 .6438141 .43359376 .6316274 .46240235 .6110687 .48583985 .58213809 .50927737 .5532074 .5209961 .5189107 .5209961 .47924806 .5209961 .4252828 .5031738 .38139344 .4675293 .34757997 .43188478 .31377665 .3815104 .296875 .31640626 .296875 .30045573 .296875 .28320313 .2980143 .26464845 .30029298 .24609375 .30257163 .22623699 .3059896 .20507813 .31054688M.20507813 .3388672C.22233074 .33561198 .2376302 .33317057 .25097657 .33154298 .2643229 .32991538 .27571617 .32910157 .28515626 .32910157 .3190104 .32910157 .34822593 .34220378 .37280274 .3684082 .39737956 .39461265 .40966798 .4285482 .40966798 .47021485 .40966798 .4988607 .4038086 .525472 .39208985 .5500488 .3803711 .5746257 .36376954 .5930176 .34228517 .6052246 .32080079 .61743167 .29638673 .62353518 .26904298 .62353518 .2524414 .62353518 .2311198 .6204427 .20507813 .6142578V.3388672Z"/>
<path id="font_1_82" d="M.25 .45996095C.31770835 .45996095 .3720703 .43427024 .41308595 .3828888 .44791667 .33899436 .46533204 .28858949 .46533204 .2316742 .46533204 .19167583 .45572917 .15118917 .43652345 .11021423 .41731773 .06924947 .39086915 .038360597 .35717774 .017547608 .32348634-.0032653809 .28597007-.013671875 .2446289-.013671875 .1772461-.013671875 .123697917 .013158162 .083984378 .06681824 .05045573 .11201477 .033691408 .16274007 .033691408 .21899414 .033691408 .2599691 .043863935 .30069987 .064208988 .34118653 .08455404 .3816732 .111328128 .41159059 .14453125 .43093873 .17773438 .45028688 .21289063 .45996095 .25 .45996095M.23486328 .42773438C.21761067 .42773438 .20027669 .42261253 .18286133 .41236878 .16544597 .40212504 .15136719 .38416038 .140625 .35847474 .12988281 .3327891 .12451172 .29978944 .12451172 .2594757 .12451172 .19445293 .13745117 .1383667 .16333008 .09121704 .18920899 .044077558 .2233073 .020507813 .265625 .020507813 .29720054 .020507813 .3232422 .033513387 .34375 .059524537 .3642578 .08553568 .37451173 .13023885 .37451173 .19363404 .37451173 .27296958 .35742188 .33539836 .3232422 .3809204 .30013023 .41212974 .27067057 .42773438 .23486328 .42773438Z"/>
<path id="font_1_54" d="M.4584961 .6767578V.4482422H.4404297C.4345703 .4921875 .42407228 .52718099 .40893556 .55322268 .39379884 .57926437 .37223307 .5999349 .34423829 .6152344 .3162435 .6305339 .28727214 .6381836 .25732423 .6381836 .22347005 .6381836 .19547527 .6278534 .17333985 .607193 .15120442 .5865428 .14013672 .56304427 .14013672 .5366974 .14013672 .51652529 .14713542 .4981486 .16113281 .48156739 .18131511 .45716349 .22932942 .42463175 .30517579 .38397218 .36702476 .35079957 .40926109 .3253479 .43188478 .3076172 .45450846 .28989665 .47192384 .2689972 .48413087 .24491883 .4963379 .22085063 .5024414 .19564311 .5024414 .16929627 .5024414 .11920675 .48299156 .076024379 .4440918 .039749147 .40519206 .00348409 .35514323-.0146484379 .2939453-.0146484379 .2747396-.0146484379 .2566732-.0132039389 .2397461-.010314941 .22965496-.008707683 .20874024-.002843221 .17700196 .0072784426 .14526367 .017400107 .12516277 .022460938 .11669922 .022460938 .108561199 .022460938 .102132167 .020050049 .09741211 .0152282719 .092692058 .010406494 .08919271 .00044759117 .08691406-.0146484379H.068847659V.21191406H.08691406C.0953776 .16438802 .106770839 .12882488 .12109375 .10522461 .13541667 .08162435 .15730794 .06201172 .18676758 .04638672 .21622722 .030761719 .24853516 .022949219 .2836914 .022949219 .3243815 .022949219 .3565267 .033681234 .38012696 .055145265 .4037272 .07661947 .41552735 .101994838 .41552735 .13127136 .41552735 .14753723 .41105143 .16396077 .4020996 .18054199 .3931478 .19713338 .37923179 .21258545 .36035157 .2268982 .34765626 .23665364 .31298829 .25739036 .25634767 .28910829 .19970703 .3208262 .15942383 .3461151 .13549805 .36497499 .111572269 .383845 .09342448 .4046631 .08105469 .4274292 .0686849 .45020548 .0625 .47525535 .0625 .50257876 .0625 .5500641 .080729167 .5909627 .1171875 .62527468 .15364583 .65959677 .20003255 .6767578 .25634767 .6767578 .2915039 .6767578 .32877604 .66813156 .36816407 .6508789 .38639323 .6427409 .3992513 .6386719 .40673829 .6386719 .4152018 .6386719 .42211915 .64119467 .42749024 .64624026 .43286134 .6512858 .43717448 .6614583 .4404297 .6767578H.4584961Z"/>
<path id="font_1_73" d="M.20605469 .41308595V.118774417C.20605469 .077056888 .21061199 .05065918 .21972656 .0395813 .23177083 .025238038 .24788411 .018066407 .2680664 .018066407H.30859376V0H.041503908V.018066407H.061523439C.07454427 .018066407 .08642578 .0213267 .09716797 .02784729 .107910159 .034367879 .11531576 .043167116 .119384769 .054244996 .12345377 .065322879 .12548828 .08683268 .12548828 .118774417V.41308595H.03857422V.44726563H.12548828V.47668458C.12548828 .52145388 .13264974 .55936178 .14697266 .5904083 .16129558 .6214549 .18318685 .6465352 .21264649 .6656494 .24210613 .68477377 .27522788 .69433596 .31201173 .69433596 .3461914 .69433596 .37760417 .68326827 .40625 .6611328 .42513023 .6464844 .4345703 .6300456 .4345703 .6118164 .4345703 .6020508 .43033854 .5928548 .421875 .5842285 .41341148 .57560226 .40429688 .57128909 .39453126 .57128909 .38704429 .57128909 .3791504 .5740051 .3708496 .57943728 .36254884 .5848694 .3523763 .59655258 .34033204 .6144867 .32828776 .63242086 .31722007 .644516 .3071289 .6507721 .29703776 .6570282 .28580729 .66015627 .2734375 .66015627 .25846354 .66015627 .24576824 .6561279 .23535156 .6480713 .22493489 .64002487 .21744792 .62754318 .21289063 .6106262 .20833333 .5937093 .20605469 .5500997 .20605469 .47979737V.44726563H.32128907V.41308595H.20605469Z"/>
<path id="font_1_90" d="M.0063476564 .44726563H.19384766V.42919923C.17659505 .42789714 .1652832 .4248047 .15991211 .41992188 .15454102 .41503907 .15185547 .40804038 .15185547 .39892579 .15185547 .38883464 .15462239 .3766276 .16015625 .3623047L.25585938 .10498047 .35205079 .31445313 .32666017 .3803711C.31884767 .39990235 .30859376 .41341148 .29589845 .42089845 .28873698 .42545573 .27539063 .42822267 .25585938 .42919923V.44726563H.46875V.42919923C.4453125 .42822267 .42871095 .42399089 .4189453 .4165039 .4124349 .41129557 .4091797 .40299479 .4091797 .39160157 .4091797 .38509117 .41048179 .37841798 .41308595 .37158204L.51464846 .114746097 .6088867 .3623047C.61539718 .3798828 .61865237 .39388023 .61865237 .40429688 .61865237 .41048179 .6154785 .41601563 .60913088 .42089845 .6027832 .42578126 .59033206 .4285482 .57177737 .42919923V.44726563H.7128906V.42919923C.6845703 .42496745 .663737 .40576173 .6503906 .37158204L.50097659-.013671875H.48095704L.36914063 .27197267 .23876953-.013671875H.22070313L.07714844 .3623047C.067708339 .38606773 .05843099 .4020996 .049316408 .4104004 .040201826 .41870118 .025878907 .42496745 .0063476564 .42919923V.44726563Z"/>
<path id="font_1_68" d="M.28466798 .064453128C.23876953 .028971354 .20996094 .008463542 .19824219 .0029296876 .18066406-.005533854 .16194661-.009765625 .14208985-.009765625 .11116537-.009765625 .08569336 .00081380209 .06567383 .021972657 .045654298 .04313151 .03564453 .07096354 .03564453 .10546875 .03564453 .12727864 .040527345 .14615886 .05029297 .16210938 .06363932 .1842448 .08683268 .20507813 .11987305 .22460938 .1529134 .24414063 .20784505 .26790367 .28466798 .29589845V.31347657C.28466798 .3580729 .2775879 .38867188 .26342774 .40527345 .24926758 .421875 .22867839 .43017579 .20166016 .43017579 .18115235 .43017579 .1648763 .42466227 .15283203 .41363526 .14046224 .40260826 .13427735 .3899587 .13427735 .37568666L.1352539 .34747315C.1352539 .3325602 .13142903 .32105003 .1237793 .3129425 .116129558 .304835 .10611979 .30078126 .09375 .30078126 .08170573 .30078126 .07185873 .30499778 .064208988 .3134308 .056559247 .321874 .052734376 .33339945 .052734376 .3480072 .052734376 .37591044 .06705729 .4015452 .095703128 .4249115 .12434896 .4482778 .16455078 .45996095 .2163086 .45996095 .25602214 .45996095 .28857423 .45329795 .31396485 .43997193 .33317057 .42989097 .34733073 .41411845 .3564453 .39265443 .3623047 .37867738 .36523438 .35006715 .36523438 .30682374V.15515137C.36523438 .112559 .3660482 .08646647 .36767579 .07687378 .36930339 .06728109 .37198893 .060857137 .37573243 .05760193 .37947593 .05435689 .38378907 .052734376 .38867188 .052734376 .39388023 .052734376 .3984375 .0538737 .40234376 .056152345 .4091797 .060384115 .42236329 .072265628 .44189454 .091796878V.064453128C.4054362 .015625 .37060548-.0087890629 .33740235-.0087890629 .3214518-.0087890629 .3087565-.0032552083 .2993164 .0078125 .2898763 .018880209 .2849935 .037760419 .28466798 .064453128M.28466798 .096466068V.26611329C.23551433 .24667359 .20377605 .23289998 .18945313 .22479248 .16373699 .2105306 .14534505 .19562276 .13427735 .18006897 .12320963 .16451518 .11767578 .14750164 .11767578 .12902832 .11767578 .10569254 .12467448 .08632914 .13867188 .07093811 .15266927 .055547079 .16878255 .047851564 .18701172 .047851564 .2117513 .047851564 .24430339 .0640564 .28466798 .096466068Z"/>
<path id="font_1_85" d="M.16210938 .45996095V.359375C.19954427 .42643229 .23795574 .45996095 .27734376 .45996095 .2952474 .45996095 .3100586 .45450846 .32177735 .44360353 .3334961 .43269859 .33935548 .42008464 .33935548 .40576173 .33935548 .3930664 .3351237 .38232423 .32666017 .37353517 .31819663 .3647461 .30810548 .36035157 .29638673 .36035157 .2849935 .36035157 .2722168 .3659668 .25805665 .37719728 .24389649 .38842774 .23339844 .39404298 .2265625 .39404298 .22070313 .39404298 .21435547 .39079795 .20751953 .38430787 .1928711 .37099204 .17773438 .34907533 .16210938 .31855775V.10475159C.16210938 .080083217 .16520183 .061416627 .17138672 .04875183 .17561849 .039983114 .18310547 .032674154 .19384766 .026824952 .20458985 .020985922 .22005208 .018066407 .24023438 .018066407V0H.011230469V.018066407C.034016927 .018066407 .05094401 .021636963 .06201172 .028778077 .07014974 .03397624 .07584635 .04226176 .07910156 .053634645 .080729167 .059158327 .08154297 .074910487 .08154297 .10089111V.2738495C.08154297 .32582093 .08048502 .35675559 .07836914 .36665345 .07625326 .3765615 .07234701 .38378907 .06665039 .38833619 .060953779 .3928833 .0538737 .39515687 .045410158 .39515687 .03531901 .39515687 .023925782 .39272056 .011230469 .3878479L.0063476564 .4053955 .14160156 .45996095H.16210938Z"/>
<path id="font_1_72" d="M.10644531 .2783203C.10611979 .21206665 .12223307 .1601003 .15478516 .122421268 .18733724 .0847524 .22558594 .06591797 .26953126 .06591797 .29882813 .06591797 .32430015 .07397461 .34594728 .09008789 .3675944 .10620117 .3857422 .13378906 .40039063 .17285156L.41552735 .16308594C.4086914 .118489589 .38883464 .07788086 .35595704 .041259767 .32307945 .004638672 .28190104-.013671875 .23242188-.013671875 .17871094-.013671875 .13273113 .007197062 .09448242 .048934938 .056233724 .09068298 .037109376 .14680481 .037109376 .21730042 .037109376 .29363505 .056722005 .35315959 .095947269 .39587403 .13517253 .43859864 .18440755 .45996095 .24365235 .45996095 .29378257 .45996095 .33496095 .44348146 .3671875 .41052247 .39941407 .37757365 .41552735 .33350627 .41552735 .2783203H.10644531M.10644531 .30664063H.31347657C.31184898 .33528648 .308431 .35546876 .30322267 .3671875 .29508464 .38541667 .28295899 .3997396 .2668457 .41015626 .25073243 .4205729 .23388672 .42578126 .2163086 .42578126 .18929036 .42578126 .16512044 .4152832 .14379883 .3942871 .12247721 .37329103 .11002604 .34407554 .10644531 .30664063Z"/>
<path id="font_1_36" d="M.45751954 .22167969H.20117188L.15625 .1171875C.1451823 .09147135 .13964844 .072265628 .13964844 .059570314 .13964844 .049479169 .14444988 .040608724 .15405274 .032958986 .1636556 .025309245 .18440755 .020345053 .2163086 .018066407V0H.0078125V.018066407C.03548177 .022949219 .053385419 .029291789 .061523439 .037094118 .078125 .052708944 .09651693 .08442179 .11669922 .13223267L.34960938 .6767578H.36669923L.59716799 .12638855C.61572268 .08214823 .63256838 .053441366 .6477051 .040267946 .6628418 .027094523 .68391928 .01969401 .7109375 .018066407V0H.44970704V.018066407C.47607423 .01936849 .49389649 .023763022 .5031738 .03125 .5124512 .03873698 .51708987 .047851564 .51708987 .05859375 .51708987 .072916667 .5105794 .09554037 .4975586 .12646485L.45751954 .22167969M.44384767 .2578125 .33154298 .52500918 .2163086 .2578125H.44384767Z"/>
<path id="font_1_71" d="M.34716798 .05029297C.32535807 .02750651 .30403648 .011149089 .28320313 .0012207031 .26236979-.008707683 .23990886-.013671875 .21582031-.013671875 .16699219-.013671875 .12434896 .006708781 .087890628 .047470094 .051432294 .08824158 .033203126 .14063008 .033203126 .20463562 .033203126 .26863099 .053385419 .32718406 .09375 .3802948 .13411458 .43340556 .18603516 .45996095 .24951172 .45996095 .28889976 .45996095 .3214518 .44742839 .34716798 .42236329V.5050659C.34716798 .5563863 .34594728 .58793136 .34350587 .5997009 .34106446 .6114705 .3372396 .6194763 .33203126 .62371829 .3268229 .6279704 .3203125 .63009646 .3125 .63009646 .30403648 .63009646 .292806 .6274821 .2788086 .6222534L.27246095 .63941958 .40576173 .69433596H.42773438V.1772461C.42773438 .12483724 .42895509 .09285482 .43139649 .08129883 .4338379 .069742839 .43774415 .0616862 .44311524 .057128908 .44848634 .052571615 .4547526 .05029297 .46191407 .05029297 .47070313 .05029297 .48242188 .053059896 .4970703 .05859375L.5024414 .041503908 .3696289-.013671875H.34716798V.05029297M.34716798 .084365848V.31425477C.34521485 .33633933 .33935548 .35647074 .32958985 .37464906 .31982423 .39283753 .30688478 .40655519 .29077149 .415802 .2746582 .425059 .2589518 .4296875 .24365235 .4296875 .21500652 .4296875 .18945313 .41685996 .16699219 .39120484 .1373698 .35744224 .122558597 .3080902 .122558597 .2431488 .122558597 .17755635 .13688152 .12730408 .16552735 .09239197 .19417317 .057490034 .22607422 .040039064 .26123048 .040039064 .29085288 .040039064 .3194987 .054814657 .34716798 .084365848Z"/>
<path id="font_1_88" d="M.42333985 .44726563V.17626953C.42333985 .12451172 .42456056 .09285482 .42700196 .08129883 .42944337 .069742839 .4333496 .0616862 .4387207 .057128908 .4440918 .052571615 .45035807 .05029297 .45751954 .05029297 .4676107 .05029297 .4790039 .053059896 .49169923 .05859375L.49853517 .041503908 .3647461-.013671875H.34277345V.08105469C.30436198 .03938802 .2750651 .013183594 .2548828 .0024414063 .23470052-.008300781 .2133789-.013671875 .19091797-.013671875 .16585286-.013671875 .14412435-.0064290368 .12573242 .008056641 .10734049 .022542319 .094563808 .041178388 .087402347 .063964847 .08024088 .086751308 .076660159 .11897787 .076660159 .16064453V.36035157C.076660159 .3815104 .07438151 .39615885 .06982422 .40429688 .06526693 .4124349 .05851237 .41870118 .049560548 .4230957 .040608724 .42749024 .024414063 .42952476 .0009765625 .42919923V.44726563H.15771485V.14868164C.15771485 .1071167 .16495769 .07983907 .17944336 .066848758 .19392903 .05385844 .21142578 .04736328 .2319336 .04736328 .24593099 .04736328 .26180015 .05174764 .27954103 .060516359 .2972819 .06928507 .31835938 .086003627 .34277345 .110672V.3634491C.34277345 .3887787 .33813478 .40590415 .32885743 .41482545 .31958009 .42375694 .30029298 .4285482 .2709961 .42919923V.44726563H.42333985Z"/>
<path id="font_1_76" d="M.14501953 .69433596C.1586914 .69433596 .17032878 .6895091 .17993164 .67985537 .1895345 .6702118 .19433594 .6585185 .19433594 .6447754 .19433594 .6310323 .1895345 .6192525 .17993164 .60943606 .17032878 .5996297 .1586914 .59472659 .14501953 .59472659 .13134766 .59472659 .119628909 .5996297 .10986328 .60943606 .100097659 .6192525 .095214847 .6310323 .095214847 .6447754 .095214847 .6585185 .10001627 .6702118 .10961914 .67985537 .11922201 .6895091 .13102214 .69433596 .14501953 .69433596M.18554688 .45996095V.101379398C.18554688 .07344564 .18758138 .05485026 .19165039 .04559326 .1957194 .03633626 .20174153 .029434205 .2097168 .024887085 .21769206 .020339966 .23225911 .018066407 .25341798 .018066407V0H.036132814V.018066407C.057942708 .018066407 .07259115 .020177206 .080078128 .024398804 .0875651 .028620402 .09350586 .03560384 .09790039 .04534912 .10229492 .055094404 .10449219 .07377116 .10449219 .101379398V.2733612C.10449219 .32176209 .103027347 .35310365 .100097659 .36738587 .09781901 .3777822 .09423828 .38500978 .08935547 .3890686 .084472659 .39312745 .07779948 .39515687 .06933594 .39515687 .060221357 .39515687 .049153646 .39272056 .036132814 .3878479L.029296875 .4053955 .1640625 .45996095H.18554688Z"/>
<path id="font_1_56" d="M.47705079 .64404299V.6621094H.7114258V.64404299H.68652346C.66048178 .64404299 .6404622 .63315328 .62646487 .6113739 .6196289 .6013031 .61621096 .5779012 .61621096 .5411682V.27301026C.61621096 .20670574 .60961917 .15526836 .59643557 .11869812 .58325198 .08212789 .55737307 .050760908 .5187988 .024597168 .4802246-.001566569 .42773438-.0146484379 .36132813-.0146484379 .2890625-.0146484379 .23421224-.0021362305 .19677735 .022888184 .15934246 .04792277 .1328125 .0815684 .1171875 .12382507 .106770839 .15274556 .1015625 .20702617 .1015625 .28666688V.54507449C.1015625 .58570358 .095947269 .61235556 .0847168 .6250305 .07348633 .6377055 .055338544 .64404299 .030273438 .64404299H.0053710939V.6621094H.2915039V.64404299H.26611329C.23876953 .64404299 .21923828 .63542178 .20751953 .6181793 .19938152 .60647079 .1953125 .582077 .1953125 .54499819V.25665284C.1953125 .23095703 .19767253 .20151775 .20239258 .16833496 .20711263 .13516236 .21565755 .109303798 .22802735 .09075928 .24039714 .07222494 .2582194 .056940717 .28149415 .044906618 .3047689 .032872518 .33333335 .026855469 .3671875 .026855469 .41048179 .026855469 .44921876 .0362854 .48339845 .055145265 .5175781 .0740153 .54093429 .09816488 .5534668 .127594 .5659993 .15703328 .5722656 .20688375 .5722656 .2771454V.54499819C.5722656 .5863088 .5677083 .61216738 .55859377 .62257388 .54589846 .6368866 .52701827 .64404299 .5019531 .64404299H.47705079Z"/>
<path id="font_1_89" d="M.008300781 .44726563H.21875V.42919923H.20507813C.19238281 .42919923 .18269857 .42610679 .17602539 .41992188 .16935222 .41373698 .16601563 .4054362 .16601563 .39501954 .16601563 .3836263 .1694336 .3701172 .17626953 .3544922L.28027345 .107421878 .38476563 .36376954C.3922526 .3819987 .3959961 .39583335 .3959961 .40527345 .3959961 .40983073 .394694 .41357423 .39208985 .4165039 .38850913 .42138673 .3839518 .4247233 .37841798 .42651368 .37288413 .42830406 .36165367 .42919923 .34472657 .42919923V.44726563H.49072267V.42919923C.47379557 .42789714 .4620768 .42447917 .4555664 .4189453 .4441732 .4091797 .43391929 .39290367 .4248047 .3701172L.26611329-.013671875H.24609375L.08642578 .36376954C.07926432 .38134767 .07242838 .39396159 .06591797 .40161134 .05940755 .40926109 .05110677 .4156901 .041015626 .42089845 .03548177 .42382813 .024576823 .42659507 .008300781 .42919923V.44726563Z"/>
<path id="font_1_70" d="M.4111328 .16992188C.39908854 .1110026 .37548829 .06567383 .34033204 .033935548 .30517579 .0021972657 .26627604-.013671875 .22363281-.013671875 .17285156-.013671875 .12858074 .007624308 .09082031 .050216676 .053059896 .092819217 .034179689 .15038045 .034179689 .22290039 .034179689 .2931417 .055094404 .35020957 .09692383 .394104 .13875325 .43800865 .18896485 .45996095 .2475586 .45996095 .2915039 .45996095 .32763673 .44835917 .35595704 .42515565 .38427735 .40196229 .3984375 .37787376 .3984375 .35289 .3984375 .3405609 .39444987 .33058167 .3864746 .32295228 .37849937 .31533305 .36735026 .31152345 .35302735 .31152345 .33382163 .31152345 .31933595 .31770835 .3095703 .33007813 .30403648 .33691407 .30037437 .3499349 .29858399 .36914063 .2967936 .38834635 .2902018 .40299479 .2788086 .41308595 .26741538 .42285157 .2516276 .42773438 .23144531 .42773438 .19889324 .42773438 .1726888 .4156901 .15283203 .39160157 .12646485 .35970054 .11328125 .31754557 .11328125 .26513673 .11328125 .2117513 .12638347 .16463216 .15258789 .1237793 .17879232 .08292643 .2141927 .0625 .25878907 .0625 .2906901 .0625 .31933595 .073404949 .34472657 .095214847 .36263023 .110188808 .38004557 .1373698 .39697267 .17675781L.4111328 .16992188Z"/>
<path id="font_1_1241" d="M.25 .45996095C.31770835 .45996095 .3720703 .43427024 .41308595 .3828888 .44791667 .33899436 .46533204 .28858949 .46533204 .2316742 .46533204 .19167583 .45572917 .15118917 .43652345 .11021423 .41731773 .06924947 .39086915 .038360597 .35717774 .017547608 .32348634-.0032653809 .28597007-.013671875 .2446289-.013671875 .1772461-.013671875 .123697917 .013158162 .083984378 .06681824 .05045573 .11201477 .033691408 .16274007 .033691408 .21899414 .033691408 .2599691 .043863935 .30069987 .064208988 .34118653 .08455404 .3816732 .111328128 .41159059 .14453125 .43093873 .17773438 .45028688 .21289063 .45996095 .25 .45996095M.23486328 .42773438C.21761067 .42773438 .20027669 .42261253 .18286133 .41236878 .16544597 .40212504 .15136719 .38416038 .140625 .35847474 .12988281 .3327891 .12451172 .29978944 .12451172 .2594757 .12451172 .19445293 .13745117 .1383667 .16333008 .09121704 .18920899 .044077558 .2233073 .020507813 .265625 .020507813 .29720054 .020507813 .3232422 .033513387 .34375 .059524537 .3642578 .08553568 .37451173 .13023885 .37451173 .19363404 .37451173 .27296958 .35742188 .33539836 .3232422 .3809204 .30013023 .41212974 .27067057 .42773438 .23486328 .42773438M.21044922 .67285159H.30029298L.3930664 .5107422H.3779297L.2446289 .6150665 .1328125 .5107422H.11816406L.21044922 .67285159M.3076172 .78741458C.29101563 .7715149 .28092448 .7604828 .27734376 .75431826 .27376304 .7481537 .27164714 .7392273 .2709961 .72753909H.25439454C.25569663 .7496033 .26383464 .7724762 .2788086 .79615786 .28922526 .81302389 .2944336 .82664999 .2944336 .83703616 .2944336 .8610433 .2825521 .8730469 .25878907 .8730469 .24772136 .8730469 .23942058 .8704631 .23388672 .8652954 .23160808 .8630371 .23046875 .8607788 .23046875 .8585205 .23046875 .8562622 .23225911 .8523102 .23583985 .8466644 .23942058 .8410187 .24121094 .83657839 .24121094 .8333435 .24121094 .822052 .23502605 .81640627 .22265625 .81640627 .2063802 .81640627 .19824219 .82562258 .19824219 .8440552 .19824219 .85732015 .20467122 .868398 .2175293 .8772888 .23038738 .8861796 .24658203 .890625 .26611329 .890625 .2915039 .890625 .31022135 .88429769 .32226563 .87164309 .33170573 .86190798 .33642579 .8511963 .33642579 .83950808 .33642579 .8232829 .3268229 .8059184 .3076172 .78741458Z"/>
<path id="font_1_74" d="M.1508789 .16297913C.123535159 .17630513 .10253906 .19491577 .087890628 .21881104 .07324219 .2427063 .06591797 .26912437 .06591797 .2980652 .06591797 .342275 .082600917 .38031007 .1159668 .4121704 .14933269 .44403077 .1920573 .45996095 .24414063 .45996095 .28678385 .45996095 .32373048 .44954429 .35498048 .42871095H.44970704C.46370445 .42871095 .47184245 .4283091 .4741211 .4275055 .47639976 .42670188 .47802735 .42533366 .4790039 .42340089 .48095704 .4205017 .4819336 .41534934 .4819336 .40794374 .4819336 .3995819 .48111979 .39378868 .4794922 .39056397 .47851563 .3889567 .47680665 .3876699 .47436524 .3867035 .47192384 .3857371 .46370445 .3852539 .44970704 .3852539H.39160157C.40983073 .36176554 .4189453 .3317566 .4189453 .29522706 .4189453 .253479 .40299479 .21776326 .37109376 .18807984 .33919273 .15839641 .29638673 .14355469 .24267578 .14355469 .22054036 .14355469 .19791667 .14687602 .17480469 .15351868 .16048177 .14115906 .15079753 .13034058 .14575196 .12106323 .14070638 .11179606 .1381836 .10391235 .1381836 .09741211 .1381836 .09187826 .14086914 .086507167 .14624024 .08129883 .15161133 .07610067 .16210938 .07236227 .17773438 .07008362 .18684896 .06878153 .20963542 .06764221 .24609375 .06666565 .31315104 .06504822 .35660807 .06277466 .37646485 .05984497 .40673829 .0556132 .4309082 .044387819 .4489746 .026168824 .46704103 .007960002 .47607423-.014480591 .47607423-.041152955 .47607423-.07790629 .45882163-.11238607 .4243164-.14459229 .37353517-.19207764 .30729167-.21582031 .22558594-.21582031 .16276042-.21582031 .10970052-.2016805 .06640625-.17340088 .041992189-.15714519 .029785157-.14023845 .029785157-.122680667 .029785157-.11488851 .03157552-.10709127 .03515625-.09928894 .040690107-.087254848 .052083333-.070510867 .06933594-.049057008 .071614589-.046137494 .08821615-.028584799 .119140628 .0036010743 .10221354 .013702393 .09025065 .022745768 .08325195 .030731202 .07625326 .038716634 .072753909 .04776001 .072753909 .057861329 .072753909 .0692749 .07739258 .0826416 .08666992 .097961429 .095947269 .11328125 .11735026 .13495381 .1508789 .16297913M.23583985 .43554688C.2117513 .43554688 .19156902 .42599488 .17529297 .40689088 .15901692 .38779704 .1508789 .35850016 .1508789 .31900025 .1508789 .26784263 .16194661 .22818502 .18408203 .20002747 .20100911 .17865499 .22249349 .16796875 .24853516 .16796875 .27327476 .16796875 .29361979 .17719524 .3095703 .1956482 .32552085 .21410115 .3334961 .24307759 .3334961 .2825775 .3334961 .3340505 .32226563 .37435914 .2998047 .40350343 .28320313 .42486573 .2618815 .43554688 .23583985 .43554688M.1459961-.000289917C.13069661-.016860962 .119140628-.032292684 .111328128-.046585084 .103515628-.060887655 .099609378-.0740509 .099609378-.08607483 .099609378-.10166931 .10904948-.11531576 .12792969-.12701416 .16048177-.14715576 .20751953-.15722656 .26904298-.15722656 .32763673-.15722656 .3708496-.14690654 .39868165-.12626648 .42651368-.1056366 .4404297-.083628337 .4404297-.0602417 .4404297-.043345136 .4321289-.03132121 .41552735-.024169922 .39860026-.017018637 .36507163-.012797038 .3149414-.011505127 .24169922-.009552002 .18538411-.0058135988 .1459961-.000289917Z"/>
<path id="font_1_57" d="M.70996096 .6621094V.64404299C.68652346 .6398112 .66878256 .6323293 .6567383 .6215973 .63948568 .6056569 .6241862 .58126327 .61083987 .54841616L.3798828-.0146484379H.3618164L.11376953 .5557251C.10107422 .58500167 .0921224 .6028951 .08691406 .6094055 .07877604 .6194865 .06876627 .6273702 .056884767 .63305667 .045003255 .63875326 .028971354 .64241537 .0087890629 .64404299V.6621094H.27929688V.64404299C.24869792 .6411133 .22884114 .63590499 .21972656 .62841799 .21061199 .62094119 .20605469 .61134847 .20605469 .5996399 .20605469 .583374 .21354167 .5580037 .22851563 .52352908L.39697267 .13563538 .55322268 .51864627C.56852218 .55637618 .5761719 .58256027 .5761719 .5971985 .5761719 .6066386 .57145187 .6156667 .5620117 .62428286 .5525716 .632899 .5366211 .6389974 .51416018 .6425781 .51253256 .6429036 .5097656 .6433919 .5058594 .64404299V.6621094H.70996096Z"/>
<path id="font_1_172" d="M.45751954 .22167969H.20117188L.15625 .1171875C.1451823 .09147135 .13964844 .072265628 .13964844 .059570314 .13964844 .049479169 .14444988 .040608724 .15405274 .032958986 .1636556 .025309245 .18440755 .020345053 .2163086 .018066407V0H.0078125V.018066407C.03548177 .022949219 .053385419 .029291789 .061523439 .037094118 .078125 .052708944 .09651693 .08442179 .11669922 .13223267L.34960938 .6767578H.36669923L.59716799 .12638855C.61572268 .08214823 .63256838 .053441366 .6477051 .040267946 .6628418 .027094523 .68391928 .01969401 .7109375 .018066407V0H.44970704V.018066407C.47607423 .01936849 .49389649 .023763022 .5031738 .03125 .5124512 .03873698 .51708987 .047851564 .51708987 .05859375 .51708987 .072916667 .5105794 .09554037 .4975586 .12646485L.45751954 .22167969M.44384767 .2578125 .33154298 .52500918 .2163086 .2578125H.44384767M.25048829 .89746096H.359375L.4111328 .7285156H.39404298L.25048829 .89746096Z"/>
<path id="font_1_50" d="M.36572267 .6767578C.45166017 .6767578 .52612307 .6441701 .5891113 .57899478 .6520996 .5138194 .68359377 .43247477 .68359377 .33496095 .68359377 .23451741 .65185549 .1511383 .5883789 .08482361 .52490237 .018508912 .44807945-.0146484379 .35791017-.0146484379 .2667643-.0146484379 .19018555 .017695109 .12817383 .0823822 .06616211 .14706929 .03515625 .23077393 .03515625 .3334961 .03515625 .43848673 .07096354 .5241394 .14257813 .5904541 .20475261 .6479899 .27913413 .6767578 .36572267 .6767578M.3564453 .640625C.29720054 .640625 .24967449 .6186879 .21386719 .57481387 .16927083 .5202077 .14697266 .44025169 .14697266 .33494569 .14697266 .2270457 .17008464 .14400737 .2163086 .08583069 .25179038 .04163106 .29866538 .01953125 .3569336 .01953125 .41910807 .01953125 .47045899 .043741865 .5109863 .092163089 .5515137 .14059448 .57177737 .2169749 .57177737 .32130433 .57177737 .43440248 .5494792 .51874288 .5048828 .57432559 .46907554 .6185252 .41959635 .640625 .3564453 .640625Z"/>
<path id="font_1_11" d="M.31054688-.19580078V-.21386719C.26139323-.18912761 .22037761-.16015625 .1875-.12695313 .140625-.0797526 .10449219-.024088541 .07910156 .040039064 .053710939 .104166667 .041015626 .17073567 .041015626 .2397461 .041015626 .34065757 .06591797 .43269859 .115722659 .51586917 .16552735 .59903976 .23046875 .6585286 .31054688 .69433596V.6738281C.2705078 .6516927 .2376302 .62141928 .21191406 .5830078 .18619792 .5445964 .16699219 .495931 .15429688 .43701173 .14160156 .37809245 .1352539 .316569 .1352539 .2524414 .1352539 .18277996 .140625 .11946615 .15136719 .0625 .15983074 .017578125 .17008464-.018473307 .1821289-.045654298 .19417317-.07283529 .21036785-.098958339 .23071289-.12402344 .25105796-.14908855 .27766929-.17301433 .31054688-.19580078Z"/>
<path id="font_1_39" d="M.017089844 0V.018066407H.041992189C.06998698 .018066407 .08984375 .027018229 .1015625 .044921876 .10872396 .055664064 .11230469 .0797526 .11230469 .1171875V.5449219C.11230469 .586263 .1077474 .6121419 .09863281 .6225586 .0859375 .63688156 .06705729 .64404299 .041992189 .64404299H.017089844V.6621094H.2866211C.38557945 .6621094 .4608561 .6508789 .5124512 .62841799 .5640462 .60595706 .6055501 .56852218 .6369629 .5161133 .6683757 .46370445 .68408206 .40315757 .68408206 .33447267 .68408206 .24235027 .6560872 .16536458 .60009768 .103515628 .53727218 .034505208 .441569 0 .31298829 0H.017089844M.20605469 .04736328C.24739583 .03857422 .2820638 .034179689 .3100586 .034179689 .38557945 .034179689 .4482422 .060709638 .49804688 .11376953 .54785159 .16682942 .5727539 .23876953 .5727539 .32958985 .5727539 .4210612 .54785159 .49316407 .49804688 .54589846 .4482422 .5986328 .38427735 .625 .30615235 .625 .27685548 .625 .24348958 .62027999 .20605469 .61083987V.04736328Z"/>
<path id="font_1_28" d="M.052734376-.013671875V.0043945314C.095052089 .0050455729 .13444011 .014892578 .17089844 .033935548 .20735677 .052978517 .2425944 .08626302 .27661134 .13378906 .31062828 .18131511 .3343099 .2335612 .34765626 .29052735 .29654948 .25764976 .25032554 .24121094 .20898438 .24121094 .16243489 .24121094 .122558597 .25919596 .08935547 .29516603 .056152345 .33113609 .03955078 .37890626 .03955078 .43847657 .03955078 .49641929 .056152345 .54801437 .08935547 .5932617 .12939453 .6482747 .18164063 .67578127 .24609375 .67578127 .30045573 .67578127 .34700523 .6533203 .3857422 .60839846 .43326823 .5527344 .45703126 .48404948 .45703126 .40234376 .45703126 .32877604 .43896485 .26017253 .40283204 .1965332 .36669923 .13289388 .31640626 .080078128 .25195313 .038085939 .19954427 .0035807293 .14241536-.013671875 .080566409-.013671875H.052734376M.35546876 .32704164C.36132813 .36923728 .3642578 .40299989 .3642578 .42832948 .3642578 .45981346 .35888673 .4938151 .34814454 .5303345 .33740235 .5668538 .32218424 .5948537 .30249024 .6143341 .28279624 .6338145 .26041667 .6435547 .23535156 .6435547 .2063802 .6435547 .18098958 .63056948 .15917969 .604599 .1373698 .57862856 .12646485 .53999838 .12646485 .4887085 .12646485 .4202067 .14095052 .36664329 .16992188 .3280182 .19108074 .3000946 .21712239 .2861328 .24804688 .2861328 .26302085 .2861328 .28076173 .28970338 .30126954 .29684449 .32177735 .3039856 .33984376 .3140513 .35546876 .32704164Z"/>
<path id="font_1_16" d="M.040527345 .26171876H.29296876V.18798828H.040527345V.26171876Z"/>
<path id="font_1_58" d="M.93603518 .6621094V.64404299C.91878256 .64404299 .90478518 .6409505 .89404299 .6347656 .8833008 .6285909 .8730469 .6170451 .86328127 .6001282 .8567708 .5887451 .8465169 .5615845 .83251956 .51864627L.6479492-.0146484379H.62841799L.47753907 .40838624 .32763673-.0146484379H.3100586L.11328125 .53474429C.09863281 .57572939 .08935547 .5999654 .08544922 .6074524 .078938808 .619812 .07006836 .6289978 .05883789 .63500979 .047607423 .6410319 .032389326 .64404299 .013183594 .64404299V.6621094H.25830079V.64404299H.24658203C.22932942 .64404299 .21614583 .6401367 .20703125 .6323242 .19791667 .6245219 .19335938 .615092 .19335938 .6040344 .19335938 .59265139 .20052083 .5664673 .21484375 .5254822L.34521485 .1541748 .45507813 .4698639 .43554688 .5254822 .41992188 .56988528C.41308595 .5861511 .4054362 .60046389 .39697267 .6128235 .39274089 .6189982 .38753257 .6242015 .38134767 .6284332 .37320964 .6342824 .36507163 .6385091 .3569336 .6411133 .3507487 .6430664 .34098307 .64404299 .32763673 .64404299V.6621094H.5854492V.64404299H.5678711C.5496419 .64404299 .5362956 .6401367 .52783206 .6323242 .51936849 .6245219 .5151367 .61395266 .5151367 .60061648 .5151367 .5840251 .52246096 .55507406 .5371094 .5137634L.6640625 .1541748 .79003909 .51864627C.804362 .5589803 .81152346 .5869548 .81152346 .6025696 .81152346 .6100464 .8091634 .61704 .80444338 .6235504 .7997233 .63006088 .79378256 .63461306 .7866211 .63720706 .7742513 .64176437 .758138 .64404299 .73828127 .64404299V.6621094H.93603518Z"/>
<path id="font_1_12" d="M.022460938 .6738281V.69433596C.0719401 .6699219 .11311849 .6411133 .1459961 .60791018 .19254558 .5603841 .22851563 .5046387 .25390626 .44067384 .27929688 .37670899 .2919922 .3100586 .2919922 .24072266 .2919922 .1398112 .26717124 .047770185 .2175293-.03540039 .16788738-.11857096 .102864589-.17805989 .022460938-.21386719V-.19580078C.0625-.17333985 .095458988-.14298503 .12133789-.10473633 .1472168-.06648763 .16642253-.017822266 .17895508 .041259767 .19148763 .1003418 .1977539 .16194661 .1977539 .22607422 .1977539 .29541017 .19238281 .35872398 .18164063 .41601563 .17350261 .4609375 .16333008 .49690757 .15112305 .5239258 .13891602 .55094406 .12272135 .57698568 .10253906 .6020508 .08235677 .6271159 .055664064 .6510417 .022460938 .6738281Z"/>
<path id="font_1_53" d="M.67578127 0H.49902345L.27490235 .31054688C.25830079 .30989585 .24479167 .3095703 .234375 .3095703 .23014324 .3095703 .22558594 .3096517 .22070313 .30981446 .21582031 .3099772 .21077474 .31022135 .2055664 .31054688V.11752319C.2055664 .07571411 .2101237 .049748739 .21923828 .039627077 .23160808 .025253296 .25016276 .018066407 .27490235 .018066407H.30078126V0H.017089844V.018066407H.041992189C.06998698 .018066407 .09000651 .02718099 .10205078 .045410158 .10888672 .0555013 .11230469 .079427089 .11230469 .1171875V.5449219C.11230469 .58658859 .1077474 .61246749 .09863281 .6225586 .0859375 .63688156 .06705729 .64404299 .041992189 .64404299H.017089844V.6621094H.25830079C.32861329 .6621094 .38045249 .6569977 .41381837 .6467743 .44718424 .6365509 .47550456 .61772158 .4987793 .59028628 .522054 .56286117 .5336914 .53016158 .5336914 .4921875 .5336914 .45161949 .52042648 .4164022 .49389649 .38653565 .46736656 .3566793 .42626954 .33558146 .37060548 .3232422L.5073242 .13269043C.5385742 .08892822 .5654297 .05986023 .5878906 .04548645 .61035159 .031122843 .63964846 .021982829 .67578127 .018066407V0M.2055664 .34033204C.2117513 .34033204 .21712239 .34025065 .22167969 .3400879 .22623699 .33992515 .22998047 .33984376 .23291016 .33984376 .2960612 .33984376 .3436686 .35351563 .37573243 .38085938 .40779624 .40820313 .42382813 .44303385 .42382813 .48535157 .42382813 .5266927 .41088868 .56030276 .38500978 .58618167 .35913087 .61206057 .32486979 .625 .28222657 .625 .26334635 .625 .23779297 .62190756 .2055664 .61572268V.34033204Z"/>
<path id="font_1_20" d="M.1171875 .59716799 .2783203 .67578127H.2944336V.11669922C.2944336 .079589847 .29597984 .056477865 .29907228 .04736328 .3021647 .0382487 .30859376 .03125 .31835938 .026367188 .328125 .021484375 .34798179 .018717448 .3779297 .018066407V0H.12890625V.018066407C.16015625 .018717448 .18033855 .021402995 .18945313 .026123047 .1985677 .0308431 .20491536 .037190755 .2084961 .045166017 .21207683 .053141279 .21386719 .07698568 .21386719 .11669922V.4741211C.21386719 .52229818 .21223958 .55322268 .20898438 .56689456 .20670574 .5773112 .20255535 .58496096 .1965332 .58984377 .19051107 .59472659 .18326824 .59716799 .17480469 .59716799 .16276042 .59716799 .1459961 .5921224 .12451172 .58203127L.1171875 .59716799Z"/>
<path id="font_1_19" d="M.036132814 .32714845C.036132814 .40266929 .047526044 .46769206 .0703125 .5222168 .09309896 .5767415 .1233724 .6173503 .16113281 .64404299 .19042969 .66520187 .22070313 .67578127 .25195313 .67578127 .30273438 .67578127 .34830729 .64990237 .38867188 .59814456 .4391276 .5340169 .46435548 .44710288 .46435548 .33740235 .46435548 .26057945 .45328776 .1953125 .43115235 .14160156 .40901695 .087890628 .38077799 .048909505 .34643556 .024658204 .3120931 .00040690104 .27897135-.01171875 .24707031-.01171875 .18391927-.01171875 .13134766 .025553385 .08935547 .100097659 .0538737 .16292317 .036132814 .23860677 .036132814 .32714845M.13183594 .314682C.13183594 .22346497 .1430664 .14902751 .16552735 .09136963 .18408203 .042826337 .2117513 .018554688 .24853516 .018554688 .26611329 .018554688 .28434245 .026453654 .30322267 .042251588 .32210288 .05804952 .33642579 .08451843 .3461914 .121658328 .36116538 .17769878 .36865235 .2566986 .36865235 .35865785 .36865235 .43423973 .36083985 .49727885 .34521485 .54777529 .3334961 .58524069 .31835938 .61179098 .2998047 .62742617 .28645835 .6381785 .27034507 .6435547 .25146485 .6435547 .22932942 .6435547 .20963542 .63361617 .19238281 .613739 .16894531 .58670046 .1529948 .5441844 .14453125 .4861908 .1360677 .4282074 .13183594 .3710378 .13183594 .314682Z"/>
<path id="font_1_47" d="M.5732422 .18359375 .58935549 .18016052 .53271487 0H.020019532V.018066407H.044921876C.072916667 .018066407 .092936199 .02718099 .10498047 .045410158 .111816409 .055826826 .115234378 .07991537 .115234378 .11767578V.5449219C.115234378 .586263 .110677089 .6121419 .1015625 .6225586 .08886719 .63688156 .06998698 .64404299 .044921876 .64404299H.020019532V.6621094H.31982423V.64404299C.28466798 .64436849 .26000978 .6411082 .24584961 .6342621 .23168946 .62742617 .2220052 .61879476 .21679688 .6083679 .21158855 .5979411 .20898438 .5730184 .20898438 .53359988V.117248538C.20898438 .09020996 .21158855 .071640018 .21679688 .061538698 .22070313 .05470276 .22672527 .0496521 .23486328 .04638672 .2430013 .04313151 .26839195 .041503908 .31103517 .041503908H.359375C.41015626 .041503908 .44580079 .045272829 .4663086 .05281067 .4868164 .06034851 .5055339 .07370504 .52246096 .09288025 .539388 .11205546 .5563151 .14229329 .5732422 .18359375Z"/>
<path id="font_1_22" d="M.05078125 .5366211C.06966146 .58121749 .09350586 .6155599 .12231445 .63964846 .15112305 .663737 .18701172 .67578127 .22998047 .67578127 .28304038 .67578127 .32373048 .6585541 .35205079 .62409976 .37353517 .5984141 .38427735 .5709432 .38427735 .541687 .38427735 .49358116 .3540039 .44384767 .29345704 .39248658 .33414714 .37651573 .36490885 .35370384 .3857422 .3240509 .40657554 .29440818 .4169922 .2595469 .4169922 .21946717 .4169922 .16211446 .39876304 .11242167 .3623047 .070388797 .31477867 .01565043 .24593099-.01171875 .15576172-.01171875 .11116537-.01171875 .08081055-.006184896 .064697269 .0048828127 .048583986 .015950522 .040527345 .027832032 .040527345 .040527345 .040527345 .04996745 .044352216 .05826823 .052001954 .06542969 .05965169 .07259115 .068847659 .076171878 .079589847 .076171878 .08772787 .076171878 .09602865 .07486979 .10449219 .072265628 .11002604 .07063802 .122558597 .064697269 .14208985 .05444336 .1616211 .044189454 .1751302 .038085939 .18261719 .036132814 .19466146 .032552083 .20751953 .030761719 .2211914 .030761719 .25439454 .030761719 .28328453 .043640138 .30786134 .06939697 .33243815 .09515381 .34472657 .12564087 .34472657 .16085816 .34472657 .18661499 .33902995 .21172078 .32763673 .23617554 .3191732 .2544352 .30989585 .2682902 .2998047 .27774049 .28580729 .29079185 .26660157 .3026123 .2421875 .3132019 .21777344 .32380168 .1928711 .32910157 .16748047 .32910157H.15185547V.34375C.17757161 .34700523 .20336914 .35628257 .22924805 .37158204 .25512696 .3868815 .27392579 .40527345 .28564454 .4267578 .29736329 .4482422 .30322267 .47184245 .30322267 .4975586 .30322267 .5310872 .2927246 .5581868 .27172853 .5788574 .25073243 .599528 .22460938 .6098633 .19335938 .6098633 .14290364 .6098633 .100748699 .58284506 .06689453 .5288086L.05078125 .5366211Z"/>
<path id="font_1_21" d="M.4584961 .12792969 .41210938 0H.021484375V.018096924C.13639324 .12308756 .21728516 .20883687 .26416017 .27534486 .31103517 .341863 .33447267 .40267436 .33447267 .45777894 .33447267 .49983216 .3216146 .53438827 .29589845 .56144717 .27018229 .58851626 .23942058 .6020508 .20361328 .6020508 .1710612 .6020508 .1418457 .5924886 .1159668 .57336428 .09008789 .5542399 .07096354 .5262044 .05859375 .4892578H.040527345C.048665365 .5493266 .06958008 .59542849 .103271488 .6275635 .13696289 .6597087 .17903646 .67578127 .22949219 .67578127 .28320313 .67578127 .3280436 .6585286 .36401368 .62402346 .39998374 .58951827 .41796876 .5488281 .41796876 .5019531 .41796876 .46842448 .41015626 .43489585 .39453126 .4013672 .37044273 .3486328 .33138023 .292806 .27734376 .23388672 .19628906 .14534505 .14567058 .09195963 .12548828 .07373047H.29833985C.3334961 .07373047 .3581543 .075042728 .37231446 .07766724 .3864746 .08030192 .3992513 .085642497 .41064454 .093688968 .42203776 .101735439 .43196617 .11314901 .4404297 .12792969H.4584961Z"/>
<path id="font_1_79" d="M.1850586 .69433596V.101501468C.1850586 .073527019 .1870931 .054982503 .19116211 .04586792 .19523113 .036763509 .20149739 .029851279 .20996094 .025131226 .21842449 .020421347 .23421224 .018066407 .25732423 .018066407V0H.038085939V.018066407C.05859375 .018066407 .07259115 .020177206 .080078128 .024398804 .0875651 .028630576 .09342448 .035624189 .09765625 .04537964 .10188802 .055145265 .104003909 .07385254 .104003909 .101501468V.50746157C.104003909 .5578766 .102864589 .588857 .10058594 .60040286 .09830729 .6119588 .09464518 .6198476 .08959961 .6240692 .08455404 .62830099 .078125 .63041689 .0703125 .63041689 .061848958 .63041689 .05110677 .6278127 .038085939 .62260439L.029785157 .6396942 .16308594 .69433596H.1850586Z"/>
<path id="font_1_37" d="M.46191407 .3376007C.5078125 .32784526 .54215499 .3122355 .5649414 .29077149 .5965169 .2608439 .6123047 .22425334 .6123047 .18099976 .6123047 .14815267 .601888 .11668396 .5810547 .08659363 .5602214 .05651347 .5316569 .034561159 .49536134 .020736695 .45906578 .0069122316 .40364585 0 .32910157 0H.016601563V.018066407H.041503908C.06917318 .018066407 .089029949 .026855469 .10107422 .044433595 .108561199 .055826826 .11230469 .080078128 .11230469 .1171875V.5449219C.11230469 .5859375 .10758463 .6118164 .09814453 .6225586 .08544922 .63688156 .06656901 .64404299 .041503908 .64404299H.016601563V.6621094H.30273438C.35611979 .6621094 .39892579 .65819808 .43115235 .65037539 .47998048 .6386464 .5172526 .61787417 .54296877 .5880585 .5686849 .558253 .58154299 .5239665 .58154299 .48519898 .58154299 .45196534 .57145187 .42223106 .55126956 .3959961 .5310872 .36977134 .50130209 .35030619 .46191407 .3376007M.20605469 .3642578C.21809896 .36197917 .23185222 .36027018 .24731446 .35913087 .2627767 .35799156 .27978517 .35742188 .29833985 .35742188 .34586589 .35742188 .3815918 .362559 .40551759 .37283326 .42944337 .3831075 .4477539 .39883933 .46044923 .4200287 .47314454 .44122825 .4794922 .464386 .4794922 .48950196 .4794922 .5283 .46370445 .5613963 .4321289 .5887909 .40055339 .6161855 .3544922 .6298828 .2939453 .6298828 .26139323 .6298828 .23209636 .62613937 .20605469 .61865237V.3642578M.20605469 .04736328C.24381511 .03857422 .28108726 .034179689 .3178711 .034179689 .37679038 .034179689 .42171226 .04744466 .45263673 .07397461 .4835612 .100504558 .49902345 .13330078 .49902345 .17236328 .49902345 .19807942 .49202476 .22281902 .47802735 .24658203 .46402995 .27034507 .4412435 .2890625 .40966798 .30273438 .37809245 .31640626 .33902995 .3232422 .29248048 .3232422 .2722982 .3232422 .25504557 .32291667 .24072266 .32226563 .22639974 .3216146 .21484375 .32047526 .20605469 .31884767V.04736328Z"/>
<path id="font_1_25" d="M.4482422 .67578127V.65771487C.40527345 .6534831 .37019859 .6449382 .34301759 .6320801 .31583659 .619222 .2889811 .5996094 .26245118 .5732422 .23592122 .546875 .21394857 .51749679 .1965332 .48510743 .17911785 .4527181 .16455078 .41422526 .15283203 .3696289 .19970703 .40185548 .2467448 .41796876 .2939453 .41796876 .33919273 .41796876 .37841798 .3997396 .4116211 .36328126 .44482423 .3268229 .46142579 .2799479 .46142579 .22265625 .46142579 .1673177 .44466148 .11686198 .4111328 .07128906 .37076823 .015950522 .3173828-.01171875 .25097657-.01171875 .20572917-.01171875 .1673177 .0032552083 .13574219 .033203126 .07389323 .09147135 .04296875 .16699219 .04296875 .25976563 .04296875 .3190104 .05485026 .37532554 .07861328 .42871095 .102376308 .48209635 .13631185 .52945968 .18041992 .5708008 .224528 .6121419 .2667643 .63997396 .3071289 .6542969 .3474935 .6686198 .38509117 .67578127 .41992188 .67578127H.4482422M.14453125 .33398438C.13867188 .29003907 .13574219 .25455729 .13574219 .22753906 .13574219 .19628906 .14152019 .16235352 .15307617 .12573242 .16463216 .08911133 .18180339 .060058595 .20458985 .03857422 .2211914 .02327474 .2413737 .015625 .26513673 .015625 .29345704 .015625 .31876628 .028971354 .34106446 .055664064 .36336265 .08235677 .37451173 .12044271 .37451173 .16992188 .37451173 .22558594 .363444 .27376304 .3413086 .31445313 .3191732 .35514323 .2877604 .37548829 .24707031 .37548829 .23470052 .37548829 .22143555 .37288413 .20727539 .36767579 .19311524 .36246745 .17220052 .35123698 .14453125 .33398438Z"/>
<path id="font_1_69" d="M.1538086 .3696289C.19710286 .42985026 .24381511 .45996095 .2939453 .45996095 .33984376 .45996095 .3798828 .44036866 .4140625 .40118409 .4482422 .3619995 .46533204 .3084259 .46533204 .24046326 .46533204 .16111756 .43896485 .097218837 .38623048 .04876709 .34098307 .0071411135 .29052735-.013671875 .23486328-.013671875 .20882161-.013671875 .18237305-.008951823 .15551758 .00048828127 .12866211 .009928386 .10123698 .024088541 .07324219 .04296875V.50634768C.07324219 .5571289 .072021488 .5883789 .06958008 .60009768 .06713867 .6118164 .063313808 .6197917 .05810547 .62402346 .052897138 .6282552 .04638672 .6303711 .03857422 .6303711 .029459635 .6303711 .018066407 .6277669 .0043945314 .6225586L-.0024414063 .63964846 .13183594 .69433596H.1538086V.3696289M.1538086 .33851625V.071640018C.17041016 .055414838 .18758138 .04316203 .20532227 .03488159 .22306316 .026601157 .24121094 .022460938 .25976563 .022460938 .28938804 .022460938 .31697593 .038691205 .3425293 .07115173 .36808268 .10362244 .38085938 .15086365 .38085938 .21287537 .38085938 .27001444 .36808268 .31392417 .3425293 .3446045 .31697593 .37528483 .2879232 .390625 .2553711 .390625 .23811849 .390625 .22086589 .38624064 .20361328 .37747193 .19059246 .37098185 .17399089 .3579966 .1538086 .33851625Z"/>
</defs>
<path transform="matrix(1,0,0,-1,199.229,21.101998)" d="M52.70853 15.22931H-52.70853C-54.90947 15.22931-56.69363 13.44514-56.69363 11.2442V-11.2442C-56.69363-13.44514-54.90947-15.22931-52.70853-15.22931H52.70853C54.90947-15.22931 56.69363-13.44514 56.69363-11.2442V11.2442C56.69363 13.44514 54.90947 15.22931 52.70853 15.22931ZM-56.69363-15.22931" fill="#e5e6e5"/>
<path transform="matrix(1,0,0,-1,199.229,21.101998)" stroke-width=".3985" stroke-linecap="butt" stroke-miterlimit="10" stroke-linejoin="miter" fill="none" stroke="#000000" d="M52.70853 15.22931H-52.70853C-54.90947 15.22931-56.69363 13.44514-56.69363 11.2442V-11.2442C-56.69363-13.44514-54.90947-15.22931-52.70853-15.22931H52.70853C54.90947-15.22931 56.69363-13.44514 56.69363-11.2442V11.2442C56.69363 13.44514 54.90947 15.22931 52.70853 15.22931ZM-56.69363-15.22931"/>
<use data-text="M" xlink:href="#font_1_48" transform="matrix(8.9664,0,0,-8.9664,182.916,17.767998)"/>
<use data-text="&#x00e1;" xlink:href="#font_1_105" transform="matrix(8.9664,0,0,-8.9664,190.88713,17.767998)"/>
<use data-text="y" xlink:href="#font_1_92" transform="matrix(8.9664,0,0,-8.9664,194.86821,17.767998)"/>
<use data-text="t" xlink:href="#font_1_87" transform="matrix(8.9664,0,0,-8.9664,201.58405,17.767998)"/>
<use data-text="&#x00ed;" xlink:href="#font_1_116" transform="matrix(8.9664,0,0,-8.9664,204.0767,17.767998)"/>
<use data-text="n" xlink:href="#font_1_81" transform="matrix(8.9664,0,0,-8.9664,206.56937,17.767998)"/>
<use data-text="h" xlink:href="#font_1_75" transform="matrix(8.9664,0,0,-8.9664,211.05257,17.767998)"/>
<use data-text="P" xlink:href="#font_1_51" transform="matrix(8.9664,0,0,-8.9664,169.219,28.726998)"/>
<use data-text="y" xlink:href="#font_1_92" transform="matrix(8.9664,0,0,-8.9664,174.20432,28.726998)"/>
<use data-text="t" xlink:href="#font_1_87" transform="matrix(8.9664,0,0,-8.9664,178.68752,28.726998)"/>
<use data-text="h" xlink:href="#font_1_75" transform="matrix(8.9664,0,0,-8.9664,181.18018,28.726998)"/>
<use data-text="o" xlink:href="#font_1_82" transform="matrix(8.9664,0,0,-8.9664,185.66338,28.726998)"/>
<use data-text="n" xlink:href="#font_1_81" transform="matrix(8.9664,0,0,-8.9664,190.14658,28.726998)"/>
<use data-text="S" xlink:href="#font_1_54" transform="matrix(8.9664,0,0,-8.9664,196.86241,28.726998)"/>
<use data-text="o" xlink:href="#font_1_82" transform="matrix(8.9664,0,0,-8.9664,201.84774,28.726998)"/>
<use data-text="f" xlink:href="#font_1_73" transform="matrix(8.9664,0,0,-8.9664,206.33094,28.726998)"/>
<use data-text="t" xlink:href="#font_1_87" transform="matrix(8.9664,0,0,-8.9664,209.31674,28.726998)"/>
<use data-text="w" xlink:href="#font_1_90" transform="matrix(8.9664,0,0,-8.9664,211.8094,28.726998)"/>
<use data-text="a" xlink:href="#font_1_68" transform="matrix(8.9664,0,0,-8.9664,218.28314,28.726998)"/>
<use data-text="r" xlink:href="#font_1_85" transform="matrix(8.9664,0,0,-8.9664,222.26422,28.726998)"/>
<use data-text="e" xlink:href="#font_1_72" transform="matrix(8.9664,0,0,-8.9664,225.25003,28.726998)"/>
<path transform="matrix(1,0,0,-1,199.229,21.101998)" d="M52.70853-58.14803H-52.70853C-54.90947-58.14803-56.69363-59.93219-56.69363-62.13313V-82.50972C-56.69363-84.71066-54.90947-86.49483-52.70853-86.49483H52.70853C54.90947-86.49483 56.69363-84.71066 56.69363-82.50972V-62.13313C56.69363-59.93219 54.90947-58.14803 52.70853-58.14803ZM-56.69363-86.49483" fill="#d9d9ff"/>
<path transform="matrix(1,0,0,-1,199.229,21.101998)" stroke-width=".3985" stroke-linecap="butt" stroke-miterlimit="10" stroke-linejoin="miter" fill="none" stroke="#000000" d="M52.70853-58.14803H-52.70853C-54.90947-58.14803-56.69363-59.93219-56.69363-62.13313V-82.50972C-56.69363-84.71066-54.90947-86.49483-52.70853-86.49483H52.70853C54.90947-86.49483 56.69363-84.71066 56.69363-82.50972V-62.13313C56.69363-59.93219 54.90947-58.14803 52.70853-58.14803ZM-56.69363-86.49483"/>
<use data-text="A" xlink:href="#font_1_36" transform="matrix(8.9664,0,0,-8.9664,175.445,96.465999)"/>
<use data-text="r" xlink:href="#font_1_85" transform="matrix(8.9664,0,0,-8.9664,181.91875,96.465999)"/>
<use data-text="d" xlink:href="#font_1_71" transform="matrix(8.9664,0,0,-8.9664,184.90456,96.465999)"/>
<use data-text="u" xlink:href="#font_1_88" transform="matrix(8.9664,0,0,-8.9664,189.38776,96.465999)"/>
<use data-text="i" xlink:href="#font_1_76" transform="matrix(8.9664,0,0,-8.9664,193.87096,96.465999)"/>
<use data-text="n" xlink:href="#font_1_81" transform="matrix(8.9664,0,0,-8.9664,196.36362,96.465999)"/>
<use data-text="o" xlink:href="#font_1_82" transform="matrix(8.9664,0,0,-8.9664,200.84682,96.465999)"/>
<use data-text="U" xlink:href="#font_1_56" transform="matrix(8.9664,0,0,-8.9664,207.56266,96.465999)"/>
<use data-text="n" xlink:href="#font_1_81" transform="matrix(8.9664,0,0,-8.9664,214.03639,96.465999)"/>
<use data-text="o" xlink:href="#font_1_82" transform="matrix(8.9664,0,0,-8.9664,218.51959,96.465999)"/>
<path transform="matrix(1,0,0,-1,199.229,21.101998)" d="M-89.42404-143.58696H-155.05011C-157.25106-143.58696-159.03522-145.37113-159.03522-147.57207V-171.80738C-159.03522-174.00832-157.25106-175.79248-155.05011-175.79248H-89.42404C-87.22311-175.79248-85.43893-174.00832-85.43893-171.80738V-147.57207C-85.43893-145.37113-87.22311-143.58696-89.42404-143.58696ZM-159.03522-175.79248" fill="#d9ffd9"/>
<path transform="matrix(1,0,0,-1,199.229,21.101998)" stroke-width=".3985" stroke-linecap="butt" stroke-miterlimit="10" stroke-linejoin="miter" fill="none" stroke="#000000" d="M-89.42404-143.58696H-155.05011C-157.25106-143.58696-159.03522-145.37113-159.03522-147.57207V-171.80738C-159.03522-174.00832-157.25106-175.79248-155.05011-175.79248H-89.42404C-87.22311-175.79248-85.43893-174.00832-85.43893-171.80738V-147.57207C-85.43893-145.37113-87.22311-143.58696-89.42404-143.58696ZM-159.03522-175.79248"/>
<use data-text="S" xlink:href="#font_1_54" transform="matrix(8.9664,0,0,-8.9664,45.863008,178.349)"/>
<use data-text="e" xlink:href="#font_1_72" transform="matrix(8.9664,0,0,-8.9664,50.84832,178.349)"/>
<use data-text="r" xlink:href="#font_1_85" transform="matrix(8.9664,0,0,-8.9664,54.8294,178.349)"/>
<use data-text="v" xlink:href="#font_1_89" transform="matrix(8.9664,0,0,-8.9664,57.81521,178.349)"/>
<use data-text="o" xlink:href="#font_1_82" transform="matrix(8.9664,0,0,-8.9664,62.29841,178.349)"/>
<use data-text="c" xlink:href="#font_1_70" transform="matrix(8.9664,0,0,-8.9664,69.014247,178.349)"/>
<use data-text="&#x1ed5;" xlink:href="#font_1_1241" transform="matrix(8.9664,0,0,-8.9664,72.99532,178.349)"/>
<use data-text="n" xlink:href="#font_1_81" transform="matrix(8.9664,0,0,-8.9664,77.47852,178.349)"/>
<use data-text="g" xlink:href="#font_1_74" transform="matrix(8.9664,0,0,-8.9664,81.96172,178.349)"/>
<use data-text="V" xlink:href="#font_1_57" transform="matrix(8.9664,0,0,-8.9664,88.68653,178.349)"/>
<use data-text="&#x00c0;" xlink:href="#font_1_172" transform="matrix(8.9664,0,0,-8.9664,95.16027,178.349)"/>
<use data-text="O" xlink:href="#font_1_50" transform="matrix(8.9664,0,0,-8.9664,101.63401,178.349)"/>
<use data-text="(" xlink:href="#font_1_11" transform="matrix(8.9664,0,0,-8.9664,54.08001,189.30799)"/>
<use data-text="D" xlink:href="#font_1_39" transform="matrix(8.9664,0,0,-8.9664,57.06582,189.30799)"/>
<use data-text="9" xlink:href="#font_1_28" transform="matrix(8.9664,0,0,-8.9664,63.53956,189.30799)"/>
<use data-text="-" xlink:href="#font_1_16" transform="matrix(8.9664,0,0,-8.9664,70.264369,189.30799)"/>
<use data-text="P" xlink:href="#font_1_51" transform="matrix(8.9664,0,0,-8.9664,75.49178,189.30799)"/>
<use data-text="W" xlink:href="#font_1_58" transform="matrix(8.9664,0,0,-8.9664,80.477108,189.30799)"/>
<use data-text="M" xlink:href="#font_1_48" transform="matrix(8.9664,0,0,-8.9664,88.94138,189.30799)"/>
<use data-text=")" xlink:href="#font_1_12" transform="matrix(8.9664,0,0,-8.9664,96.91251,189.30799)"/>
<path transform="matrix(1,0,0,-1,199.229,21.101998)" d="M152.32086-143.58696H89.42404C87.22311-143.58696 85.43893-145.37113 85.43893-147.57207V-171.80738C85.43893-174.00832 87.22311-175.79248 89.42404-175.79248H152.32086C154.5218-175.79248 156.30597-174.00832 156.30597-171.80738V-147.57207C156.30597-145.37113 154.5218-143.58696 152.32086-143.58696ZM85.43893-175.79248" fill="#d9ffd9"/>
<path transform="matrix(1,0,0,-1,199.229,21.101998)" stroke-width=".3985" stroke-linecap="butt" stroke-miterlimit="10" stroke-linejoin="miter" fill="none" stroke="#000000" d="M152.32086-143.58696H89.42404C87.22311-143.58696 85.43893-145.37113 85.43893-147.57207V-171.80738C85.43893-174.00832 87.22311-175.79248 89.42404-175.79248H152.32086C154.5218-175.79248 156.30597-174.00832 156.30597-171.80738V-147.57207C156.30597-145.37113 154.5218-143.58696 152.32086-143.58696ZM85.43893-175.79248"/>
<use data-text="S" xlink:href="#font_1_54" transform="matrix(8.9664,0,0,-8.9664,292.458,178.349)"/>
<use data-text="e" xlink:href="#font_1_72" transform="matrix(8.9664,0,0,-8.9664,297.4433,178.349)"/>
<use data-text="r" xlink:href="#font_1_85" transform="matrix(8.9664,0,0,-8.9664,301.42439,178.349)"/>
<use data-text="v" xlink:href="#font_1_89" transform="matrix(8.9664,0,0,-8.9664,304.41023,178.349)"/>
<use data-text="o" xlink:href="#font_1_82" transform="matrix(8.9664,0,0,-8.9664,308.8934,178.349)"/>
<use data-text="c" xlink:href="#font_1_70" transform="matrix(8.9664,0,0,-8.9664,315.60926,178.349)"/>
<use data-text="&#x1ed5;" xlink:href="#font_1_1241" transform="matrix(8.9664,0,0,-8.9664,319.59034,178.349)"/>
<use data-text="n" xlink:href="#font_1_81" transform="matrix(8.9664,0,0,-8.9664,324.07353,178.349)"/>
<use data-text="g" xlink:href="#font_1_74" transform="matrix(8.9664,0,0,-8.9664,328.5567,178.349)"/>
<use data-text="R" xlink:href="#font_1_53" transform="matrix(8.9664,0,0,-8.9664,335.28153,178.349)"/>
<use data-text="A" xlink:href="#font_1_36" transform="matrix(8.9664,0,0,-8.9664,341.26213,178.349)"/>
<use data-text="(" xlink:href="#font_1_11" transform="matrix(8.9664,0,0,-8.9664,294.949,189.30799)"/>
<use data-text="D" xlink:href="#font_1_39" transform="matrix(8.9664,0,0,-8.9664,297.9348,189.30799)"/>
<use data-text="1" xlink:href="#font_1_20" transform="matrix(8.9664,0,0,-8.9664,304.40858,189.30799)"/>
<use data-text="0" xlink:href="#font_1_19" transform="matrix(8.9664,0,0,-8.9664,308.89176,189.30799)"/>
<use data-text="-" xlink:href="#font_1_16" transform="matrix(8.9664,0,0,-8.9664,315.6076,189.30799)"/>
<use data-text="P" xlink:href="#font_1_51" transform="matrix(8.9664,0,0,-8.9664,320.83503,189.30799)"/>
<use data-text="W" xlink:href="#font_1_58" transform="matrix(8.9664,0,0,-8.9664,325.8203,189.30799)"/>
<use data-text="M" xlink:href="#font_1_48" transform="matrix(8.9664,0,0,-8.9664,334.2846,189.30799)"/>
<use data-text=")" xlink:href="#font_1_12" transform="matrix(8.9664,0,0,-8.9664,342.25575,189.30799)"/>
<path transform="matrix(1,0,0,-1,199.229,21.101998)" d="M-117.77087-56.20992H-189.37752C-191.57846-56.20992-193.36263-57.99408-193.36263-60.19502V-84.44783C-193.36263-86.64877-191.57846-88.43294-189.37752-88.43294H-117.77087C-115.56993-88.43294-113.78577-86.64877-113.78577-84.44783V-60.19502C-113.78577-57.99408-115.56993-56.20992-117.77087-56.20992ZM-193.36263-88.43294" fill="#fffcdf"/>
<path transform="matrix(1,0,0,-1,199.229,21.101998)" stroke-width=".3985" stroke-linecap="butt" stroke-miterlimit="10" stroke-linejoin="miter" fill="none" stroke="#000000" d="M-117.77087-56.20992H-189.37752C-191.57846-56.20992-193.36263-57.99408-193.36263-60.19502V-84.44783C-193.36263-86.64877-191.57846-88.43294-189.37752-88.43294H-117.77087C-115.56993-88.43294-113.78577-86.64877-113.78577-84.44783V-60.19502C-113.78577-57.99408-115.56993-56.20992-117.77087-56.20992ZM-193.36263-88.43294"/>
<use data-text="L" xlink:href="#font_1_47" transform="matrix(8.9664,0,0,-8.9664,11.536011,90.971)"/>
<use data-text="M" xlink:href="#font_1_48" transform="matrix(8.9664,0,0,-8.9664,17.014489,90.971)"/>
<use data-text="3" xlink:href="#font_1_22" transform="matrix(8.9664,0,0,-8.9664,24.985619,90.971)"/>
<use data-text="9" xlink:href="#font_1_28" transform="matrix(8.9664,0,0,-8.9664,29.468819,90.971)"/>
<use data-text="3" xlink:href="#font_1_22" transform="matrix(8.9664,0,0,-8.9664,33.95202,90.971)"/>
<use data-text="c" xlink:href="#font_1_70" transform="matrix(8.9664,0,0,-8.9664,40.667856,90.971)"/>
<use data-text="&#x1ed5;" xlink:href="#font_1_1241" transform="matrix(8.9664,0,0,-8.9664,44.648935,90.971)"/>
<use data-text="n" xlink:href="#font_1_81" transform="matrix(8.9664,0,0,-8.9664,49.132135,90.971)"/>
<use data-text="g" xlink:href="#font_1_74" transform="matrix(8.9664,0,0,-8.9664,53.615335,90.971)"/>
<use data-text="V" xlink:href="#font_1_57" transform="matrix(8.9664,0,0,-8.9664,60.34014,90.971)"/>
<use data-text="&#x00c0;" xlink:href="#font_1_172" transform="matrix(8.9664,0,0,-8.9664,66.81388,90.971)"/>
<use data-text="O" xlink:href="#font_1_50" transform="matrix(8.9664,0,0,-8.9664,73.28762,90.971)"/>
<use data-text="(" xlink:href="#font_1_11" transform="matrix(8.9664,0,0,-8.9664,21.003014,101.93)"/>
<use data-text="D" xlink:href="#font_1_39" transform="matrix(8.9664,0,0,-8.9664,23.988823,101.93)"/>
<use data-text="2" xlink:href="#font_1_21" transform="matrix(8.9664,0,0,-8.9664,30.462563,101.93)"/>
<use data-text="-" xlink:href="#font_1_16" transform="matrix(8.9664,0,0,-8.9664,37.18737,101.93)"/>
<use data-text="D" xlink:href="#font_1_39" transform="matrix(8.9664,0,0,-8.9664,42.414789,101.93)"/>
<use data-text="i" xlink:href="#font_1_76" transform="matrix(8.9664,0,0,-8.9664,48.888528,101.93)"/>
<use data-text="g" xlink:href="#font_1_74" transform="matrix(8.9664,0,0,-8.9664,51.381189,101.93)"/>
<use data-text="i" xlink:href="#font_1_76" transform="matrix(8.9664,0,0,-8.9664,55.864389,101.93)"/>
<use data-text="t" xlink:href="#font_1_87" transform="matrix(8.9664,0,0,-8.9664,58.357049,101.93)"/>
<use data-text="a" xlink:href="#font_1_68" transform="matrix(8.9664,0,0,-8.9664,60.84971,101.93)"/>
<use data-text="l" xlink:href="#font_1_79" transform="matrix(8.9664,0,0,-8.9664,64.83079,101.93)"/>
<use data-text=")" xlink:href="#font_1_12" transform="matrix(8.9664,0,0,-8.9664,67.32345,101.93)"/>
<path transform="matrix(1,0,0,-1,199.229,21.101998)" d="M182.40747-56.20992H117.77087C115.56993-56.20992 113.78577-57.99408 113.78577-60.19502V-84.44783C113.78577-86.64877 115.56993-88.43294 117.77087-88.43294H182.40747C184.60842-88.43294 186.39258-86.64877 186.39258-84.44783V-60.19502C186.39258-57.99408 184.60842-56.20992 182.40747-56.20992ZM113.78577-88.43294" fill="#fffcdf"/>
<path transform="matrix(1,0,0,-1,199.229,21.101998)" stroke-width=".3985" stroke-linecap="butt" stroke-miterlimit="10" stroke-linejoin="miter" fill="none" stroke="#000000" d="M182.40747-56.20992H117.77087C115.56993-56.20992 113.78577-57.99408 113.78577-60.19502V-84.44783C113.78577-86.64877 115.56993-88.43294 117.77087-88.43294H182.40747C184.60842-88.43294 186.39258-86.64877 186.39258-84.44783V-60.19502C186.39258-57.99408 184.60842-56.20992 182.40747-56.20992ZM113.78577-88.43294"/>
<use data-text="L" xlink:href="#font_1_47" transform="matrix(8.9664,0,0,-8.9664,318.68403,90.971)"/>
<use data-text="M" xlink:href="#font_1_48" transform="matrix(8.9664,0,0,-8.9664,324.16249,90.971)"/>
<use data-text="3" xlink:href="#font_1_22" transform="matrix(8.9664,0,0,-8.9664,332.1336,90.971)"/>
<use data-text="9" xlink:href="#font_1_28" transform="matrix(8.9664,0,0,-8.9664,336.61683,90.971)"/>
<use data-text="3" xlink:href="#font_1_22" transform="matrix(8.9664,0,0,-8.9664,341.10005,90.971)"/>
<use data-text="c" xlink:href="#font_1_70" transform="matrix(8.9664,0,0,-8.9664,347.81587,90.971)"/>
<use data-text="&#x1ed5;" xlink:href="#font_1_1241" transform="matrix(8.9664,0,0,-8.9664,351.79695,90.971)"/>
<use data-text="n" xlink:href="#font_1_81" transform="matrix(8.9664,0,0,-8.9664,356.28016,90.971)"/>
<use data-text="g" xlink:href="#font_1_74" transform="matrix(8.9664,0,0,-8.9664,360.76335,90.971)"/>
<use data-text="R" xlink:href="#font_1_53" transform="matrix(8.9664,0,0,-8.9664,367.48817,90.971)"/>
<use data-text="A" xlink:href="#font_1_36" transform="matrix(8.9664,0,0,-8.9664,373.46876,90.971)"/>
<use data-text="(" xlink:href="#font_1_11" transform="matrix(8.9664,0,0,-8.9664,324.66603,101.93)"/>
<use data-text="D" xlink:href="#font_1_39" transform="matrix(8.9664,0,0,-8.9664,327.65184,101.93)"/>
<use data-text="3" xlink:href="#font_1_22" transform="matrix(8.9664,0,0,-8.9664,334.12556,101.93)"/>
<use data-text="-" xlink:href="#font_1_16" transform="matrix(8.9664,0,0,-8.9664,340.85038,101.93)"/>
<use data-text="D" xlink:href="#font_1_39" transform="matrix(8.9664,0,0,-8.9664,346.0778,101.93)"/>
<use data-text="i" xlink:href="#font_1_76" transform="matrix(8.9664,0,0,-8.9664,352.5515,101.93)"/>
<use data-text="g" xlink:href="#font_1_74" transform="matrix(8.9664,0,0,-8.9664,355.0442,101.93)"/>
<use data-text="i" xlink:href="#font_1_76" transform="matrix(8.9664,0,0,-8.9664,359.5274,101.93)"/>
<use data-text="t" xlink:href="#font_1_87" transform="matrix(8.9664,0,0,-8.9664,362.02006,101.93)"/>
<use data-text="a" xlink:href="#font_1_68" transform="matrix(8.9664,0,0,-8.9664,364.5127,101.93)"/>
<use data-text="l" xlink:href="#font_1_79" transform="matrix(8.9664,0,0,-8.9664,368.49378,101.93)"/>
<use data-text=")" xlink:href="#font_1_12" transform="matrix(8.9664,0,0,-8.9664,370.98646,101.93)"/>
<path transform="matrix(1,0,0,-1,199.229,21.101998)" stroke-width=".79701" stroke-linecap="butt" stroke-miterlimit="10" stroke-linejoin="miter" fill="none" stroke="#000000" d="M0-19.53891V-53.83842"/>
<path transform="matrix(0,-1,-1,-0,199.229,43.10598)" d="M5.44046 0 1.28699 1.5706 2.66432 0 1.28699-1.5706Z"/>
<path transform="matrix(0,-1,-1,-0,199.229,43.10598)" stroke-width=".79701" stroke-linecap="butt" stroke-miterlimit="10" stroke-linejoin="miter" fill="none" stroke="#000000" d="M5.44046 0 1.28699 1.5706 2.66432 0 1.28699-1.5706Z"/>
<path transform="matrix(0,1,1,0,199.229,72.47534)" d="M5.44046 0 1.28699 1.5706 2.66432 0 1.28699-1.5706Z"/>
<path transform="matrix(0,1,1,0,199.229,72.47534)" stroke-width=".79701" stroke-linecap="butt" stroke-miterlimit="10" stroke-linejoin="miter" fill="none" stroke="#000000" d="M5.44046 0 1.28699 1.5706 2.66432 0 1.28699-1.5706Z"/>
<use data-text="U" xlink:href="#font_1_56" transform="matrix(6.9738,0,0,-6.9738,208.12902,56.178995)"/>
<use data-text="S" xlink:href="#font_1_54" transform="matrix(6.9738,0,0,-6.9738,213.1641,56.178995)"/>
<use data-text="B" xlink:href="#font_1_37" transform="matrix(6.9738,0,0,-6.9738,217.04152,56.178995)"/>
<use data-text="S" xlink:href="#font_1_54" transform="matrix(6.9738,0,0,-6.9738,224.01532,56.178995)"/>
<use data-text="e" xlink:href="#font_1_72" transform="matrix(6.9738,0,0,-6.9738,227.89275,56.178995)"/>
<use data-text="r" xlink:href="#font_1_85" transform="matrix(6.9738,0,0,-6.9738,230.98912,56.178995)"/>
<use data-text="i" xlink:href="#font_1_76" transform="matrix(6.9738,0,0,-6.9738,233.3114,56.178995)"/>
<use data-text="a" xlink:href="#font_1_68" transform="matrix(6.9738,0,0,-6.9738,235.25012,56.178995)"/>
<use data-text="l" xlink:href="#font_1_79" transform="matrix(6.9738,0,0,-6.9738,238.3465,56.178995)"/>
<use data-text="9" xlink:href="#font_1_28" transform="matrix(6.9738,0,0,-6.9738,209.29302,64.148998)"/>
<use data-text="6" xlink:href="#font_1_25" transform="matrix(6.9738,0,0,-6.9738,212.7799,64.148998)"/>
<use data-text="0" xlink:href="#font_1_19" transform="matrix(6.9738,0,0,-6.9738,216.2668,64.148998)"/>
<use data-text="0" xlink:href="#font_1_19" transform="matrix(6.9738,0,0,-6.9738,219.7537,64.148998)"/>
<use data-text="b" xlink:href="#font_1_69" transform="matrix(6.9738,0,0,-6.9738,225.56287,64.148998)"/>
<use data-text="a" xlink:href="#font_1_68" transform="matrix(6.9738,0,0,-6.9738,229.04976,64.148998)"/>
<use data-text="u" xlink:href="#font_1_88" transform="matrix(6.9738,0,0,-6.9738,232.14614,64.148998)"/>
<use data-text="d" xlink:href="#font_1_71" transform="matrix(6.9738,0,0,-6.9738,235.63303,64.148998)"/>
<path transform="matrix(1,0,0,-1,199.229,21.101998)" stroke-width=".79701" stroke-linecap="butt" stroke-miterlimit="10" stroke-linejoin="miter" fill="none" stroke="#000000" d="M-20.0942-86.69408-96.09457-140.99825"/>
<path transform="matrix(-.8136,.58133,.58133,.8136,105.140018,160.6672)" d="M5.44046 0 1.28699 1.5706 2.66432 0 1.28699-1.5706Z"/>
<path transform="matrix(-.8136,.58133,.58133,.8136,105.140018,160.6672)" stroke-width=".79701" stroke-linecap="butt" stroke-miterlimit="10" stroke-linejoin="miter" fill="none" stroke="#000000" d="M5.44046 0 1.28699 1.5706 2.66432 0 1.28699-1.5706Z"/>
<use data-text="P" xlink:href="#font_1_51" transform="matrix(6.9738,0,0,-6.9738,119.082,138.39899)"/>
<use data-text="W" xlink:href="#font_1_58" transform="matrix(6.9738,0,0,-6.9738,122.959438,138.39899)"/>
<use data-text="M" xlink:href="#font_1_48" transform="matrix(6.9738,0,0,-6.9738,129.5427,138.39899)"/>
<path transform="matrix(1,0,0,-1,199.229,21.101998)" stroke-width=".79701" stroke-linecap="butt" stroke-miterlimit="10" stroke-linejoin="miter" fill="none" stroke="#000000" d="M19.86984-86.69408 94.9971-140.98044"/>
<path transform="matrix(.81052,.58566,.58566,-.81052,292.2281,160.63874)" d="M5.44046 0 1.28699 1.5706 2.66432 0 1.28699-1.5706Z"/>
<path transform="matrix(.81052,.58566,.58566,-.81052,292.2281,160.63874)" stroke-width=".79701" stroke-linecap="butt" stroke-miterlimit="10" stroke-linejoin="miter" fill="none" stroke="#000000" d="M5.44046 0 1.28699 1.5706 2.66432 0 1.28699-1.5706Z"/>
<use data-text="P" xlink:href="#font_1_51" transform="matrix(6.9738,0,0,-6.9738,262.047,138.39899)"/>
<use data-text="W" xlink:href="#font_1_58" transform="matrix(6.9738,0,0,-6.9738,265.92445,138.39899)"/>
<use data-text="M" xlink:href="#font_1_48" transform="matrix(6.9738,0,0,-6.9738,272.5077,138.39899)"/>
<path transform="matrix(1,0,0,-1,199.229,21.101998)" stroke-width=".79701" stroke-linecap="butt" stroke-miterlimit="10" stroke-linejoin="miter" fill="none" stroke="#000000" d="M-113.58652-72.32143H-61.00323"/>
<path transform="matrix(1,0,0,-1,135.76071,93.42342)" d="M5.44046 0 1.28699 1.5706 2.66432 0 1.28699-1.5706Z"/>
<path transform="matrix(1,0,0,-1,135.76071,93.42342)" stroke-width=".79701" stroke-linecap="butt" stroke-miterlimit="10" stroke-linejoin="miter" fill="none" stroke="#000000" d="M5.44046 0 1.28699 1.5706 2.66432 0 1.28699-1.5706Z"/>
<use data-text="D" xlink:href="#font_1_39" transform="matrix(6.9738,0,0,-6.9738,108.953,89.59901)"/>
<use data-text="O" xlink:href="#font_1_50" transform="matrix(6.9738,0,0,-6.9738,113.98809,89.59901)"/>
<path transform="matrix(1,0,0,-1,199.229,21.101998)" stroke-width=".79701" stroke-linecap="butt" stroke-miterlimit="10" stroke-linejoin="miter" fill="none" stroke="#000000" d="M113.58652-72.32143H61.00323"/>
<path transform="matrix(-1,-0,0,1,262.6973,93.42342)" d="M5.44046 0 1.28699 1.5706 2.66432 0 1.28699-1.5706Z"/>
<path transform="matrix(-1,-0,0,1,262.6973,93.42342)" stroke-width=".79701" stroke-linecap="butt" stroke-miterlimit="10" stroke-linejoin="miter" fill="none" stroke="#000000" d="M5.44046 0 1.28699 1.5706 2.66432 0 1.28699-1.5706Z"/>
<use data-text="D" xlink:href="#font_1_39" transform="matrix(6.9738,0,0,-6.9738,279.432,89.59901)"/>
<use data-text="O" xlink:href="#font_1_50" transform="matrix(6.9738,0,0,-6.9738,284.4671,89.59901)"/>
</svg>
