<svg xmlns="http://www.w3.org/2000/svg" xmlns:xlink="http://www.w3.org/1999/xlink" xmlns:inkscape="http://www.inkscape.org/namespaces/inkscape" version="1.1" width="311.75" height="112.91" viewBox="0 0 311.75 112.91">
<defs>
<path id="font_1_70" d="M.40625 .11805725 .42138673 .10635376C.39990235 .06585693 .37312828 .03572591 .34106446 .015960694 .30900065-.0037943524 .27490235-.013671875 .23876953-.013671875 .17789714-.013671875 .12923177 .0092976889 .09277344 .055236818 .056315107 .10118612 .038085939 .15641785 .038085939 .220932 .038085939 .2831777 .0546875 .33792115 .087890628 .38516236 .12792969 .44218955 .18310547 .47070313 .25341798 .47070313 .3006185 .47070313 .33813478 .458786 .3659668 .43495179 .39379884 .41112773 .40771485 .38452659 .40771485 .35514833 .40771485 .33654277 .4020996 .3216909 .39086915 .31059266 .37963868 .29949443 .36490885 .2939453 .3466797 .2939453 .32747398 .2939453 .31160484 .30031333 .29907228 .31304933 .2865397 .3257955 .2788086 .34850059 .2758789 .38116456 .27392579 .40174357 .26920573 .41611735 .26171876 .4242859 .25423179 .43244425 .2454427 .43652345 .23535156 .43652345 .21972656 .43652345 .2063802 .42822267 .1953125 .4116211 .17838542 .386556 .16992188 .34814454 .16992188 .29638673 .16992188 .25341798 .17675781 .21232097 .19042969 .1730957 .20410156 .13387044 .22281902 .104654949 .24658203 .08544922 .2644857 .07145182 .28564454 .064453128 .3100586 .064453128 .32600913 .064453128 .34114585 .06818644 .35546876 .075653079 .36979167 .08312988 .38671876 .09726461 .40625 .11805725Z"/>
<path id="font_1_68" d="M.28564454 .06738281C.22998047 .017903647 .18001302-.0068359377 .13574219-.0068359377 .10970052-.0068359377 .08805338 .0017344157 .07080078 .018875123 .053548177 .036026 .044921876 .057500204 .044921876 .08329773 .044921876 .11825053 .059895833 .14968872 .08984375 .1776123 .119791667 .20553589 .1850586 .24268596 .28564454 .2890625V.33496095C.28564454 .36946617 .2837728 .39119468 .2800293 .40014649 .2762858 .4090983 .26920573 .4169108 .25878907 .42358399 .24837239 .43025718 .23665364 .43359376 .22363281 .43359376 .20247396 .43359376 .1850586 .4288737 .17138672 .4194336 .16292317 .41357423 .1586914 .40673829 .1586914 .39892579 .1586914 .39208985 .1632487 .3836263 .17236328 .37353517 .18473308 .35953776 .19091797 .34602867 .19091797 .3330078 .19091797 .31705729 .18497722 .3034668 .1730957 .29223634 .16121419 .28100587 .14567058 .27539063 .12646485 .27539063 .10595703 .27539063 .088785808 .28157554 .07495117 .2939453 .061116537 .3063151 .05419922 .32080079 .05419922 .33740235 .05419922 .36083985 .06347656 .3832194 .08203125 .40454103 .10058594 .42586265 .12646485 .44222007 .15966797 .45361329 .1928711 .4650065 .2273763 .47070313 .2631836 .47070313 .30647788 .47070313 .34073893 .46148173 .3659668 .44303895 .39119468 .42460633 .4075521 .4046224 .41503907 .38308717 .41959635 .36938478 .421875 .3379008 .421875 .28863526V.11097717C.421875 .09009298 .4226888 .07695516 .4243164 .07156372 .425944 .06618246 .4283854 .06218465 .43164063 .059570314 .43489585 .056966146 .4386393 .055664064 .4428711 .055664064 .45133464 .055664064 .45996095 .0616862 .46875 .07373047L.48339845 .06201172C.4671224 .037923177 .4502767 .020426432 .43286134 .009521484 .41544596-.0013834635 .39567057-.0068359377 .37353517-.0068359377 .3474935-.0068359377 .32714845-.00069173178 .3125 .01159668 .29785157 .023885092 .28889976 .04248047 .28564454 .06738281M.28564454 .103515628V.2562561C.24625652 .23303223 .21695964 .20817058 .1977539 .18167115 .1850586 .16401164 .17871094 .14618428 .17871094 .12818909 .17871094 .11314392 .18408203 .0998942 .19482422 .08843994 .20296224 .07961019 .21435547 .07519531 .2290039 .07519531 .24527996 .07519531 .26416017 .084635417 .28564454 .103515628Z"/>
<path id="font_1_76" d="M.14355469 .6767578C.16471355 .6767578 .18261719 .6693268 .19726563 .6544647 .21191406 .63961288 .21923828 .6217346 .21923828 .6008301 .21923828 .57992556 .21183269 .5621236 .19702149 .5474243 .18221028 .53273519 .16438802 .5253906 .14355469 .5253906 .12272135 .5253906 .10498047 .53273519 .09033203 .5474243 .075683597 .5621236 .068359378 .57992556 .068359378 .6008301 .068359378 .6217346 .075683597 .63961288 .09033203 .6544647 .10498047 .6693268 .12272135 .6767578 .14355469 .6767578M.21191406 .45703126V.09472656C.21191406 .0625 .21565755 .04191081 .22314453 .032958986 .23063152 .024007163 .24527996 .018880209 .26708985 .017578125V0H.020507813V.017578125C.040690107 .018229166 .055664064 .024088541 .06542969 .03515625 .0719401 .04264323 .07519531 .0625 .07519531 .09472656V.36132813C.07519531 .39396159 .07145182 .41481019 .063964847 .4238739 .056477865 .43293763 .041992189 .4381307 .020507813 .43945313V.45703126H.21191406Z"/>
<path id="font_1_66" d="M-.009277344-.15234375H.50927737V-.21582031H-.009277344V-.15234375Z"/>
<path id="font_1_71" d="M.47753907 .6621094V.13671875C.47753907 .10159302 .47851563 .08081055 .48046876 .07437134 .4830729 .06373087 .4880371 .05583191 .49536134 .05067444 .50268557 .04552714 .5154622 .042307538 .5336914 .041015626V.0234375L.3408203-.013671875V.05859375C.31770835 .030598959 .29711915 .011555989 .27905274 .0014648438 .26098634-.008626302 .24055989-.013671875 .21777344-.013671875 .1595052-.013671875 .11344401 .012395223 .079589847 .06452942 .052246095 .10688782 .03857422 .15885926 .03857422 .22044373 .03857422 .26964823 .04703776 .3137207 .063964847 .35266114 .08089193 .39160157 .10408529 .42101036 .13354492 .44088746 .16300456 .46076457 .19466146 .47070313 .22851563 .47070313 .25032554 .47070313 .269694 .46643577 .2866211 .457901 .3035482 .44936625 .3216146 .4344279 .3408203 .41308595V.55078127C.3408203 .585612 .33935548 .6066081 .33642579 .61376956 .33251954 .62320968 .32666017 .6302083 .31884767 .6347656 .31103517 .63932296 .29638673 .64160159 .27490235 .64160159V.6621094H.47753907M.3408203 .35351563C.31673179 .39908854 .28727214 .421875 .2524414 .421875 .24039714 .421875 .23046875 .41861979 .22265625 .41210938 .21061199 .40201823 .20076497 .38427735 .19311524 .35888673 .1854655 .3334961 .18164063 .29459635 .18164063 .2421875 .18164063 .18457031 .18587239 .14192708 .19433594 .11425781 .20279949 .08658854 .21435547 .06656901 .2290039 .05419922 .23649089 .048014326 .2467448 .044921876 .25976563 .044921876 .28841148 .044921876 .3154297 .06745402 .3408203 .11251831V.35351563Z"/>
<path id="font_1_87" d="M.21484375 .625V.45703126H.3232422V.4091797H.21484375V.12667847C.21484375 .100240077 .21606446 .08318583 .21850586 .07551575 .22094727 .067845668 .22526042 .061640424 .23144531 .056900026 .2376302 .0521698 .24332683 .049804689 .24853516 .049804689 .269694 .049804689 .28971354 .06608073 .30859376 .09863281L.3232422 .08778381C.296875 .02470398 .254069-.0068359377 .19482422-.0068359377 .16585286-.0068359377 .14135742 .0012461344 .12133789 .017410279 .10131836 .033584596 .088541667 .051635744 .08300781 .07156372 .0797526 .08267212 .078125 .112726848 .078125 .1617279V.4091797H.018554688V.4263153C.059570314 .4553477 .09448242 .48585 .123291019 .51782229 .15209961 .5497945 .1772461 .58552047 .19873047 .625H.21484375Z"/>
<path id="font_2_78" d="M.16357422 .69433596V.24951172L.27734376 .35302735C.30143229 .37516276 .3154297 .38916017 .31933595 .39501954 .3219401 .39892579 .3232422 .40283204 .3232422 .40673829 .3232422 .4132487 .32055665 .41886393 .31518556 .42358399 .30981446 .42830406 .300944 .4309896 .28857423 .43164063V.44726563H.48291017V.43164063C.45621745 .4309896 .43400065 .42692057 .41625978 .4194336 .3985189 .41194663 .379069 .39860026 .35791017 .37939454L.24316406 .2734375 .35791017 .12869263C.3898112 .08873495 .41129557 .06339518 .42236329 .05267334 .43798829 .037404378 .45166017 .027491251 .4633789 .02293396 .47151695 .019688925 .4856771 .018066407 .5058594 .018066407V0H.28857423V.018066407C.300944 .018391928 .30932618 .020258585 .3137207 .023666382 .31811524 .02708435 .3203125 .03187561 .3203125 .03804016 .3203125 .045516969 .3138021 .05753581 .30078126 .07409668L.16357422 .24902344V.10090637C.16357422 .071996059 .16560872 .05298869 .16967774 .043884279 .17374675 .03479004 .17952474 .028294882 .18701172 .024398804 .1944987 .020502726 .21077474 .018391928 .23583985 .018066407V0H.008300781V.018066407C.03108724 .018066407 .048177083 .020833334 .059570314 .026367188 .06640625 .029937745 .071614589 .03546651 .07519531 .04295349 .080078128 .053685506 .08251953 .07222494 .08251953 .09857178V.5055084C.08251953 .5572255 .08138021 .588857 .07910156 .60040286 .076822917 .6119588 .07307943 .619929 .067871097 .62431338 .06266276 .6287079 .055826826 .63090518 .04736328 .63090518 .040527345 .63090518 .030273438 .62813827 .016601563 .62260439L.008300781 .6396942 .14111328 .69433596H.16357422Z"/>
<path id="font_2_75" d="M.16259766 .69433596V.36669923C.19873047 .40641276 .2273763 .43188478 .24853516 .44311524 .269694 .4543457 .29085288 .45996095 .31201173 .45996095 .33740235 .45996095 .35921226 .4529775 .3774414 .43901063 .39567057 .42504374 .4091797 .40312196 .41796876 .37324525 .42415367 .3524526 .4272461 .31444804 .4272461 .25923158V.101379398C.4272461 .07312012 .42952476 .053792318 .43408204 .043395997 .43733726 .03560384 .4428711 .029434205 .4506836 .024887085 .4584961 .020339966 .472819 .018066407 .49365235 .018066407V0H.27392579V.018066407H.2841797C.30501304 .018066407 .3194987 .021240235 .32763673 .02758789 .33577476 .033935548 .34147135 .04329427 .34472657 .055664064 .34570313 .060872396 .3461914 .076171878 .3461914 .1015625V.25976563C.3461914 .30859376 .3436686 .34065757 .33862306 .35595704 .33357749 .3712565 .32552085 .3827311 .31445313 .39038087 .3033854 .3980306 .29003907 .40185548 .27441407 .40185548 .25846354 .40185548 .24186199 .3976237 .22460938 .38916017 .20735677 .38069663 .1866862 .36360679 .16259766 .33789063V.1015625C.16259766 .07096354 .16430664 .051920576 .16772461 .044433595 .17114258 .036946615 .17749024 .030680338 .18676758 .025634766 .19604492 .020589194 .21207683 .018066407 .23486328 .018066407V0H.013183594V.018066407C.033040365 .018066407 .048665365 .021158854 .060058595 .02734375 .06656901 .030588786 .071777347 .036763509 .075683597 .04586792 .079589847 .054982503 .08154297 .073527019 .08154297 .101501468V.5059967C.08154297 .5570628 .080322269 .58845016 .07788086 .6001587 .07543945 .61187747 .07169596 .6198476 .06665039 .6240692 .061604818 .62830099 .05485026 .63041689 .04638672 .63041689 .03955078 .63041689 .028483073 .6278127 .013183594 .62260439L.0063476564 .6396942 .14013672 .69433596H.16259766Z"/>
<path id="font_2_82" d="M.25 .45996095C.31770835 .45996095 .3720703 .43427024 .41308595 .3828888 .44791667 .33899436 .46533204 .28858949 .46533204 .2316742 .46533204 .19167583 .45572917 .15118917 .43652345 .11021423 .41731773 .06924947 .39086915 .038360597 .35717774 .017547608 .32348634-.0032653809 .28597007-.013671875 .2446289-.013671875 .1772461-.013671875 .123697917 .013158162 .083984378 .06681824 .05045573 .11201477 .033691408 .16274007 .033691408 .21899414 .033691408 .2599691 .043863935 .30069987 .064208988 .34118653 .08455404 .3816732 .111328128 .41159059 .14453125 .43093873 .17773438 .45028688 .21289063 .45996095 .25 .45996095M.23486328 .42773438C.21761067 .42773438 .20027669 .42261253 .18286133 .41236878 .16544597 .40212504 .15136719 .38416038 .140625 .35847474 .12988281 .3327891 .12451172 .29978944 .12451172 .2594757 .12451172 .19445293 .13745117 .1383667 .16333008 .09121704 .18920899 .044077558 .2233073 .020507813 .265625 .020507813 .29720054 .020507813 .3232422 .033513387 .34375 .059524537 .3642578 .08553568 .37451173 .13023885 .37451173 .19363404 .37451173 .27296958 .35742188 .33539836 .3232422 .3809204 .30013023 .41212974 .27067057 .42773438 .23486328 .42773438Z"/>
<path id="font_2_68" d="M.28466798 .064453128C.23876953 .028971354 .20996094 .008463542 .19824219 .0029296876 .18066406-.005533854 .16194661-.009765625 .14208985-.009765625 .11116537-.009765625 .08569336 .00081380209 .06567383 .021972657 .045654298 .04313151 .03564453 .07096354 .03564453 .10546875 .03564453 .12727864 .040527345 .14615886 .05029297 .16210938 .06363932 .1842448 .08683268 .20507813 .11987305 .22460938 .1529134 .24414063 .20784505 .26790367 .28466798 .29589845V.31347657C.28466798 .3580729 .2775879 .38867188 .26342774 .40527345 .24926758 .421875 .22867839 .43017579 .20166016 .43017579 .18115235 .43017579 .1648763 .42466227 .15283203 .41363526 .14046224 .40260826 .13427735 .3899587 .13427735 .37568666L.1352539 .34747315C.1352539 .3325602 .13142903 .32105003 .1237793 .3129425 .116129558 .304835 .10611979 .30078126 .09375 .30078126 .08170573 .30078126 .07185873 .30499778 .064208988 .3134308 .056559247 .321874 .052734376 .33339945 .052734376 .3480072 .052734376 .37591044 .06705729 .4015452 .095703128 .4249115 .12434896 .4482778 .16455078 .45996095 .2163086 .45996095 .25602214 .45996095 .28857423 .45329795 .31396485 .43997193 .33317057 .42989097 .34733073 .41411845 .3564453 .39265443 .3623047 .37867738 .36523438 .35006715 .36523438 .30682374V.15515137C.36523438 .112559 .3660482 .08646647 .36767579 .07687378 .36930339 .06728109 .37198893 .060857137 .37573243 .05760193 .37947593 .05435689 .38378907 .052734376 .38867188 .052734376 .39388023 .052734376 .3984375 .0538737 .40234376 .056152345 .4091797 .060384115 .42236329 .072265628 .44189454 .091796878V.064453128C.4054362 .015625 .37060548-.0087890629 .33740235-.0087890629 .3214518-.0087890629 .3087565-.0032552083 .2993164 .0078125 .2898763 .018880209 .2849935 .037760419 .28466798 .064453128M.28466798 .096466068V.26611329C.23551433 .24667359 .20377605 .23289998 .18945313 .22479248 .16373699 .2105306 .14534505 .19562276 .13427735 .18006897 .12320963 .16451518 .11767578 .14750164 .11767578 .12902832 .11767578 .10569254 .12467448 .08632914 .13867188 .07093811 .15266927 .055547079 .16878255 .047851564 .18701172 .047851564 .2117513 .047851564 .24430339 .0640564 .28466798 .096466068Z"/>
<path id="font_2_11" d="M.31054688-.19580078V-.21386719C.26139323-.18912761 .22037761-.16015625 .1875-.12695313 .140625-.0797526 .10449219-.024088541 .07910156 .040039064 .053710939 .104166667 .041015626 .17073567 .041015626 .2397461 .041015626 .34065757 .06591797 .43269859 .115722659 .51586917 .16552735 .59903976 .23046875 .6585286 .31054688 .69433596V.6738281C.2705078 .6516927 .2376302 .62141928 .21191406 .5830078 .18619792 .5445964 .16699219 .495931 .15429688 .43701173 .14160156 .37809245 .1352539 .316569 .1352539 .2524414 .1352539 .18277996 .140625 .11946615 .15136719 .0625 .15983074 .017578125 .17008464-.018473307 .1821289-.045654298 .19417317-.07283529 .21036785-.098958339 .23071289-.12402344 .25105796-.14908855 .27766929-.17301433 .31054688-.19580078Z"/>
<path id="font_2_51" d="M.20507813 .31054688V.11735535C.20507813 .07561747 .20963542 .04969279 .21875 .0395813 .2311198 .025238038 .24983724 .018066407 .27490235 .018066407H.30029298V0H.016601563V.018066407H.041503908C.069498699 .018066407 .08951823 .02718099 .1015625 .045410158 .108072917 .0555013 .111328128 .079427089 .111328128 .1171875V.5449219C.111328128 .58658859 .106933597 .61246749 .09814453 .6225586 .08544922 .63688156 .06656901 .64404299 .041503908 .64404299H.016601563V.6621094H.25927735C.31852214 .6621094 .36523438 .6560109 .39941407 .6438141 .43359376 .6316274 .46240235 .6110687 .48583985 .58213809 .50927737 .5532074 .5209961 .5189107 .5209961 .47924806 .5209961 .4252828 .5031738 .38139344 .4675293 .34757997 .43188478 .31377665 .3815104 .296875 .31640626 .296875 .30045573 .296875 .28320313 .2980143 .26464845 .30029298 .24609375 .30257163 .22623699 .3059896 .20507813 .31054688M.20507813 .3388672C.22233074 .33561198 .2376302 .33317057 .25097657 .33154298 .2643229 .32991538 .27571617 .32910157 .28515626 .32910157 .3190104 .32910157 .34822593 .34220378 .37280274 .3684082 .39737956 .39461265 .40966798 .4285482 .40966798 .47021485 .40966798 .4988607 .4038086 .525472 .39208985 .5500488 .3803711 .5746257 .36376954 .5930176 .34228517 .6052246 .32080079 .61743167 .29638673 .62353518 .26904298 .62353518 .2524414 .62353518 .2311198 .6204427 .20507813 .6142578V.3388672Z"/>
<path id="font_2_46" d="M.29882813 .3671875 .54296877 .12451172C.5830078 .084472659 .6171875 .057210287 .6455078 .04272461 .6738281 .028238932 .70214846 .020019532 .73046877 .018066407V0H.41552735V.018066407C.43440757 .018066407 .44799806 .021240235 .45629884 .02758789 .4645996 .033935548 .46875 .041015626 .46875 .048828126 .46875 .056640626 .46720378 .06363932 .46411134 .06982422 .4610189 .07600912 .45084635 .0875651 .43359376 .10449219L.20507813 .3305664V.1171875C.20507813 .08365885 .20719402 .061523439 .21142578 .05078125 .21468099 .04264323 .22151692 .03564453 .2319336 .029785157 .24593099 .021972657 .2607422 .018066407 .2763672 .018066407H.29882813V0H.016601563V.018066407H.040039064C.06738281 .018066407 .087239589 .026041666 .099609378 .041992189 .107421878 .052408857 .111328128 .07747396 .111328128 .1171875V.5449219C.111328128 .5784505 .10921224 .6007487 .10498047 .6118164 .10172526 .6196289 .095052089 .62646487 .08496094 .6323242 .07063802 .6401367 .055664064 .64404299 .040039064 .64404299H.016601563V.6621094H.29882813V.64404299H.2763672C.26106773 .64404299 .24625652 .6402995 .2319336 .6328125 .22184246 .6276042 .21484375 .6197917 .2109375 .609375 .20703125 .5989583 .20507813 .57747396 .20507813 .5449219V.34228517C.21158855 .34847007 .23388672 .36914063 .27197267 .40429688 .36865235 .49283854 .42708335 .5519206 .44726563 .58154299 .4560547 .5945638 .46044923 .60595706 .46044923 .61572268 .46044923 .62320968 .45703126 .62980148 .4501953 .63549807 .44335938 .64119467 .43180339 .64404299 .41552735 .64404299H.40039063V.6621094H.6435547V.64404299C.62923178 .64371749 .61621096 .64176437 .6044922 .6381836 .59277346 .63460287 .5784505 .62768557 .56152346 .61743167 .5445964 .60717776 .523763 .59065756 .49902345 .5678711 .49186198 .56136068 .45882163 .5279948 .39990235 .46777345L.29882813 .3671875Z"/>
<path id="font_2_12" d="M.022460938 .6738281V.69433596C.0719401 .6699219 .11311849 .6411133 .1459961 .60791018 .19254558 .5603841 .22851563 .5046387 .25390626 .44067384 .27929688 .37670899 .2919922 .3100586 .2919922 .24072266 .2919922 .1398112 .26717124 .047770185 .2175293-.03540039 .16788738-.11857096 .102864589-.17805989 .022460938-.21386719V-.19580078C.0625-.17333985 .095458988-.14298503 .12133789-.10473633 .1472168-.06648763 .16642253-.017822266 .17895508 .041259767 .19148763 .1003418 .1977539 .16194661 .1977539 .22607422 .1977539 .29541017 .19238281 .35872398 .18164063 .41601563 .17350261 .4609375 .16333008 .49690757 .15112305 .5239258 .13891602 .55094406 .12272135 .57698568 .10253906 .6020508 .08235677 .6271159 .055664064 .6510417 .022460938 .6738281Z"/>
<path id="font_2_95" d="M.119140628 .69433596V-.21582031H.07861328V.69433596H.119140628Z"/>
<path id="font_2_74" d="M.1508789 .16297913C.123535159 .17630513 .10253906 .19491577 .087890628 .21881104 .07324219 .2427063 .06591797 .26912437 .06591797 .2980652 .06591797 .342275 .082600917 .38031007 .1159668 .4121704 .14933269 .44403077 .1920573 .45996095 .24414063 .45996095 .28678385 .45996095 .32373048 .44954429 .35498048 .42871095H.44970704C.46370445 .42871095 .47184245 .4283091 .4741211 .4275055 .47639976 .42670188 .47802735 .42533366 .4790039 .42340089 .48095704 .4205017 .4819336 .41534934 .4819336 .40794374 .4819336 .3995819 .48111979 .39378868 .4794922 .39056397 .47851563 .3889567 .47680665 .3876699 .47436524 .3867035 .47192384 .3857371 .46370445 .3852539 .44970704 .3852539H.39160157C.40983073 .36176554 .4189453 .3317566 .4189453 .29522706 .4189453 .253479 .40299479 .21776326 .37109376 .18807984 .33919273 .15839641 .29638673 .14355469 .24267578 .14355469 .22054036 .14355469 .19791667 .14687602 .17480469 .15351868 .16048177 .14115906 .15079753 .13034058 .14575196 .12106323 .14070638 .11179606 .1381836 .10391235 .1381836 .09741211 .1381836 .09187826 .14086914 .086507167 .14624024 .08129883 .15161133 .07610067 .16210938 .07236227 .17773438 .07008362 .18684896 .06878153 .20963542 .06764221 .24609375 .06666565 .31315104 .06504822 .35660807 .06277466 .37646485 .05984497 .40673829 .0556132 .4309082 .044387819 .4489746 .026168824 .46704103 .007960002 .47607423-.014480591 .47607423-.041152955 .47607423-.07790629 .45882163-.11238607 .4243164-.14459229 .37353517-.19207764 .30729167-.21582031 .22558594-.21582031 .16276042-.21582031 .10970052-.2016805 .06640625-.17340088 .041992189-.15714519 .029785157-.14023845 .029785157-.122680667 .029785157-.11488851 .03157552-.10709127 .03515625-.09928894 .040690107-.087254848 .052083333-.070510867 .06933594-.049057008 .071614589-.046137494 .08821615-.028584799 .119140628 .0036010743 .10221354 .013702393 .09025065 .022745768 .08325195 .030731202 .07625326 .038716634 .072753909 .04776001 .072753909 .057861329 .072753909 .0692749 .07739258 .0826416 .08666992 .097961429 .095947269 .11328125 .11735026 .13495381 .1508789 .16297913M.23583985 .43554688C.2117513 .43554688 .19156902 .42599488 .17529297 .40689088 .15901692 .38779704 .1508789 .35850016 .1508789 .31900025 .1508789 .26784263 .16194661 .22818502 .18408203 .20002747 .20100911 .17865499 .22249349 .16796875 .24853516 .16796875 .27327476 .16796875 .29361979 .17719524 .3095703 .1956482 .32552085 .21410115 .3334961 .24307759 .3334961 .2825775 .3334961 .3340505 .32226563 .37435914 .2998047 .40350343 .28320313 .42486573 .2618815 .43554688 .23583985 .43554688M.1459961-.000289917C.13069661-.016860962 .119140628-.032292684 .111328128-.046585084 .103515628-.060887655 .099609378-.0740509 .099609378-.08607483 .099609378-.10166931 .10904948-.11531576 .12792969-.12701416 .16048177-.14715576 .20751953-.15722656 .26904298-.15722656 .32763673-.15722656 .3708496-.14690654 .39868165-.12626648 .42651368-.1056366 .4404297-.083628337 .4404297-.0602417 .4404297-.043345136 .4321289-.03132121 .41552735-.024169922 .39860026-.017018637 .36507163-.012797038 .3149414-.011505127 .24169922-.009552002 .18538411-.0058135988 .1459961-.000289917Z"/>
<path id="font_2_76" d="M.14501953 .69433596C.1586914 .69433596 .17032878 .6895091 .17993164 .67985537 .1895345 .6702118 .19433594 .6585185 .19433594 .6447754 .19433594 .6310323 .1895345 .6192525 .17993164 .60943606 .17032878 .5996297 .1586914 .59472659 .14501953 .59472659 .13134766 .59472659 .119628909 .5996297 .10986328 .60943606 .100097659 .6192525 .095214847 .6310323 .095214847 .6447754 .095214847 .6585185 .10001627 .6702118 .10961914 .67985537 .11922201 .6895091 .13102214 .69433596 .14501953 .69433596M.18554688 .45996095V.101379398C.18554688 .07344564 .18758138 .05485026 .19165039 .04559326 .1957194 .03633626 .20174153 .029434205 .2097168 .024887085 .21769206 .020339966 .23225911 .018066407 .25341798 .018066407V0H.036132814V.018066407C.057942708 .018066407 .07259115 .020177206 .080078128 .024398804 .0875651 .028620402 .09350586 .03560384 .09790039 .04534912 .10229492 .055094404 .10449219 .07377116 .10449219 .101379398V.2733612C.10449219 .32176209 .103027347 .35310365 .100097659 .36738587 .09781901 .3777822 .09423828 .38500978 .08935547 .3890686 .084472659 .39312745 .07779948 .39515687 .06933594 .39515687 .060221357 .39515687 .049153646 .39272056 .036132814 .3878479L.029296875 .4053955 .1640625 .45996095H.18554688Z"/>
<path id="font_2_66" d="M.50878909-.21582031H-.008300781V-.17529297H.50878909V-.21582031Z"/>
<path id="font_2_87" d="M.16113281 .59472659V.44726563H.265625V.41308595H.16113281V.1234436C.16113281 .09450277 .1652832 .07499186 .17358399 .06491089 .18188477 .054840089 .19254558 .049804689 .2055664 .049804689 .2163086 .049804689 .22672527 .053141279 .2368164 .059814454 .24690755 .06648763 .25472007 .07633463 .2602539 .08935547H.27929688C.26790367 .057362874 .25179038 .033167524 .23095703 .01676941 .2101237 .00038146974 .18863933-.0078125 .1665039-.0078125 .15152996-.0078125 .13688152-.0036570233 .122558597 .0046539308 .10823568 .012964885 .09765625 .024856568 .09082031 .04032898 .083984378 .055811567 .080566409 .079686488 .080566409 .111953739V.41308595H.009765625V.42919923C.027669272 .436381 .045979818 .44854228 .064697269 .46568299 .08341471 .4828237 .100097659 .5031484 .114746097 .5266571 .12223307 .53905746 .13264974 .56174728 .1459961 .59472659H.16113281Z"/>
<path id="font_2_85" d="M.16210938 .45996095V.359375C.19954427 .42643229 .23795574 .45996095 .27734376 .45996095 .2952474 .45996095 .3100586 .45450846 .32177735 .44360353 .3334961 .43269859 .33935548 .42008464 .33935548 .40576173 .33935548 .3930664 .3351237 .38232423 .32666017 .37353517 .31819663 .3647461 .30810548 .36035157 .29638673 .36035157 .2849935 .36035157 .2722168 .3659668 .25805665 .37719728 .24389649 .38842774 .23339844 .39404298 .2265625 .39404298 .22070313 .39404298 .21435547 .39079795 .20751953 .38430787 .1928711 .37099204 .17773438 .34907533 .16210938 .31855775V.10475159C.16210938 .080083217 .16520183 .061416627 .17138672 .04875183 .17561849 .039983114 .18310547 .032674154 .19384766 .026824952 .20458985 .020985922 .22005208 .018066407 .24023438 .018066407V0H.011230469V.018066407C.034016927 .018066407 .05094401 .021636963 .06201172 .028778077 .07014974 .03397624 .07584635 .04226176 .07910156 .053634645 .080729167 .059158327 .08154297 .074910487 .08154297 .10089111V.2738495C.08154297 .32582093 .08048502 .35675559 .07836914 .36665345 .07625326 .3765615 .07234701 .38378907 .06665039 .38833619 .060953779 .3928833 .0538737 .39515687 .045410158 .39515687 .03531901 .39515687 .023925782 .39272056 .011230469 .3878479L.0063476564 .4053955 .14160156 .45996095H.16210938Z"/>
<path id="font_1_69" d="M.21044922 .6621094V.4111328C.24886067 .45084635 .29085288 .47070313 .33642579 .47070313 .36767579 .47070313 .3971354 .46149699 .4248047 .44308473 .45247398 .42467246 .4741211 .39852397 .4897461 .36463929 .5053711 .3307546 .5131836 .2916514 .5131836 .24732971 .5131836 .19747417 .5032552 .15218099 .48339845 .111450199 .46354167 .0707194 .43701173 .039683027 .4038086 .018341065 .37060548-.0030008953 .33268229-.013671875 .29003907-.013671875 .26529948-.013671875 .24332683-.009765625 .2241211-.001953125 .20491536 .005859375 .18603516 .018554688 .16748047 .036132814L.091796878-.013671875H.07519531V.5673828C.07519531 .5939229 .07405599 .6103007 .071777347 .6165161 .06852213 .6256917 .06339518 .63249209 .056396486 .6369171 .049397787 .64134219 .037597658 .6438802 .020996094 .64453127V.6621094H.21044922M.21044922 .36761476V.1642456C.21044922 .1228536 .21142578 .096450809 .2133789 .08503723 .21663411 .06581116 .22444661 .050247194 .2368164 .038345338 .2491862 .026453654 .26497398 .020507813 .2841797 .020507813 .30078126 .020507813 .3150228 .02523295 .3269043 .034683229 .3387858 .044133504 .3487142 .0628713 .35668946 .09089661 .3646647 .11893209 .36865235 .16945394 .36865235 .24246216 .36865235 .31254069 .35986329 .36061607 .34228517 .38668824 .32958985 .40558879 .3125 .41503907 .29101563 .41503907 .26302085 .41503907 .23616536 .39923097 .21044922 .36761476Z"/>
<path id="font_1_72" d="M.42041017 .24511719H.16992188C.17285156 .18440755 .18896485 .13642884 .21826172 .10118103 .24072266 .07409159 .26774089 .060546876 .2993164 .060546876 .31884767 .060546876 .33658854 .06599935 .35253907 .0769043 .3684896 .08780924 .38557945 .107421878 .4038086 .13574219L.42041017 .125C.39567057 .07454427 .3683268 .03881836 .3383789 .017822266 .308431-.0031738282 .27376304-.013671875 .234375-.013671875 .16666667-.013671875 .11539713 .012395223 .080566409 .06452942 .052571615 .106562297 .03857422 .15869649 .03857422 .220932 .03857422 .29718528 .05916341 .35787455 .1003418 .40299989 .14152019 .44813539 .18977864 .47070313 .24511719 .47070313 .29134117 .47070313 .33146159 .45174156 .36547853 .41381837 .39949546 .37589518 .417806 .31966148 .42041017 .24511719M.30029298 .27734376C.30029298 .3297526 .29744468 .36572267 .29174806 .3852539 .28605143 .40478517 .277181 .41959635 .26513673 .4296875 .25830079 .43554688 .2491862 .43847657 .23779297 .43847657 .22086589 .43847657 .20703125 .43017579 .19628906 .41357423 .17708333 .38460288 .16748047 .3448893 .16748047 .2944336V.27734376H.30029298Z"/>
<path id="font_1_81" d="M.22021485 .45703126V.39746095C.24365235 .4230245 .26611329 .44161988 .28759767 .45324708 .30908204 .46488444 .332194 .47070313 .3569336 .47070313 .386556 .47070313 .4111328 .46247355 .43066407 .4460144 .4501953 .42955528 .46321617 .4091034 .46972657 .3846588 .4749349 .3660736 .47753907 .3303782 .47753907 .27757264V.099609378C.47753907 .064453128 .4807129 .042561849 .48706056 .033935548 .4934082 .025309245 .50667318 .019856772 .52685549 .017578125V0H.29589845V.017578125C.31315104 .019856772 .32552085 .027018229 .3330078 .0390625 .33821617 .04720052 .3408203 .06738281 .3408203 .099609378V.30273438C.3408203 .34016929 .33935548 .36376954 .33642579 .37353517 .3334961 .38330079 .3285319 .39086915 .3215332 .39624024 .31453453 .40161134 .30680339 .40429688 .29833985 .40429688 .27034507 .40429688 .24430339 .3841146 .22021485 .34375V.099609378C.22021485 .06542969 .22338867 .04378255 .22973633 .03466797 .23608399 .025553385 .24788411 .019856772 .26513673 .017578125V0H.034179689V.017578125C.053385419 .01953125 .06705729 .025716147 .07519531 .036132814 .080729167 .04329427 .083496097 .064453128 .083496097 .099609378V.35742188C.083496097 .39234416 .080322269 .41408793 .07397461 .4226532 .06762695 .43121849 .05436198 .43681846 .034179689 .43945313V.45703126H.22021485Z"/>
<path id="font_1_86" d="M.32226563 .46875 .32958985 .3125H.31298829C.2931315 .35910035 .27254234 .39093019 .2512207 .4079895 .2298991 .425059 .20865886 .43359376 .1875 .43359376 .17415364 .43359376 .16276042 .42911784 .15332031 .42016603 .1438802 .4112142 .13916016 .4008789 .13916016 .38916017 .13916016 .3803711 .14241536 .37190757 .14892578 .36376954 .15934246 .3504232 .18847656 .32755534 .23632813 .29516603 .2841797 .2627767 .31567384 .23527019 .33081056 .21264649 .34594728 .19002278 .35351563 .16471355 .35351563 .13671875 .35351563 .111328128 .34716798 .08642578 .33447267 .06201172 .32177735 .037597658 .3038737 .018880209 .28076173 .005859375 .25764976-.0071614587 .23209636-.013671875 .20410156-.013671875 .18229167-.013671875 .15315755-.006708781 .11669922 .007217407 .106933597 .010869344 .100260417 .0126953129 .09667969 .0126953129 .0859375 .0126953129 .07698568 .0045572917 .06982422-.01171875H.053710939L.045898439 .15234375H.0625C.07714844 .109375 .09724935 .07714844 .122802738 .055664064 .14835613 .034179689 .17252605 .0234375 .1953125 .0234375 .2109375 .0234375 .22371419 .028238932 .23364258 .037841798 .24357097 .04744466 .24853516 .05908203 .24853516 .072753909 .24853516 .088378909 .24365235 .10188802 .23388672 .11328125 .2241211 .12467448 .2023112 .14192708 .16845703 .16503906 .118652347 .19954427 .08642578 .22591146 .071777347 .24414063 .05029297 .27083335 .03955078 .30029298 .03955078 .33251954 .03955078 .36767579 .051676435 .39949546 .075927738 .42797853 .10017904 .45646159 .1352539 .47070313 .18115235 .47070313 .20589192 .47070313 .2298177 .46444703 .2529297 .4519348 .26171876 .4468689 .26888023 .44433595 .27441407 .44433595 .28027345 .44433595 .2849935 .44555665 .28857423 .44799806 .29215495 .45043946 .29785157 .45735679 .30566407 .46875H.32226563Z"/>
<path id="font_1_82" d="M.24902344 .47070313C.28873698 .47070313 .3256836 .46043907 .35986329 .4399109 .39404298 .41938273 .42000328 .3902181 .43774415 .352417 .45548503 .31461589 .46435548 .27323405 .46435548 .22827149 .46435548 .16343181 .44791667 .109176639 .41503907 .06550598 .37532554 .012720744 .32047526-.013671875 .25048829-.013671875 .18180339-.013671875 .12890625 .010442098 .091796878 .058670045 .0546875 .10689799 .036132814 .16278076 .036132814 .22631836 .036132814 .29180909 .055094404 .34891258 .09301758 .39762879 .13094075 .446345 .1829427 .47070313 .24902344 .47070313M.25097657 .43652345C.234375 .43652345 .22013347 .43024699 .20825196 .4176941 .19637044 .40515138 .18855794 .38038636 .18481446 .34339906 .18107097 .30641175 .17919922 .2549998 .17919922 .18916321 .17919922 .1542918 .18147786 .12169901 .18603516 .09138489 .18961589 .06825256 .19726563 .050654096 .20898438 .038589479 .22070313 .026535035 .23404949 .020507813 .24902344 .020507813 .26367188 .020507813 .2758789 .02458191 .28564454 .032730104 .29833985 .043807985 .30680339 .05929057 .31103517 .07917786 .31754557 .11013285 .32080079 .17270406 .32080079 .26689149 .32080079 .32229106 .31770835 .3603363 .31152345 .38102723 .30533854 .4017283 .29622398 .416804 .2841797 .42625428 .27571617 .43310038 .26464845 .43652345 .25097657 .43652345Z"/>
<path id="font_1_75" d="M.22021485 .6621094V.39794923C.24527996 .4244995 .26822917 .44326274 .2890625 .4542389 .30989585 .46521507 .33154298 .47070313 .3540039 .47070313 .38264976 .47070313 .40714518 .4625651 .42749024 .44628907 .4478353 .43001304 .4613444 .41088868 .46801759 .38891603 .47469078 .36694337 .47802735 .32991538 .47802735 .27783204V.099609378C.47802735 .064565028 .48128257 .042704267 .48779298 .0340271 .49430339 .025349936 .507487 .019866944 .52734377 .017578125V0H.29589845V.017578125C.31217448 .019866944 .3243815 .02641805 .33251954 .037231447 .3383789 .04574585 .3413086 .06653849 .3413086 .099609378V.30290223C.3413086 .3406016 .33984376 .36424256 .33691407 .37382508 .33398438 .38341777 .32902018 .39089457 .32202149 .3962555 .3150228 .40161643 .3071289 .40429688 .29833985 .40429688 .285319 .40429688 .2726237 .39982096 .2602539 .39086915 .24788411 .38191734 .23453777 .36621095 .22021485 .34375V.099609378C.22021485 .06686401 .22265625 .046396894 .22753906 .038208009 .23372396 .027079264 .24641927 .020202637 .265625 .017578125V0H.034179689V.017578125C.053385419 .019541422 .06705729 .025761923 .07519531 .036239625 .080729167 .043441774 .083496097 .064565028 .083496097 .099609378V.5625C.083496097 .5974223 .080322269 .6191661 .07397461 .6277313 .06762695 .6362966 .05436198 .64189657 .034179689 .64453127V.6621094H.22021485Z"/>
<path id="font_1_83" d="M.21044922 .04638672V-.123046878C.21044922-.14679973 .21232097-.16296387 .21606446-.1715393 .21980794-.18012493 .22558594-.18639629 .23339844-.1903534 .24121094-.1943105 .2565104-.19628906 .27929688-.19628906V-.21386719H.019042969V-.19628906C.03922526-.19562786 .05419922-.18985494 .063964847-.17897034 .07047526-.1713918 .07373047-.1517741 .07373047-.12011719V.36132813C.07373047 .39396159 .06998698 .41481019 .0625 .4238739 .05501302 .43293763 .040527345 .4381307 .019042969 .43945313V.45703126H.21044922V.39697267C.22639974 .42041017 .24267578 .43733726 .25927735 .4477539 .28304038 .46305339 .30891929 .47070313 .33691407 .47070313 .37044273 .47070313 .4009603 .46011354 .4284668 .43893434 .4559733 .41775514 .47688804 .38850913 .49121095 .3511963 .5055339 .31388346 .5126953 .27372233 .5126953 .23071289 .5126953 .18444824 .50528976 .14217122 .49047853 .103881839 .47566734 .065592449 .45418296 .036427816 .4260254 .01638794 .39786784-.0036519368 .36653648-.013671875 .33203126-.013671875 .30696617-.013671875 .28352867-.0081380209 .26171876 .0029296876 .2454427 .0113932299 .22835286 .025878907 .21044922 .04638672M.21044922 .09577942C.23844402 .056015016 .26839195 .036132814 .30029298 .036132814 .3178711 .036132814 .33235679 .04542033 .34375 .06399536 .3606771 .0913798 .36914063 .14353435 .36914063 .22045899 .36914063 .29933677 .35986329 .35328166 .3413086 .3822937 .3289388 .40151979 .31233726 .4111328 .2915039 .4111328 .2586263 .4111328 .23160808 .38733927 .21044922 .3397522V.09577942Z"/>
<path id="font_1_79" d="M.21240235 .6621094V.09472656C.21240235 .0625 .21614583 .04191081 .22363281 .032958986 .2311198 .024007163 .24576824 .018880209 .26757813 .017578125V0H.020996094V.017578125C.041178388 .018229166 .056152345 .024088541 .06591797 .03515625 .07242838 .04264323 .075683597 .0625 .075683597 .09472656V.5673828C.075683597 .5994873 .0719401 .6200409 .064453128 .6290436 .056966146 .63805648 .04248047 .643219 .020996094 .64453127V.6621094H.21240235Z"/>
<path id="font_2_69" d="M.1538086 .3696289C.19710286 .42985026 .24381511 .45996095 .2939453 .45996095 .33984376 .45996095 .3798828 .44036866 .4140625 .40118409 .4482422 .3619995 .46533204 .3084259 .46533204 .24046326 .46533204 .16111756 .43896485 .097218837 .38623048 .04876709 .34098307 .0071411135 .29052735-.013671875 .23486328-.013671875 .20882161-.013671875 .18237305-.008951823 .15551758 .00048828127 .12866211 .009928386 .10123698 .024088541 .07324219 .04296875V.50634768C.07324219 .5571289 .072021488 .5883789 .06958008 .60009768 .06713867 .6118164 .063313808 .6197917 .05810547 .62402346 .052897138 .6282552 .04638672 .6303711 .03857422 .6303711 .029459635 .6303711 .018066407 .6277669 .0043945314 .6225586L-.0024414063 .63964846 .13183594 .69433596H.1538086V.3696289M.1538086 .33851625V.071640018C.17041016 .055414838 .18758138 .04316203 .20532227 .03488159 .22306316 .026601157 .24121094 .022460938 .25976563 .022460938 .28938804 .022460938 .31697593 .038691205 .3425293 .07115173 .36808268 .10362244 .38085938 .15086365 .38085938 .21287537 .38085938 .27001444 .36808268 .31392417 .3425293 .3446045 .31697593 .37528483 .2879232 .390625 .2553711 .390625 .23811849 .390625 .22086589 .38624064 .20361328 .37747193 .19059246 .37098185 .17399089 .3579966 .1538086 .33851625Z"/>
<path id="font_2_72" d="M.10644531 .2783203C.10611979 .21206665 .12223307 .1601003 .15478516 .122421268 .18733724 .0847524 .22558594 .06591797 .26953126 .06591797 .29882813 .06591797 .32430015 .07397461 .34594728 .09008789 .3675944 .10620117 .3857422 .13378906 .40039063 .17285156L.41552735 .16308594C.4086914 .118489589 .38883464 .07788086 .35595704 .041259767 .32307945 .004638672 .28190104-.013671875 .23242188-.013671875 .17871094-.013671875 .13273113 .007197062 .09448242 .048934938 .056233724 .09068298 .037109376 .14680481 .037109376 .21730042 .037109376 .29363505 .056722005 .35315959 .095947269 .39587403 .13517253 .43859864 .18440755 .45996095 .24365235 .45996095 .29378257 .45996095 .33496095 .44348146 .3671875 .41052247 .39941407 .37757365 .41552735 .33350627 .41552735 .2783203H.10644531M.10644531 .30664063H.31347657C.31184898 .33528648 .308431 .35546876 .30322267 .3671875 .29508464 .38541667 .28295899 .3997396 .2668457 .41015626 .25073243 .4205729 .23388672 .42578126 .2163086 .42578126 .18929036 .42578126 .16512044 .4152832 .14379883 .3942871 .12247721 .37329103 .11002604 .34407554 .10644531 .30664063Z"/>
<path id="font_2_81" d="M.1616211 .36523438C.21402996 .4283854 .2639974 .45996095 .31152345 .45996095 .3359375 .45996095 .3569336 .45386759 .37451173 .4416809 .39208985 .4295044 .40608726 .40944926 .4165039 .3815155 .42366538 .36203514 .4272461 .33215333 .4272461 .29187013V.101379398C.4272461 .07312012 .42952476 .053955079 .43408204 .043884279 .43766276 .0357666 .44344078 .029434205 .45141603 .024887085 .45939128 .020339966 .4741211 .018066407 .49560548 .018066407V0H.27441407V.018066407H.2836914C.30452476 .018066407 .3190918 .021224976 .32739259 .027542115 .33569337 .033859254 .34147135 .043167116 .34472657 .0554657 .34602867 .060328168 .3466797 .07555135 .3466797 .101135257V.28330995C.3466797 .3237864 .34138999 .35317485 .33081056 .37147523 .3202311 .3897756 .30240885 .39892579 .27734376 .39892579 .23860677 .39892579 .20003255 .37787376 .1616211 .33576966V.101135257C.1616211 .071014408 .16341146 .052393598 .16699219 .045272829 .17154949 .035883588 .17781575 .029001872 .18579102 .024627686 .19376628 .0202535 .20996094 .018066407 .234375 .018066407V0H.013183594V.018066407H.022949219C.045735677 .018066407 .061116537 .023829142 .0690918 .035354616 .077067058 .04689026 .08105469 .06889852 .08105469 .101379398V.2670288C.08105469 .32061769 .079833988 .35325624 .07739258 .36494447 .07495117 .37664286 .07120768 .38460288 .06616211 .38882447 .061116537 .39304606 .05436198 .39515687 .045898439 .39515687 .036783857 .39515687 .025878907 .39272056 .013183594 .3878479L.005859375 .4053955 .140625 .45996095H.1616211V.36523438Z"/>
<path id="font_2_86" d="M.3203125 .45996095V.30859376H.30419923C.29182945 .35606895 .2759603 .3883616 .2565918 .4054718 .23722331 .42259217 .21256511 .43115235 .18261719 .43115235 .15983074 .43115235 .1414388 .42513529 .1274414 .4131012 .11344401 .40107728 .10644531 .38774619 .10644531 .3731079 .10644531 .35489909 .11165365 .33929444 .12207031 .32629396 .13216146 .31295777 .15266927 .29881288 .18359375 .28385926L.2548828 .2492218C.32096354 .21703594 .3540039 .17460124 .3540039 .121917728 .3540039 .08127848 .33862306 .048517866 .30786134 .023635865 .2770996-.0012359619 .24267578-.013671875 .20458985-.013671875 .1772461-.013671875 .1459961-.0087890629 .110839847 .0009765625 .100097659 .004231771 .091308597 .005859375 .084472659 .005859375 .07698568 .005859375 .071126308 .0016276041 .06689453-.0068359377H.05078125V.15332031H.06689453C.07600912 .10758463 .09342448 .07312012 .119140628 .049926759 .14485677 .026733399 .17366536 .015136719 .2055664 .015136719 .22802735 .015136719 .24633789 .021718344 .26049806 .03488159 .2746582 .04805501 .28173829 .0639089 .28173829 .08244324 .28173829 .10488383 .2738444 .12374369 .25805665 .13902283 .24226888 .15430196 .21077474 .17364502 .16357422 .197052 .116373699 .22046916 .08544922 .24160767 .07080078 .26046754 .056152345 .27900187 .048828126 .30241395 .048828126 .33070375 .048828126 .3674469 .06144206 .398173 .08666992 .42288209 .11189779 .44760133 .14453125 .45996095 .18457031 .45996095 .20214844 .45996095 .22347005 .45621745 .24853516 .44873048 .26513673 .44384767 .27620445 .44140626 .28173829 .44140626 .28694663 .44140626 .29101563 .44254557 .2939453 .44482423 .296875 .44710288 .30029298 .45214845 .30419923 .45996095H.3203125Z"/>
<path id="font_2_70" d="M.4111328 .16992188C.39908854 .1110026 .37548829 .06567383 .34033204 .033935548 .30517579 .0021972657 .26627604-.013671875 .22363281-.013671875 .17285156-.013671875 .12858074 .007624308 .09082031 .050216676 .053059896 .092819217 .034179689 .15038045 .034179689 .22290039 .034179689 .2931417 .055094404 .35020957 .09692383 .394104 .13875325 .43800865 .18896485 .45996095 .2475586 .45996095 .2915039 .45996095 .32763673 .44835917 .35595704 .42515565 .38427735 .40196229 .3984375 .37787376 .3984375 .35289 .3984375 .3405609 .39444987 .33058167 .3864746 .32295228 .37849937 .31533305 .36735026 .31152345 .35302735 .31152345 .33382163 .31152345 .31933595 .31770835 .3095703 .33007813 .30403648 .33691407 .30037437 .3499349 .29858399 .36914063 .2967936 .38834635 .2902018 .40299479 .2788086 .41308595 .26741538 .42285157 .2516276 .42773438 .23144531 .42773438 .19889324 .42773438 .1726888 .4156901 .15283203 .39160157 .12646485 .35970054 .11328125 .31754557 .11328125 .26513673 .11328125 .2117513 .12638347 .16463216 .15258789 .1237793 .17879232 .08292643 .2141927 .0625 .25878907 .0625 .2906901 .0625 .31933595 .073404949 .34472657 .095214847 .36263023 .110188808 .38004557 .1373698 .39697267 .17675781L.4111328 .16992188Z"/>
<path id="font_2_88" d="M.42333985 .44726563V.17626953C.42333985 .12451172 .42456056 .09285482 .42700196 .08129883 .42944337 .069742839 .4333496 .0616862 .4387207 .057128908 .4440918 .052571615 .45035807 .05029297 .45751954 .05029297 .4676107 .05029297 .4790039 .053059896 .49169923 .05859375L.49853517 .041503908 .3647461-.013671875H.34277345V.08105469C.30436198 .03938802 .2750651 .013183594 .2548828 .0024414063 .23470052-.008300781 .2133789-.013671875 .19091797-.013671875 .16585286-.013671875 .14412435-.0064290368 .12573242 .008056641 .10734049 .022542319 .094563808 .041178388 .087402347 .063964847 .08024088 .086751308 .076660159 .11897787 .076660159 .16064453V.36035157C.076660159 .3815104 .07438151 .39615885 .06982422 .40429688 .06526693 .4124349 .05851237 .41870118 .049560548 .4230957 .040608724 .42749024 .024414063 .42952476 .0009765625 .42919923V.44726563H.15771485V.14868164C.15771485 .1071167 .16495769 .07983907 .17944336 .066848758 .19392903 .05385844 .21142578 .04736328 .2319336 .04736328 .24593099 .04736328 .26180015 .05174764 .27954103 .060516359 .2972819 .06928507 .31835938 .086003627 .34277345 .110672V.3634491C.34277345 .3887787 .33813478 .40590415 .32885743 .41482545 .31958009 .42375694 .30029298 .4285482 .2709961 .42919923V.44726563H.42333985Z"/>
<path id="font_2_91" d="M.013183594 .44726563H.22363281V.42919923C.21028646 .42919923 .20092774 .42692057 .19555664 .42236329 .19018555 .417806 .1875 .41178385 .1875 .40429688 .1875 .39648438 .19319661 .3844401 .20458985 .36816407 .20817058 .36295573 .21354167 .35481773 .22070313 .34375L.2524414 .29296876 .2890625 .34375C.3125 .37597657 .32421876 .39632163 .32421876 .40478517 .32421876 .4116211 .3214518 .41739909 .31591798 .42211915 .31038413 .4268392 .30143229 .42919923 .2890625 .42919923V.44726563H.4404297V.42919923C.42447917 .42822267 .41064454 .42382813 .39892579 .41601563 .38297526 .4049479 .36116538 .38085938 .3334961 .34375L.27246095 .26220704 .38378907 .102371219C.4111328 .063064578 .43066407 .03942871 .4423828 .031463624 .45410157 .023508707 .46923829 .019042969 .48779298 .018066407V0H.27685548V.018066407C.2915039 .018066407 .30289714 .021311442 .31103517 .027801514 .31722007 .032348634 .3203125 .03835551 .3203125 .045822145 .3203125 .053288778 .30989585 .072118129 .2890625 .10231018L.22363281 .1977539 .15185547 .10231018C.12972005 .072769168 .118652347 .055236818 .118652347 .049713136 .118652347 .04192098 .12231445 .034861249 .12963867 .028533936 .13696289 .022206625 .14794922 .018717448 .16259766 .018066407V0H.016601563V.018066407C.028320313 .01969401 .03857422 .023752848 .04736328 .03024292 .059733076 .039662679 .080566409 .063695278 .10986328 .1023407L.20361328 .2265625 .118652347 .34960938C.094563808 .38476563 .075927738 .40681968 .06274414 .41577149 .049560548 .4247233 .033040365 .42919923 .013183594 .42919923V.44726563Z"/>
<path id="font_2_79" d="M.1850586 .69433596V.101501468C.1850586 .073527019 .1870931 .054982503 .19116211 .04586792 .19523113 .036763509 .20149739 .029851279 .20996094 .025131226 .21842449 .020421347 .23421224 .018066407 .25732423 .018066407V0H.038085939V.018066407C.05859375 .018066407 .07259115 .020177206 .080078128 .024398804 .0875651 .028630576 .09342448 .035624189 .09765625 .04537964 .10188802 .055145265 .104003909 .07385254 .104003909 .101501468V.50746157C.104003909 .5578766 .102864589 .588857 .10058594 .60040286 .09830729 .6119588 .09464518 .6198476 .08959961 .6240692 .08455404 .62830099 .078125 .63041689 .0703125 .63041689 .061848958 .63041689 .05110677 .6278127 .038085939 .62260439L.029785157 .6396942 .16308594 .69433596H.1850586Z"/>
<path id="font_1_91" d="M.301651 .2800598 .3828125 .12936402C.41015626 .07696533 .43180339 .04377238 .4477539 .029785157 .45654298 .022298178 .46858726 .018229166 .48388673 .017578125V0H.22949219V.017578125C.24934896 .019205729 .26163737 .021809897 .26635743 .025390625 .27107749 .028981528 .2734375 .03387451 .2734375 .04006958 .2734375 .049194337 .26822917 .0635376 .2578125 .083099368L.21795655 .15710449 .18457031 .10803223C.16927083 .08554077 .16064453 .07217407 .1586914 .06793213 .15608724 .061747236 .15478516 .056208295 .15478516 .051315309 .15478516 .043818159 .15633138 .037541707 .15942383 .032485963 .16251628 .02744039 .16674805 .023691813 .17211914 .021240235 .17749024 .018798829 .18733724 .017578125 .20166016 .017578125V0H.022949219V.017578125C.045084638 .017578125 .065348308 .023686728 .083740238 .03590393 .102132167 .048131307 .12890625 .08014933 .1640625 .13195801L.20173645 .1872406 .123046878 .33335877C.09733073 .38116966 .078125 .41047669 .06542969 .4212799 .052734376 .43208314 .03857422 .43814088 .022949219 .43945313V.45703126H.2758789V.43945313L.2626953 .43896485 .23730469 .43008424C.23470052 .42778526 .23339844 .42400614 .23339844 .41874696 .23339844 .41382347 .23421224 .4087321 .23583985 .4034729 .2368164 .40117393 .2413737 .39230348 .24951172 .37686158L.28546144 .31011964 .30371095 .33691407C.3297526 .3728943 .34277345 .39808146 .34277345 .4124756 .34277345 .41934205 .33992515 .42514549 .33422853 .42988587 .3285319 .43462626 .31835938 .43781535 .30371095 .43945313V.45703126H.46533204V.43945313C.44547526 .4388021 .42692057 .43265788 .40966798 .4210205 .39241538 .40938316 .37304688 .38684593 .3515625 .3534088L.301651 .2800598Z"/>
<path id="font_1_85" d="M.22314453 .45703126V.35351563C.25341798 .40071617 .2799479 .43204753 .30273438 .44750978 .32552085 .46297203 .3474935 .47070313 .36865235 .47070313 .3868815 .47070313 .40144859 .46506755 .41235353 .4537964 .42325846 .44252525 .42871095 .42660014 .42871095 .40602113 .42871095 .38412986 .42342124 .36713664 .4128418 .3550415 .40226237 .34295655 .3894857 .33691407 .37451173 .33691407 .35725913 .33691407 .34228517 .3424479 .32958985 .35351563 .31689454 .36458335 .30940757 .37076823 .3071289 .3720703 .3038737 .37402345 .30013023 .375 .29589845 .375 .28645835 .375 .2775065 .37141929 .26904298 .3642578 .25569663 .3531901 .24560547 .33740235 .23876953 .31689454 .22835286 .285319 .22314453 .25048829 .22314453 .21240235V.107421878L.22363281 .080078128C.22363281 .061523439 .22477214 .049641927 .22705078 .044433595 .23095703 .03564453 .23673503 .029215495 .24438477 .025146485 .25203453 .021077475 .26497398 .018554688 .28320313 .017578125V0H.036621095V.017578125C.056477865 .019205729 .0699056 .024658204 .0769043 .033935548 .08390299 .04321289 .087402347 .067708339 .087402347 .107421878V.36035157C.087402347 .386556 .08610026 .40325929 .083496097 .41046144 .08024088 .41963706 .075520839 .42635093 .06933594 .43060304 .06315104 .43486534 .052246095 .43781535 .036621095 .43945313V.45703126H.22314453Z"/>
<path id="font_1_74" d="M.32666017 .45117188H.48046876V.39746095H.3930664C.40901695 .3815104 .42008464 .36702476 .42626954 .3540039 .43408204 .33642579 .43798829 .31803385 .43798829 .29882813 .43798829 .26627604 .42895509 .23803711 .41088868 .21411133 .39282228 .19018555 .36824546 .1714681 .3371582 .15795899 .30607096 .14444988 .27848307 .13769531 .25439454 .13769531 .2524414 .13769531 .23291016 .13850911 .19580078 .14013672 .18115235 .14013672 .16886394 .13536072 .15893555 .12580872 .14900716 .116256717 .14404297 .10484823 .14404297 .09158325 .14404297 .07992554 .14851888 .070373538 .1574707 .062927249 .16642253 .055480958 .18098958 .051757814 .20117188 .051757814L.28564454 .052734376C.3540039 .052734376 .40104167 .045232137 .4267578 .030227662 .46354167 .0093638109 .4819336-.022755942 .4819336-.06613159 .4819336-.09385172 .47347007-.11904398 .45654298-.14170838 .43961589-.16437276 .41731773-.18108623 .38964845-.19184876 .34765626-.20782979 .2993164-.21582031 .2446289-.21582031 .20361328-.21582031 .16617839-.21183269 .13232422-.20385742 .098470058-.19588216 .07421875-.18480937 .059570314-.17063904 .044921876-.15647888 .037597658-.14158122 .037597658-.12594605 .037597658-.110972087 .04321289-.09753927 .05444336-.08564758 .06567383-.073766078 .08658854-.06375631 .1171875-.055618287 .07486979-.034784955 .053710939-.005818685 .053710939 .031280519 .053710939 .053741456 .06233724 .075546268 .079589847 .09669495 .096842449 .1178538 .124186199 .13624573 .1616211 .15187073 .118001308 .1678416 .08642578 .18886821 .06689453 .21495056 .04736328 .24103292 .037597658 .27118937 .037597658 .30541993 .037597658 .3500773 .055826826 .38878886 .092285159 .42155458 .12874349 .45432029 .17561849 .47070313 .23291016 .47070313 .2631836 .47070313 .2944336 .46419273 .32666017 .45117188M.2421875 .43945313C.2233073 .43945313 .20735677 .4299469 .19433594 .41093446 .18131511 .39193217 .17480469 .35253398 .17480469 .29273988 .17480469 .24432881 .18123372 .21110535 .1940918 .19306946 .20694988 .17503357 .22216797 .16601563 .2397461 .16601563 .25927735 .16601563 .27555339 .1749522 .28857423 .19282532 .30159507 .21069844 .30810548 .24546814 .30810548 .2971344 .30810548 .35529075 .30078126 .39493308 .2861328 .4160614 .27571617 .43165589 .26106773 .43945313 .2421875 .43945313M.2133789-.06738281C.18017578-.06738281 .15820313-.070139568 .14746094-.075653079 .12890625-.08569336 .119628909-.0993042 .119628909-.116485599 .119628909-.13301595 .12923177-.14800518 .1484375-.16145325 .16764324-.1749115 .20377605-.18164063 .25683595-.18164063 .30208335-.18164063 .33764649-.17564392 .3635254-.16365052 .3894043-.1516571 .40234376-.13480123 .40234376-.113082889 .40234376-.10498556 .39990235-.09818014 .39501954-.092666629 .38623048-.08294169 .37296549-.076293949 .3552246-.07272339 .33748374-.069163 .2902018-.06738281 .2133789-.06738281Z"/>
<path id="font_2_89" d="M.008300781 .44726563H.21875V.42919923H.20507813C.19238281 .42919923 .18269857 .42610679 .17602539 .41992188 .16935222 .41373698 .16601563 .4054362 .16601563 .39501954 .16601563 .3836263 .1694336 .3701172 .17626953 .3544922L.28027345 .107421878 .38476563 .36376954C.3922526 .3819987 .3959961 .39583335 .3959961 .40527345 .3959961 .40983073 .394694 .41357423 .39208985 .4165039 .38850913 .42138673 .3839518 .4247233 .37841798 .42651368 .37288413 .42830406 .36165367 .42919923 .34472657 .42919923V.44726563H.49072267V.42919923C.47379557 .42789714 .4620768 .42447917 .4555664 .4189453 .4441732 .4091797 .43391929 .39290367 .4248047 .3701172L.26611329-.013671875H.24609375L.08642578 .36376954C.07926432 .38134767 .07242838 .39396159 .06591797 .40161134 .05940755 .40926109 .05110677 .4156901 .041015626 .42089845 .03548177 .42382813 .024576823 .42659507 .008300781 .42919923V.44726563Z"/>
<path id="font_1_88" d="M.47460938 .45703126V.099609378C.47460938 .064565028 .4778646 .042704267 .484375 .0340271 .4908854 .025349936 .50406906 .019866944 .5239258 .017578125V0H.33789063V.061035158C.31608073 .03499349 .29427085 .0160319 .27246095 .0041503908 .25065104-.0077311198 .22623699-.013671875 .19921875-.013671875 .17350261-.013671875 .15063477-.0057779948 .13061524 .010009766 .1105957 .025797526 .09716797 .044270833 .09033203 .06542969 .083496097 .08658854 .080078128 .123535159 .080078128 .17626953V.35742188C.080078128 .39234416 .0769043 .41408793 .07055664 .4226532 .064208988 .43121849 .05094401 .43681846 .030761719 .43945313V.45703126H.21679688V.14463806C.21679688 .11204529 .2183431 .091023769 .22143555 .08157349 .224528 .07212321 .22941081 .06495158 .23608399 .060058595 .24275716 .05517578 .25048829 .052734376 .25927735 .052734376 .2709961 .052734376 .28157554 .055826826 .29101563 .06201172 .30403648 .07047526 .31966148 .0875651 .33789063 .11328125V.35742188C.33789063 .39234416 .3347168 .41408793 .32836915 .4226532 .32202149 .43121849 .3087565 .43681846 .28857423 .43945313V.45703126H.47460938Z"/>
<path id="font_1_89" d="M.2397461-.013671875 .0859375 .34054566C.06738281 .38352458 .052897138 .41075135 .04248047 .42222596 .03499349 .4307607 .023925782 .43650309 .009277344 .43945313V.45703126H.25195313V.43945313C.23665364 .43945313 .22623699 .43667094 .22070313 .43110658 .21289063 .42389427 .20898438 .41537986 .20898438 .40556336 .20898438 .39344789 .21614583 .37068687 .23046875 .33728028L.30566407 .16571045 .36572267 .31381227C.38297526 .3563436 .39160157 .3864441 .39160157 .40411378 .39160157 .41425578 .38793946 .42251588 .38061524 .42889405 .37329103 .43528239 .36035157 .4388021 .34179688 .43945313V.45703126H.49121095V.43945313C.47688804 .43748985 .46516929 .4320933 .4560547 .42326356 .4469401 .4144338 .43326823 .3884379 .41503907 .34527589L.2626953-.013671875H.2397461Z"/>
<path id="font_2_71" d="M.34716798 .05029297C.32535807 .02750651 .30403648 .011149089 .28320313 .0012207031 .26236979-.008707683 .23990886-.013671875 .21582031-.013671875 .16699219-.013671875 .12434896 .006708781 .087890628 .047470094 .051432294 .08824158 .033203126 .14063008 .033203126 .20463562 .033203126 .26863099 .053385419 .32718406 .09375 .3802948 .13411458 .43340556 .18603516 .45996095 .24951172 .45996095 .28889976 .45996095 .3214518 .44742839 .34716798 .42236329V.5050659C.34716798 .5563863 .34594728 .58793136 .34350587 .5997009 .34106446 .6114705 .3372396 .6194763 .33203126 .62371829 .3268229 .6279704 .3203125 .63009646 .3125 .63009646 .30403648 .63009646 .292806 .6274821 .2788086 .6222534L.27246095 .63941958 .40576173 .69433596H.42773438V.1772461C.42773438 .12483724 .42895509 .09285482 .43139649 .08129883 .4338379 .069742839 .43774415 .0616862 .44311524 .057128908 .44848634 .052571615 .4547526 .05029297 .46191407 .05029297 .47070313 .05029297 .48242188 .053059896 .4970703 .05859375L.5024414 .041503908 .3696289-.013671875H.34716798V.05029297M.34716798 .084365848V.31425477C.34521485 .33633933 .33935548 .35647074 .32958985 .37464906 .31982423 .39283753 .30688478 .40655519 .29077149 .415802 .2746582 .425059 .2589518 .4296875 .24365235 .4296875 .21500652 .4296875 .18945313 .41685996 .16699219 .39120484 .1373698 .35744224 .122558597 .3080902 .122558597 .2431488 .122558597 .17755635 .13688152 .12730408 .16552735 .09239197 .19417317 .057490034 .22607422 .040039064 .26123048 .040039064 .29085288 .040039064 .3194987 .054814657 .34716798 .084365848Z"/>
<path id="font_2_20" d="M.1171875 .59716799 .2783203 .67578127H.2944336V.11669922C.2944336 .079589847 .29597984 .056477865 .29907228 .04736328 .3021647 .0382487 .30859376 .03125 .31835938 .026367188 .328125 .021484375 .34798179 .018717448 .3779297 .018066407V0H.12890625V.018066407C.16015625 .018717448 .18033855 .021402995 .18945313 .026123047 .1985677 .0308431 .20491536 .037190755 .2084961 .045166017 .21207683 .053141279 .21386719 .07698568 .21386719 .11669922V.4741211C.21386719 .52229818 .21223958 .55322268 .20898438 .56689456 .20670574 .5773112 .20255535 .58496096 .1965332 .58984377 .19051107 .59472659 .18326824 .59716799 .17480469 .59716799 .16276042 .59716799 .1459961 .5921224 .12451172 .58203127L.1171875 .59716799Z"/>
<path id="font_2_29" d="M.14111328 .45996095C.15608724 .45996095 .16886394 .45467124 .17944336 .4440918 .19002278 .43351237 .1953125 .4207357 .1953125 .40576173 .1953125 .39078776 .19002278 .37801109 .17944336 .36743165 .16886394 .3568522 .15608724 .3515625 .14111328 .3515625 .12613933 .3515625 .11336263 .3568522 .1027832 .36743165 .09220377 .37801109 .08691406 .39078776 .08691406 .40576173 .08691406 .4207357 .09220377 .43351237 .1027832 .4440918 .11336263 .45467124 .12613933 .45996095 .14111328 .45996095M.14013672 .095214847C.1554362 .095214847 .16837566 .08984375 .17895508 .07910156 .1895345 .068359378 .19482422 .0555013 .19482422 .040527345 .19482422 .025553385 .18945313 .012776692 .17871094 .0021972657 .16796875-.008382161 .15511067-.013671875 .14013672-.013671875 .12516277-.013671875 .11238607-.008382161 .10180664 .0021972657 .09122721 .012776692 .0859375 .025553385 .0859375 .040527345 .0859375 .0555013 .09122721 .068359378 .10180664 .07910156 .11238607 .08984375 .12516277 .095214847 .14013672 .095214847Z"/>
<path id="font_2_49" d="M-.013183594 .6621094H.1665039L.57128909 .16552735V.5473633C.57128909 .5880534 .56673178 .61344406 .5576172 .62353518 .54557296 .63720706 .52652999 .64404299 .5004883 .64404299H.47753907V.6621094H.7080078V.64404299H.6845703C.6565755 .64404299 .63671877 .6355794 .625 .61865237 .61783859 .60823568 .6142578 .58447268 .6142578 .5473633V-.0107421879H.5966797L.16015625 .52246096V.114746097C.16015625 .07405599 .16455078 .048665365 .17333985 .03857422 .18570964 .024902344 .20475261 .018066407 .23046875 .018066407H.25390626V0H.0234375V.018066407H.04638672C.07470703 .018066407 .09472656 .026529948 .10644531 .04345703 .11360677 .0538737 .1171875 .07763672 .1171875 .114746097V.5751953C.09798177 .59765627 .08341471 .61246749 .07348633 .6196289 .063557948 .62679037 .048990888 .63346359 .029785157 .63964846 .020345053 .6425781 .0060221354 .64404299-.013183594 .64404299V.6621094Z"/>
</defs>
<path transform="matrix(1,0,0,-1,62.561,21.020009)" d="M52.70853 15.15488H-52.70853C-54.90947 15.15488-56.69363 13.37071-56.69363 11.16977V-11.16977C-56.69363-13.37071-54.90947-15.15488-52.70853-15.15488H52.70853C54.90947-15.15488 56.69363-13.37071 56.69363-11.16977V11.16977C56.69363 13.37071 54.90947 15.15488 52.70853 15.15488ZM-56.69363-15.15488" fill="#e6e6ff"/>
<path transform="matrix(1,0,0,-1,62.561,21.020009)" stroke-width=".3985" stroke-linecap="butt" stroke-miterlimit="10" stroke-linejoin="miter" fill="none" stroke="#000000" d="M52.70853 15.15488H-52.70853C-54.90947 15.15488-56.69363 13.37071-56.69363 11.16977V-11.16977C-56.69363-13.37071-54.90947-15.15488-52.70853-15.15488H52.70853C54.90947-15.15488 56.69363-13.37071 56.69363-11.16977V11.16977C56.69363 13.37071 54.90947 15.15488 52.70853 15.15488ZM-56.69363-15.15488"/>
<use data-text="c" xlink:href="#font_1_70" transform="matrix(8.9664,0,0,-8.9664,48.614999,17.611012)"/>
<use data-text="a" xlink:href="#font_1_68" transform="matrix(8.9664,0,0,-8.9664,52.59608,17.611012)"/>
<use data-text="i" xlink:href="#font_1_76" transform="matrix(8.9664,0,0,-8.9664,57.07928,17.611012)"/>
<use data-text="_" xlink:href="#font_1_66" transform="matrix(8.9664,0,0,-8.9664,59.57194,17.611012)"/>
<use data-text="d" xlink:href="#font_1_71" transform="matrix(8.9664,0,0,-8.9664,64.055149,17.611012)"/>
<use data-text="a" xlink:href="#font_1_68" transform="matrix(8.9664,0,0,-8.9664,69.04046,17.611012)"/>
<use data-text="t" xlink:href="#font_1_87" transform="matrix(8.9664,0,0,-8.9664,73.52367,17.611012)"/>
<use data-text="k" xlink:href="#font_2_78" transform="matrix(8.9664,0,0,-8.9664,29.167,28.570012)"/>
<use data-text="h" xlink:href="#font_2_75" transform="matrix(8.9664,0,0,-8.9664,33.6502,28.570012)"/>
<use data-text="o" xlink:href="#font_2_82" transform="matrix(8.9664,0,0,-8.9664,38.1334,28.570012)"/>
<use data-text="a" xlink:href="#font_2_68" transform="matrix(8.9664,0,0,-8.9664,42.6166,28.570012)"/>
<use data-text="(" xlink:href="#font_2_11" transform="matrix(8.9664,0,0,-8.9664,48.83928,28.570012)"/>
<use data-text="P" xlink:href="#font_2_51" transform="matrix(8.9664,0,0,-8.9664,51.825094,28.570012)"/>
<use data-text="K" xlink:href="#font_2_46" transform="matrix(8.9664,0,0,-8.9664,56.81041,28.570012)"/>
<use data-text=")" xlink:href="#font_2_12" transform="matrix(8.9664,0,0,-8.9664,63.284154,28.570012)"/>
<use data-text="|" xlink:href="#font_2_95" transform="matrix(8.9664,0,0,-8.9664,68.511569,28.570012)"/>
<use data-text="g" xlink:href="#font_2_74" transform="matrix(8.9664,0,0,-8.9664,72.54645,28.570012)"/>
<use data-text="i" xlink:href="#font_2_76" transform="matrix(8.9664,0,0,-8.9664,77.02965,28.570012)"/>
<use data-text="a" xlink:href="#font_2_68" transform="matrix(8.9664,0,0,-8.9664,79.52231,28.570012)"/>
<use data-text="_" xlink:href="#font_2_66" transform="matrix(8.9664,0,0,-8.9664,83.50339,28.570012)"/>
<use data-text="t" xlink:href="#font_2_87" transform="matrix(8.9664,0,0,-8.9664,87.98659,28.570012)"/>
<use data-text="r" xlink:href="#font_2_85" transform="matrix(8.9664,0,0,-8.9664,90.47925,28.570012)"/>
<use data-text="i" xlink:href="#font_2_76" transform="matrix(8.9664,0,0,-8.9664,93.46506,28.570012)"/>
<path transform="matrix(1,0,0,-1,62.561,21.020009)" d="M227.96985 15.15488H112.19185C109.9909 15.15488 108.20674 13.37071 108.20674 11.16977V-11.16977C108.20674-13.37071 109.9909-15.15488 112.19185-15.15488H227.96985C230.17079-15.15488 231.95496-13.37071 231.95496-11.16977V11.16977C231.95496 13.37071 230.17079 15.15488 227.96985 15.15488ZM108.20674-15.15488" fill="#e6ffe6"/>
<path transform="matrix(1,0,0,-1,62.561,21.020009)" stroke-width=".3985" stroke-linecap="butt" stroke-miterlimit="10" stroke-linejoin="miter" fill="none" stroke="#000000" d="M227.96985 15.15488H112.19185C109.9909 15.15488 108.20674 13.37071 108.20674 11.16977V-11.16977C108.20674-13.37071 109.9909-15.15488 112.19185-15.15488H227.96985C230.17079-15.15488 231.95496-13.37071 231.95496-11.16977V11.16977C231.95496 13.37071 230.17079 15.15488 227.96985 15.15488ZM108.20674-15.15488"/>
<use data-text="b" xlink:href="#font_1_69" transform="matrix(8.9664,0,0,-8.9664,203.24501,17.611012)"/>
<use data-text="i" xlink:href="#font_1_76" transform="matrix(8.9664,0,0,-8.9664,208.23033,17.611012)"/>
<use data-text="e" xlink:href="#font_1_72" transform="matrix(8.9664,0,0,-8.9664,210.72299,17.611012)"/>
<use data-text="n" xlink:href="#font_1_81" transform="matrix(8.9664,0,0,-8.9664,214.70407,17.611012)"/>
<use data-text="_" xlink:href="#font_1_66" transform="matrix(8.9664,0,0,-8.9664,219.68939,17.611012)"/>
<use data-text="s" xlink:href="#font_1_86" transform="matrix(8.9664,0,0,-8.9664,224.17258,17.611012)"/>
<use data-text="o" xlink:href="#font_1_82" transform="matrix(8.9664,0,0,-8.9664,227.66053,17.611012)"/>
<use data-text="_" xlink:href="#font_1_66" transform="matrix(8.9664,0,0,-8.9664,232.1437,17.611012)"/>
<use data-text="h" xlink:href="#font_1_75" transform="matrix(8.9664,0,0,-8.9664,236.62693,17.611012)"/>
<use data-text="o" xlink:href="#font_1_82" transform="matrix(8.9664,0,0,-8.9664,241.61225,17.611012)"/>
<use data-text="p" xlink:href="#font_1_83" transform="matrix(8.9664,0,0,-8.9664,246.09543,17.611012)"/>
<use data-text="_" xlink:href="#font_1_66" transform="matrix(8.9664,0,0,-8.9664,251.08075,17.611012)"/>
<use data-text="l" xlink:href="#font_1_79" transform="matrix(8.9664,0,0,-8.9664,255.56397,17.611012)"/>
<use data-text="e" xlink:href="#font_1_72" transform="matrix(8.9664,0,0,-8.9664,258.0566,17.611012)"/>
<use data-text="b" xlink:href="#font_2_69" transform="matrix(8.9664,0,0,-8.9664,176.43701,28.570012)"/>
<use data-text="i" xlink:href="#font_2_76" transform="matrix(8.9664,0,0,-8.9664,180.92021,28.570012)"/>
<use data-text="e" xlink:href="#font_2_72" transform="matrix(8.9664,0,0,-8.9664,183.41287,28.570012)"/>
<use data-text="n" xlink:href="#font_2_81" transform="matrix(8.9664,0,0,-8.9664,187.39395,28.570012)"/>
<use data-text="_" xlink:href="#font_2_66" transform="matrix(8.9664,0,0,-8.9664,191.87715,28.570012)"/>
<use data-text="s" xlink:href="#font_2_86" transform="matrix(8.9664,0,0,-8.9664,196.36035,28.570012)"/>
<use data-text="o" xlink:href="#font_2_82" transform="matrix(8.9664,0,0,-8.9664,199.84828,28.570012)"/>
<use data-text="(" xlink:href="#font_2_11" transform="matrix(8.9664,0,0,-8.9664,206.57308,28.570012)"/>
<use data-text="P" xlink:href="#font_2_51" transform="matrix(8.9664,0,0,-8.9664,209.55889,28.570012)"/>
<use data-text="K" xlink:href="#font_2_46" transform="matrix(8.9664,0,0,-8.9664,214.5442,28.570012)"/>
<use data-text=")" xlink:href="#font_2_12" transform="matrix(8.9664,0,0,-8.9664,221.01795,28.570012)"/>
<use data-text="|" xlink:href="#font_2_95" transform="matrix(8.9664,0,0,-8.9664,226.24536,28.570012)"/>
<use data-text="c" xlink:href="#font_2_70" transform="matrix(8.9664,0,0,-8.9664,230.28025,28.570012)"/>
<use data-text="h" xlink:href="#font_2_75" transform="matrix(8.9664,0,0,-8.9664,234.26132,28.570012)"/>
<use data-text="u" xlink:href="#font_2_88" transform="matrix(8.9664,0,0,-8.9664,238.74452,28.570012)"/>
<use data-text="_" xlink:href="#font_2_66" transform="matrix(8.9664,0,0,-8.9664,243.22772,28.570012)"/>
<use data-text="x" xlink:href="#font_2_91" transform="matrix(8.9664,0,0,-8.9664,247.71092,28.570012)"/>
<use data-text="e" xlink:href="#font_2_72" transform="matrix(8.9664,0,0,-8.9664,252.19412,28.570012)"/>
<use data-text="|" xlink:href="#font_2_95" transform="matrix(8.9664,0,0,-8.9664,258.4168,28.570012)"/>
<use data-text="t" xlink:href="#font_2_87" transform="matrix(8.9664,0,0,-8.9664,262.4517,28.570012)"/>
<use data-text="a" xlink:href="#font_2_68" transform="matrix(8.9664,0,0,-8.9664,264.94435,28.570012)"/>
<use data-text="o" xlink:href="#font_2_82" transform="matrix(8.9664,0,0,-8.9664,268.9254,28.570012)"/>
<use data-text="_" xlink:href="#font_2_66" transform="matrix(8.9664,0,0,-8.9664,273.40864,28.570012)"/>
<use data-text="l" xlink:href="#font_2_79" transform="matrix(8.9664,0,0,-8.9664,277.8918,28.570012)"/>
<use data-text="u" xlink:href="#font_2_88" transform="matrix(8.9664,0,0,-8.9664,280.3845,28.570012)"/>
<use data-text="c" xlink:href="#font_2_70" transform="matrix(8.9664,0,0,-8.9664,284.86769,28.570012)"/>
<path transform="matrix(1,0,0,-1,62.561,21.020009)" d="M52.70853-55.71213H-52.70853C-54.90947-55.71213-56.69363-57.49629-56.69363-59.69724V-82.03679C-56.69363-84.23773-54.90947-86.0219-52.70853-86.0219H52.70853C54.90947-86.0219 56.69363-84.23773 56.69363-82.03679V-59.69724C56.69363-57.49629 54.90947-55.71213 52.70853-55.71213ZM-56.69363-86.0219" fill="#fff2e6"/>
<path transform="matrix(1,0,0,-1,62.561,21.020009)" stroke-width=".3985" stroke-linecap="butt" stroke-miterlimit="10" stroke-linejoin="miter" fill="none" stroke="#000000" d="M52.70853-55.71213H-52.70853C-54.90947-55.71213-56.69363-57.49629-56.69363-59.69724V-82.03679C-56.69363-84.23773-54.90947-86.0219-52.70853-86.0219H52.70853C54.90947-86.0219 56.69363-84.23773 56.69363-82.03679V-59.69724C56.69363-57.49629 54.90947-55.71213 52.70853-55.71213ZM-56.69363-86.0219"/>
<use data-text="x" xlink:href="#font_1_91" transform="matrix(8.9664,0,0,-8.9664,37.488,88.478)"/>
<use data-text="e" xlink:href="#font_1_72" transform="matrix(8.9664,0,0,-8.9664,41.9712,88.478)"/>
<use data-text="_" xlink:href="#font_1_66" transform="matrix(8.9664,0,0,-8.9664,45.952283,88.478)"/>
<use data-text="t" xlink:href="#font_1_87" transform="matrix(8.9664,0,0,-8.9664,50.435483,88.478)"/>
<use data-text="r" xlink:href="#font_1_85" transform="matrix(8.9664,0,0,-8.9664,53.421297,88.478)"/>
<use data-text="o" xlink:href="#font_1_82" transform="matrix(8.9664,0,0,-8.9664,57.24098,88.478)"/>
<use data-text="n" xlink:href="#font_1_81" transform="matrix(8.9664,0,0,-8.9664,61.72418,88.478)"/>
<use data-text="g" xlink:href="#font_1_74" transform="matrix(8.9664,0,0,-8.9664,66.7095,88.478)"/>
<use data-text="_" xlink:href="#font_1_66" transform="matrix(8.9664,0,0,-8.9664,71.1927,88.478)"/>
<use data-text="b" xlink:href="#font_1_69" transform="matrix(8.9664,0,0,-8.9664,75.6759,88.478)"/>
<use data-text="a" xlink:href="#font_1_68" transform="matrix(8.9664,0,0,-8.9664,80.661228,88.478)"/>
<use data-text="i" xlink:href="#font_1_76" transform="matrix(8.9664,0,0,-8.9664,85.144428,88.478)"/>
<use data-text="b" xlink:href="#font_2_69" transform="matrix(8.9664,0,0,-8.9664,21.446,99.437)"/>
<use data-text="i" xlink:href="#font_2_76" transform="matrix(8.9664,0,0,-8.9664,25.9292,99.437)"/>
<use data-text="e" xlink:href="#font_2_72" transform="matrix(8.9664,0,0,-8.9664,28.42186,99.437)"/>
<use data-text="n" xlink:href="#font_2_81" transform="matrix(8.9664,0,0,-8.9664,32.40294,99.437)"/>
<use data-text="_" xlink:href="#font_2_66" transform="matrix(8.9664,0,0,-8.9664,36.88614,99.437)"/>
<use data-text="s" xlink:href="#font_2_86" transform="matrix(8.9664,0,0,-8.9664,41.36934,99.437)"/>
<use data-text="o" xlink:href="#font_2_82" transform="matrix(8.9664,0,0,-8.9664,44.85727,99.437)"/>
<use data-text="(" xlink:href="#font_2_11" transform="matrix(8.9664,0,0,-8.9664,51.58207,99.437)"/>
<use data-text="P" xlink:href="#font_2_51" transform="matrix(8.9664,0,0,-8.9664,54.567884,99.437)"/>
<use data-text="K" xlink:href="#font_2_46" transform="matrix(8.9664,0,0,-8.9664,59.5532,99.437)"/>
<use data-text=")" xlink:href="#font_2_12" transform="matrix(8.9664,0,0,-8.9664,66.02695,99.437)"/>
<use data-text="|" xlink:href="#font_2_95" transform="matrix(8.9664,0,0,-8.9664,71.25435,99.437)"/>
<use data-text="v" xlink:href="#font_2_89" transform="matrix(8.9664,0,0,-8.9664,75.28923,99.437)"/>
<use data-text="a" xlink:href="#font_2_68" transform="matrix(8.9664,0,0,-8.9664,79.77243,99.437)"/>
<use data-text="o" xlink:href="#font_2_82" transform="matrix(8.9664,0,0,-8.9664,83.75352,99.437)"/>
<use data-text="_" xlink:href="#font_2_66" transform="matrix(8.9664,0,0,-8.9664,88.23672,99.437)"/>
<use data-text="l" xlink:href="#font_2_79" transform="matrix(8.9664,0,0,-8.9664,92.71992,99.437)"/>
<use data-text="u" xlink:href="#font_2_88" transform="matrix(8.9664,0,0,-8.9664,95.21257,99.437)"/>
<use data-text="c" xlink:href="#font_2_70" transform="matrix(8.9664,0,0,-8.9664,99.69577,99.437)"/>
<path transform="matrix(1,0,0,-1,62.561,21.020009)" d="M239.33557-55.71213H100.82613C98.62518-55.71213 96.84102-57.49629 96.84102-59.69724V-82.03679C96.84102-84.23773 98.62518-86.0219 100.82613-86.0219H239.33557C241.53652-86.0219 243.32068-84.23773 243.32068-82.03679V-59.69724C243.32068-57.49629 241.53652-55.71213 239.33557-55.71213ZM96.84102-86.0219" fill="#f9e6ec"/>
<path transform="matrix(1,0,0,-1,62.561,21.020009)" stroke-width=".3985" stroke-linecap="butt" stroke-miterlimit="10" stroke-linejoin="miter" fill="none" stroke="#000000" d="M239.33557-55.71213H100.82613C98.62518-55.71213 96.84102-57.49629 96.84102-59.69724V-82.03679C96.84102-84.23773 98.62518-86.0219 100.82613-86.0219H239.33557C241.53652-86.0219 243.32068-84.23773 243.32068-82.03679V-59.69724C243.32068-57.49629 241.53652-55.71213 239.33557-55.71213ZM96.84102-86.0219"/>
<use data-text="l" xlink:href="#font_1_79" transform="matrix(8.9664,0,0,-8.9664,203.74802,88.478)"/>
<use data-text="i" xlink:href="#font_1_76" transform="matrix(8.9664,0,0,-8.9664,206.24066,88.478)"/>
<use data-text="c" xlink:href="#font_1_70" transform="matrix(8.9664,0,0,-8.9664,208.73334,88.478)"/>
<use data-text="h" xlink:href="#font_1_75" transform="matrix(8.9664,0,0,-8.9664,212.71442,88.478)"/>
<use data-text="_" xlink:href="#font_1_66" transform="matrix(8.9664,0,0,-8.9664,217.69974,88.478)"/>
<use data-text="s" xlink:href="#font_1_86" transform="matrix(8.9664,0,0,-8.9664,222.18292,88.478)"/>
<use data-text="u" xlink:href="#font_1_88" transform="matrix(8.9664,0,0,-8.9664,225.67087,88.478)"/>
<use data-text="_" xlink:href="#font_1_66" transform="matrix(8.9664,0,0,-8.9664,230.65619,88.478)"/>
<use data-text="r" xlink:href="#font_1_85" transform="matrix(8.9664,0,0,-8.9664,235.13938,88.478)"/>
<use data-text="a" xlink:href="#font_1_68" transform="matrix(8.9664,0,0,-8.9664,239.12046,88.478)"/>
<use data-text="_" xlink:href="#font_1_66" transform="matrix(8.9664,0,0,-8.9664,243.60367,88.478)"/>
<use data-text="v" xlink:href="#font_1_89" transform="matrix(8.9664,0,0,-8.9664,248.08686,88.478)"/>
<use data-text="a" xlink:href="#font_1_68" transform="matrix(8.9664,0,0,-8.9664,252.57007,88.478)"/>
<use data-text="o" xlink:href="#font_1_82" transform="matrix(8.9664,0,0,-8.9664,257.05326,88.478)"/>
<use data-text="i" xlink:href="#font_2_76" transform="matrix(8.9664,0,0,-8.9664,165.07102,99.437)"/>
<use data-text="d" xlink:href="#font_2_71" transform="matrix(8.9664,0,0,-8.9664,167.56368,99.437)"/>
<use data-text="(" xlink:href="#font_2_11" transform="matrix(8.9664,0,0,-8.9664,174.28847,99.437)"/>
<use data-text="P" xlink:href="#font_2_51" transform="matrix(8.9664,0,0,-8.9664,177.27428,99.437)"/>
<use data-text="K" xlink:href="#font_2_46" transform="matrix(8.9664,0,0,-8.9664,182.2596,99.437)"/>
<use data-text=")" xlink:href="#font_2_12" transform="matrix(8.9664,0,0,-8.9664,188.73334,99.437)"/>
<use data-text="|" xlink:href="#font_2_95" transform="matrix(8.9664,0,0,-8.9664,193.96076,99.437)"/>
<use data-text="b" xlink:href="#font_2_69" transform="matrix(8.9664,0,0,-8.9664,197.99564,99.437)"/>
<use data-text="i" xlink:href="#font_2_76" transform="matrix(8.9664,0,0,-8.9664,202.47884,99.437)"/>
<use data-text="e" xlink:href="#font_2_72" transform="matrix(8.9664,0,0,-8.9664,204.9715,99.437)"/>
<use data-text="n" xlink:href="#font_2_81" transform="matrix(8.9664,0,0,-8.9664,208.95258,99.437)"/>
<use data-text="_" xlink:href="#font_2_66" transform="matrix(8.9664,0,0,-8.9664,213.43578,99.437)"/>
<use data-text="s" xlink:href="#font_2_86" transform="matrix(8.9664,0,0,-8.9664,217.91898,99.437)"/>
<use data-text="o" xlink:href="#font_2_82" transform="matrix(8.9664,0,0,-8.9664,221.4069,99.437)"/>
<use data-text="|" xlink:href="#font_2_95" transform="matrix(8.9664,0,0,-8.9664,228.13172,99.437)"/>
<use data-text="s" xlink:href="#font_2_86" transform="matrix(8.9664,0,0,-8.9664,232.1666,99.437)"/>
<use data-text="u" xlink:href="#font_2_88" transform="matrix(8.9664,0,0,-8.9664,235.65451,99.437)"/>
<use data-text="_" xlink:href="#font_2_66" transform="matrix(8.9664,0,0,-8.9664,240.13773,99.437)"/>
<use data-text="k" xlink:href="#font_2_78" transform="matrix(8.9664,0,0,-8.9664,244.62091,99.437)"/>
<use data-text="i" xlink:href="#font_2_76" transform="matrix(8.9664,0,0,-8.9664,249.10413,99.437)"/>
<use data-text="e" xlink:href="#font_2_72" transform="matrix(8.9664,0,0,-8.9664,251.59677,99.437)"/>
<use data-text="n" xlink:href="#font_2_81" transform="matrix(8.9664,0,0,-8.9664,255.57785,99.437)"/>
<use data-text="|" xlink:href="#font_2_95" transform="matrix(8.9664,0,0,-8.9664,262.30268,99.437)"/>
<use data-text="t" xlink:href="#font_2_87" transform="matrix(8.9664,0,0,-8.9664,266.33753,99.437)"/>
<use data-text="h" xlink:href="#font_2_75" transform="matrix(8.9664,0,0,-8.9664,268.8302,99.437)"/>
<use data-text="o" xlink:href="#font_2_82" transform="matrix(8.9664,0,0,-8.9664,273.31343,99.437)"/>
<use data-text="i" xlink:href="#font_2_76" transform="matrix(8.9664,0,0,-8.9664,277.7966,99.437)"/>
<use data-text="_" xlink:href="#font_2_66" transform="matrix(8.9664,0,0,-8.9664,280.28926,99.437)"/>
<use data-text="g" xlink:href="#font_2_74" transform="matrix(8.9664,0,0,-8.9664,284.77247,99.437)"/>
<use data-text="i" xlink:href="#font_2_76" transform="matrix(8.9664,0,0,-8.9664,289.25569,99.437)"/>
<use data-text="a" xlink:href="#font_2_68" transform="matrix(8.9664,0,0,-8.9664,291.74833,99.437)"/>
<use data-text="n" xlink:href="#font_2_81" transform="matrix(8.9664,0,0,-8.9664,295.7294,99.437)"/>
<path transform="matrix(1,0,0,-1,62.561,21.020009)" stroke-width=".79701" stroke-linecap="butt" stroke-dasharray="2.98883,2.98883" stroke-miterlimit="10" stroke-linejoin="miter" fill="none" stroke="#000000" d="M170.08086-15.35413V-51.40251"/>
<path transform="matrix(0,1,1,0,232.64186,69.95744)" d="M5.44046 0 1.28699 1.5706 2.66432 0 1.28699-1.5706Z"/>
<path transform="matrix(0,1,1,0,232.64186,69.95744)" stroke-width=".79701" stroke-linecap="butt" stroke-miterlimit="10" stroke-linejoin="miter" fill="none" stroke="#000000" d="M5.44046 0 1.28699 1.5706 2.66432 0 1.28699-1.5706Z"/>
<use data-text="1" xlink:href="#font_2_20" transform="matrix(6.9738,0,0,-6.9738,236.36101,58.762014)"/>
<use data-text=":" xlink:href="#font_2_29" transform="matrix(6.9738,0,0,-6.9738,239.8479,58.762014)"/>
<use data-text="N" xlink:href="#font_2_49" transform="matrix(6.9738,0,0,-6.9738,241.78662,58.762014)"/>
<path transform="matrix(1,0,0,-1,62.561,21.020009)" stroke-width=".79701" stroke-linecap="butt" stroke-dasharray="2.98883,2.98883" stroke-miterlimit="10" stroke-linejoin="miter" fill="none" stroke="#000000" d="M133.23244-15.35413 40.63052-53.9323"/>
<path transform="matrix(-.92305,.38454,.38454,.92305,105.4669,74.004398)" d="M5.44046 0 1.28699 1.5706 2.66432 0 1.28699-1.5706Z"/>
<path transform="matrix(-.92305,.38454,.38454,.92305,105.4669,74.004398)" stroke-width=".79701" stroke-linecap="butt" stroke-miterlimit="10" stroke-linejoin="miter" fill="none" stroke="#000000" d="M5.44046 0 1.28699 1.5706 2.66432 0 1.28699-1.5706Z"/>
<use data-text="1" xlink:href="#font_2_20" transform="matrix(6.9738,0,0,-6.9738,142.365,52.63901)"/>
<use data-text=":" xlink:href="#font_2_29" transform="matrix(6.9738,0,0,-6.9738,145.8519,52.63901)"/>
<use data-text="N" xlink:href="#font_2_49" transform="matrix(6.9738,0,0,-6.9738,147.79062,52.63901)"/>
</svg>
