<svg xmlns="http://www.w3.org/2000/svg" xmlns:xlink="http://www.w3.org/1999/xlink" xmlns:inkscape="http://www.inkscape.org/namespaces/inkscape" version="1.1" width="367.89" height="187.89" viewBox="0 0 367.89 187.89">
<defs>
<path id="font_1_74" d="M.1508789 .16297913C.123535159 .17630513 .10253906 .19491577 .087890628 .21881104 .07324219 .2427063 .06591797 .26912437 .06591797 .2980652 .06591797 .342275 .082600917 .38031007 .1159668 .4121704 .14933269 .44403077 .1920573 .45996095 .24414063 .45996095 .28678385 .45996095 .32373048 .44954429 .35498048 .42871095H.44970704C.46370445 .42871095 .47184245 .4283091 .4741211 .4275055 .47639976 .42670188 .47802735 .42533366 .4790039 .42340089 .48095704 .4205017 .4819336 .41534934 .4819336 .40794374 .4819336 .3995819 .48111979 .39378868 .4794922 .39056397 .47851563 .3889567 .47680665 .3876699 .47436524 .3867035 .47192384 .3857371 .46370445 .3852539 .44970704 .3852539H.39160157C.40983073 .36176554 .4189453 .3317566 .4189453 .29522706 .4189453 .253479 .40299479 .21776326 .37109376 .18807984 .33919273 .15839641 .29638673 .14355469 .24267578 .14355469 .22054036 .14355469 .19791667 .14687602 .17480469 .15351868 .16048177 .14115906 .15079753 .13034058 .14575196 .12106323 .14070638 .11179606 .1381836 .10391235 .1381836 .09741211 .1381836 .09187826 .14086914 .086507167 .14624024 .08129883 .15161133 .07610067 .16210938 .07236227 .17773438 .07008362 .18684896 .06878153 .20963542 .06764221 .24609375 .06666565 .31315104 .06504822 .35660807 .06277466 .37646485 .05984497 .40673829 .0556132 .4309082 .044387819 .4489746 .026168824 .46704103 .007960002 .47607423-.014480591 .47607423-.041152955 .47607423-.07790629 .45882163-.11238607 .4243164-.14459229 .37353517-.19207764 .30729167-.21582031 .22558594-.21582031 .16276042-.21582031 .10970052-.2016805 .06640625-.17340088 .041992189-.15714519 .029785157-.14023845 .029785157-.122680667 .029785157-.11488851 .03157552-.10709127 .03515625-.09928894 .040690107-.087254848 .052083333-.070510867 .06933594-.049057008 .071614589-.046137494 .08821615-.028584799 .119140628 .0036010743 .10221354 .013702393 .09025065 .022745768 .08325195 .030731202 .07625326 .038716634 .072753909 .04776001 .072753909 .057861329 .072753909 .0692749 .07739258 .0826416 .08666992 .097961429 .095947269 .11328125 .11735026 .13495381 .1508789 .16297913M.23583985 .43554688C.2117513 .43554688 .19156902 .42599488 .17529297 .40689088 .15901692 .38779704 .1508789 .35850016 .1508789 .31900025 .1508789 .26784263 .16194661 .22818502 .18408203 .20002747 .20100911 .17865499 .22249349 .16796875 .24853516 .16796875 .27327476 .16796875 .29361979 .17719524 .3095703 .1956482 .32552085 .21410115 .3334961 .24307759 .3334961 .2825775 .3334961 .3340505 .32226563 .37435914 .2998047 .40350343 .28320313 .42486573 .2618815 .43554688 .23583985 .43554688M.1459961-.000289917C.13069661-.016860962 .119140628-.032292684 .111328128-.046585084 .103515628-.060887655 .099609378-.0740509 .099609378-.08607483 .099609378-.10166931 .10904948-.11531576 .12792969-.12701416 .16048177-.14715576 .20751953-.15722656 .26904298-.15722656 .32763673-.15722656 .3708496-.14690654 .39868165-.12626648 .42651368-.1056366 .4404297-.083628337 .4404297-.0602417 .4404297-.043345136 .4321289-.03132121 .41552735-.024169922 .39860026-.017018637 .36507163-.012797038 .3149414-.011505127 .24169922-.009552002 .18538411-.0058135988 .1459961-.000289917Z"/>
<path id="font_1_76" d="M.14501953 .69433596C.1586914 .69433596 .17032878 .6895091 .17993164 .67985537 .1895345 .6702118 .19433594 .6585185 .19433594 .6447754 .19433594 .6310323 .1895345 .6192525 .17993164 .60943606 .17032878 .5996297 .1586914 .59472659 .14501953 .59472659 .13134766 .59472659 .119628909 .5996297 .10986328 .60943606 .100097659 .6192525 .095214847 .6310323 .095214847 .6447754 .095214847 .6585185 .10001627 .6702118 .10961914 .67985537 .11922201 .6895091 .13102214 .69433596 .14501953 .69433596M.18554688 .45996095V.101379398C.18554688 .07344564 .18758138 .05485026 .19165039 .04559326 .1957194 .03633626 .20174153 .029434205 .2097168 .024887085 .21769206 .020339966 .23225911 .018066407 .25341798 .018066407V0H.036132814V.018066407C.057942708 .018066407 .07259115 .020177206 .080078128 .024398804 .0875651 .028620402 .09350586 .03560384 .09790039 .04534912 .10229492 .055094404 .10449219 .07377116 .10449219 .101379398V.2733612C.10449219 .32176209 .103027347 .35310365 .100097659 .36738587 .09781901 .3777822 .09423828 .38500978 .08935547 .3890686 .084472659 .39312745 .07779948 .39515687 .06933594 .39515687 .060221357 .39515687 .049153646 .39272056 .036132814 .3878479L.029296875 .4053955 .1640625 .45996095H.18554688Z"/>
<path id="font_1_68" d="M.28466798 .064453128C.23876953 .028971354 .20996094 .008463542 .19824219 .0029296876 .18066406-.005533854 .16194661-.009765625 .14208985-.009765625 .11116537-.009765625 .08569336 .00081380209 .06567383 .021972657 .045654298 .04313151 .03564453 .07096354 .03564453 .10546875 .03564453 .12727864 .040527345 .14615886 .05029297 .16210938 .06363932 .1842448 .08683268 .20507813 .11987305 .22460938 .1529134 .24414063 .20784505 .26790367 .28466798 .29589845V.31347657C.28466798 .3580729 .2775879 .38867188 .26342774 .40527345 .24926758 .421875 .22867839 .43017579 .20166016 .43017579 .18115235 .43017579 .1648763 .42466227 .15283203 .41363526 .14046224 .40260826 .13427735 .3899587 .13427735 .37568666L.1352539 .34747315C.1352539 .3325602 .13142903 .32105003 .1237793 .3129425 .116129558 .304835 .10611979 .30078126 .09375 .30078126 .08170573 .30078126 .07185873 .30499778 .064208988 .3134308 .056559247 .321874 .052734376 .33339945 .052734376 .3480072 .052734376 .37591044 .06705729 .4015452 .095703128 .4249115 .12434896 .4482778 .16455078 .45996095 .2163086 .45996095 .25602214 .45996095 .28857423 .45329795 .31396485 .43997193 .33317057 .42989097 .34733073 .41411845 .3564453 .39265443 .3623047 .37867738 .36523438 .35006715 .36523438 .30682374V.15515137C.36523438 .112559 .3660482 .08646647 .36767579 .07687378 .36930339 .06728109 .37198893 .060857137 .37573243 .05760193 .37947593 .05435689 .38378907 .052734376 .38867188 .052734376 .39388023 .052734376 .3984375 .0538737 .40234376 .056152345 .4091797 .060384115 .42236329 .072265628 .44189454 .091796878V.064453128C.4054362 .015625 .37060548-.0087890629 .33740235-.0087890629 .3214518-.0087890629 .3087565-.0032552083 .2993164 .0078125 .2898763 .018880209 .2849935 .037760419 .28466798 .064453128M.28466798 .096466068V.26611329C.23551433 .24667359 .20377605 .23289998 .18945313 .22479248 .16373699 .2105306 .14534505 .19562276 .13427735 .18006897 .12320963 .16451518 .11767578 .14750164 .11767578 .12902832 .11767578 .10569254 .12467448 .08632914 .13867188 .07093811 .15266927 .055547079 .16878255 .047851564 .18701172 .047851564 .2117513 .047851564 .24430339 .0640564 .28466798 .096466068Z"/>
<path id="font_1_82" d="M.25 .45996095C.31770835 .45996095 .3720703 .43427024 .41308595 .3828888 .44791667 .33899436 .46533204 .28858949 .46533204 .2316742 .46533204 .19167583 .45572917 .15118917 .43652345 .11021423 .41731773 .06924947 .39086915 .038360597 .35717774 .017547608 .32348634-.0032653809 .28597007-.013671875 .2446289-.013671875 .1772461-.013671875 .123697917 .013158162 .083984378 .06681824 .05045573 .11201477 .033691408 .16274007 .033691408 .21899414 .033691408 .2599691 .043863935 .30069987 .064208988 .34118653 .08455404 .3816732 .111328128 .41159059 .14453125 .43093873 .17773438 .45028688 .21289063 .45996095 .25 .45996095M.23486328 .42773438C.21761067 .42773438 .20027669 .42261253 .18286133 .41236878 .16544597 .40212504 .15136719 .38416038 .140625 .35847474 .12988281 .3327891 .12451172 .29978944 .12451172 .2594757 .12451172 .19445293 .13745117 .1383667 .16333008 .09121704 .18920899 .044077558 .2233073 .020507813 .265625 .020507813 .29720054 .020507813 .3232422 .033513387 .34375 .059524537 .3642578 .08553568 .37451173 .13023885 .37451173 .19363404 .37451173 .27296958 .35742188 .33539836 .3232422 .3809204 .30013023 .41212974 .27067057 .42773438 .23486328 .42773438Z"/>
<path id="font_1_66" d="M.50878909-.21582031H-.008300781V-.17529297H.50878909V-.21582031Z"/>
<path id="font_1_71" d="M.34716798 .05029297C.32535807 .02750651 .30403648 .011149089 .28320313 .0012207031 .26236979-.008707683 .23990886-.013671875 .21582031-.013671875 .16699219-.013671875 .12434896 .006708781 .087890628 .047470094 .051432294 .08824158 .033203126 .14063008 .033203126 .20463562 .033203126 .26863099 .053385419 .32718406 .09375 .3802948 .13411458 .43340556 .18603516 .45996095 .24951172 .45996095 .28889976 .45996095 .3214518 .44742839 .34716798 .42236329V.5050659C.34716798 .5563863 .34594728 .58793136 .34350587 .5997009 .34106446 .6114705 .3372396 .6194763 .33203126 .62371829 .3268229 .6279704 .3203125 .63009646 .3125 .63009646 .30403648 .63009646 .292806 .6274821 .2788086 .6222534L.27246095 .63941958 .40576173 .69433596H.42773438V.1772461C.42773438 .12483724 .42895509 .09285482 .43139649 .08129883 .4338379 .069742839 .43774415 .0616862 .44311524 .057128908 .44848634 .052571615 .4547526 .05029297 .46191407 .05029297 .47070313 .05029297 .48242188 .053059896 .4970703 .05859375L.5024414 .041503908 .3696289-.013671875H.34716798V.05029297M.34716798 .084365848V.31425477C.34521485 .33633933 .33935548 .35647074 .32958985 .37464906 .31982423 .39283753 .30688478 .40655519 .29077149 .415802 .2746582 .425059 .2589518 .4296875 .24365235 .4296875 .21500652 .4296875 .18945313 .41685996 .16699219 .39120484 .1373698 .35744224 .122558597 .3080902 .122558597 .2431488 .122558597 .17755635 .13688152 .12730408 .16552735 .09239197 .19417317 .057490034 .22607422 .040039064 .26123048 .040039064 .29085288 .040039064 .3194987 .054814657 .34716798 .084365848Z"/>
<path id="font_1_72" d="M.10644531 .2783203C.10611979 .21206665 .12223307 .1601003 .15478516 .122421268 .18733724 .0847524 .22558594 .06591797 .26953126 .06591797 .29882813 .06591797 .32430015 .07397461 .34594728 .09008789 .3675944 .10620117 .3857422 .13378906 .40039063 .17285156L.41552735 .16308594C.4086914 .118489589 .38883464 .07788086 .35595704 .041259767 .32307945 .004638672 .28190104-.013671875 .23242188-.013671875 .17871094-.013671875 .13273113 .007197062 .09448242 .048934938 .056233724 .09068298 .037109376 .14680481 .037109376 .21730042 .037109376 .29363505 .056722005 .35315959 .095947269 .39587403 .13517253 .43859864 .18440755 .45996095 .24365235 .45996095 .29378257 .45996095 .33496095 .44348146 .3671875 .41052247 .39941407 .37757365 .41552735 .33350627 .41552735 .2783203H.10644531M.10644531 .30664063H.31347657C.31184898 .33528648 .308431 .35546876 .30322267 .3671875 .29508464 .38541667 .28295899 .3997396 .2668457 .41015626 .25073243 .4205729 .23388672 .42578126 .2163086 .42578126 .18929036 .42578126 .16512044 .4152832 .14379883 .3942871 .12247721 .37329103 .11002604 .34407554 .10644531 .30664063Z"/>
<path id="font_1_81" d="M.1616211 .36523438C.21402996 .4283854 .2639974 .45996095 .31152345 .45996095 .3359375 .45996095 .3569336 .45386759 .37451173 .4416809 .39208985 .4295044 .40608726 .40944926 .4165039 .3815155 .42366538 .36203514 .4272461 .33215333 .4272461 .29187013V.101379398C.4272461 .07312012 .42952476 .053955079 .43408204 .043884279 .43766276 .0357666 .44344078 .029434205 .45141603 .024887085 .45939128 .020339966 .4741211 .018066407 .49560548 .018066407V0H.27441407V.018066407H.2836914C.30452476 .018066407 .3190918 .021224976 .32739259 .027542115 .33569337 .033859254 .34147135 .043167116 .34472657 .0554657 .34602867 .060328168 .3466797 .07555135 .3466797 .101135257V.28330995C.3466797 .3237864 .34138999 .35317485 .33081056 .37147523 .3202311 .3897756 .30240885 .39892579 .27734376 .39892579 .23860677 .39892579 .20003255 .37787376 .1616211 .33576966V.101135257C.1616211 .071014408 .16341146 .052393598 .16699219 .045272829 .17154949 .035883588 .17781575 .029001872 .18579102 .024627686 .19376628 .0202535 .20996094 .018066407 .234375 .018066407V0H.013183594V.018066407H.022949219C.045735677 .018066407 .061116537 .023829142 .0690918 .035354616 .077067058 .04689026 .08105469 .06889852 .08105469 .101379398V.2670288C.08105469 .32061769 .079833988 .35325624 .07739258 .36494447 .07495117 .37664286 .07120768 .38460288 .06616211 .38882447 .061116537 .39304606 .05436198 .39515687 .045898439 .39515687 .036783857 .39515687 .025878907 .39272056 .013183594 .3878479L.005859375 .4053955 .140625 .45996095H.1616211V.36523438Z"/>
<path id="font_1_70" d="M.4111328 .16992188C.39908854 .1110026 .37548829 .06567383 .34033204 .033935548 .30517579 .0021972657 .26627604-.013671875 .22363281-.013671875 .17285156-.013671875 .12858074 .007624308 .09082031 .050216676 .053059896 .092819217 .034179689 .15038045 .034179689 .22290039 .034179689 .2931417 .055094404 .35020957 .09692383 .394104 .13875325 .43800865 .18896485 .45996095 .2475586 .45996095 .2915039 .45996095 .32763673 .44835917 .35595704 .42515565 .38427735 .40196229 .3984375 .37787376 .3984375 .35289 .3984375 .3405609 .39444987 .33058167 .3864746 .32295228 .37849937 .31533305 .36735026 .31152345 .35302735 .31152345 .33382163 .31152345 .31933595 .31770835 .3095703 .33007813 .30403648 .33691407 .30037437 .3499349 .29858399 .36914063 .2967936 .38834635 .2902018 .40299479 .2788086 .41308595 .26741538 .42285157 .2516276 .42773438 .23144531 .42773438 .19889324 .42773438 .1726888 .4156901 .15283203 .39160157 .12646485 .35970054 .11328125 .31754557 .11328125 .26513673 .11328125 .2117513 .12638347 .16463216 .15258789 .1237793 .17879232 .08292643 .2141927 .0625 .25878907 .0625 .2906901 .0625 .31933595 .073404949 .34472657 .095214847 .36263023 .110188808 .38004557 .1373698 .39697267 .17675781L.4111328 .16992188Z"/>
<path id="font_1_75" d="M.16259766 .69433596V.36669923C.19873047 .40641276 .2273763 .43188478 .24853516 .44311524 .269694 .4543457 .29085288 .45996095 .31201173 .45996095 .33740235 .45996095 .35921226 .4529775 .3774414 .43901063 .39567057 .42504374 .4091797 .40312196 .41796876 .37324525 .42415367 .3524526 .4272461 .31444804 .4272461 .25923158V.101379398C.4272461 .07312012 .42952476 .053792318 .43408204 .043395997 .43733726 .03560384 .4428711 .029434205 .4506836 .024887085 .4584961 .020339966 .472819 .018066407 .49365235 .018066407V0H.27392579V.018066407H.2841797C.30501304 .018066407 .3194987 .021240235 .32763673 .02758789 .33577476 .033935548 .34147135 .04329427 .34472657 .055664064 .34570313 .060872396 .3461914 .076171878 .3461914 .1015625V.25976563C.3461914 .30859376 .3436686 .34065757 .33862306 .35595704 .33357749 .3712565 .32552085 .3827311 .31445313 .39038087 .3033854 .3980306 .29003907 .40185548 .27441407 .40185548 .25846354 .40185548 .24186199 .3976237 .22460938 .38916017 .20735677 .38069663 .1866862 .36360679 .16259766 .33789063V.1015625C.16259766 .07096354 .16430664 .051920576 .16772461 .044433595 .17114258 .036946615 .17749024 .030680338 .18676758 .025634766 .19604492 .020589194 .21207683 .018066407 .23486328 .018066407V0H.013183594V.018066407C.033040365 .018066407 .048665365 .021158854 .060058595 .02734375 .06656901 .030588786 .071777347 .036763509 .075683597 .04586792 .079589847 .054982503 .08154297 .073527019 .08154297 .101501468V.5059967C.08154297 .5570628 .080322269 .58845016 .07788086 .6001587 .07543945 .61187747 .07169596 .6198476 .06665039 .6240692 .061604818 .62830099 .05485026 .63041689 .04638672 .63041689 .03955078 .63041689 .028483073 .6278127 .013183594 .62260439L.0063476564 .6396942 .14013672 .69433596H.16259766Z"/>
<path id="font_1_17" d="M.125 .09472656C.14029949 .09472656 .15315755 .08943685 .16357422 .07885742 .17399089 .06827799 .17919922 .0555013 .17919922 .040527345 .17919922 .025553385 .1739095 .012776692 .16333008 .0021972657 .15275066-.008382161 .13997396-.013671875 .125-.013671875 .11002604-.013671875 .09724935-.008382161 .08666992 .0021972657 .07609049 .012776692 .07080078 .025553385 .07080078 .040527345 .07080078 .055826826 .07609049 .0686849 .08666992 .07910156 .09724935 .08951823 .11002604 .09472656 .125 .09472656Z"/>
<path id="font_1_83" d="M-.0009765625 .40327455 .13671875 .45898438H.15527344V.3544922C.17838542 .39388023 .20157878 .42130534 .22485352 .43676759 .24812825 .45222984 .2726237 .45996095 .29833985 .45996095 .34326173 .45996095 .38069663 .44240318 .41064454 .4072876 .44742839 .36435954 .4658203 .3084259 .4658203 .2394867 .4658203 .16241963 .4436849 .09868368 .39941407 .04827881 .36295573 .006978353 .31705729-.013671875 .26171876-.013671875 .2376302-.013671875 .21679688-.010253906 .19921875-.0034179688 .18619792 .0014648438 .17154949 .011230469 .15527344 .025878907V-.11035156C.15527344-.14095052 .15714519-.16040039 .16088867-.16870117 .16463216-.17700196 .17114258-.18359375 .18041992-.18847656 .18969727-.19335938 .20654297-.19580078 .23095703-.19580078V-.21386719H-.0034179688V-.19580078H.0087890629C.026692709-.1961263 .041992189-.19270325 .0546875-.18553162 .060872396-.18195088 .06567383-.1761678 .0690918-.16818238 .072509769-.16020711 .07421875-.13993328 .07421875-.10736084V.31581117C.07421875 .34480287 .072916667 .36320497 .0703125 .37101747 .067708339 .37884013 .063557948 .3847046 .057861329 .38861085 .052164716 .39252726 .044433595 .39448548 .03466797 .39448548 .026855469 .39448548 .016927084 .39220683 .0048828127 .38764955L-.0009765625 .40327455M.15527344 .32479859V.15802002C.15527344 .121927898 .15673828 .0981954 .15966797 .08682251 .16422527 .06796265 .17537435 .051381429 .19311524 .037078859 .21085613 .022776286 .23323567 .015625 .2602539 .015625 .292806 .015625 .3191732 .028305054 .33935548 .05366516 .36572267 .08681742 .37890626 .13346863 .37890626 .19361878 .37890626 .2618866 .36393229 .314387 .33398438 .35112 .31315104 .3764801 .28841148 .38916017 .25976563 .38916017 .24414063 .38916017 .22867839 .385259 .2133789 .37745667 .20166016 .37160746 .18229167 .35405479 .15527344 .32479859Z"/>
<path id="font_1_92" d="M.005859375 .44726563H.21435547V.42919923H.20410156C.18945313 .42919923 .1784668 .4260254 .17114258 .41967774 .16381836 .41333009 .16015625 .4054362 .16015625 .3959961 .16015625 .38330079 .16552735 .36572267 .17626953 .34326173L.28515626 .11767578 .3852539 .3647461C.39078776 .37809245 .3935547 .39127604 .3935547 .40429688 .3935547 .41015626 .39241538 .41455079 .39013673 .41748048 .38753257 .4210612 .38346354 .42390953 .3779297 .4260254 .37239585 .42814128 .36263023 .42919923 .3486328 .42919923V.44726563H.49414063V.42919923C.48209635 .42789714 .472819 .42529298 .4663086 .42138673 .4597982 .41748048 .45263673 .41015626 .44482423 .39941407 .44189454 .39485679 .4363607 .38232423 .42822267 .3618164L.24609375-.084472659C.22851563-.12776692 .20548503-.16048177 .17700196-.18261719 .14851888-.20475261 .12109375-.21582031 .09472656-.21582031 .075520839-.21582031 .059733076-.21035259 .04736328-.19941712 .03499349-.18848165 .028808594-.17593892 .028808594-.16178894 .028808594-.14827983 .033284505-.13738506 .042236329-.12910462 .051188154-.12083435 .06347656-.11669922 .07910156-.11669922 .08984375-.11669922 .10449219-.120279949 .123046878-.1274414 .1360677-.13232422 .14420574-.13476563 .14746094-.13476563 .15722656-.13476563 .16788738-.12968445 .17944336-.119522098 .19099935-.10936991 .20263672-.08971659 .21435547-.060562135L.24609375 .017578125 .08544922 .35498048C.080566409 .36507163 .072753909 .37760417 .06201172 .39257813 .0538737 .40397135 .04720052 .4116211 .041992189 .41552735 .034505208 .4207357 .022460938 .42529298 .005859375 .42919923V.44726563Z"/>
<path id="font_1_42" d="M.61376956 .6767578 .6308594 .46777345H.61376956C.5965169 .51985678 .57421877 .55908206 .546875 .5854492 .507487 .62353518 .4568685 .6425781 .39501954 .6425781 .31070964 .6425781 .24658203 .6092122 .20263672 .54248049 .16585286 .48616538 .14746094 .41910807 .14746094 .3413086 .14746094 .27815757 .15966797 .22054036 .18408203 .16845703 .2084961 .116373699 .24047852 .07820638 .2800293 .053955079 .31958009 .029703776 .3601888 .017578125 .40185548 .017578125 .42626954 .017578125 .44986979 .020680746 .47265626 .026885987 .49544273 .03309123 .51741537 .042231244 .5385742 .05430603V.24629212C.5385742 .27959696 .53605148 .3013916 .53100588 .31167604 .52596029 .32196046 .51814779 .3297933 .50756838 .33517457 .49698893 .340566 .47835288 .34326173 .45166017 .34326173V.36132813H.7080078V.34326173H.6958008C.67041018 .34326173 .6529948 .3347982 .6435547 .3178711 .63704428 .3058268 .63378909 .2820638 .63378909 .24658203V.043945314C.5963542 .023763022 .55940756 .008951823 .5229492-.00048828127 .48649089-.009928386 .44596354-.0146484379 .4013672-.0146484379 .2734375-.0146484379 .17626953 .02631124 .10986328 .10823059 .060058595 .16966248 .03515625 .24052429 .03515625 .32081605 .03515625 .3790029 .049153646 .43474833 .07714844 .48805238 .11035156 .5514476 .15592449 .60020956 .21386719 .6343384 .26236979 .662618 .31966148 .6767578 .3857422 .6767578 .40983073 .6767578 .43172203 .6748047 .45141603 .67089846 .47111003 .6669922 .49902345 .6583659 .53515627 .64501956 .55338546 .6381836 .56559249 .6347656 .57177737 .6347656 .5779622 .6347656 .58325198 .63761398 .5876465 .64331057 .592041 .64900717 .59472659 .66015627 .5957031 .6767578H.61376956Z"/>
<path id="font_1_1227" d="M.10644531 .2783203C.10611979 .21206665 .12223307 .1601003 .15478516 .122421268 .18733724 .0847524 .22558594 .06591797 .26953126 .06591797 .29882813 .06591797 .32430015 .07397461 .34594728 .09008789 .3675944 .10620117 .3857422 .13378906 .40039063 .17285156L.41552735 .16308594C.4086914 .118489589 .38883464 .07788086 .35595704 .041259767 .32307945 .004638672 .28190104-.013671875 .23242188-.013671875 .17871094-.013671875 .13273113 .007197062 .09448242 .048934938 .056233724 .09068298 .037109376 .14680481 .037109376 .21730042 .037109376 .29363505 .056722005 .35315959 .095947269 .39587403 .13517253 .43859864 .18440755 .45996095 .24365235 .45996095 .29378257 .45996095 .33496095 .44348146 .3671875 .41052247 .39941407 .37757365 .41552735 .33350627 .41552735 .2783203H.10644531M.10644531 .30664063H.31347657C.31184898 .33528648 .308431 .35546876 .30322267 .3671875 .29508464 .38541667 .28295899 .3997396 .2668457 .41015626 .25073243 .4205729 .23388672 .42578126 .2163086 .42578126 .18929036 .42578126 .16512044 .4152832 .14379883 .3942871 .12247721 .37329103 .11002604 .34407554 .10644531 .30664063M.19677735 .67285159H.2866211L.37939454 .5107422H.3642578L.23095703 .6150665 .119140628 .5107422H.10449219L.19677735 .67285159M.22802735-.05859375C.24332683-.05859375 .2561849-.06388346 .26660157-.07446289 .27701823-.08504232 .28222657-.09781901 .28222657-.11279297 .28222657-.12776692 .27693687-.14054363 .26635743-.15112305 .25577799-.16170247 .2430013-.16699219 .22802735-.16699219 .21305339-.16699219 .20027669-.16170247 .18969727-.15112305 .17911785-.14054363 .17382813-.12776692 .17382813-.11279297 .17382813-.09749349 .17911785-.084635417 .18969727-.07421875 .20027669-.063802089 .21305339-.05859375 .22802735-.05859375Z"/>
<path id="font_1_55" d="M.5786133 .6621094 .5859375 .50683596H.5673828C.56380209 .5341797 .55891928 .55371096 .5527344 .5654297 .54264327 .5843099 .5292155 .5982259 .5124512 .60717776 .49568687 .6161296 .4736328 .62060549 .44628907 .62060549H.35302735V.114746097C.35302735 .07405599 .35742188 .048665365 .36621095 .03857422 .37858073 .024902344 .3976237 .018066407 .42333985 .018066407H.44628907V0H.16552735V.018066407H.18896485C.21695964 .018066407 .2368164 .026529948 .24853516 .04345703 .25569663 .0538737 .25927735 .07763672 .25927735 .114746097V.62060549H.1796875C.14876302 .62060549 .12679036 .61832687 .11376953 .61376956 .096842449 .60758468 .08235677 .5957031 .0703125 .578125 .05826823 .5605469 .05110677 .5367839 .048828126 .50683596H.030273438L.038085939 .6621094H.5786133Z"/>
<path id="font_1_78" d="M.16357422 .69433596V.24951172L.27734376 .35302735C.30143229 .37516276 .3154297 .38916017 .31933595 .39501954 .3219401 .39892579 .3232422 .40283204 .3232422 .40673829 .3232422 .4132487 .32055665 .41886393 .31518556 .42358399 .30981446 .42830406 .300944 .4309896 .28857423 .43164063V.44726563H.48291017V.43164063C.45621745 .4309896 .43400065 .42692057 .41625978 .4194336 .3985189 .41194663 .379069 .39860026 .35791017 .37939454L.24316406 .2734375 .35791017 .12869263C.3898112 .08873495 .41129557 .06339518 .42236329 .05267334 .43798829 .037404378 .45166017 .027491251 .4633789 .02293396 .47151695 .019688925 .4856771 .018066407 .5058594 .018066407V0H.28857423V.018066407C.300944 .018391928 .30932618 .020258585 .3137207 .023666382 .31811524 .02708435 .3203125 .03187561 .3203125 .03804016 .3203125 .045516969 .3138021 .05753581 .30078126 .07409668L.16357422 .24902344V.10090637C.16357422 .071996059 .16560872 .05298869 .16967774 .043884279 .17374675 .03479004 .17952474 .028294882 .18701172 .024398804 .1944987 .020502726 .21077474 .018391928 .23583985 .018066407V0H.008300781V.018066407C.03108724 .018066407 .048177083 .020833334 .059570314 .026367188 .06640625 .029937745 .071614589 .03546651 .07519531 .04295349 .080078128 .053685506 .08251953 .07222494 .08251953 .09857178V.5055084C.08251953 .5572255 .08138021 .588857 .07910156 .60040286 .076822917 .6119588 .07307943 .619929 .067871097 .62431338 .06266276 .6287079 .055826826 .63090518 .04736328 .63090518 .040527345 .63090518 .030273438 .62813827 .016601563 .62260439L.008300781 .6396942 .14111328 .69433596H.16357422Z"/>
<path id="font_1_87" d="M.16113281 .59472659V.44726563H.265625V.41308595H.16113281V.1234436C.16113281 .09450277 .1652832 .07499186 .17358399 .06491089 .18188477 .054840089 .19254558 .049804689 .2055664 .049804689 .2163086 .049804689 .22672527 .053141279 .2368164 .059814454 .24690755 .06648763 .25472007 .07633463 .2602539 .08935547H.27929688C.26790367 .057362874 .25179038 .033167524 .23095703 .01676941 .2101237 .00038146974 .18863933-.0078125 .1665039-.0078125 .15152996-.0078125 .13688152-.0036570233 .122558597 .0046539308 .10823568 .012964885 .09765625 .024856568 .09082031 .04032898 .083984378 .055811567 .080566409 .079686488 .080566409 .111953739V.41308595H.009765625V.42919923C.027669272 .436381 .045979818 .44854228 .064697269 .46568299 .08341471 .4828237 .100097659 .5031484 .114746097 .5266571 .12223307 .53905746 .13264974 .56174728 .1459961 .59472659H.16113281Z"/>
<path id="font_1_85" d="M.16210938 .45996095V.359375C.19954427 .42643229 .23795574 .45996095 .27734376 .45996095 .2952474 .45996095 .3100586 .45450846 .32177735 .44360353 .3334961 .43269859 .33935548 .42008464 .33935548 .40576173 .33935548 .3930664 .3351237 .38232423 .32666017 .37353517 .31819663 .3647461 .30810548 .36035157 .29638673 .36035157 .2849935 .36035157 .2722168 .3659668 .25805665 .37719728 .24389649 .38842774 .23339844 .39404298 .2265625 .39404298 .22070313 .39404298 .21435547 .39079795 .20751953 .38430787 .1928711 .37099204 .17773438 .34907533 .16210938 .31855775V.10475159C.16210938 .080083217 .16520183 .061416627 .17138672 .04875183 .17561849 .039983114 .18310547 .032674154 .19384766 .026824952 .20458985 .020985922 .22005208 .018066407 .24023438 .018066407V0H.011230469V.018066407C.034016927 .018066407 .05094401 .021636963 .06201172 .028778077 .07014974 .03397624 .07584635 .04226176 .07910156 .053634645 .080729167 .059158327 .08154297 .074910487 .08154297 .10089111V.2738495C.08154297 .32582093 .08048502 .35675559 .07836914 .36665345 .07625326 .3765615 .07234701 .38378907 .06665039 .38833619 .060953779 .3928833 .0538737 .39515687 .045410158 .39515687 .03531901 .39515687 .023925782 .39272056 .011230469 .3878479L.0063476564 .4053955 .14160156 .45996095H.16210938Z"/>
<path id="font_1_88" d="M.42333985 .44726563V.17626953C.42333985 .12451172 .42456056 .09285482 .42700196 .08129883 .42944337 .069742839 .4333496 .0616862 .4387207 .057128908 .4440918 .052571615 .45035807 .05029297 .45751954 .05029297 .4676107 .05029297 .4790039 .053059896 .49169923 .05859375L.49853517 .041503908 .3647461-.013671875H.34277345V.08105469C.30436198 .03938802 .2750651 .013183594 .2548828 .0024414063 .23470052-.008300781 .2133789-.013671875 .19091797-.013671875 .16585286-.013671875 .14412435-.0064290368 .12573242 .008056641 .10734049 .022542319 .094563808 .041178388 .087402347 .063964847 .08024088 .086751308 .076660159 .11897787 .076660159 .16064453V.36035157C.076660159 .3815104 .07438151 .39615885 .06982422 .40429688 .06526693 .4124349 .05851237 .41870118 .049560548 .4230957 .040608724 .42749024 .024414063 .42952476 .0009765625 .42919923V.44726563H.15771485V.14868164C.15771485 .1071167 .16495769 .07983907 .17944336 .066848758 .19392903 .05385844 .21142578 .04736328 .2319336 .04736328 .24593099 .04736328 .26180015 .05174764 .27954103 .060516359 .2972819 .06928507 .31835938 .086003627 .34277345 .110672V.3634491C.34277345 .3887787 .33813478 .40590415 .32885743 .41482545 .31958009 .42375694 .30029298 .4285482 .2709961 .42919923V.44726563H.42333985Z"/>
<path id="font_1_37" d="M.46191407 .3376007C.5078125 .32784526 .54215499 .3122355 .5649414 .29077149 .5965169 .2608439 .6123047 .22425334 .6123047 .18099976 .6123047 .14815267 .601888 .11668396 .5810547 .08659363 .5602214 .05651347 .5316569 .034561159 .49536134 .020736695 .45906578 .0069122316 .40364585 0 .32910157 0H.016601563V.018066407H.041503908C.06917318 .018066407 .089029949 .026855469 .10107422 .044433595 .108561199 .055826826 .11230469 .080078128 .11230469 .1171875V.5449219C.11230469 .5859375 .10758463 .6118164 .09814453 .6225586 .08544922 .63688156 .06656901 .64404299 .041503908 .64404299H.016601563V.6621094H.30273438C.35611979 .6621094 .39892579 .65819808 .43115235 .65037539 .47998048 .6386464 .5172526 .61787417 .54296877 .5880585 .5686849 .558253 .58154299 .5239665 .58154299 .48519898 .58154299 .45196534 .57145187 .42223106 .55126956 .3959961 .5310872 .36977134 .50130209 .35030619 .46191407 .3376007M.20605469 .3642578C.21809896 .36197917 .23185222 .36027018 .24731446 .35913087 .2627767 .35799156 .27978517 .35742188 .29833985 .35742188 .34586589 .35742188 .3815918 .362559 .40551759 .37283326 .42944337 .3831075 .4477539 .39883933 .46044923 .4200287 .47314454 .44122825 .4794922 .464386 .4794922 .48950196 .4794922 .5283 .46370445 .5613963 .4321289 .5887909 .40055339 .6161855 .3544922 .6298828 .2939453 .6298828 .26139323 .6298828 .23209636 .62613937 .20605469 .61865237V.3642578M.20605469 .04736328C.24381511 .03857422 .28108726 .034179689 .3178711 .034179689 .37679038 .034179689 .42171226 .04744466 .45263673 .07397461 .4835612 .100504558 .49902345 .13330078 .49902345 .17236328 .49902345 .19807942 .49202476 .22281902 .47802735 .24658203 .46402995 .27034507 .4412435 .2890625 .40966798 .30273438 .37809245 .31640626 .33902995 .3232422 .29248048 .3232422 .2722982 .3232422 .25504557 .32291667 .24072266 .32226563 .22639974 .3216146 .21484375 .32047526 .20605469 .31884767V.04736328Z"/>
<path id="font_1_1245" d="M.25 .45996095C.31770835 .45996095 .3720703 .43427024 .41308595 .3828888 .44791667 .33899436 .46533204 .28858949 .46533204 .2316742 .46533204 .19167583 .45572917 .15118917 .43652345 .11021423 .41731773 .06924947 .39086915 .038360597 .35717774 .017547608 .32348634-.0032653809 .28597007-.013671875 .2446289-.013671875 .1772461-.013671875 .123697917 .013158162 .083984378 .06681824 .05045573 .11201477 .033691408 .16274007 .033691408 .21899414 .033691408 .2599691 .043863935 .30069987 .064208988 .34118653 .08455404 .3816732 .111328128 .41159059 .14453125 .43093873 .17773438 .45028688 .21289063 .45996095 .25 .45996095M.23486328 .42773438C.21761067 .42773438 .20027669 .42261253 .18286133 .41236878 .16544597 .40212504 .15136719 .38416038 .140625 .35847474 .12988281 .3327891 .12451172 .29978944 .12451172 .2594757 .12451172 .19445293 .13745117 .1383667 .16333008 .09121704 .18920899 .044077558 .2233073 .020507813 .265625 .020507813 .29720054 .020507813 .3232422 .033513387 .34375 .059524537 .3642578 .08553568 .37451173 .13023885 .37451173 .19363404 .37451173 .27296958 .35742188 .33539836 .3232422 .3809204 .30013023 .41212974 .27067057 .42773438 .23486328 .42773438M.21044922 .67285159H.30029298L.3930664 .5107422H.3779297L.2446289 .6150665 .1328125 .5107422H.11816406L.21044922 .67285159M.2475586-.05859375C.26285807-.05859375 .27571617-.06388346 .2861328-.07446289 .29654948-.08504232 .3017578-.09781901 .3017578-.11279297 .3017578-.12776692 .2964681-.14054363 .28588868-.15112305 .27530924-.16170247 .26253257-.16699219 .2475586-.16699219 .23258464-.16699219 .21980794-.16170247 .20922852-.15112305 .1986491-.14054363 .19335938-.12776692 .19335938-.11279297 .19335938-.09749349 .1986491-.084635417 .20922852-.07421875 .21980794-.063802089 .23258464-.05859375 .2475586-.05859375Z"/>
<path id="font_1_255" d="M.33251954 .52001956H.19042969V.5605469H.33203126C.33072917 .5920308 .32739259 .6114604 .32202149 .61883547 .3166504 .6262105 .30859376 .6298981 .29785157 .6298981 .28938804 .6298981 .27815757 .62727358 .26416017 .62202456L.2578125 .6392517 .39111329 .69433596H.41308595V.5605469H.48779298V.52001956H.41308595V.1767273C.41308595 .12446085 .41430665 .0925649 .41674806 .08103943 .41918946 .069513957 .4230957 .06147766 .4284668 .056930543 .4338379 .052393598 .44010417 .050125123 .44726563 .050125123 .4560547 .050125123 .46777345 .052881879 .48242188 .058395387L.48779298 .04135132 .35498048-.013671875H.33251954V.05029297C.31070964 .02750651 .28938804 .011149089 .2685547 .0012207031 .24772136-.008707683 .22526042-.013671875 .20117188-.013671875 .15234375-.013671875 .10970052 .006708781 .07324219 .047470094 .036783857 .08824158 .018554688 .14063008 .018554688 .20463562 .018554688 .26863099 .03873698 .32718406 .07910156 .3802948 .11946615 .43340556 .17138672 .45996095 .23486328 .45996095 .2742513 .45996095 .30680339 .44742839 .33251954 .42236329V.52001956M.33251954 .084365848V.31425477C.3305664 .33633933 .32470704 .35647074 .3149414 .37464906 .30517579 .39283753 .29223634 .40655519 .27612306 .415802 .26000978 .425059 .24430339 .4296875 .2290039 .4296875 .20035808 .4296875 .17480469 .41685996 .15234375 .39120484 .12272135 .35744224 .107910159 .3080902 .107910159 .2431488 .107910159 .17755635 .12223307 .12730408 .1508789 .09239197 .17952474 .057490034 .21142578 .040039064 .24658203 .040039064 .27620445 .040039064 .30485026 .054814657 .33251954 .084365848Z"/>
<path id="font_1_1221" d="M.10644531 .2783203C.10611979 .21206665 .12223307 .1601003 .15478516 .122421268 .18733724 .0847524 .22558594 .06591797 .26953126 .06591797 .29882813 .06591797 .32430015 .07397461 .34594728 .09008789 .3675944 .10620117 .3857422 .13378906 .40039063 .17285156L.41552735 .16308594C.4086914 .118489589 .38883464 .07788086 .35595704 .041259767 .32307945 .004638672 .28190104-.013671875 .23242188-.013671875 .17871094-.013671875 .13273113 .007197062 .09448242 .048934938 .056233724 .09068298 .037109376 .14680481 .037109376 .21730042 .037109376 .29363505 .056722005 .35315959 .095947269 .39587403 .13517253 .43859864 .18440755 .45996095 .24365235 .45996095 .29378257 .45996095 .33496095 .44348146 .3671875 .41052247 .39941407 .37757365 .41552735 .33350627 .41552735 .2783203H.10644531M.10644531 .30664063H.31347657C.31184898 .33528648 .308431 .35546876 .30322267 .3671875 .29508464 .38541667 .28295899 .3997396 .2668457 .41015626 .25073243 .4205729 .23388672 .42578126 .2163086 .42578126 .18929036 .42578126 .16512044 .4152832 .14379883 .3942871 .12247721 .37329103 .11002604 .34407554 .10644531 .30664063M.19677735 .67285159H.2866211L.37939454 .5107422H.3642578L.23095703 .6150665 .119140628 .5107422H.10449219L.19677735 .67285159M.12597656 .890625H.23486328L.2866211 .72753909H.26953126L.12597656 .890625Z"/>
<path id="font_1_1223" d="M.10644531 .2783203C.10611979 .21206665 .12223307 .1601003 .15478516 .122421268 .18733724 .0847524 .22558594 .06591797 .26953126 .06591797 .29882813 .06591797 .32430015 .07397461 .34594728 .09008789 .3675944 .10620117 .3857422 .13378906 .40039063 .17285156L.41552735 .16308594C.4086914 .118489589 .38883464 .07788086 .35595704 .041259767 .32307945 .004638672 .28190104-.013671875 .23242188-.013671875 .17871094-.013671875 .13273113 .007197062 .09448242 .048934938 .056233724 .09068298 .037109376 .14680481 .037109376 .21730042 .037109376 .29363505 .056722005 .35315959 .095947269 .39587403 .13517253 .43859864 .18440755 .45996095 .24365235 .45996095 .29378257 .45996095 .33496095 .44348146 .3671875 .41052247 .39941407 .37757365 .41552735 .33350627 .41552735 .2783203H.10644531M.10644531 .30664063H.31347657C.31184898 .33528648 .308431 .35546876 .30322267 .3671875 .29508464 .38541667 .28295899 .3997396 .2668457 .41015626 .25073243 .4205729 .23388672 .42578126 .2163086 .42578126 .18929036 .42578126 .16512044 .4152832 .14379883 .3942871 .12247721 .37329103 .11002604 .34407554 .10644531 .30664063M.19677735 .67285159H.2866211L.37939454 .5107422H.3642578L.23095703 .6150665 .119140628 .5107422H.10449219L.19677735 .67285159M.29296876 .78741458C.2763672 .7715149 .26627604 .7604828 .2626953 .75431826 .2591146 .7481537 .2569987 .7392273 .25634767 .72753909H.2397461C.24104817 .7496033 .2491862 .7724762 .26416017 .79615786 .2745768 .81302389 .27978517 .82664999 .27978517 .83703616 .27978517 .8610433 .26790367 .8730469 .24414063 .8730469 .23307292 .8730469 .22477214 .8704631 .21923828 .8652954 .21695964 .8630371 .21582031 .8607788 .21582031 .8585205 .21582031 .8562622 .21761067 .8523102 .2211914 .8466644 .22477214 .8410187 .2265625 .83657839 .2265625 .8333435 .2265625 .822052 .22037761 .81640627 .20800781 .81640627 .19173177 .81640627 .18359375 .82562258 .18359375 .8440552 .18359375 .85732015 .19002278 .868398 .20288086 .8772888 .21573894 .8861796 .2319336 .890625 .25146485 .890625 .27685548 .890625 .2955729 .88429769 .3076172 .87164309 .31705729 .86190798 .32177735 .8511963 .32177735 .83950808 .32177735 .8232829 .31217448 .8059184 .29296876 .78741458Z"/>
<path id="font_1_69" d="M.1538086 .3696289C.19710286 .42985026 .24381511 .45996095 .2939453 .45996095 .33984376 .45996095 .3798828 .44036866 .4140625 .40118409 .4482422 .3619995 .46533204 .3084259 .46533204 .24046326 .46533204 .16111756 .43896485 .097218837 .38623048 .04876709 .34098307 .0071411135 .29052735-.013671875 .23486328-.013671875 .20882161-.013671875 .18237305-.008951823 .15551758 .00048828127 .12866211 .009928386 .10123698 .024088541 .07324219 .04296875V.50634768C.07324219 .5571289 .072021488 .5883789 .06958008 .60009768 .06713867 .6118164 .063313808 .6197917 .05810547 .62402346 .052897138 .6282552 .04638672 .6303711 .03857422 .6303711 .029459635 .6303711 .018066407 .6277669 .0043945314 .6225586L-.0024414063 .63964846 .13183594 .69433596H.1538086V.3696289M.1538086 .33851625V.071640018C.17041016 .055414838 .18758138 .04316203 .20532227 .03488159 .22306316 .026601157 .24121094 .022460938 .25976563 .022460938 .28938804 .022460938 .31697593 .038691205 .3425293 .07115173 .36808268 .10362244 .38085938 .15086365 .38085938 .21287537 .38085938 .27001444 .36808268 .31392417 .3425293 .3446045 .31697593 .37528483 .2879232 .390625 .2553711 .390625 .23811849 .390625 .22086589 .38624064 .20361328 .37747193 .19059246 .37098185 .17399089 .3579966 .1538086 .33851625Z"/>
<path id="font_1_86" d="M.3203125 .45996095V.30859376H.30419923C.29182945 .35606895 .2759603 .3883616 .2565918 .4054718 .23722331 .42259217 .21256511 .43115235 .18261719 .43115235 .15983074 .43115235 .1414388 .42513529 .1274414 .4131012 .11344401 .40107728 .10644531 .38774619 .10644531 .3731079 .10644531 .35489909 .11165365 .33929444 .12207031 .32629396 .13216146 .31295777 .15266927 .29881288 .18359375 .28385926L.2548828 .2492218C.32096354 .21703594 .3540039 .17460124 .3540039 .121917728 .3540039 .08127848 .33862306 .048517866 .30786134 .023635865 .2770996-.0012359619 .24267578-.013671875 .20458985-.013671875 .1772461-.013671875 .1459961-.0087890629 .110839847 .0009765625 .100097659 .004231771 .091308597 .005859375 .084472659 .005859375 .07698568 .005859375 .071126308 .0016276041 .06689453-.0068359377H.05078125V.15332031H.06689453C.07600912 .10758463 .09342448 .07312012 .119140628 .049926759 .14485677 .026733399 .17366536 .015136719 .2055664 .015136719 .22802735 .015136719 .24633789 .021718344 .26049806 .03488159 .2746582 .04805501 .28173829 .0639089 .28173829 .08244324 .28173829 .10488383 .2738444 .12374369 .25805665 .13902283 .24226888 .15430196 .21077474 .17364502 .16357422 .197052 .116373699 .22046916 .08544922 .24160767 .07080078 .26046754 .056152345 .27900187 .048828126 .30241395 .048828126 .33070375 .048828126 .3674469 .06144206 .398173 .08666992 .42288209 .11189779 .44760133 .14453125 .45996095 .18457031 .45996095 .20214844 .45996095 .22347005 .45621745 .24853516 .44873048 .26513673 .44384767 .27620445 .44140626 .28173829 .44140626 .28694663 .44140626 .29101563 .44254557 .2939453 .44482423 .296875 .44710288 .30029298 .45214845 .30419923 .45996095H.3203125Z"/>
<path id="font_1_60" d="M.4765625 .6621094H.70751956V.64404299H.6948242C.68636068 .64404299 .6739909 .6402995 .65771487 .6328125 .6414388 .6253255 .6266276 .6145833 .61328127 .60058596 .5999349 .58658859 .5834961 .56380209 .56396487 .53222659L.40429688 .28076173V.114746097C.40429688 .07405599 .40885417 .048665365 .41796876 .03857422 .43033854 .024902344 .44986979 .018066407 .4765625 .018066407H.49804688V0H.21679688V.018066407H.24023438C.26822917 .018066407 .28808595 .026529948 .2998047 .04345703 .30696617 .0538737 .31054688 .07763672 .31054688 .114746097V.27148438L.12890625 .5488281C.107421878 .5813802 .09285482 .6017253 .08520508 .6098633 .077555339 .6180013 .0616862 .6277669 .037597658 .63916018 .03108724 .64241537 .021647135 .64404299 .009277344 .64404299V.6621094H.29248048V.64404299H.27783204C.26253257 .64404299 .24845378 .6404622 .2355957 .6333008 .22273763 .62613937 .2163086 .61539718 .2163086 .6010742 .2163086 .58935549 .22623699 .5681966 .24609375 .53759768L.38427735 .32421876 .51416018 .5283203C.5336914 .55891928 .54345706 .58170577 .54345706 .5966797 .54345706 .60579428 .541097 .6139323 .53637698 .62109377 .5316569 .6282552 .52490237 .6338704 .5161133 .63793948 .5073242 .6420085 .49414063 .64404299 .4765625 .64404299V.6621094Z"/>
<path id="font_1_50" d="M.36572267 .6767578C.45166017 .6767578 .52612307 .6441701 .5891113 .57899478 .6520996 .5138194 .68359377 .43247477 .68359377 .33496095 .68359377 .23451741 .65185549 .1511383 .5883789 .08482361 .52490237 .018508912 .44807945-.0146484379 .35791017-.0146484379 .2667643-.0146484379 .19018555 .017695109 .12817383 .0823822 .06616211 .14706929 .03515625 .23077393 .03515625 .3334961 .03515625 .43848673 .07096354 .5241394 .14257813 .5904541 .20475261 .6479899 .27913413 .6767578 .36572267 .6767578M.3564453 .640625C.29720054 .640625 .24967449 .6186879 .21386719 .57481387 .16927083 .5202077 .14697266 .44025169 .14697266 .33494569 .14697266 .2270457 .17008464 .14400737 .2163086 .08583069 .25179038 .04163106 .29866538 .01953125 .3569336 .01953125 .41910807 .01953125 .47045899 .043741865 .5109863 .092163089 .5515137 .14059448 .57177737 .2169749 .57177737 .32130433 .57177737 .43440248 .5494792 .51874288 .5048828 .57432559 .46907554 .6185252 .41959635 .640625 .3564453 .640625Z"/>
<path id="font_1_47" d="M.5732422 .18359375 .58935549 .18016052 .53271487 0H.020019532V.018066407H.044921876C.072916667 .018066407 .092936199 .02718099 .10498047 .045410158 .111816409 .055826826 .115234378 .07991537 .115234378 .11767578V.5449219C.115234378 .586263 .110677089 .6121419 .1015625 .6225586 .08886719 .63688156 .06998698 .64404299 .044921876 .64404299H.020019532V.6621094H.31982423V.64404299C.28466798 .64436849 .26000978 .6411082 .24584961 .6342621 .23168946 .62742617 .2220052 .61879476 .21679688 .6083679 .21158855 .5979411 .20898438 .5730184 .20898438 .53359988V.117248538C.20898438 .09020996 .21158855 .071640018 .21679688 .061538698 .22070313 .05470276 .22672527 .0496521 .23486328 .04638672 .2430013 .04313151 .26839195 .041503908 .31103517 .041503908H.359375C.41015626 .041503908 .44580079 .045272829 .4663086 .05281067 .4868164 .06034851 .5055339 .07370504 .52246096 .09288025 .539388 .11205546 .5563151 .14229329 .5732422 .18359375Z"/>
<path id="font_1_89" d="M.008300781 .44726563H.21875V.42919923H.20507813C.19238281 .42919923 .18269857 .42610679 .17602539 .41992188 .16935222 .41373698 .16601563 .4054362 .16601563 .39501954 .16601563 .3836263 .1694336 .3701172 .17626953 .3544922L.28027345 .107421878 .38476563 .36376954C.3922526 .3819987 .3959961 .39583335 .3959961 .40527345 .3959961 .40983073 .394694 .41357423 .39208985 .4165039 .38850913 .42138673 .3839518 .4247233 .37841798 .42651368 .37288413 .42830406 .36165367 .42919923 .34472657 .42919923V.44726563H.49072267V.42919923C.47379557 .42789714 .4620768 .42447917 .4555664 .4189453 .4441732 .4091797 .43391929 .39290367 .4248047 .3701172L.26611329-.013671875H.24609375L.08642578 .36376954C.07926432 .38134767 .07242838 .39396159 .06591797 .40161134 .05940755 .40926109 .05110677 .4156901 .041015626 .42089845 .03548177 .42382813 .024576823 .42659507 .008300781 .42919923V.44726563Z"/>
<path id="font_1_27" d="M.19189453 .3334961C.13948567 .37646485 .10571289 .41097007 .09057617 .43701173 .07543945 .46305339 .067871097 .49007163 .067871097 .5180664 .067871097 .56103518 .084472659 .5980632 .11767578 .6291504 .1508789 .6602376 .19498699 .67578127 .25 .67578127 .3033854 .67578127 .34635417 .6612956 .37890626 .6323242 .41145835 .60335287 .42773438 .5703125 .42773438 .5332031 .42773438 .50846359 .4189453 .4832357 .4013672 .45751954 .38378907 .43180339 .34716798 .40152995 .2915039 .36669923 .34879557 .32242839 .38671876 .28759767 .40527345 .26220704 .43001304 .2290039 .4423828 .19401042 .4423828 .15722656 .4423828 .110677089 .42464195 .070882167 .38916017 .037841798 .35367839 .004801432 .3071289-.01171875 .24951172-.01171875 .1866862-.01171875 .13769531 .007975261 .10253906 .04736328 .07454427 .078938808 .060546876 .11344401 .060546876 .1508789 .060546876 .18017578 .07039388 .20922852 .09008789 .23803711 .1097819 .2668457 .14371746 .29866538 .19189453 .3334961M.2685547 .3857422C.3076172 .42089845 .33235679 .44864909 .34277345 .46899415 .3531901 .4893392 .35839845 .5123698 .35839845 .53808596 .35839845 .5722656 .34879557 .59903976 .32958985 .6184082 .31038413 .6377767 .2841797 .64746096 .25097657 .64746096 .21777344 .64746096 .1907552 .6378581 .16992188 .61865237 .14908855 .5994466 .13867188 .57698568 .13867188 .55126956 .13867188 .53434249 .14298503 .51741537 .15161133 .5004883 .16023763 .4835612 .17252605 .4674479 .18847656 .45214845L.2685547 .3857422M.21484375 .3149414C.18782552 .29215495 .16780599 .26733399 .15478516 .24047852 .14176433 .21362305 .1352539 .18457031 .1352539 .15332031 .1352539 .111328128 .14672852 .0777181 .16967774 .052490236 .19262696 .02726237 .22184246 .0146484379 .25732423 .0146484379 .29248048 .0146484379 .32063804 .024576823 .34179688 .044433595 .36295573 .06429037 .37353517 .088378909 .37353517 .11669922 .37353517 .14013672 .36735026 .16113281 .35498048 .1796875 .3318685 .2141927 .28515626 .25927735 .21484375 .3149414Z"/>
<path id="font_1_14" d="M.26123048 .068359378V.31201173H.018066407V.35253907H.26123048V.59521487H.30029298V.35253907H.5444336V.31201173H.30029298V.068359378H.26123048Z"/>
<path id="font_1_51" d="M.20507813 .31054688V.11735535C.20507813 .07561747 .20963542 .04969279 .21875 .0395813 .2311198 .025238038 .24983724 .018066407 .27490235 .018066407H.30029298V0H.016601563V.018066407H.041503908C.069498699 .018066407 .08951823 .02718099 .1015625 .045410158 .108072917 .0555013 .111328128 .079427089 .111328128 .1171875V.5449219C.111328128 .58658859 .106933597 .61246749 .09814453 .6225586 .08544922 .63688156 .06656901 .64404299 .041503908 .64404299H.016601563V.6621094H.25927735C.31852214 .6621094 .36523438 .6560109 .39941407 .6438141 .43359376 .6316274 .46240235 .6110687 .48583985 .58213809 .50927737 .5532074 .5209961 .5189107 .5209961 .47924806 .5209961 .4252828 .5031738 .38139344 .4675293 .34757997 .43188478 .31377665 .3815104 .296875 .31640626 .296875 .30045573 .296875 .28320313 .2980143 .26464845 .30029298 .24609375 .30257163 .22623699 .3059896 .20507813 .31054688M.20507813 .3388672C.22233074 .33561198 .2376302 .33317057 .25097657 .33154298 .2643229 .32991538 .27571617 .32910157 .28515626 .32910157 .3190104 .32910157 .34822593 .34220378 .37280274 .3684082 .39737956 .39461265 .40966798 .4285482 .40966798 .47021485 .40966798 .4988607 .4038086 .525472 .39208985 .5500488 .3803711 .5746257 .36376954 .5930176 .34228517 .6052246 .32080079 .61743167 .29638673 .62353518 .26904298 .62353518 .2524414 .62353518 .2311198 .6204427 .20507813 .6142578V.3388672Z"/>
<path id="font_1_79" d="M.1850586 .69433596V.101501468C.1850586 .073527019 .1870931 .054982503 .19116211 .04586792 .19523113 .036763509 .20149739 .029851279 .20996094 .025131226 .21842449 .020421347 .23421224 .018066407 .25732423 .018066407V0H.038085939V.018066407C.05859375 .018066407 .07259115 .020177206 .080078128 .024398804 .0875651 .028630576 .09342448 .035624189 .09765625 .04537964 .10188802 .055145265 .104003909 .07385254 .104003909 .101501468V.50746157C.104003909 .5578766 .102864589 .588857 .10058594 .60040286 .09830729 .6119588 .09464518 .6198476 .08959961 .6240692 .08455404 .62830099 .078125 .63041689 .0703125 .63041689 .061848958 .63041689 .05110677 .6278127 .038085939 .62260439L.029785157 .6396942 .16308594 .69433596H.1850586Z"/>
<path id="font_1_38" d="M.6020508 .6767578 .6171875 .45214845H.6020508C.58186849 .51970419 .5530599 .56832888 .515625 .59802249 .4781901 .62772628 .43326823 .6425781 .38085938 .6425781 .33691407 .6425781 .29720054 .6314189 .26171876 .60910037 .22623699 .586792 .19832357 .5512034 .17797852 .5023346 .15763347 .4534658 .14746094 .3927053 .14746094 .3200531 .14746094 .26011659 .1570638 .20815532 .17626953 .16416931 .19547527 .12019348 .22436524 .08647665 .26293946 .0630188 .30151368 .039560956 .34554038 .027832032 .39501954 .027832032 .43798829 .027832032 .47591148 .037027997 .50878909 .055419923 .5416667 .07381185 .5777995 .11035156 .6171875 .16503906L.6323242 .15530396C.5991211 .09653727 .5603841 .05351766 .5161133 .026245118 .47184245-.0010172526 .41927085-.0146484379 .35839845-.0146484379 .24869792-.0146484379 .16373699 .025985718 .103515628 .10725403 .05859375 .16770935 .036132814 .23889669 .036132814 .32081605 .036132814 .3868052 .05094401 .44742839 .080566409 .50268557 .110188808 .5579427 .15096028 .60076907 .20288086 .63116458 .25480143 .66156008 .31152345 .6767578 .37304688 .6767578 .42089845 .6767578 .46809898 .66503909 .51464846 .64160159 .5283203 .6344401 .53808596 .6308594 .5439453 .6308594 .5527344 .6308594 .5603841 .63395187 .56689456 .6401367 .5753581 .6489258 .5813802 .6611328 .58496096 .6767578H.6020508Z"/>
<path id="font_1_53" d="M.67578127 0H.49902345L.27490235 .31054688C.25830079 .30989585 .24479167 .3095703 .234375 .3095703 .23014324 .3095703 .22558594 .3096517 .22070313 .30981446 .21582031 .3099772 .21077474 .31022135 .2055664 .31054688V.11752319C.2055664 .07571411 .2101237 .049748739 .21923828 .039627077 .23160808 .025253296 .25016276 .018066407 .27490235 .018066407H.30078126V0H.017089844V.018066407H.041992189C.06998698 .018066407 .09000651 .02718099 .10205078 .045410158 .10888672 .0555013 .11230469 .079427089 .11230469 .1171875V.5449219C.11230469 .58658859 .1077474 .61246749 .09863281 .6225586 .0859375 .63688156 .06705729 .64404299 .041992189 .64404299H.017089844V.6621094H.25830079C.32861329 .6621094 .38045249 .6569977 .41381837 .6467743 .44718424 .6365509 .47550456 .61772158 .4987793 .59028628 .522054 .56286117 .5336914 .53016158 .5336914 .4921875 .5336914 .45161949 .52042648 .4164022 .49389649 .38653565 .46736656 .3566793 .42626954 .33558146 .37060548 .3232422L.5073242 .13269043C.5385742 .08892822 .5654297 .05986023 .5878906 .04548645 .61035159 .031122843 .63964846 .021982829 .67578127 .018066407V0M.2055664 .34033204C.2117513 .34033204 .21712239 .34025065 .22167969 .3400879 .22623699 .33992515 .22998047 .33984376 .23291016 .33984376 .2960612 .33984376 .3436686 .35351563 .37573243 .38085938 .40779624 .40820313 .42382813 .44303385 .42382813 .48535157 .42382813 .5266927 .41088868 .56030276 .38500978 .58618167 .35913087 .61206057 .32486979 .625 .28222657 .625 .26334635 .625 .23779297 .62190756 .2055664 .61572268V.34033204Z"/>
<path id="font_1_84" d="M.4272461 .45996095V-.11480713C.4272461-.14343262 .42919923-.16180928 .43310548-.16993714 .43701173-.17807515 .44311524-.18441773 .45141603-.18896485 .4597168-.19352214 .47591148-.19580078 .5-.19580078V-.21386719H.27441407V-.19580078H.2836914C.30192057-.19580078 .31575523-.19319661 .3251953-.18798828 .33170573-.18440755 .33691407-.17797852 .3408203-.16870117 .34472657-.15942383 .3466797-.1414388 .3466797-.114746097V.07763672C.31705729 .04248047 .29117839 .018473307 .26904298 .0056152346 .24690755-.0072428386 .22395833-.013671875 .20019531-.013671875 .15690105-.013671875 .118245448 .0060017907 .084228519 .04534912 .05021159 .08469645 .033203126 .13737488 .033203126 .2033844 .033203126 .27915956 .055664064 .3408661 .10058594 .38850404 .14550781 .43614198 .19970703 .45996095 .2631836 .45996095 .28173829 .45996095 .29882813 .45735679 .31445313 .45214845 .33007813 .4469401 .34407554 .4391276 .3564453 .42871095 .37532554 .43782554 .39339195 .4482422 .41064454 .45996095H.4272461M.3466797 .10832214V.31800843C.3466797 .34239198 .34350587 .36157228 .3371582 .37554933 .33081056 .38953654 .3194987 .4014028 .30322267 .41114808 .28694663 .42090354 .2685547 .42578126 .24804688 .42578126 .21158855 .42578126 .18033855 .41033937 .15429688 .37945558 .1282552 .34857179 .115234378 .3017578 .115234378 .23901367 .115234378 .1788737 .12849935 .13319905 .1550293 .101989749 .18155925 .07078043 .21354167 .05517578 .25097657 .05517578 .27018229 .05517578 .28727214 .059321088 .3022461 .067611698 .31722007 .075902309 .33203126 .08947245 .3466797 .10832214Z"/>
<path id="font_1_54" d="M.4584961 .6767578V.4482422H.4404297C.4345703 .4921875 .42407228 .52718099 .40893556 .55322268 .39379884 .57926437 .37223307 .5999349 .34423829 .6152344 .3162435 .6305339 .28727214 .6381836 .25732423 .6381836 .22347005 .6381836 .19547527 .6278534 .17333985 .607193 .15120442 .5865428 .14013672 .56304427 .14013672 .5366974 .14013672 .51652529 .14713542 .4981486 .16113281 .48156739 .18131511 .45716349 .22932942 .42463175 .30517579 .38397218 .36702476 .35079957 .40926109 .3253479 .43188478 .3076172 .45450846 .28989665 .47192384 .2689972 .48413087 .24491883 .4963379 .22085063 .5024414 .19564311 .5024414 .16929627 .5024414 .11920675 .48299156 .076024379 .4440918 .039749147 .40519206 .00348409 .35514323-.0146484379 .2939453-.0146484379 .2747396-.0146484379 .2566732-.0132039389 .2397461-.010314941 .22965496-.008707683 .20874024-.002843221 .17700196 .0072784426 .14526367 .017400107 .12516277 .022460938 .11669922 .022460938 .108561199 .022460938 .102132167 .020050049 .09741211 .0152282719 .092692058 .010406494 .08919271 .00044759117 .08691406-.0146484379H.068847659V.21191406H.08691406C.0953776 .16438802 .106770839 .12882488 .12109375 .10522461 .13541667 .08162435 .15730794 .06201172 .18676758 .04638672 .21622722 .030761719 .24853516 .022949219 .2836914 .022949219 .3243815 .022949219 .3565267 .033681234 .38012696 .055145265 .4037272 .07661947 .41552735 .101994838 .41552735 .13127136 .41552735 .14753723 .41105143 .16396077 .4020996 .18054199 .3931478 .19713338 .37923179 .21258545 .36035157 .2268982 .34765626 .23665364 .31298829 .25739036 .25634767 .28910829 .19970703 .3208262 .15942383 .3461151 .13549805 .36497499 .111572269 .383845 .09342448 .4046631 .08105469 .4274292 .0686849 .45020548 .0625 .47525535 .0625 .50257876 .0625 .5500641 .080729167 .5909627 .1171875 .62527468 .15364583 .65959677 .20003255 .6767578 .25634767 .6767578 .2915039 .6767578 .32877604 .66813156 .36816407 .6508789 .38639323 .6427409 .3992513 .6386719 .40673829 .6386719 .4152018 .6386719 .42211915 .64119467 .42749024 .64624026 .43286134 .6512858 .43717448 .6614583 .4404297 .6767578H.4584961Z"/>
<path id="font_1_52" d="M.4404297-.0078125C.4736328-.064941409 .5095215-.10697428 .5480957-.13391114 .5866699-.16085816 .6305339-.17627971 .6796875-.18017578V-.19628906C.6347656-.19466146 .5867513-.18562825 .53564456-.16918946 .48453776-.15275066 .43611656-.12996419 .39038087-.10083008 .34464518-.07169596 .30517579-.040690107 .27197267-.0078125 .22509766 .011067708 .18798828 .03108724 .16064453 .052246095 .12093099 .08382162 .09008789 .12263998 .068115238 .16870117 .046142579 .21476238 .03515625 .26920573 .03515625 .33203126 .03515625 .4309896 .067220058 .5131836 .13134766 .5786133 .19547527 .64404299 .27311198 .6767578 .3642578 .6767578 .45084635 .6767578 .52579757 .6439616 .5891113 .57836917 .6524251 .5127767 .68408206 .43001304 .68408206 .33007813 .68408206 .24902344 .66153976 .17789714 .6164551 .11669922 .5713704 .0555013 .5126953 .0139973959 .4404297-.0078125M.35839845 .63916018C.29915367 .63916018 .25146485 .6180013 .21533203 .5756836 .16975911 .5226237 .14697266 .44140626 .14697266 .33203126 .14697266 .22493489 .17008464 .14241536 .2163086 .084472659 .25211589 .0398763 .29947917 .017578125 .35839845 .017578125 .41959635 .017578125 .46891276 .0398763 .50634768 .084472659 .55029299 .13720703 .5722656 .21500652 .5722656 .3178711 .5722656 .39697267 .5602214 .46354167 .5361328 .5175781 .5175781 .5592448 .49291993 .5899251 .4621582 .60961917 .43139649 .6293132 .3968099 .63916018 .35839845 .63916018Z"/>
</defs>
<path transform="matrix(1,0,0,-1,183.946,20.876004)" d="M45.62181 15.01039H-45.62181C-47.82275 15.01039-49.60692 13.22623-49.60692 11.02528V-11.02528C-49.60692-13.22623-47.82275-15.01039-45.62181-15.01039H45.62181C47.82275-15.01039 49.60692-13.22623 49.60692-11.02528V11.02528C49.60692 13.22623 47.82275 15.01039 45.62181 15.01039ZM-49.60692-15.01039" fill="#d4effc"/>
<path transform="matrix(1,0,0,-1,183.946,20.876004)" stroke-width=".3985" stroke-linecap="butt" stroke-miterlimit="10" stroke-linejoin="miter" fill="none" stroke="#000000" d="M45.62181 15.01039H-45.62181C-47.82275 15.01039-49.60692 13.22623-49.60692 11.02528V-11.02528C-49.60692-13.22623-47.82275-15.01039-45.62181-15.01039H45.62181C47.82275-15.01039 49.60692-13.22623 49.60692-11.02528V11.02528C49.60692 13.22623 47.82275 15.01039 45.62181 15.01039ZM-49.60692-15.01039"/>
<use data-text="g" xlink:href="#font_1_74" transform="matrix(8.9664,0,0,-8.9664,148.461,17.761002)"/>
<use data-text="i" xlink:href="#font_1_76" transform="matrix(8.9664,0,0,-8.9664,152.9442,17.761002)"/>
<use data-text="a" xlink:href="#font_1_68" transform="matrix(8.9664,0,0,-8.9664,155.43686,17.761002)"/>
<use data-text="o" xlink:href="#font_1_82" transform="matrix(8.9664,0,0,-8.9664,159.41794,17.761002)"/>
<use data-text="_" xlink:href="#font_1_66" transform="matrix(8.9664,0,0,-8.9664,163.90114,17.761002)"/>
<use data-text="d" xlink:href="#font_1_71" transform="matrix(8.9664,0,0,-8.9664,168.38434,17.761002)"/>
<use data-text="i" xlink:href="#font_1_76" transform="matrix(8.9664,0,0,-8.9664,172.86754,17.761002)"/>
<use data-text="e" xlink:href="#font_1_72" transform="matrix(8.9664,0,0,-8.9664,175.3602,17.761002)"/>
<use data-text="n" xlink:href="#font_1_81" transform="matrix(8.9664,0,0,-8.9664,179.34128,17.761002)"/>
<use data-text="_" xlink:href="#font_1_66" transform="matrix(8.9664,0,0,-8.9664,183.82448,17.761002)"/>
<use data-text="c" xlink:href="#font_1_70" transform="matrix(8.9664,0,0,-8.9664,188.30768,17.761002)"/>
<use data-text="h" xlink:href="#font_1_75" transform="matrix(8.9664,0,0,-8.9664,192.28876,17.761002)"/>
<use data-text="i" xlink:href="#font_1_76" transform="matrix(8.9664,0,0,-8.9664,196.77196,17.761002)"/>
<use data-text="n" xlink:href="#font_1_81" transform="matrix(8.9664,0,0,-8.9664,199.26462,17.761002)"/>
<use data-text="h" xlink:href="#font_1_75" transform="matrix(8.9664,0,0,-8.9664,203.74782,17.761002)"/>
<use data-text="." xlink:href="#font_1_17" transform="matrix(8.9664,0,0,-8.9664,208.23102,17.761002)"/>
<use data-text="p" xlink:href="#font_1_83" transform="matrix(8.9664,0,0,-8.9664,210.47261,17.761002)"/>
<use data-text="y" xlink:href="#font_1_92" transform="matrix(8.9664,0,0,-8.9664,214.95581,17.761002)"/>
<use data-text="G" xlink:href="#font_1_42" transform="matrix(8.9664,0,0,-8.9664,152.075,28.720002)"/>
<use data-text="i" xlink:href="#font_1_76" transform="matrix(8.9664,0,0,-8.9664,158.54874,28.720002)"/>
<use data-text="a" xlink:href="#font_1_68" transform="matrix(8.9664,0,0,-8.9664,161.0414,28.720002)"/>
<use data-text="o" xlink:href="#font_1_82" transform="matrix(8.9664,0,0,-8.9664,165.02248,28.720002)"/>
<use data-text="d" xlink:href="#font_1_71" transform="matrix(8.9664,0,0,-8.9664,171.74729,28.720002)"/>
<use data-text="i" xlink:href="#font_1_76" transform="matrix(8.9664,0,0,-8.9664,176.23049,28.720002)"/>
<use data-text="&#x1ec7;" xlink:href="#font_1_1227" transform="matrix(8.9664,0,0,-8.9664,178.72315,28.720002)"/>
<use data-text="n" xlink:href="#font_1_81" transform="matrix(8.9664,0,0,-8.9664,182.70423,28.720002)"/>
<use data-text="T" xlink:href="#font_1_55" transform="matrix(8.9664,0,0,-8.9664,189.42903,28.720002)"/>
<use data-text="k" xlink:href="#font_1_78" transform="matrix(8.9664,0,0,-8.9664,194.9075,28.720002)"/>
<use data-text="i" xlink:href="#font_1_76" transform="matrix(8.9664,0,0,-8.9664,199.3907,28.720002)"/>
<use data-text="n" xlink:href="#font_1_81" transform="matrix(8.9664,0,0,-8.9664,201.88336,28.720002)"/>
<use data-text="t" xlink:href="#font_1_87" transform="matrix(8.9664,0,0,-8.9664,206.36656,28.720002)"/>
<use data-text="e" xlink:href="#font_1_72" transform="matrix(8.9664,0,0,-8.9664,208.85923,28.720002)"/>
<use data-text="r" xlink:href="#font_1_85" transform="matrix(8.9664,0,0,-8.9664,212.8403,28.720002)"/>
<path transform="matrix(1,0,0,-1,183.946,20.876004)" d="M46.13579-57.92912H-46.13579C-48.33673-57.92912-50.1209-59.71329-50.1209-61.91423V-83.96483C-50.1209-86.16576-48.33673-87.94994-46.13579-87.94994H46.13579C48.33673-87.94994 50.1209-86.16576 50.1209-83.96483V-61.91423C50.1209-59.71329 48.33673-57.92912 46.13579-57.92912ZM-50.1209-87.94994" fill="#ffecd9"/>
<path transform="matrix(1,0,0,-1,183.946,20.876004)" stroke-width=".3985" stroke-linecap="butt" stroke-miterlimit="10" stroke-linejoin="miter" fill="none" stroke="#000000" d="M46.13579-57.92912H-46.13579C-48.33673-57.92912-50.1209-59.71329-50.1209-61.91423V-83.96483C-50.1209-86.16576-48.33673-87.94994-46.13579-87.94994H46.13579C48.33673-87.94994 50.1209-86.16576 50.1209-83.96483V-61.91423C50.1209-59.71329 48.33673-57.92912 46.13579-57.92912ZM-50.1209-87.94994"/>
<use data-text="d" xlink:href="#font_1_71" transform="matrix(8.9664,0,0,-8.9664,139.494,90.7)"/>
<use data-text="i" xlink:href="#font_1_76" transform="matrix(8.9664,0,0,-8.9664,143.9772,90.7)"/>
<use data-text="e" xlink:href="#font_1_72" transform="matrix(8.9664,0,0,-8.9664,146.46987,90.7)"/>
<use data-text="u" xlink:href="#font_1_88" transform="matrix(8.9664,0,0,-8.9664,150.45095,90.7)"/>
<use data-text="_" xlink:href="#font_1_66" transform="matrix(8.9664,0,0,-8.9664,154.93415,90.7)"/>
<use data-text="k" xlink:href="#font_1_78" transform="matrix(8.9664,0,0,-8.9664,159.41735,90.7)"/>
<use data-text="h" xlink:href="#font_1_75" transform="matrix(8.9664,0,0,-8.9664,163.90055,90.7)"/>
<use data-text="i" xlink:href="#font_1_76" transform="matrix(8.9664,0,0,-8.9664,168.38375,90.7)"/>
<use data-text="e" xlink:href="#font_1_72" transform="matrix(8.9664,0,0,-8.9664,170.8764,90.7)"/>
<use data-text="n" xlink:href="#font_1_81" transform="matrix(8.9664,0,0,-8.9664,174.85749,90.7)"/>
<use data-text="_" xlink:href="#font_1_66" transform="matrix(8.9664,0,0,-8.9664,179.34069,90.7)"/>
<use data-text="h" xlink:href="#font_1_75" transform="matrix(8.9664,0,0,-8.9664,183.82389,90.7)"/>
<use data-text="e" xlink:href="#font_1_72" transform="matrix(8.9664,0,0,-8.9664,188.30709,90.7)"/>
<use data-text="_" xlink:href="#font_1_66" transform="matrix(8.9664,0,0,-8.9664,192.28816,90.7)"/>
<use data-text="t" xlink:href="#font_1_87" transform="matrix(8.9664,0,0,-8.9664,196.77136,90.7)"/>
<use data-text="h" xlink:href="#font_1_75" transform="matrix(8.9664,0,0,-8.9664,199.26403,90.7)"/>
<use data-text="o" xlink:href="#font_1_82" transform="matrix(8.9664,0,0,-8.9664,203.74723,90.7)"/>
<use data-text="n" xlink:href="#font_1_81" transform="matrix(8.9664,0,0,-8.9664,208.23043,90.7)"/>
<use data-text="g" xlink:href="#font_1_74" transform="matrix(8.9664,0,0,-8.9664,212.71363,90.7)"/>
<use data-text="." xlink:href="#font_1_17" transform="matrix(8.9664,0,0,-8.9664,217.19683,90.7)"/>
<use data-text="p" xlink:href="#font_1_83" transform="matrix(8.9664,0,0,-8.9664,219.43842,90.7)"/>
<use data-text="y" xlink:href="#font_1_92" transform="matrix(8.9664,0,0,-8.9664,223.92162,90.7)"/>
<use data-text="B" xlink:href="#font_1_37" transform="matrix(8.9664,0,0,-8.9664,158.793,101.659)"/>
<use data-text="&#x1ed9;" xlink:href="#font_1_1245" transform="matrix(8.9664,0,0,-8.9664,164.77359,101.659)"/>
<use data-text="&#x0111;" xlink:href="#font_1_255" transform="matrix(8.9664,0,0,-8.9664,171.4984,101.659)"/>
<use data-text="i" xlink:href="#font_1_76" transform="matrix(8.9664,0,0,-8.9664,175.9816,101.659)"/>
<use data-text="&#x1ec1;" xlink:href="#font_1_1221" transform="matrix(8.9664,0,0,-8.9664,178.47426,101.659)"/>
<use data-text="u" xlink:href="#font_1_88" transform="matrix(8.9664,0,0,-8.9664,182.45534,101.659)"/>
<use data-text="k" xlink:href="#font_1_78" transform="matrix(8.9664,0,0,-8.9664,189.18015,101.659)"/>
<use data-text="h" xlink:href="#font_1_75" transform="matrix(8.9664,0,0,-8.9664,193.66335,101.659)"/>
<use data-text="i" xlink:href="#font_1_76" transform="matrix(8.9664,0,0,-8.9664,198.14655,101.659)"/>
<use data-text="&#x1ec3;" xlink:href="#font_1_1223" transform="matrix(8.9664,0,0,-8.9664,200.6392,101.659)"/>
<use data-text="n" xlink:href="#font_1_81" transform="matrix(8.9664,0,0,-8.9664,204.62029,101.659)"/>
<path transform="matrix(1,0,0,-1,183.946,20.876004)" d="M-82.85132-130.86865H-174.09497C-176.29592-130.86865-178.08008-132.65282-178.08008-134.85376V-155.54274C-178.08008-157.74369-176.29592-159.52785-174.09497-159.52785H-82.85132C-80.65038-159.52785-78.86621-157.74369-78.86621-155.54274V-134.85376C-78.86621-132.65282-80.65038-130.86865-82.85132-130.86865ZM-178.08008-159.52785" fill="#f5d9e2"/>
<path transform="matrix(1,0,0,-1,183.946,20.876004)" stroke-width=".3985" stroke-linecap="butt" stroke-miterlimit="10" stroke-linejoin="miter" fill="none" stroke="#000000" d="M-82.85132-130.86865H-174.09497C-176.29592-130.86865-178.08008-132.65282-178.08008-134.85376V-155.54274C-178.08008-157.74369-176.29592-159.52785-174.09497-159.52785H-82.85132C-80.65038-159.52785-78.86621-157.74369-78.86621-155.54274V-134.85376C-78.86621-132.65282-80.65038-130.86865-82.85132-130.86865ZM-178.08008-159.52785"/>
<use data-text="n" xlink:href="#font_1_81" transform="matrix(8.9664,0,0,-8.9664,15.005989,163.64)"/>
<use data-text="h" xlink:href="#font_1_75" transform="matrix(8.9664,0,0,-8.9664,19.48919,163.64)"/>
<use data-text="a" xlink:href="#font_1_68" transform="matrix(8.9664,0,0,-8.9664,23.97239,163.64)"/>
<use data-text="n" xlink:href="#font_1_81" transform="matrix(8.9664,0,0,-8.9664,27.953469,163.64)"/>
<use data-text="_" xlink:href="#font_1_66" transform="matrix(8.9664,0,0,-8.9664,32.43666,163.64)"/>
<use data-text="d" xlink:href="#font_1_71" transform="matrix(8.9664,0,0,-8.9664,36.91986,163.64)"/>
<use data-text="i" xlink:href="#font_1_76" transform="matrix(8.9664,0,0,-8.9664,41.40306,163.64)"/>
<use data-text="e" xlink:href="#font_1_72" transform="matrix(8.9664,0,0,-8.9664,43.89572,163.64)"/>
<use data-text="n" xlink:href="#font_1_81" transform="matrix(8.9664,0,0,-8.9664,47.8768,163.64)"/>
<use data-text="_" xlink:href="#font_1_66" transform="matrix(8.9664,0,0,-8.9664,52.36,163.64)"/>
<use data-text="b" xlink:href="#font_1_69" transform="matrix(8.9664,0,0,-8.9664,56.8432,163.64)"/>
<use data-text="i" xlink:href="#font_1_76" transform="matrix(8.9664,0,0,-8.9664,61.3264,163.64)"/>
<use data-text="e" xlink:href="#font_1_72" transform="matrix(8.9664,0,0,-8.9664,63.81906,163.64)"/>
<use data-text="n" xlink:href="#font_1_81" transform="matrix(8.9664,0,0,-8.9664,67.80014,163.64)"/>
<use data-text="_" xlink:href="#font_1_66" transform="matrix(8.9664,0,0,-8.9664,72.28334,163.64)"/>
<use data-text="s" xlink:href="#font_1_86" transform="matrix(8.9664,0,0,-8.9664,76.76654,163.64)"/>
<use data-text="o" xlink:href="#font_1_82" transform="matrix(8.9664,0,0,-8.9664,80.25447,163.64)"/>
<use data-text="." xlink:href="#font_1_17" transform="matrix(8.9664,0,0,-8.9664,84.73767,163.64)"/>
<use data-text="p" xlink:href="#font_1_83" transform="matrix(8.9664,0,0,-8.9664,86.97926,163.64)"/>
<use data-text="y" xlink:href="#font_1_92" transform="matrix(8.9664,0,0,-8.9664,91.46246,163.64)"/>
<use data-text="Y" xlink:href="#font_1_60" transform="matrix(8.9664,0,0,-8.9664,12.347992,174.599)"/>
<use data-text="O" xlink:href="#font_1_50" transform="matrix(8.9664,0,0,-8.9664,18.821732,174.599)"/>
<use data-text="L" xlink:href="#font_1_47" transform="matrix(8.9664,0,0,-8.9664,25.295472,174.599)"/>
<use data-text="O" xlink:href="#font_1_50" transform="matrix(8.9664,0,0,-8.9664,30.773941,174.599)"/>
<use data-text="v" xlink:href="#font_1_89" transform="matrix(8.9664,0,0,-8.9664,37.24768,174.599)"/>
<use data-text="8" xlink:href="#font_1_27" transform="matrix(8.9664,0,0,-8.9664,41.73088,174.599)"/>
<use data-text="+" xlink:href="#font_1_14" transform="matrix(8.9664,0,0,-8.9664,48.45569,174.599)"/>
<use data-text="P" xlink:href="#font_1_51" transform="matrix(8.9664,0,0,-8.9664,55.75435,174.599)"/>
<use data-text="a" xlink:href="#font_1_68" transform="matrix(8.9664,0,0,-8.9664,60.73967,174.599)"/>
<use data-text="d" xlink:href="#font_1_71" transform="matrix(8.9664,0,0,-8.9664,64.72075,174.599)"/>
<use data-text="d" xlink:href="#font_1_71" transform="matrix(8.9664,0,0,-8.9664,69.20395,174.599)"/>
<use data-text="l" xlink:href="#font_1_79" transform="matrix(8.9664,0,0,-8.9664,73.68715,174.599)"/>
<use data-text="e" xlink:href="#font_1_72" transform="matrix(8.9664,0,0,-8.9664,76.17981,174.599)"/>
<use data-text="O" xlink:href="#font_1_50" transform="matrix(8.9664,0,0,-8.9664,80.16089,174.599)"/>
<use data-text="C" xlink:href="#font_1_38" transform="matrix(8.9664,0,0,-8.9664,86.63463,174.599)"/>
<use data-text="R" xlink:href="#font_1_53" transform="matrix(8.9664,0,0,-8.9664,92.61522,174.599)"/>
<path transform="matrix(1,0,0,-1,183.946,20.876004)" d="M45.62181-130.86865H-45.62181C-47.82275-130.86865-49.60692-132.65282-49.60692-134.85376V-157.16268C-49.60692-159.3636-47.82275-161.14778-45.62181-161.14778H45.62181C47.82275-161.14778 49.60692-159.3636 49.60692-157.16268V-134.85376C49.60692-132.65282 47.82275-130.86865 45.62181-130.86865ZM-49.60692-161.14778" fill="#d9ffd9"/>
<path transform="matrix(1,0,0,-1,183.946,20.876004)" stroke-width=".3985" stroke-linecap="butt" stroke-miterlimit="10" stroke-linejoin="miter" fill="none" stroke="#000000" d="M45.62181-130.86865H-45.62181C-47.82275-130.86865-49.60692-132.65282-49.60692-134.85376V-157.16268C-49.60692-159.3636-47.82275-161.14778-45.62181-161.14778H45.62181C47.82275-161.14778 49.60692-159.3636 49.60692-157.16268V-134.85376C49.60692-132.65282 47.82275-130.86865 45.62181-130.86865ZM-49.60692-161.14778"/>
<use data-text="q" xlink:href="#font_1_84" transform="matrix(8.9664,0,0,-8.9664,148.209,163.64)"/>
<use data-text="u" xlink:href="#font_1_88" transform="matrix(8.9664,0,0,-8.9664,152.6922,163.64)"/>
<use data-text="a" xlink:href="#font_1_68" transform="matrix(8.9664,0,0,-8.9664,157.1754,163.64)"/>
<use data-text="n" xlink:href="#font_1_81" transform="matrix(8.9664,0,0,-8.9664,161.15648,163.64)"/>
<use data-text="_" xlink:href="#font_1_66" transform="matrix(8.9664,0,0,-8.9664,165.63968,163.64)"/>
<use data-text="l" xlink:href="#font_1_79" transform="matrix(8.9664,0,0,-8.9664,170.12288,163.64)"/>
<use data-text="y" xlink:href="#font_1_92" transform="matrix(8.9664,0,0,-8.9664,172.61554,163.64)"/>
<use data-text="_" xlink:href="#font_1_66" transform="matrix(8.9664,0,0,-8.9664,177.09874,163.64)"/>
<use data-text="d" xlink:href="#font_1_71" transform="matrix(8.9664,0,0,-8.9664,181.58194,163.64)"/>
<use data-text="u" xlink:href="#font_1_88" transform="matrix(8.9664,0,0,-8.9664,186.06514,163.64)"/>
<use data-text="_" xlink:href="#font_1_66" transform="matrix(8.9664,0,0,-8.9664,190.54834,163.64)"/>
<use data-text="l" xlink:href="#font_1_79" transform="matrix(8.9664,0,0,-8.9664,195.03154,163.64)"/>
<use data-text="i" xlink:href="#font_1_76" transform="matrix(8.9664,0,0,-8.9664,197.5242,163.64)"/>
<use data-text="e" xlink:href="#font_1_72" transform="matrix(8.9664,0,0,-8.9664,200.01686,163.64)"/>
<use data-text="u" xlink:href="#font_1_88" transform="matrix(8.9664,0,0,-8.9664,203.99794,163.64)"/>
<use data-text="." xlink:href="#font_1_17" transform="matrix(8.9664,0,0,-8.9664,208.48114,163.64)"/>
<use data-text="p" xlink:href="#font_1_83" transform="matrix(8.9664,0,0,-8.9664,210.72275,163.64)"/>
<use data-text="y" xlink:href="#font_1_92" transform="matrix(8.9664,0,0,-8.9664,215.20595,163.64)"/>
<use data-text="S" xlink:href="#font_1_54" transform="matrix(8.9664,0,0,-8.9664,170.995,174.599)"/>
<use data-text="Q" xlink:href="#font_1_52" transform="matrix(8.9664,0,0,-8.9664,175.98032,174.599)"/>
<use data-text="L" xlink:href="#font_1_47" transform="matrix(8.9664,0,0,-8.9664,182.45406,174.599)"/>
<use data-text="i" xlink:href="#font_1_76" transform="matrix(8.9664,0,0,-8.9664,187.93253,174.599)"/>
<use data-text="t" xlink:href="#font_1_87" transform="matrix(8.9664,0,0,-8.9664,190.42519,174.599)"/>
<use data-text="e" xlink:href="#font_1_72" transform="matrix(8.9664,0,0,-8.9664,192.91785,174.599)"/>
<path transform="matrix(1,0,0,-1,183.946,20.876004)" d="M174.09497-130.86865H82.85132C80.65038-130.86865 78.86621-132.65282 78.86621-134.85376V-155.54274C78.86621-157.74369 80.65038-159.52785 82.85132-159.52785H174.09497C176.29592-159.52785 178.08008-157.74369 178.08008-155.54274V-134.85376C178.08008-132.65282 176.29592-130.86865 174.09497-130.86865ZM78.86621-159.52785" fill="#fffcdf"/>
<path transform="matrix(1,0,0,-1,183.946,20.876004)" stroke-width=".3985" stroke-linecap="butt" stroke-miterlimit="10" stroke-linejoin="miter" fill="none" stroke="#000000" d="M174.09497-130.86865H82.85132C80.65038-130.86865 78.86621-132.65282 78.86621-134.85376V-155.54274C78.86621-157.74369 80.65038-159.52785 82.85132-159.52785H174.09497C176.29592-159.52785 178.08008-157.74369 178.08008-155.54274V-134.85376C178.08008-132.65282 176.29592-130.86865 174.09497-130.86865ZM78.86621-159.52785"/>
<use data-text="g" xlink:href="#font_1_74" transform="matrix(8.9664,0,0,-8.9664,274.19599,163.64)"/>
<use data-text="i" xlink:href="#font_1_76" transform="matrix(8.9664,0,0,-8.9664,278.6792,163.64)"/>
<use data-text="a" xlink:href="#font_1_68" transform="matrix(8.9664,0,0,-8.9664,281.17189,163.64)"/>
<use data-text="o" xlink:href="#font_1_82" transform="matrix(8.9664,0,0,-8.9664,285.15296,163.64)"/>
<use data-text="_" xlink:href="#font_1_66" transform="matrix(8.9664,0,0,-8.9664,289.63615,163.64)"/>
<use data-text="t" xlink:href="#font_1_87" transform="matrix(8.9664,0,0,-8.9664,294.11933,163.64)"/>
<use data-text="i" xlink:href="#font_1_76" transform="matrix(8.9664,0,0,-8.9664,296.612,163.64)"/>
<use data-text="e" xlink:href="#font_1_72" transform="matrix(8.9664,0,0,-8.9664,299.10469,163.64)"/>
<use data-text="p" xlink:href="#font_1_83" transform="matrix(8.9664,0,0,-8.9664,303.08576,163.64)"/>
<use data-text="_" xlink:href="#font_1_66" transform="matrix(8.9664,0,0,-8.9664,307.56895,163.64)"/>
<use data-text="a" xlink:href="#font_1_68" transform="matrix(8.9664,0,0,-8.9664,312.05213,163.64)"/>
<use data-text="r" xlink:href="#font_1_85" transform="matrix(8.9664,0,0,-8.9664,316.0332,163.64)"/>
<use data-text="d" xlink:href="#font_1_71" transform="matrix(8.9664,0,0,-8.9664,319.01905,163.64)"/>
<use data-text="u" xlink:href="#font_1_88" transform="matrix(8.9664,0,0,-8.9664,323.50224,163.64)"/>
<use data-text="i" xlink:href="#font_1_76" transform="matrix(8.9664,0,0,-8.9664,327.9854,163.64)"/>
<use data-text="n" xlink:href="#font_1_81" transform="matrix(8.9664,0,0,-8.9664,330.4781,163.64)"/>
<use data-text="o" xlink:href="#font_1_82" transform="matrix(8.9664,0,0,-8.9664,334.9613,163.64)"/>
<use data-text="." xlink:href="#font_1_17" transform="matrix(8.9664,0,0,-8.9664,339.4445,163.64)"/>
<use data-text="p" xlink:href="#font_1_83" transform="matrix(8.9664,0,0,-8.9664,341.6861,163.64)"/>
<use data-text="y" xlink:href="#font_1_92" transform="matrix(8.9664,0,0,-8.9664,346.1693,163.64)"/>
<use data-text="S" xlink:href="#font_1_54" transform="matrix(8.9664,0,0,-8.9664,301.962,174.599)"/>
<use data-text="e" xlink:href="#font_1_72" transform="matrix(8.9664,0,0,-8.9664,306.94734,174.599)"/>
<use data-text="r" xlink:href="#font_1_85" transform="matrix(8.9664,0,0,-8.9664,310.9284,174.599)"/>
<use data-text="i" xlink:href="#font_1_76" transform="matrix(8.9664,0,0,-8.9664,313.9142,174.599)"/>
<use data-text="a" xlink:href="#font_1_68" transform="matrix(8.9664,0,0,-8.9664,316.40687,174.599)"/>
<use data-text="l" xlink:href="#font_1_79" transform="matrix(8.9664,0,0,-8.9664,320.38795,174.599)"/>
<path transform="matrix(1,0,0,-1,183.946,20.876004)" stroke-width=".79701" stroke-linecap="butt" stroke-miterlimit="10" stroke-linejoin="miter" fill="none" stroke="#000000" d="M0-19.32V-53.6195"/>
<path transform="matrix(0,-1,-1,-0,183.946,42.661085)" d="M5.44046 0 1.28699 1.5706 2.66432 0 1.28699-1.5706Z"/>
<path transform="matrix(0,-1,-1,-0,183.946,42.661085)" stroke-width=".79701" stroke-linecap="butt" stroke-miterlimit="10" stroke-linejoin="miter" fill="none" stroke="#000000" d="M5.44046 0 1.28699 1.5706 2.66432 0 1.28699-1.5706Z"/>
<path transform="matrix(0,1,1,0,183.946,72.03043)" d="M5.44046 0 1.28699 1.5706 2.66432 0 1.28699-1.5706Z"/>
<path transform="matrix(0,1,1,0,183.946,72.03043)" stroke-width=".79701" stroke-linecap="butt" stroke-miterlimit="10" stroke-linejoin="miter" fill="none" stroke="#000000" d="M5.44046 0 1.28699 1.5706 2.66432 0 1.28699-1.5706Z"/>
<path transform="matrix(1,0,0,-1,183.946,20.876004)" stroke-width=".79701" stroke-linecap="butt" stroke-miterlimit="10" stroke-linejoin="miter" fill="none" stroke="#000000" d="M-27.02278-88.14919-99.07562-128.6553"/>
<path transform="matrix(-.87164,.49,.49,.87164,87.019039,148.32343)" d="M5.44046 0 1.28699 1.5706 2.66432 0 1.28699-1.5706Z"/>
<path transform="matrix(-.87164,.49,.49,.87164,87.019039,148.32343)" stroke-width=".79701" stroke-linecap="butt" stroke-miterlimit="10" stroke-linejoin="miter" fill="none" stroke="#000000" d="M5.44046 0 1.28699 1.5706 2.66432 0 1.28699-1.5706Z"/>
<path transform="matrix(1,0,0,-1,183.946,20.876004)" stroke-width=".79701" stroke-linecap="butt" stroke-miterlimit="10" stroke-linejoin="miter" fill="none" stroke="#000000" d="M-102.64795-130.6694-30.60704-90.16357"/>
<path transform="matrix(.87161,-.49008,-.49008,-.87161,151.19037,112.247669)" d="M5.44046 0 1.28699 1.5706 2.66432 0 1.28699-1.5706Z"/>
<path transform="matrix(.87161,-.49008,-.49008,-.87161,151.19037,112.247669)" stroke-width=".79701" stroke-linecap="butt" stroke-miterlimit="10" stroke-linejoin="miter" fill="none" stroke="#000000" d="M5.44046 0 1.28699 1.5706 2.66432 0 1.28699-1.5706Z"/>
<path transform="matrix(1,0,0,-1,183.946,20.876004)" stroke-width=".79701" stroke-linecap="butt" stroke-miterlimit="10" stroke-linejoin="miter" fill="none" stroke="#000000" d="M0-92.25954V-126.55905"/>
<path transform="matrix(0,-1,-1,-0,183.946,115.60062)" d="M5.44046 0 1.28699 1.5706 2.66432 0 1.28699-1.5706Z"/>
<path transform="matrix(0,-1,-1,-0,183.946,115.60062)" stroke-width=".79701" stroke-linecap="butt" stroke-miterlimit="10" stroke-linejoin="miter" fill="none" stroke="#000000" d="M5.44046 0 1.28699 1.5706 2.66432 0 1.28699-1.5706Z"/>
<path transform="matrix(0,1,1,0,183.946,144.96997)" d="M5.44046 0 1.28699 1.5706 2.66432 0 1.28699-1.5706Z"/>
<path transform="matrix(0,1,1,0,183.946,144.96997)" stroke-width=".79701" stroke-linecap="butt" stroke-miterlimit="10" stroke-linejoin="miter" fill="none" stroke="#000000" d="M5.44046 0 1.28699 1.5706 2.66432 0 1.28699-1.5706Z"/>
<path transform="matrix(1,0,0,-1,183.946,20.876004)" stroke-width=".79701" stroke-linecap="butt" stroke-miterlimit="10" stroke-linejoin="miter" fill="none" stroke="#000000" d="M30.6056-90.16339 99.07562-128.6553"/>
<path transform="matrix(-.87166,-.49004,-.49004,.87166,216.70032,112.24739)" d="M5.44046 0 1.28699 1.5706 2.66432 0 1.28699-1.5706Z"/>
<path transform="matrix(-.87166,-.49004,-.49004,.87166,216.70032,112.24739)" stroke-width=".79701" stroke-linecap="butt" stroke-miterlimit="10" stroke-linejoin="miter" fill="none" stroke="#000000" d="M5.44046 0 1.28699 1.5706 2.66432 0 1.28699-1.5706Z"/>
<path transform="matrix(.87164,.49,.49,-.87164,280.87297,148.32343)" d="M5.44046 0 1.28699 1.5706 2.66432 0 1.28699-1.5706Z"/>
<path transform="matrix(.87164,.49,.49,-.87164,280.87297,148.32343)" stroke-width=".79701" stroke-linecap="butt" stroke-miterlimit="10" stroke-linejoin="miter" fill="none" stroke="#000000" d="M5.44046 0 1.28699 1.5706 2.66432 0 1.28699-1.5706Z"/>
</svg>
