<svg xmlns="http://www.w3.org/2000/svg" width="1300" height="500" viewBox="0 0 1300 500">
<defs>
  <marker id="arrow" viewBox="0 0 10 10" refX="9" refY="5" markerWidth="8" markerHeight="8" orient="auto-start-reverse">
    <path d="M 0 0 L 10 5 L 0 10 z" fill="#39566f"/>
  </marker>
  <filter id="shadow" x="-10%" y="-10%" width="120%" height="130%">
    <feDropShadow dx="0" dy="2" stdDeviation="2" flood-color="#18324a" flood-opacity="0.18"/>
  </filter>
</defs>
<rect width="100%" height="100%" fill="#f7fafc"/>
<text x="650.0" y="38" text-anchor="middle" font-family="Arial, sans-serif" font-size="22" font-weight="700" fill="#18324a"><tspan x="650.0" dy="0">Pipeline nhận diện biển số</tspan></text><rect x="30" y="170" width="135" height="92" rx="10" fill="#d9ecff" stroke="#39566f" stroke-width="2" filter="url(#shadow)"/><text x="97.5" y="222.0" text-anchor="middle" font-family="Arial, sans-serif" font-size="13" font-weight="600" fill="#18324a"><tspan x="97.5" dy="0">Ảnh camera</tspan></text><rect x="190" y="170" width="135" height="92" rx="10" fill="#dff7e6" stroke="#39566f" stroke-width="2" filter="url(#shadow)"/><text x="257.5" y="213.0" text-anchor="middle" font-family="Arial, sans-serif" font-size="13" font-weight="600" fill="#18324a"><tspan x="257.5" dy="0">YOLOv8</tspan><tspan x="257.5" dy="20">phát hiện biển</tspan></text><line x1="165" y1="216" x2="190" y2="216" stroke="#39566f" stroke-width="2.4" marker-end="url(#arrow)"/><rect x="350" y="170" width="135" height="92" rx="10" fill="#dff7e6" stroke="#39566f" stroke-width="2" filter="url(#shadow)"/><text x="417.5" y="213.0" text-anchor="middle" font-family="Arial, sans-serif" font-size="13" font-weight="600" fill="#18324a"><tspan x="417.5" dy="0">Cắt vùng</tspan><tspan x="417.5" dy="20">biển số</tspan></text><line x1="325" y1="216" x2="350" y2="216" stroke="#39566f" stroke-width="2.4" marker-end="url(#arrow)"/><rect x="510" y="170" width="135" height="92" rx="10" fill="#fff3c4" stroke="#39566f" stroke-width="2" filter="url(#shadow)"/><text x="577.5" y="213.0" text-anchor="middle" font-family="Arial, sans-serif" font-size="13" font-weight="600" fill="#18324a"><tspan x="577.5" dy="0">Tiền xử lý</tspan><tspan x="577.5" dy="20">Gốc - CLAHE - Otsu</tspan></text><line x1="485" y1="216" x2="510" y2="216" stroke="#39566f" stroke-width="2.4" marker-end="url(#arrow)"/><rect x="670" y="170" width="135" height="92" rx="10" fill="#eadfff" stroke="#39566f" stroke-width="2" filter="url(#shadow)"/><text x="737.5" y="213.0" text-anchor="middle" font-family="Arial, sans-serif" font-size="13" font-weight="600" fill="#18324a"><tspan x="737.5" dy="0">PaddleOCR</tspan><tspan x="737.5" dy="20">đọc ký tự</tspan></text><line x1="645" y1="216" x2="670" y2="216" stroke="#39566f" stroke-width="2.4" marker-end="url(#arrow)"/><rect x="830" y="170" width="135" height="92" rx="10" fill="#ffe3e3" stroke="#39566f" stroke-width="2" filter="url(#shadow)"/><text x="897.5" y="213.0" text-anchor="middle" font-family="Arial, sans-serif" font-size="13" font-weight="600" fill="#18324a"><tspan x="897.5" dy="0">Hậu xử lý</tspan><tspan x="897.5" dy="20">quy tắc VN</tspan></text><line x1="805" y1="216" x2="830" y2="216" stroke="#39566f" stroke-width="2.4" marker-end="url(#arrow)"/><rect x="990" y="170" width="135" height="92" rx="10" fill="#e9eef5" stroke="#39566f" stroke-width="2" filter="url(#shadow)"/><text x="1057.5" y="213.0" text-anchor="middle" font-family="Arial, sans-serif" font-size="13" font-weight="600" fill="#18324a"><tspan x="1057.5" dy="0">Chấm điểm</tspan><tspan x="1057.5" dy="20">chọn tốt nhất</tspan></text><line x1="965" y1="216" x2="990" y2="216" stroke="#39566f" stroke-width="2.4" marker-end="url(#arrow)"/><rect x="1150" y="170" width="135" height="92" rx="10" fill="#d9ecff" stroke="#39566f" stroke-width="2" filter="url(#shadow)"/><text x="1217.5" y="213.0" text-anchor="middle" font-family="Arial, sans-serif" font-size="13" font-weight="600" fill="#18324a"><tspan x="1217.5" dy="0">Biển số</tspan><tspan x="1217.5" dy="20">chuẩn hóa</tspan></text><line x1="1125" y1="216" x2="1150" y2="216" stroke="#39566f" stroke-width="2.4" marker-end="url(#arrow)"/><text x="650" y="360" text-anchor="middle" font-family="Arial, sans-serif" font-size="15" font-weight="600" fill="#5b6b7c"><tspan x="650" dy="0">Ảnh nền đen/chữ trắng được tạo để hiển thị rõ trên giao diện, không thay thế toàn bộ ảnh OCR.</tspan></text></svg>
