<svg xmlns="http://www.w3.org/2000/svg" width="1000" height="1160" viewBox="0 0 1000 1160">
<defs>
  <marker id="arrow" viewBox="0 0 10 10" refX="9" refY="5" markerWidth="8" markerHeight="8" orient="auto-start-reverse">
    <path d="M 0 0 L 10 5 L 0 10 z" fill="#39566f"/>
  </marker>
  <filter id="shadow" x="-10%" y="-10%" width="120%" height="130%">
    <feDropShadow dx="0" dy="2" stdDeviation="2" flood-color="#18324a" flood-opacity="0.18"/>
  </filter>
</defs>
<rect width="100%" height="100%" fill="#f7fafc"/>
<text x="500.0" y="38" text-anchor="middle" font-family="Arial, sans-serif" font-size="22" font-weight="700" fill="#18324a"><tspan x="500.0" dy="0">Lưu đồ xử lý xe vào</tspan></text><rect x="380" y="80" width="240" height="62" rx="10" fill="#d9ecff" stroke="#39566f" stroke-width="2" filter="url(#shadow)"/><text x="500.0" y="117.0" text-anchor="middle" font-family="Arial, sans-serif" font-size="14" font-weight="600" fill="#18324a"><tspan x="500.0" dy="0">Xe tới cổng vào</tspan></text><rect x="380" y="180" width="240" height="62" rx="10" fill="#fff3c4" stroke="#39566f" stroke-width="2" filter="url(#shadow)"/><text x="500.0" y="217.0" text-anchor="middle" font-family="Arial, sans-serif" font-size="14" font-weight="600" fill="#18324a"><tspan x="500.0" dy="0">LM393 vào phát hiện xe</tspan></text><line x1="500" y1="142" x2="500" y2="180" stroke="#39566f" stroke-width="2.4" marker-end="url(#arrow)"/><rect x="380" y="280" width="240" height="62" rx="10" fill="#d9ecff" stroke="#39566f" stroke-width="2" filter="url(#shadow)"/><text x="500.0" y="317.0" text-anchor="middle" font-family="Arial, sans-serif" font-size="14" font-weight="600" fill="#18324a"><tspan x="500.0" dy="0">Chụp frame từ camera vào</tspan></text><line x1="500" y1="242" x2="500" y2="280" stroke="#39566f" stroke-width="2.4" marker-end="url(#arrow)"/><rect x="380" y="380" width="240" height="62" rx="10" fill="#dff7e6" stroke="#39566f" stroke-width="2" filter="url(#shadow)"/><text x="500.0" y="417.0" text-anchor="middle" font-family="Arial, sans-serif" font-size="14" font-weight="600" fill="#18324a"><tspan x="500.0" dy="0">Nhận diện biển số</tspan></text><line x1="500" y1="342" x2="500" y2="380" stroke="#39566f" stroke-width="2.4" marker-end="url(#arrow)"/><line x1="500" y1="442" x2="500" y2="475" stroke="#39566f" stroke-width="2.4" marker-end="url(#arrow)"/><polygon points="500,472.5 650.0,525 500,577.5 350.0,525" fill="#fff3c4" stroke="#39566f" stroke-width="2" filter="url(#shadow)"/><text x="500" y="517" text-anchor="middle" font-family="Arial, sans-serif" font-size="13" font-weight="600" fill="#18324a"><tspan x="500" dy="0">Đọc được</tspan><tspan x="500" dy="20">biển số?</tspan></text><line x1="350" y1="525" x2="210" y2="525" stroke="#39566f" stroke-width="2.4" marker-end="url(#arrow)"/><text x="280.0" y="517.0" text-anchor="middle" font-family="Arial, sans-serif" font-size="12" font-weight="600" fill="#5b6b7c"><tspan x="280.0" dy="0">Không</tspan></text><rect x="70" y="490" width="140" height="70" rx="10" fill="#ffe3e3" stroke="#39566f" stroke-width="2" filter="url(#shadow)"/><text x="140.0" y="522.0" text-anchor="middle" font-family="Arial, sans-serif" font-size="13" font-weight="600" fill="#18324a"><tspan x="140.0" dy="0">Không mở cổng</tspan><tspan x="140.0" dy="20">Ghi log</tspan></text><line x1="500" y1="578" x2="500" y2="625" stroke="#39566f" stroke-width="2.4" marker-end="url(#arrow)"/><text x="500.0" y="593.5" text-anchor="middle" font-family="Arial, sans-serif" font-size="12" font-weight="600" fill="#5b6b7c"><tspan x="500.0" dy="0">Có</tspan></text><polygon points="500,617.5 650.0,670 500,722.5 350.0,670" fill="#fff3c4" stroke="#39566f" stroke-width="2" filter="url(#shadow)"/><text x="500" y="662" text-anchor="middle" font-family="Arial, sans-serif" font-size="13" font-weight="600" fill="#18324a"><tspan x="500" dy="0">Biển số hợp lệ?</tspan></text><line x1="350" y1="670" x2="210" y2="670" stroke="#39566f" stroke-width="2.4" marker-end="url(#arrow)"/><text x="280.0" y="662.0" text-anchor="middle" font-family="Arial, sans-serif" font-size="12" font-weight="600" fill="#5b6b7c"><tspan x="280.0" dy="0">Không</tspan></text><rect x="70" y="635" width="140" height="70" rx="10" fill="#ffe3e3" stroke="#39566f" stroke-width="2" filter="url(#shadow)"/><text x="140.0" y="667.0" text-anchor="middle" font-family="Arial, sans-serif" font-size="12" font-weight="600" fill="#18324a"><tspan x="140.0" dy="0">Không hợp lệ</tspan><tspan x="140.0" dy="20">Không mở</tspan></text><line x1="500" y1="723" x2="500" y2="770" stroke="#39566f" stroke-width="2.4" marker-end="url(#arrow)"/><text x="500.0" y="738.5" text-anchor="middle" font-family="Arial, sans-serif" font-size="12" font-weight="600" fill="#5b6b7c"><tspan x="500.0" dy="0">Có</tspan></text><polygon points="500,762.5 650.0,815 500,867.5 350.0,815" fill="#fff3c4" stroke="#39566f" stroke-width="2" filter="url(#shadow)"/><text x="500" y="807" text-anchor="middle" font-family="Arial, sans-serif" font-size="13" font-weight="600" fill="#18324a"><tspan x="500" dy="0">Xe chưa có</tspan><tspan x="500" dy="20">trong bãi?</tspan></text><line x1="350" y1="815" x2="210" y2="815" stroke="#39566f" stroke-width="2.4" marker-end="url(#arrow)"/><text x="280.0" y="807.0" text-anchor="middle" font-family="Arial, sans-serif" font-size="12" font-weight="600" fill="#5b6b7c"><tspan x="280.0" dy="0">Không</tspan></text><rect x="70" y="780" width="140" height="70" rx="10" fill="#ffe3e3" stroke="#39566f" stroke-width="2" filter="url(#shadow)"/><text x="140.0" y="812.0" text-anchor="middle" font-family="Arial, sans-serif" font-size="12" font-weight="600" fill="#18324a"><tspan x="140.0" dy="0">Đã có trong bãi</tspan><tspan x="140.0" dy="20">Không mở</tspan></text><line x1="500" y1="868" x2="500" y2="915" stroke="#39566f" stroke-width="2.4" marker-end="url(#arrow)"/><text x="500.0" y="883.5" text-anchor="middle" font-family="Arial, sans-serif" font-size="12" font-weight="600" fill="#5b6b7c"><tspan x="500.0" dy="0">Có</tspan></text><polygon points="500,907.5 650.0,960 500,1012.5 350.0,960" fill="#fff3c4" stroke="#39566f" stroke-width="2" filter="url(#shadow)"/><text x="500" y="952" text-anchor="middle" font-family="Arial, sans-serif" font-size="13" font-weight="600" fill="#18324a"><tspan x="500" dy="0">Bãi còn chỗ?</tspan></text><line x1="350" y1="960" x2="210" y2="960" stroke="#39566f" stroke-width="2.4" marker-end="url(#arrow)"/><text x="280.0" y="952.0" text-anchor="middle" font-family="Arial, sans-serif" font-size="12" font-weight="600" fill="#5b6b7c"><tspan x="280.0" dy="0">Không</tspan></text><rect x="70" y="925" width="140" height="70" rx="10" fill="#ffe3e3" stroke="#39566f" stroke-width="2" filter="url(#shadow)"/><text x="140.0" y="957.0" text-anchor="middle" font-family="Arial, sans-serif" font-size="12" font-weight="600" fill="#18324a"><tspan x="140.0" dy="0">Bãi đầy</tspan><tspan x="140.0" dy="20">Không mở</tspan></text><line x1="500" y1="1013" x2="500" y2="1060" stroke="#39566f" stroke-width="2.4" marker-end="url(#arrow)"/><text x="500.0" y="1028.5" text-anchor="middle" font-family="Arial, sans-serif" font-size="12" font-weight="600" fill="#5b6b7c"><tspan x="500.0" dy="0">Có</tspan></text><rect x="380" y="1060" width="240" height="62" rx="10" fill="#e9eef5" stroke="#39566f" stroke-width="2" filter="url(#shadow)"/><text x="500.0" y="1088.0" text-anchor="middle" font-family="Arial, sans-serif" font-size="14" font-weight="600" fill="#18324a"><tspan x="500.0" dy="0">Ghi xe vào</tspan><tspan x="500.0" dy="20">xe_trong_bai</tspan></text><line x1="500" y1="1015" x2="500" y2="1060" stroke="#39566f" stroke-width="2.4" marker-end="url(#arrow)"/><rect x="380" y="1160" width="240" height="62" rx="10" fill="#dff7e6" stroke="#39566f" stroke-width="2" filter="url(#shadow)"/><text x="500.0" y="1188.0" text-anchor="middle" font-family="Arial, sans-serif" font-size="14" font-weight="600" fill="#18324a"><tspan x="500.0" dy="0">Gửi VAO_MO</tspan><tspan x="500.0" dy="20">mở barrier vào</tspan></text><line x1="500" y1="1115" x2="500" y2="1160" stroke="#39566f" stroke-width="2.4" marker-end="url(#arrow)"/><rect x="380" y="1260" width="240" height="62" rx="10" fill="#d9ecff" stroke="#39566f" stroke-width="2" filter="url(#shadow)"/><text x="500.0" y="1288.0" text-anchor="middle" font-family="Arial, sans-serif" font-size="14" font-weight="600" fill="#18324a"><tspan x="500.0" dy="0">Xe đi qua</tspan><tspan x="500.0" dy="20">cảm biến hết vật cản</tspan></text><line x1="500" y1="1215" x2="500" y2="1260" stroke="#39566f" stroke-width="2.4" marker-end="url(#arrow)"/><rect x="380" y="1360" width="240" height="62" rx="10" fill="#fff3c4" stroke="#39566f" stroke-width="2" filter="url(#shadow)"/><text x="500.0" y="1388.0" text-anchor="middle" font-family="Arial, sans-serif" font-size="14" font-weight="600" fill="#18324a"><tspan x="500.0" dy="0">Chờ 2 giây</tspan><tspan x="500.0" dy="20">vùng cổng an toàn</tspan></text><line x1="500" y1="1315" x2="500" y2="1360" stroke="#39566f" stroke-width="2.4" marker-end="url(#arrow)"/><rect x="380" y="1460" width="240" height="62" rx="10" fill="#dff7e6" stroke="#39566f" stroke-width="2" filter="url(#shadow)"/><text x="500.0" y="1488.0" text-anchor="middle" font-family="Arial, sans-serif" font-size="14" font-weight="600" fill="#18324a"><tspan x="500.0" dy="0">Gửi VAO_DONG</tspan><tspan x="500.0" dy="20">đóng barrier vào</tspan></text><line x1="500" y1="1415" x2="500" y2="1460" stroke="#39566f" stroke-width="2.4" marker-end="url(#arrow)"/></svg>
