<svg xmlns="http://www.w3.org/2000/svg" width="1000" height="760" viewBox="0 0 1000 760">
<defs>
  <marker id="arrow" viewBox="0 0 10 10" refX="9" refY="5" markerWidth="8" markerHeight="8" orient="auto-start-reverse">
    <path d="M 0 0 L 10 5 L 0 10 z" fill="#39566f"/>
  </marker>
  <filter id="shadow" x="-10%" y="-10%" width="120%" height="130%">
    <feDropShadow dx="0" dy="2" stdDeviation="2" flood-color="#18324a" flood-opacity="0.18"/>
  </filter>
</defs>
<rect width="100%" height="100%" fill="#f7fafc"/>
<text x="500.0" y="38" text-anchor="middle" font-family="Arial, sans-serif" font-size="22" font-weight="700" fill="#18324a"><tspan x="500.0" dy="0">Lưu đồ đóng barrier an toàn</tspan></text><rect x="395" y="80" width="210" height="62" rx="10" fill="#d9ecff" stroke="#39566f" stroke-width="2" filter="url(#shadow)"/><text x="500.0" y="117.0" text-anchor="middle" font-family="Arial, sans-serif" font-size="15" font-weight="600" fill="#18324a"><tspan x="500.0" dy="0">Barrier đang mở</tspan></text><line x1="500" y1="142" x2="500" y2="190" stroke="#39566f" stroke-width="2.4" marker-end="url(#arrow)"/><polygon points="500,192.5 635.0,245 500,297.5 365.0,245" fill="#fff3c4" stroke="#39566f" stroke-width="2" filter="url(#shadow)"/><text x="500" y="237" text-anchor="middle" font-family="Arial, sans-serif" font-size="13" font-weight="600" fill="#18324a"><tspan x="500" dy="0">Cảm biến còn</tspan><tspan x="500" dy="20">phát hiện xe?</tspan></text><line x1="365" y1="245" x2="220" y2="245" stroke="#39566f" stroke-width="2.4" marker-end="url(#arrow)"/><text x="292.5" y="237.0" text-anchor="middle" font-family="Arial, sans-serif" font-size="12" font-weight="600" fill="#5b6b7c"><tspan x="292.5" dy="0">Có</tspan></text><rect x="80" y="205" width="140" height="80" rx="10" fill="#ffe3e3" stroke="#39566f" stroke-width="2" filter="url(#shadow)"/><text x="150.0" y="242.0" text-anchor="middle" font-family="Arial, sans-serif" font-size="13" font-weight="600" fill="#18324a"><tspan x="150.0" dy="0">Giữ barrier</tspan><tspan x="150.0" dy="20">ở trạng thái mở</tspan></text><path d="M 220 205 C 325.0 205, 325.0 205, 430 205" fill="none" stroke="#39566f" stroke-width="2.4" marker-end="url(#arrow)"/><text x="325.0" y="197.0" text-anchor="middle" font-family="Arial, sans-serif" font-size="12" font-weight="600" fill="#5b6b7c"><tspan x="325.0" dy="0">kiểm tra lại</tspan></text><line x1="500" y1="298" x2="500" y2="360" stroke="#39566f" stroke-width="2.4" marker-end="url(#arrow)"/><text x="500.0" y="321.0" text-anchor="middle" font-family="Arial, sans-serif" font-size="12" font-weight="600" fill="#5b6b7c"><tspan x="500.0" dy="0">Không</tspan></text><rect x="385" y="360" width="230" height="70" rx="10" fill="#dff7e6" stroke="#39566f" stroke-width="2" filter="url(#shadow)"/><text x="500.0" y="392.0" text-anchor="middle" font-family="Arial, sans-serif" font-size="15" font-weight="600" fill="#18324a"><tspan x="500.0" dy="0">Bắt đầu đếm</tspan><tspan x="500.0" dy="20">thời gian quang</tspan></text><line x1="500" y1="430" x2="500" y2="485" stroke="#39566f" stroke-width="2.4" marker-end="url(#arrow)"/><polygon points="500,487.5 640.0,540 500,592.5 360.0,540" fill="#fff3c4" stroke="#39566f" stroke-width="2" filter="url(#shadow)"/><text x="500" y="532" text-anchor="middle" font-family="Arial, sans-serif" font-size="13" font-weight="600" fill="#18324a"><tspan x="500" dy="0">Đã đủ 2 giây</tspan><tspan x="500" dy="20">không vật cản?</tspan></text><line x1="360" y1="540" x2="220" y2="540" stroke="#39566f" stroke-width="2.4" marker-end="url(#arrow)"/><text x="290.0" y="532.0" text-anchor="middle" font-family="Arial, sans-serif" font-size="12" font-weight="600" fill="#5b6b7c"><tspan x="290.0" dy="0">Chưa</tspan></text><rect x="90" y="505" width="130" height="70" rx="10" fill="#e9eef5" stroke="#39566f" stroke-width="2" filter="url(#shadow)"/><text x="155.0" y="537.0" text-anchor="middle" font-family="Arial, sans-serif" font-size="13" font-weight="600" fill="#18324a"><tspan x="155.0" dy="0">Tiếp tục</tspan><tspan x="155.0" dy="20">chờ</tspan></text><path d="M 220 505 C 325.0 505, 325.0 505, 430 505" fill="none" stroke="#39566f" stroke-width="2.4" marker-end="url(#arrow)"/><line x1="500" y1="593" x2="500" y2="650" stroke="#39566f" stroke-width="2.4" marker-end="url(#arrow)"/><text x="500.0" y="613.5" text-anchor="middle" font-family="Arial, sans-serif" font-size="12" font-weight="600" fill="#5b6b7c"><tspan x="500.0" dy="0">Đủ</tspan></text><rect x="380" y="650" width="240" height="70" rx="10" fill="#dff7e6" stroke="#39566f" stroke-width="2" filter="url(#shadow)"/><text x="500.0" y="682.0" text-anchor="middle" font-family="Arial, sans-serif" font-size="15" font-weight="600" fill="#18324a"><tspan x="500.0" dy="0">Gửi lệnh đóng</tspan><tspan x="500.0" dy="20">VAO_DONG / RA_DONG</tspan></text></svg>
