<svg xmlns="http://www.w3.org/2000/svg" width="1250" height="640" viewBox="0 0 1250 640">
<defs>
  <marker id="arrow" viewBox="0 0 10 10" refX="9" refY="5" markerWidth="8" markerHeight="8" orient="auto-start-reverse">
    <path d="M 0 0 L 10 5 L 0 10 z" fill="#39566f"/>
  </marker>
  <filter id="shadow" x="-10%" y="-10%" width="120%" height="130%">
    <feDropShadow dx="0" dy="2" stdDeviation="2" flood-color="#18324a" flood-opacity="0.18"/>
  </filter>
</defs>
<rect width="100%" height="100%" fill="#f7fafc"/>
<text x="625.0" y="38" text-anchor="middle" font-family="Arial, sans-serif" font-size="22" font-weight="700" fill="#18324a"><tspan x="625.0" dy="0">Luồng dữ liệu giữa các khối</tspan></text><rect x="60" y="100" width="190" height="70" rx="7" fill="#d9ecff" stroke="#39566f" stroke-width="2" filter="url(#shadow)"/><text x="155.0" y="141.0" text-anchor="middle" font-family="Arial, sans-serif" font-size="13" font-weight="600" fill="#18324a"><tspan x="155.0" dy="0">Camera vào/ra</tspan></text><rect x="60" y="260" width="190" height="70" rx="7" fill="#fff3c4" stroke="#39566f" stroke-width="2" filter="url(#shadow)"/><text x="155.0" y="301.0" text-anchor="middle" font-family="Arial, sans-serif" font-size="13" font-weight="600" fill="#18324a"><tspan x="155.0" dy="0">Cảm biến LM393</tspan></text><rect x="60" y="420" width="190" height="70" rx="7" fill="#eadfff" stroke="#39566f" stroke-width="2" filter="url(#shadow)"/><text x="155.0" y="461.0" text-anchor="middle" font-family="Arial, sans-serif" font-size="13" font-weight="600" fill="#18324a"><tspan x="155.0" dy="0">Người dùng</tspan></text><rect x="405" y="235" width="240" height="120" rx="10" fill="#fff3c4" stroke="#39566f" stroke-width="2" filter="url(#shadow)"/><text x="525.0" y="292.0" text-anchor="middle" font-family="Arial, sans-serif" font-size="15" font-weight="600" fill="#18324a"><tspan x="525.0" dy="0">Điều khiển</tspan><tspan x="525.0" dy="20">trung tâm</tspan></text><rect x="800" y="80" width="190" height="70" rx="7" fill="#e9eef5" stroke="#39566f" stroke-width="2" filter="url(#shadow)"/><text x="895.0" y="121.0" text-anchor="middle" font-family="Arial, sans-serif" font-size="13" font-weight="600" fill="#18324a"><tspan x="895.0" dy="0">Hàng đợi AI</tspan></text><rect x="800" y="190" width="190" height="70" rx="7" fill="#dff7e6" stroke="#39566f" stroke-width="2" filter="url(#shadow)"/><text x="895.0" y="231.0" text-anchor="middle" font-family="Arial, sans-serif" font-size="13" font-weight="600" fill="#18324a"><tspan x="895.0" dy="0">Nhận diện biển số</tspan></text><rect x="800" y="320" width="190" height="70" rx="7" fill="#e9eef5" stroke="#39566f" stroke-width="2" filter="url(#shadow)"/><text x="895.0" y="361.0" text-anchor="middle" font-family="Arial, sans-serif" font-size="13" font-weight="600" fill="#18324a"><tspan x="895.0" dy="0">SQLite</tspan></text><rect x="800" y="450" width="190" height="70" rx="7" fill="#ffe3e3" stroke="#39566f" stroke-width="2" filter="url(#shadow)"/><text x="895.0" y="491.0" text-anchor="middle" font-family="Arial, sans-serif" font-size="13" font-weight="600" fill="#18324a"><tspan x="895.0" dy="0">Arduino + Servo</tspan></text><path d="M 250 135 C 327.5 135, 327.5 265, 405 265" fill="none" stroke="#39566f" stroke-width="2.4" marker-end="url(#arrow)"/><text x="327.5" y="192.0" text-anchor="middle" font-family="Arial, sans-serif" font-size="12" font-weight="600" fill="#5b6b7c"><tspan x="327.5" dy="0">frame</tspan></text><line x1="250" y1="295" x2="405" y2="295" stroke="#39566f" stroke-width="2.4" marker-end="url(#arrow)"/><text x="327.5" y="287.0" text-anchor="middle" font-family="Arial, sans-serif" font-size="12" font-weight="600" fill="#5b6b7c"><tspan x="327.5" dy="0">trạng thái</tspan></text><path d="M 250 455 C 327.5 455, 327.5 335, 405 335" fill="none" stroke="#39566f" stroke-width="2.4" marker-end="url(#arrow)"/><text x="327.5" y="387.0" text-anchor="middle" font-family="Arial, sans-serif" font-size="12" font-weight="600" fill="#5b6b7c"><tspan x="327.5" dy="0">thao tác</tspan></text><path d="M 645 255 C 722.5 255, 722.5 115, 800 115" fill="none" stroke="#39566f" stroke-width="2.4" marker-end="url(#arrow)"/><text x="722.5" y="177.0" text-anchor="middle" font-family="Arial, sans-serif" font-size="12" font-weight="600" fill="#5b6b7c"><tspan x="722.5" dy="0">ảnh cần OCR</tspan></text><line x1="895" y1="150" x2="895" y2="190" stroke="#39566f" stroke-width="2.4" marker-end="url(#arrow)"/><path d="M 800 225 C 722.5 225, 722.5 270, 645 270" fill="none" stroke="#39566f" stroke-width="2.4" marker-end="url(#arrow)"/><text x="722.5" y="239.5" text-anchor="middle" font-family="Arial, sans-serif" font-size="12" font-weight="600" fill="#5b6b7c"><tspan x="722.5" dy="0">biển số</tspan></text><line x1="645" y1="320" x2="800" y2="355" stroke="#39566f" stroke-width="2.4" marker-end="url(#arrow)"/><text x="722.5" y="329.5" text-anchor="middle" font-family="Arial, sans-serif" font-size="12" font-weight="600" fill="#5b6b7c"><tspan x="722.5" dy="0">kiểm tra / ghi</tspan></text><path d="M 645 345 C 722.5 345, 722.5 485, 800 485" fill="none" stroke="#39566f" stroke-width="2.4" marker-end="url(#arrow)"/><text x="722.5" y="407.0" text-anchor="middle" font-family="Arial, sans-serif" font-size="12" font-weight="600" fill="#5b6b7c"><tspan x="722.5" dy="0">lệnh mở/đóng</tspan></text><path d="M 800 470 C 722.5 470, 722.5 310, 645 310" fill="none" stroke="#39566f" stroke-width="2.4" marker-end="url(#arrow)"/><text x="722.5" y="382.0" text-anchor="middle" font-family="Arial, sans-serif" font-size="12" font-weight="600" fill="#5b6b7c"><tspan x="722.5" dy="0">cảm biến</tspan></text><text x="625" y="585" text-anchor="middle" font-family="Arial, sans-serif" font-size="15" font-weight="600" fill="#5b6b7c"><tspan x="625" dy="0">Dữ liệu chạy theo sự kiện; giao diện chỉ hiển thị trạng thái mới nhất.</tspan></text></svg>
