<svg xmlns="http://www.w3.org/2000/svg" width="1260" height="620" viewBox="0 0 1260 620">
<defs>
  <marker id="arrow" viewBox="0 0 10 10" refX="9" refY="5" markerWidth="8" markerHeight="8" orient="auto-start-reverse">
    <path d="M 0 0 L 10 5 L 0 10 z" fill="#39566f"/>
  </marker>
  <filter id="shadow" x="-10%" y="-10%" width="120%" height="130%">
    <feDropShadow dx="0" dy="2" stdDeviation="2" flood-color="#18324a" flood-opacity="0.18"/>
  </filter>
</defs>
<rect width="100%" height="100%" fill="#f7fafc"/>
<text x="630.0" y="38" text-anchor="middle" font-family="Arial, sans-serif" font-size="22" font-weight="700" fill="#18324a"><tspan x="630.0" dy="0">Quy trình huấn luyện mô hình YOLOv8 phát hiện biển số</tspan></text><rect x="45" y="180" width="145" height="100" rx="10" fill="#d9ecff" stroke="#39566f" stroke-width="2" filter="url(#shadow)"/><text x="117.5" y="227.0" text-anchor="middle" font-family="Arial, sans-serif" font-size="13" font-weight="600" fill="#18324a"><tspan x="117.5" dy="0">Thu thập ảnh</tspan><tspan x="117.5" dy="20">biển số Việt Nam</tspan></text><rect x="217" y="180" width="145" height="100" rx="10" fill="#fff3c4" stroke="#39566f" stroke-width="2" filter="url(#shadow)"/><text x="289.5" y="227.0" text-anchor="middle" font-family="Arial, sans-serif" font-size="13" font-weight="600" fill="#18324a"><tspan x="289.5" dy="0">Gán nhãn bbox</tspan><tspan x="289.5" dy="20">vùng biển số</tspan></text><line x1="190" y1="230" x2="217" y2="230" stroke="#39566f" stroke-width="2.4" marker-end="url(#arrow)"/><rect x="389" y="180" width="145" height="100" rx="10" fill="#e9eef5" stroke="#39566f" stroke-width="2" filter="url(#shadow)"/><text x="461.5" y="227.0" text-anchor="middle" font-family="Arial, sans-serif" font-size="13" font-weight="600" fill="#18324a"><tspan x="461.5" dy="0">Chia tập</tspan><tspan x="461.5" dy="20">train / val</tspan></text><line x1="362" y1="230" x2="389" y2="230" stroke="#39566f" stroke-width="2.4" marker-end="url(#arrow)"/><rect x="561" y="180" width="145" height="100" rx="10" fill="#dff7e6" stroke="#39566f" stroke-width="2" filter="url(#shadow)"/><text x="633.5" y="218.0" text-anchor="middle" font-family="Arial, sans-serif" font-size="13" font-weight="600" fill="#18324a"><tspan x="633.5" dy="0">Huấn luyện</tspan><tspan x="633.5" dy="20">YOLOv8n</tspan><tspan x="633.5" dy="20">100 epochs</tspan></text><line x1="534" y1="230" x2="561" y2="230" stroke="#39566f" stroke-width="2.4" marker-end="url(#arrow)"/><rect x="733" y="180" width="145" height="100" rx="10" fill="#eadfff" stroke="#39566f" stroke-width="2" filter="url(#shadow)"/><text x="805.5" y="218.0" text-anchor="middle" font-family="Arial, sans-serif" font-size="13" font-weight="600" fill="#18324a"><tspan x="805.5" dy="0">Theo dõi loss</tspan><tspan x="805.5" dy="20">precision, recall,</tspan><tspan x="805.5" dy="20">mAP</tspan></text><line x1="706" y1="230" x2="733" y2="230" stroke="#39566f" stroke-width="2.4" marker-end="url(#arrow)"/><rect x="905" y="180" width="145" height="100" rx="10" fill="#ffe3e3" stroke="#39566f" stroke-width="2" filter="url(#shadow)"/><text x="977.5" y="227.0" text-anchor="middle" font-family="Arial, sans-serif" font-size="13" font-weight="600" fill="#18324a"><tspan x="977.5" dy="0">Chọn best.pt</tspan><tspan x="977.5" dy="20">mAP50 cao nhất</tspan></text><line x1="878" y1="230" x2="905" y2="230" stroke="#39566f" stroke-width="2.4" marker-end="url(#arrow)"/><rect x="1077" y="180" width="145" height="100" rx="10" fill="#d9ecff" stroke="#39566f" stroke-width="2" filter="url(#shadow)"/><text x="1149.5" y="227.0" text-anchor="middle" font-family="Arial, sans-serif" font-size="13" font-weight="600" fill="#18324a"><tspan x="1149.5" dy="0">Tích hợp thành</tspan><tspan x="1149.5" dy="20">bien_so_yolo.pt</tspan></text><line x1="1050" y1="230" x2="1077" y2="230" stroke="#39566f" stroke-width="2.4" marker-end="url(#arrow)"/><rect x="160" y="395" width="210" height="90" rx="10" fill="#e9eef5" stroke="#39566f" stroke-width="2" filter="url(#shadow)"/><text x="265.0" y="419.0" text-anchor="middle" font-family="Arial, sans-serif" font-size="13" font-weight="600" fill="#18324a"><tspan x="265.0" dy="0">Tham số chính</tspan><tspan x="265.0" dy="20">imgsz=640</tspan><tspan x="265.0" dy="20">batch=16</tspan><tspan x="265.0" dy="20">pretrained=True</tspan></text><rect x="525" y="395" width="210" height="90" rx="10" fill="#dff7e6" stroke="#39566f" stroke-width="2" filter="url(#shadow)"/><text x="630.0" y="419.0" text-anchor="middle" font-family="Arial, sans-serif" font-size="13" font-weight="600" fill="#18324a"><tspan x="630.0" dy="0">Kết quả huấn luyện</tspan><tspan x="630.0" dy="20">Precision=99.18%</tspan><tspan x="630.0" dy="20">Recall=99.43%</tspan><tspan x="630.0" dy="20">mAP50=99.48%</tspan></text><rect x="890" y="395" width="210" height="90" rx="10" fill="#fff3c4" stroke="#39566f" stroke-width="2" filter="url(#shadow)"/><text x="995.0" y="428.0" text-anchor="middle" font-family="Arial, sans-serif" font-size="13" font-weight="600" fill="#18324a"><tspan x="995.0" dy="0">Vai trò trong hệ thống</tspan><tspan x="995.0" dy="20">Chỉ khoanh vùng biển số</tspan><tspan x="995.0" dy="20">Không đọc ký tự</tspan></text><path d="M 265 395 C 400.0 395, 400.0 280, 535 280" fill="none" stroke="#39566f" stroke-width="2.4" marker-end="url(#arrow)"/><path d="M 630 395 C 660.0 395, 660.0 280, 690 280" fill="none" stroke="#39566f" stroke-width="2.4" marker-end="url(#arrow)"/><path d="M 995 395 C 980.0 395, 980.0 280, 965 280" fill="none" stroke="#39566f" stroke-width="2.4" marker-end="url(#arrow)"/><text x="630" y="565" text-anchor="middle" font-family="Arial, sans-serif" font-size="15" font-weight="700" fill="#5b6b7c"><tspan x="630" dy="0">YOLO được chọn để phát hiện nhanh vùng biển số trong toàn ảnh, giúp OCR chỉ đọc vùng cần thiết.</tspan></text></svg>
