<svg xmlns="http://www.w3.org/2000/svg" width="1000" height="1040" viewBox="0 0 1000 1040">
<defs>
  <marker id="arrow" viewBox="0 0 10 10" refX="9" refY="5" markerWidth="8" markerHeight="8" orient="auto-start-reverse">
    <path d="M 0 0 L 10 5 L 0 10 z" fill="#39566f"/>
  </marker>
  <filter id="shadow" x="-10%" y="-10%" width="120%" height="130%">
    <feDropShadow dx="0" dy="2" stdDeviation="2" flood-color="#18324a" flood-opacity="0.18"/>
  </filter>
</defs>
<rect width="100%" height="100%" fill="#f7fafc"/>
<text x="500.0" y="38" text-anchor="middle" font-family="Arial, sans-serif" font-size="22" font-weight="700" fill="#18324a"><tspan x="500.0" dy="0">Lưu đồ xử lý xe ra</tspan></text><rect x="380" y="80" width="240" height="62" rx="10" fill="#d9ecff" stroke="#39566f" stroke-width="2" filter="url(#shadow)"/><text x="500.0" y="117.0" text-anchor="middle" font-family="Arial, sans-serif" font-size="14" font-weight="600" fill="#18324a"><tspan x="500.0" dy="0">Xe tới cổng ra</tspan></text><rect x="380" y="180" width="240" height="62" rx="10" fill="#fff3c4" stroke="#39566f" stroke-width="2" filter="url(#shadow)"/><text x="500.0" y="217.0" text-anchor="middle" font-family="Arial, sans-serif" font-size="14" font-weight="600" fill="#18324a"><tspan x="500.0" dy="0">LM393 ra phát hiện xe</tspan></text><line x1="500" y1="142" x2="500" y2="180" stroke="#39566f" stroke-width="2.4" marker-end="url(#arrow)"/><rect x="380" y="280" width="240" height="62" rx="10" fill="#d9ecff" stroke="#39566f" stroke-width="2" filter="url(#shadow)"/><text x="500.0" y="317.0" text-anchor="middle" font-family="Arial, sans-serif" font-size="14" font-weight="600" fill="#18324a"><tspan x="500.0" dy="0">Chụp frame từ camera ra</tspan></text><line x1="500" y1="242" x2="500" y2="280" stroke="#39566f" stroke-width="2.4" marker-end="url(#arrow)"/><rect x="380" y="380" width="240" height="62" rx="10" fill="#dff7e6" stroke="#39566f" stroke-width="2" filter="url(#shadow)"/><text x="500.0" y="417.0" text-anchor="middle" font-family="Arial, sans-serif" font-size="14" font-weight="600" fill="#18324a"><tspan x="500.0" dy="0">Nhận diện biển số</tspan></text><line x1="500" y1="342" x2="500" y2="380" stroke="#39566f" stroke-width="2.4" marker-end="url(#arrow)"/><line x1="500" y1="442" x2="500" y2="475" stroke="#39566f" stroke-width="2.4" marker-end="url(#arrow)"/><polygon points="500,472.5 650.0,525 500,577.5 350.0,525" fill="#fff3c4" stroke="#39566f" stroke-width="2" filter="url(#shadow)"/><text x="500" y="517" text-anchor="middle" font-family="Arial, sans-serif" font-size="13" font-weight="600" fill="#18324a"><tspan x="500" dy="0">Biển số có</tspan><tspan x="500" dy="20">trong bãi?</tspan></text><line x1="350" y1="525" x2="210" y2="525" stroke="#39566f" stroke-width="2.4" marker-end="url(#arrow)"/><text x="280.0" y="517.0" text-anchor="middle" font-family="Arial, sans-serif" font-size="12" font-weight="600" fill="#5b6b7c"><tspan x="280.0" dy="0">Không</tspan></text><rect x="70" y="490" width="140" height="70" rx="10" fill="#ffe3e3" stroke="#39566f" stroke-width="2" filter="url(#shadow)"/><text x="140.0" y="522.0" text-anchor="middle" font-family="Arial, sans-serif" font-size="13" font-weight="600" fill="#18324a"><tspan x="140.0" dy="0">Không mở</tspan><tspan x="140.0" dy="20">cổng ra</tspan></text><line x1="500" y1="578" x2="500" y2="625" stroke="#39566f" stroke-width="2.4" marker-end="url(#arrow)"/><text x="500.0" y="593.5" text-anchor="middle" font-family="Arial, sans-serif" font-size="12" font-weight="600" fill="#5b6b7c"><tspan x="500.0" dy="0">Có</tspan></text><rect x="380" y="625" width="240" height="62" rx="10" fill="#e9eef5" stroke="#39566f" stroke-width="2" filter="url(#shadow)"/><text x="500.0" y="653.0" text-anchor="middle" font-family="Arial, sans-serif" font-size="14" font-weight="600" fill="#18324a"><tspan x="500.0" dy="0">Lưu biển số</tspan><tspan x="500.0" dy="20">đang chờ ra</tspan></text><line x1="500" y1="580" x2="500" y2="625" stroke="#39566f" stroke-width="2.4" marker-end="url(#arrow)"/><rect x="380" y="737" width="240" height="62" rx="10" fill="#dff7e6" stroke="#39566f" stroke-width="2" filter="url(#shadow)"/><text x="500.0" y="765.0" text-anchor="middle" font-family="Arial, sans-serif" font-size="14" font-weight="600" fill="#18324a"><tspan x="500.0" dy="0">Gửi RA_MO</tspan><tspan x="500.0" dy="20">mở barrier ra</tspan></text><line x1="500" y1="692" x2="500" y2="737" stroke="#39566f" stroke-width="2.4" marker-end="url(#arrow)"/><rect x="380" y="849" width="240" height="62" rx="10" fill="#d9ecff" stroke="#39566f" stroke-width="2" filter="url(#shadow)"/><text x="500.0" y="877.0" text-anchor="middle" font-family="Arial, sans-serif" font-size="14" font-weight="600" fill="#18324a"><tspan x="500.0" dy="0">Xe đi qua</tspan><tspan x="500.0" dy="20">cảm biến hết vật cản</tspan></text><line x1="500" y1="804" x2="500" y2="849" stroke="#39566f" stroke-width="2.4" marker-end="url(#arrow)"/><rect x="380" y="961" width="240" height="62" rx="10" fill="#fff3c4" stroke="#39566f" stroke-width="2" filter="url(#shadow)"/><text x="500.0" y="989.0" text-anchor="middle" font-family="Arial, sans-serif" font-size="14" font-weight="600" fill="#18324a"><tspan x="500.0" dy="0">Chờ 2 giây</tspan><tspan x="500.0" dy="20">vùng cổng an toàn</tspan></text><line x1="500" y1="916" x2="500" y2="961" stroke="#39566f" stroke-width="2.4" marker-end="url(#arrow)"/><rect x="380" y="1073" width="240" height="62" rx="10" fill="#dff7e6" stroke="#39566f" stroke-width="2" filter="url(#shadow)"/><text x="500.0" y="1101.0" text-anchor="middle" font-family="Arial, sans-serif" font-size="14" font-weight="600" fill="#18324a"><tspan x="500.0" dy="0">Gửi RA_DONG</tspan><tspan x="500.0" dy="20">đóng barrier ra</tspan></text><line x1="500" y1="1028" x2="500" y2="1073" stroke="#39566f" stroke-width="2.4" marker-end="url(#arrow)"/><rect x="380" y="1185" width="240" height="74" rx="10" fill="#e9eef5" stroke="#39566f" stroke-width="2" filter="url(#shadow)"/><text x="500.0" y="1210.0" text-anchor="middle" font-family="Arial, sans-serif" font-size="14" font-weight="600" fill="#18324a"><tspan x="500.0" dy="0">Xóa xe khỏi</tspan><tspan x="500.0" dy="20">xe_trong_bai</tspan><tspan x="500.0" dy="20">Ghi lịch sử RA</tspan></text><line x1="500" y1="1140" x2="500" y2="1185" stroke="#39566f" stroke-width="2.4" marker-end="url(#arrow)"/><text x="500" y="1005" text-anchor="middle" font-family="Arial, sans-serif" font-size="15" font-weight="700" fill="#5b6b7c"><tspan x="500" dy="0">Điểm quan trọng: chỉ cập nhật xe ra sau khi barrier ra đã đóng.</tspan></text></svg>
