<svg xmlns="http://www.w3.org/2000/svg" width="1180" height="620" viewBox="0 0 1180 620">
<defs>
  <marker id="arrow" viewBox="0 0 10 10" refX="9" refY="5" markerWidth="8" markerHeight="8" orient="auto-start-reverse">
    <path d="M 0 0 L 10 5 L 0 10 z" fill="#39566f"/>
  </marker>
  <filter id="shadow" x="-10%" y="-10%" width="120%" height="130%">
    <feDropShadow dx="0" dy="2" stdDeviation="2" flood-color="#18324a" flood-opacity="0.18"/>
  </filter>
</defs>
<rect width="100%" height="100%" fill="#f7fafc"/>
<text x="590.0" y="38" text-anchor="middle" font-family="Arial, sans-serif" font-size="22" font-weight="700" fill="#18324a"><tspan x="590.0" dy="0">Minh họa bố trí mô hình hai cổng</tspan></text><rect x="90" y="150" width="1000" height="300" rx="28" fill="#dfe6ee" stroke="#58708a" stroke-width="3"/><line x1="590" y1="150" x2="590" y2="450" stroke="#ffffff" stroke-width="6" stroke-dasharray="20 16"/><text x="300" y="135" text-anchor="middle" font-family="Arial, sans-serif" font-size="20" font-weight="700" fill="#18324a"><tspan x="300" dy="0">CỔNG VÀO</tspan></text><text x="880" y="135" text-anchor="middle" font-family="Arial, sans-serif" font-size="20" font-weight="700" fill="#18324a"><tspan x="880" dy="0">CỔNG RA</tspan></text><rect x="130" y="180" width="130" height="70" rx="10" fill="#d9ecff" stroke="#39566f" stroke-width="2" filter="url(#shadow)"/><text x="195.0" y="212.0" text-anchor="middle" font-family="Arial, sans-serif" font-size="14" font-weight="600" fill="#18324a"><tspan x="195.0" dy="0">Camera</tspan><tspan x="195.0" dy="20">vào</tspan></text><rect x="920" y="180" width="130" height="70" rx="10" fill="#d9ecff" stroke="#39566f" stroke-width="2" filter="url(#shadow)"/><text x="985.0" y="212.0" text-anchor="middle" font-family="Arial, sans-serif" font-size="14" font-weight="600" fill="#18324a"><tspan x="985.0" dy="0">Camera</tspan><tspan x="985.0" dy="20">ra</tspan></text><rect x="280" y="360" width="130" height="58" rx="10" fill="#ffe3e3" stroke="#39566f" stroke-width="2" filter="url(#shadow)"/><text x="345.0" y="386.0" text-anchor="middle" font-family="Arial, sans-serif" font-size="13" font-weight="600" fill="#18324a"><tspan x="345.0" dy="0">Servo</tspan><tspan x="345.0" dy="20">barrier vào</tspan></text><rect x="760" y="360" width="130" height="58" rx="10" fill="#ffe3e3" stroke="#39566f" stroke-width="2" filter="url(#shadow)"/><text x="825.0" y="386.0" text-anchor="middle" font-family="Arial, sans-serif" font-size="13" font-weight="600" fill="#18324a"><tspan x="825.0" dy="0">Servo</tspan><tspan x="825.0" dy="20">barrier ra</tspan></text><rect x="430" y="180" width="120" height="58" rx="10" fill="#fff3c4" stroke="#39566f" stroke-width="2" filter="url(#shadow)"/><text x="490.0" y="206.0" text-anchor="middle" font-family="Arial, sans-serif" font-size="13" font-weight="600" fill="#18324a"><tspan x="490.0" dy="0">LM393</tspan><tspan x="490.0" dy="20">vào</tspan></text><rect x="630" y="180" width="120" height="58" rx="10" fill="#fff3c4" stroke="#39566f" stroke-width="2" filter="url(#shadow)"/><text x="690.0" y="206.0" text-anchor="middle" font-family="Arial, sans-serif" font-size="13" font-weight="600" fill="#18324a"><tspan x="690.0" dy="0">LM393</tspan><tspan x="690.0" dy="20">ra</tspan></text><rect x="315" y="290" width="210" height="16" rx="8" fill="#f28b8b" transform="rotate(-18 315 290)"/><rect x="660" y="290" width="210" height="16" rx="8" fill="#f28b8b" transform="rotate(18 660 290)"/><rect x="180" y="285" width="120" height="60" rx="12" fill="#9bd0ff" stroke="#39566f" stroke-width="2"/><circle cx="205" cy="350" r="13" fill="#102033"/><circle cx="275" cy="350" r="13" fill="#102033"/><rect x="880" y="285" width="120" height="60" rx="12" fill="#9bd0ff" stroke="#39566f" stroke-width="2"/><circle cx="905" cy="350" r="13" fill="#102033"/><circle cx="975" cy="350" r="13" fill="#102033"/><line x1="300" y1="315" x2="430" y2="225" stroke="#39566f" stroke-width="2.4" marker-end="url(#arrow)"/><text x="365.0" y="262.0" text-anchor="middle" font-family="Arial, sans-serif" font-size="12" font-weight="600" fill="#5b6b7c"><tspan x="365.0" dy="0">xe vào</tspan></text><line x1="880" y1="315" x2="750" y2="225" stroke="#39566f" stroke-width="2.4" marker-end="url(#arrow)"/><text x="815.0" y="262.0" text-anchor="middle" font-family="Arial, sans-serif" font-size="12" font-weight="600" fill="#5b6b7c"><tspan x="815.0" dy="0">xe ra</tspan></text><text x="590" y="540" text-anchor="middle" font-family="Arial, sans-serif" font-size="15" font-weight="600" fill="#5b6b7c"><tspan x="590" dy="0">Cảm biến đặt tại vùng barrier để phát hiện xe còn chắn cổng; camera đặt trước cổng để lấy rõ biển số.</tspan></text></svg>
