<svg xmlns="http://www.w3.org/2000/svg" width="1200" height="720" viewBox="0 0 1200 720">
<defs>
  <marker id="arrow" viewBox="0 0 10 10" refX="9" refY="5" markerWidth="8" markerHeight="8" orient="auto-start-reverse">
    <path d="M 0 0 L 10 5 L 0 10 z" fill="#39566f"/>
  </marker>
  <filter id="shadow" x="-10%" y="-10%" width="120%" height="130%">
    <feDropShadow dx="0" dy="2" stdDeviation="2" flood-color="#18324a" flood-opacity="0.18"/>
  </filter>
</defs>
<rect width="100%" height="100%" fill="#f7fafc"/>
<text x="600.0" y="38" text-anchor="middle" font-family="Arial, sans-serif" font-size="22" font-weight="700" fill="#18324a"><tspan x="600.0" dy="0">Sơ đồ module phần mềm</tspan></text><rect x="470" y="90" width="260" height="110" rx="10" fill="#fff3c4" stroke="#39566f" stroke-width="2" filter="url(#shadow)"/><text x="600.0" y="133.0" text-anchor="middle" font-family="Arial, sans-serif" font-size="15" font-weight="600" fill="#18324a"><tspan x="600.0" dy="0">Điều khiển trung tâm</tspan><tspan x="600.0" dy="20">Quản lý trạng thái</tspan><tspan x="600.0" dy="20">Ra quyết định</tspan></text><rect x="70" y="280" width="210" height="105" rx="10" fill="#eadfff" stroke="#39566f" stroke-width="2" filter="url(#shadow)"/><text x="175.0" y="329.5" text-anchor="middle" font-family="Arial, sans-serif" font-size="15" font-weight="600" fill="#18324a"><tspan x="175.0" dy="0">Giao diện Tkinter</tspan><tspan x="175.0" dy="20">Hiển thị / thao tác</tspan></text><rect x="330" y="280" width="210" height="105" rx="10" fill="#d9ecff" stroke="#39566f" stroke-width="2" filter="url(#shadow)"/><text x="435.0" y="329.5" text-anchor="middle" font-family="Arial, sans-serif" font-size="15" font-weight="600" fill="#18324a"><tspan x="435.0" dy="0">Camera service</tspan><tspan x="435.0" dy="20">2 luồng camera</tspan></text><rect x="590" y="280" width="210" height="105" rx="10" fill="#dff7e6" stroke="#39566f" stroke-width="2" filter="url(#shadow)"/><text x="695.0" y="329.5" text-anchor="middle" font-family="Arial, sans-serif" font-size="15" font-weight="600" fill="#18324a"><tspan x="695.0" dy="0">AI nhận diện</tspan><tspan x="695.0" dy="20">YOLOv8 + OCR</tspan></text><rect x="850" y="280" width="210" height="105" rx="10" fill="#e9eef5" stroke="#39566f" stroke-width="2" filter="url(#shadow)"/><text x="955.0" y="329.5" text-anchor="middle" font-family="Arial, sans-serif" font-size="15" font-weight="600" fill="#18324a"><tspan x="955.0" dy="0">Cơ sở dữ liệu</tspan><tspan x="955.0" dy="20">SQLite</tspan></text><rect x="470" y="520" width="260" height="105" rx="10" fill="#ffe3e3" stroke="#39566f" stroke-width="2" filter="url(#shadow)"/><text x="600.0" y="569.5" text-anchor="middle" font-family="Arial, sans-serif" font-size="15" font-weight="600" fill="#18324a"><tspan x="600.0" dy="0">Giao tiếp Arduino</tspan><tspan x="600.0" dy="20">Serial COM</tspan></text><path d="M 200 280 C 335.0 280, 335.0 160, 470 160" fill="none" stroke="#39566f" stroke-width="2.4" marker-end="url(#arrow)"/><text x="335.0" y="212.0" text-anchor="middle" font-family="Arial, sans-serif" font-size="12" font-weight="600" fill="#5b6b7c"><tspan x="335.0" dy="0">sự kiện UI</tspan></text><path d="M 435 280 C 490.0 280, 490.0 200, 545 200" fill="none" stroke="#39566f" stroke-width="2.4" marker-end="url(#arrow)"/><text x="490.0" y="232.0" text-anchor="middle" font-family="Arial, sans-serif" font-size="12" font-weight="600" fill="#5b6b7c"><tspan x="490.0" dy="0">frame</tspan></text><path d="M 695 280 C 675.0 280, 675.0 200, 655 200" fill="none" stroke="#39566f" stroke-width="2.4" marker-end="url(#arrow)"/><text x="675.0" y="232.0" text-anchor="middle" font-family="Arial, sans-serif" font-size="12" font-weight="600" fill="#5b6b7c"><tspan x="675.0" dy="0">kết quả</tspan></text><path d="M 955 280 C 842.5 280, 842.5 160, 730 160" fill="none" stroke="#39566f" stroke-width="2.4" marker-end="url(#arrow)"/><text x="842.5" y="212.0" text-anchor="middle" font-family="Arial, sans-serif" font-size="12" font-weight="600" fill="#5b6b7c"><tspan x="842.5" dy="0">truy vấn</tspan></text><line x1="600" y1="520" x2="600" y2="200" stroke="#39566f" stroke-width="2.4" marker-end="url(#arrow)"/><text x="600.0" y="352.0" text-anchor="middle" font-family="Arial, sans-serif" font-size="12" font-weight="600" fill="#5b6b7c"><tspan x="600.0" dy="0">lệnh / cảm biến</tspan></text><text x="600" y="680" text-anchor="middle" font-family="Arial, sans-serif" font-size="15" font-weight="600" fill="#5b6b7c"><tspan x="600" dy="0">Các module chỉ trao đổi qua điều khiển trung tâm để giữ logic vào/ra thống nhất.</tspan></text></svg>
