<svg xmlns="http://www.w3.org/2000/svg" width="1260" height="720" viewBox="0 0 1260 720">
<defs>
  <marker id="arrow" viewBox="0 0 10 10" refX="9" refY="5" markerWidth="8" markerHeight="8" orient="auto-start-reverse">
    <path d="M 0 0 L 10 5 L 0 10 z" fill="#39566f"/>
  </marker>
  <filter id="shadow" x="-10%" y="-10%" width="120%" height="130%">
    <feDropShadow dx="0" dy="2" stdDeviation="2" flood-color="#18324a" flood-opacity="0.18"/>
  </filter>
</defs>
<rect width="100%" height="100%" fill="#f7fafc"/>
<text x="630.0" y="38" text-anchor="middle" font-family="Arial, sans-serif" font-size="22" font-weight="700" fill="#18324a"><tspan x="630.0" dy="0">Chi tiết OCR và hậu xử lý biển số Việt Nam</tspan></text><rect x="60" y="115" width="190" height="92" rx="10" fill="#d9ecff" stroke="#39566f" stroke-width="2" filter="url(#shadow)"/><text x="155.0" y="158.0" text-anchor="middle" font-family="Arial, sans-serif" font-size="13" font-weight="600" fill="#18324a"><tspan x="155.0" dy="0">Vùng biển số</tspan><tspan x="155.0" dy="20">sau YOLO crop</tspan></text><rect x="330" y="80" width="190" height="72" rx="10" fill="#e9eef5" stroke="#39566f" stroke-width="2" filter="url(#shadow)"/><text x="425.0" y="113.0" text-anchor="middle" font-family="Arial, sans-serif" font-size="13" font-weight="600" fill="#18324a"><tspan x="425.0" dy="0">Ảnh gốc</tspan><tspan x="425.0" dy="20">Giữ chi tiết thật</tspan></text><rect x="330" y="180" width="190" height="72" rx="10" fill="#fff3c4" stroke="#39566f" stroke-width="2" filter="url(#shadow)"/><text x="425.0" y="213.0" text-anchor="middle" font-family="Arial, sans-serif" font-size="13" font-weight="600" fill="#18324a"><tspan x="425.0" dy="0">CLAHE</tspan><tspan x="425.0" dy="20">Tăng tương phản</tspan></text><rect x="330" y="280" width="190" height="72" rx="10" fill="#fff3c4" stroke="#39566f" stroke-width="2" filter="url(#shadow)"/><text x="425.0" y="313.0" text-anchor="middle" font-family="Arial, sans-serif" font-size="13" font-weight="600" fill="#18324a"><tspan x="425.0" dy="0">Otsu</tspan><tspan x="425.0" dy="20">Nhị phân hóa</tspan></text><line x1="250" y1="160" x2="330" y2="116" stroke="#39566f" stroke-width="2.4" marker-end="url(#arrow)"/><line x1="250" y1="160" x2="330" y2="216" stroke="#39566f" stroke-width="2.4" marker-end="url(#arrow)"/><line x1="250" y1="160" x2="330" y2="316" stroke="#39566f" stroke-width="2.4" marker-end="url(#arrow)"/><rect x="610" y="165" width="190" height="100" rx="10" fill="#dff7e6" stroke="#39566f" stroke-width="2" filter="url(#shadow)"/><text x="705.0" y="194.0" text-anchor="middle" font-family="Arial, sans-serif" font-size="13" font-weight="600" fill="#18324a"><tspan x="705.0" dy="0">PaddleOCR</tspan><tspan x="705.0" dy="20">Phát hiện dòng chữ</tspan><tspan x="705.0" dy="20">Nhận dạng ký tự</tspan><tspan x="705.0" dy="20">Trả confidence</tspan></text><line x1="520" y1="116" x2="610" y2="190" stroke="#39566f" stroke-width="2.4" marker-end="url(#arrow)"/><line x1="520" y1="216" x2="610" y2="216" stroke="#39566f" stroke-width="2.4" marker-end="url(#arrow)"/><line x1="520" y1="316" x2="610" y2="240" stroke="#39566f" stroke-width="2.4" marker-end="url(#arrow)"/><rect x="880" y="115" width="260" height="82" rx="10" fill="#eadfff" stroke="#39566f" stroke-width="2" filter="url(#shadow)"/><text x="1010.0" y="144.0" text-anchor="middle" font-family="Arial, sans-serif" font-size="13" font-weight="600" fill="#18324a"><tspan x="1010.0" dy="0">Ghép ứng viên</tspan><tspan x="1010.0" dy="20">full_text và từng dòng</tspan><tspan x="1010.0" dy="20">VD: 99E1 + 22268</tspan></text><rect x="880" y="235" width="260" height="82" rx="10" fill="#e9eef5" stroke="#39566f" stroke-width="2" filter="url(#shadow)"/><text x="1010.0" y="264.0" text-anchor="middle" font-family="Arial, sans-serif" font-size="13" font-weight="600" fill="#18324a"><tspan x="1010.0" dy="0">Chuẩn hóa</tspan><tspan x="1010.0" dy="20">Bỏ ký tự lạ</tspan><tspan x="1010.0" dy="20">Viết hoa</tspan></text><rect x="880" y="355" width="260" height="82" rx="10" fill="#ffe3e3" stroke="#39566f" stroke-width="2" filter="url(#shadow)"/><text x="1010.0" y="384.0" text-anchor="middle" font-family="Arial, sans-serif" font-size="13" font-weight="600" fill="#18324a"><tspan x="1010.0" dy="0">Sửa lỗi theo vị trí</tspan><tspan x="1010.0" dy="20">O↔0, I↔1, S↔5</tspan><tspan x="1010.0" dy="20">Chữ ở vị trí seri</tspan></text><rect x="880" y="475" width="260" height="82" rx="10" fill="#fff3c4" stroke="#39566f" stroke-width="2" filter="url(#shadow)"/><text x="1010.0" y="495.0" text-anchor="middle" font-family="Arial, sans-serif" font-size="13" font-weight="600" fill="#18324a"><tspan x="1010.0" dy="0">Chấm điểm</tspan><tspan x="1010.0" dy="20">confidence OCR</tspan><tspan x="1010.0" dy="20">+ điểm định dạng</tspan><tspan x="1010.0" dy="20">+ ưu tiên độ dài</tspan></text><line x1="800" y1="215" x2="880" y2="155" stroke="#39566f" stroke-width="2.4" marker-end="url(#arrow)"/><line x1="1010" y1="197" x2="1010" y2="235" stroke="#39566f" stroke-width="2.4" marker-end="url(#arrow)"/><line x1="1010" y1="317" x2="1010" y2="355" stroke="#39566f" stroke-width="2.4" marker-end="url(#arrow)"/><line x1="1010" y1="437" x2="1010" y2="475" stroke="#39566f" stroke-width="2.4" marker-end="url(#arrow)"/><rect x="485" y="575" width="290" height="78" rx="10" fill="#d9ecff" stroke="#39566f" stroke-width="2" filter="url(#shadow)"/><text x="630.0" y="602.0" text-anchor="middle" font-family="Arial, sans-serif" font-size="14" font-weight="600" fill="#18324a"><tspan x="630.0" dy="0">Kết quả cuối</tspan><tspan x="630.0" dy="20">Biển số có điểm cao nhất</tspan><tspan x="630.0" dy="20">và ảnh hiển thị rõ</tspan></text><line x1="880" y1="516" x2="775" y2="615" stroke="#39566f" stroke-width="2.4" marker-end="url(#arrow)"/><text x="630" y="690" text-anchor="middle" font-family="Arial, sans-serif" font-size="15" font-weight="700" fill="#5b6b7c"><tspan x="630" dy="0">Mục tiêu của hậu xử lý là biến kết quả OCR thô thành biển số hợp lệ theo cấu trúc thực tế.</tspan></text></svg>
