<svg xmlns="http://www.w3.org/2000/svg" width="1180" height="620" viewBox="0 0 1180 620">
<defs>
  <marker id="arrow" viewBox="0 0 10 10" refX="9" refY="5" markerWidth="8" markerHeight="8" orient="auto-start-reverse">
    <path d="M 0 0 L 10 5 L 0 10 z" fill="#39566f"/>
  </marker>
  <filter id="shadow" x="-10%" y="-10%" width="120%" height="130%">
    <feDropShadow dx="0" dy="2" stdDeviation="2" flood-color="#18324a" flood-opacity="0.18"/>
  </filter>
</defs>
<rect width="100%" height="100%" fill="#f7fafc"/>
<text x="590.0" y="38" text-anchor="middle" font-family="Arial, sans-serif" font-size="22" font-weight="700" fill="#18324a"><tspan x="590.0" dy="0">Tổ chức đa luồng trong hệ thống</tspan></text><rect x="80" y="110" width="220" height="110" rx="10" fill="#eadfff" stroke="#39566f" stroke-width="2" filter="url(#shadow)"/><text x="190.0" y="153.0" text-anchor="middle" font-family="Arial, sans-serif" font-size="15" font-weight="600" fill="#18324a"><tspan x="190.0" dy="0">Luồng giao diện</tspan><tspan x="190.0" dy="20">Tkinter mainloop</tspan><tspan x="190.0" dy="20">Cập nhật mỗi chu kỳ</tspan></text><rect x="380" y="90" width="190" height="90" rx="10" fill="#d9ecff" stroke="#39566f" stroke-width="2" filter="url(#shadow)"/><text x="475.0" y="132.0" text-anchor="middle" font-family="Arial, sans-serif" font-size="13" font-weight="600" fill="#18324a"><tspan x="475.0" dy="0">Luồng camera vào</tspan><tspan x="475.0" dy="20">Đọc frame liên tục</tspan></text><rect x="610" y="90" width="190" height="90" rx="10" fill="#d9ecff" stroke="#39566f" stroke-width="2" filter="url(#shadow)"/><text x="705.0" y="132.0" text-anchor="middle" font-family="Arial, sans-serif" font-size="13" font-weight="600" fill="#18324a"><tspan x="705.0" dy="0">Luồng camera ra</tspan><tspan x="705.0" dy="20">Đọc frame liên tục</tspan></text><rect x="380" y="250" width="190" height="90" rx="10" fill="#dff7e6" stroke="#39566f" stroke-width="2" filter="url(#shadow)"/><text x="475.0" y="292.0" text-anchor="middle" font-family="Arial, sans-serif" font-size="13" font-weight="600" fill="#18324a"><tspan x="475.0" dy="0">Luồng AI</tspan><tspan x="475.0" dy="20">YOLO + OCR</tspan></text><rect x="610" y="250" width="190" height="90" rx="10" fill="#fff3c4" stroke="#39566f" stroke-width="2" filter="url(#shadow)"/><text x="705.0" y="292.0" text-anchor="middle" font-family="Arial, sans-serif" font-size="13" font-weight="600" fill="#18324a"><tspan x="705.0" dy="0">Luồng cảm biến</tspan><tspan x="705.0" dy="20">Đọc Serial</tspan></text><rect x="890" y="190" width="210" height="110" rx="10" fill="#e9eef5" stroke="#39566f" stroke-width="2" filter="url(#shadow)"/><text x="995.0" y="233.0" text-anchor="middle" font-family="Arial, sans-serif" font-size="13" font-weight="600" fill="#18324a"><tspan x="995.0" dy="0">Bộ điều khiển</tspan><tspan x="995.0" dy="20">Trạng thái chung</tspan><tspan x="995.0" dy="20">Hàng đợi sự kiện</tspan></text><path d="M 300 165 C 595.0 165, 595.0 220, 890 220" fill="none" stroke="#39566f" stroke-width="2.4" marker-end="url(#arrow)"/><text x="595.0" y="184.5" text-anchor="middle" font-family="Arial, sans-serif" font-size="12" font-weight="600" fill="#5b6b7c"><tspan x="595.0" dy="0">poll trạng thái</tspan></text><path d="M 475 180 C 682.5 180, 682.5 220, 890 220" fill="none" stroke="#39566f" stroke-width="2.4" marker-end="url(#arrow)"/><text x="682.5" y="192.0" text-anchor="middle" font-family="Arial, sans-serif" font-size="12" font-weight="600" fill="#5b6b7c"><tspan x="682.5" dy="0">frame vào</tspan></text><path d="M 705 180 C 817.5 180, 817.5 220, 930 220" fill="none" stroke="#39566f" stroke-width="2.4" marker-end="url(#arrow)"/><text x="817.5" y="192.0" text-anchor="middle" font-family="Arial, sans-serif" font-size="12" font-weight="600" fill="#5b6b7c"><tspan x="817.5" dy="0">frame ra</tspan></text><line x1="475" y1="250" x2="890" y2="255" stroke="#39566f" stroke-width="2.4" marker-end="url(#arrow)"/><text x="682.5" y="244.5" text-anchor="middle" font-family="Arial, sans-serif" font-size="12" font-weight="600" fill="#5b6b7c"><tspan x="682.5" dy="0">kết quả AI</tspan></text><line x1="705" y1="250" x2="890" y2="255" stroke="#39566f" stroke-width="2.4" marker-end="url(#arrow)"/><text x="797.5" y="244.5" text-anchor="middle" font-family="Arial, sans-serif" font-size="12" font-weight="600" fill="#5b6b7c"><tspan x="797.5" dy="0">cảm biến</tspan></text><text x="590" y="500" text-anchor="middle" font-family="Arial, sans-serif" font-size="16" font-weight="700" fill="#5b6b7c"><tspan x="590" dy="0">Mục tiêu: AI, camera và Serial không làm treo giao diện.</tspan></text></svg>
